<?xml version="1.0" encoding="UTF-8"?>
<svg xmlns="http://www.w3.org/2000/svg" xmlns:xlink="http://www.w3.org/1999/xlink" version="1.2" >
<font id="Audiowide">
<font-face  font-family="Audiowide" units-per-em="2048" ascent="2027" descent="-584" font-style="normal" font-weight="400" font-stretch="normal" cap-height="1434" x-height="1083" underline-position="-154" underline-thickness="102" />
<missing-glyph  horiz-adv-x="666" d="" />
<glyph glyph-name="space" unicode="&#x20;" horiz-adv-x="666" d="" />
<glyph glyph-name="dollar" unicode="&#x24;" horiz-adv-x="1088" d="M1013 717 Q1013 624 995.5 553.5 Q978 483 949 430.5 Q920 378 883 343 Q846 308 807 287 Q768 266 730 257 Q692 248 661 248 L661 0 L427 0 L427 248 L192 248 L192 481 L659 481 Q666 481 679.5 485 Q693 489 709 501.5 Q725 514 740 537.5 Q755 561 765 600 L192 600 Q168 600 146.5 609 Q125 618 109.5 633.5 Q94 649 84.5 670.5 Q75 692 75 717 Q75 803 90 868.5 Q105 934 129 982.5 Q153 1031 182 1064 Q211 1097 239 1118 Q271 1143 302.5 1156.5 Q334 1170 359.5 1176.5 Q385 1183 403 1184.5 Q421 1186 427 1186 L427 1434 L661 1434 L661 1186 L896 1186 L896 952 L429 952 Q423 952 409.5 948 Q396 944 380 932 Q364 920 348.5 896.5 Q333 873 323 834 L896 834 Q921 834 942 825 Q963 816 979 800 Q995 784 1004 762.5 Q1013 741 1013 717 Z " />
<glyph glyph-name="percent" unicode="&#x25;" horiz-adv-x="1774" d="M1695 365 Q1695 295 1668.5 233.5 Q1642 172 1596 126 Q1550 80 1488.5 53.5 Q1427 27 1357 27 Q1286 27 1224.5 53.5 Q1163 80 1116.5 126 Q1070 172 1043.5 233.5 Q1017 295 1017 365 Q1017 435 1043.5 496.5 Q1070 558 1116.5 604.5 Q1163 651 1224.5 678 Q1286 705 1357 705 Q1427 705 1488.5 678 Q1550 651 1596 604.5 Q1642 558 1668.5 496.5 Q1695 435 1695 365 Z M1367 1303 L630 12 L390 12 L1128 1303 L1367 1303 Z M757 952 Q757 881 730.5 819.5 Q704 758 657.5 711.5 Q611 665 549 638.5 Q487 612 417 612 Q347 612 285.5 638.5 Q224 665 178 711.5 Q132 758 105.5 819.5 Q79 881 79 952 Q79 1022 105.5 1083.5 Q132 1145 178 1191 Q224 1237 285.5 1263.5 Q347 1290 417 1290 Q487 1290 549 1263.5 Q611 1237 657.5 1191 Q704 1145 730.5 1083.5 Q757 1022 757 952 Z M1486 365 Q1486 392 1476 415.5 Q1466 439 1448.5 457 Q1431 475 1407.5 485.5 Q1384 496 1357 496 Q1330 496 1306 485.5 Q1282 475 1264.5 457 Q1247 439 1236.5 415.5 Q1226 392 1226 365 Q1226 338 1236.5 314.5 Q1247 291 1264.5 273.5 Q1282 256 1306 246 Q1330 236 1357 236 Q1384 236 1407.5 246 Q1431 256 1448.5 273.5 Q1466 291 1476 314.5 Q1486 338 1486 365 Z M548 952 Q548 979 538 1002.5 Q528 1026 510.5 1043.5 Q493 1061 469 1071 Q445 1081 417 1081 Q390 1081 366.5 1071 Q343 1061 325.5 1043.5 Q308 1026 298 1002.5 Q288 979 288 952 Q288 925 298 901 Q308 877 325.5 859 Q343 841 366.5 831 Q390 821 417 821 Q445 821 469 831 Q493 841 510.5 859 Q528 877 538 901 Q548 925 548 952 Z " />
<glyph glyph-name="ampersand" unicode="&#x26;" horiz-adv-x="1375" d="M1298 365 L1181 365 L1179 362 Q1179 298 1162.5 247 Q1146 196 1119 157.5 Q1092 119 1056 91 Q1020 63 981.5 45.5 Q943 28 903.5 20 Q864 12 829 12 L476 12 Q383 12 317.5 47 Q252 82 209.5 134 Q167 186 146.5 247 Q126 308 124 360 L124 481 Q124 560 146.5 617.5 Q169 675 206 717 Q163 771 143.5 834 Q124 897 124 952 Q124 1049 159 1116 Q194 1183 247 1224.5 Q300 1266 361.5 1284.5 Q423 1303 476 1303 L1062 1303 L1062 1069 L476 1069 Q449 1069 427.5 1060.5 Q406 1052 390.5 1036 Q375 1020 367 998.5 Q359 977 360 952 Q360 895 392 864.5 Q424 834 476 834 L829 834 L829 600 L476 600 Q421 600 390.5 566 Q360 532 360 481 L360 369 Q360 315 392.5 281.5 Q425 248 476 248 L827 248 Q882 248 913.5 281 Q945 314 945 365 Q945 408 960 450 Q975 492 1005 525.5 Q1035 559 1078.5 579.5 Q1122 600 1179 600 L1298 600 L1298 365 Z " />
<glyph glyph-name="parenleft" unicode="&#x28;" horiz-adv-x="875" d="M861 1655 L769 1563 Q768 1562 735.5 1527.5 Q703 1493 655 1433 Q607 1373 551.5 1292 Q496 1211 448 1117.5 Q400 1024 368.5 921.5 Q337 819 337 717 Q337 614 368.5 512 Q400 410 448 316.5 Q496 223 551.5 142 Q607 61 655 1 Q703 -59 735.5 -93.5 Q768 -128 769 -129 L861 -221 L501 -221 Q465 -179 419.5 -120.5 Q374 -62 327 10 Q280 82 235 164.5 Q190 247 155 337.5 Q120 428 98.5 523.5 Q77 619 77 717 Q77 815 98.5 910.5 Q120 1006 155 1096.5 Q190 1187 235 1269.5 Q280 1352 327 1424 Q374 1496 419.5 1554.5 Q465 1613 501 1655 L861 1655 Z " />
<glyph glyph-name="parenright" unicode="&#x29;" horiz-adv-x="875" d="M798 717 Q798 619 776.5 523.5 Q755 428 720 337.5 Q685 247 640 164.5 Q595 82 547.5 10 Q500 -62 455 -120.5 Q410 -179 374 -221 L14 -221 L106 -129 Q107 -128 139 -93.5 Q171 -59 219 1 Q267 61 322.5 142 Q378 223 425.5 316.5 Q473 410 504.5 512.5 Q536 615 536 717 Q536 819 504.5 921.5 Q473 1024 425.5 1117.5 Q378 1211 322.5 1292 Q267 1373 219 1433 Q171 1493 139 1527.5 Q107 1562 106 1563 L14 1655 L374 1655 Q410 1613 455 1554.5 Q500 1496 547.5 1424 Q595 1352 640 1269.5 Q685 1187 720 1096.5 Q755 1006 776.5 910.5 Q798 815 798 717 Z " />
<glyph glyph-name="asterisk" unicode="&#x2a;" horiz-adv-x="1111" d="M452 1176 L452 1434 L661 1434 L661 1178 L857 1319 L980 1149 L735 973 L980 797 L857 627 L661 768 L661 512 L452 512 L452 768 L253 627 L132 797 L376 973 L132 1149 L253 1319 L452 1176 Z " />
<glyph glyph-name="plus" unicode="&#x2b;" horiz-adv-x="1104" d="M1021 600 L669 600 L669 248 L436 248 L436 600 L83 600 L83 834 L436 834 L436 1186 L669 1186 L669 834 L1021 834 L1021 600 Z " />
<glyph glyph-name="hyphen" unicode="&#x2d;" horiz-adv-x="1170" d="M1054 600 L116 600 L116 834 L1054 834 L1054 600 Z " />
<glyph glyph-name="slash" unicode="&#x2f;" horiz-adv-x="1350" d="M1269 1434 L364 0 L85 0 L991 1434 L1269 1434 Z " />
<glyph glyph-name="zero" unicode="0" horiz-adv-x="1895" d="M1783 600 Q1783 512 1760.5 433.5 Q1738 355 1697 288 Q1656 221 1600 168 Q1544 115 1477.5 77.5 Q1411 40 1336 20 Q1261 0 1183 0 L714 0 Q635 0 560 20 Q485 40 418.5 77.5 Q352 115 296 168 Q240 221 199.5 288 Q159 355 136.5 433.5 Q114 512 114 600 L114 834 Q114 966 163.5 1076 Q213 1186 296 1265.5 Q379 1345 487.5 1389.5 Q596 1434 714 1434 L1183 1434 Q1261 1434 1336 1414 Q1411 1394 1477.5 1356.5 Q1544 1319 1600 1266 Q1656 1213 1697 1146 Q1738 1079 1760.5 1000.5 Q1783 922 1783 834 L1783 600 Z M1521 834 Q1521 911 1493 974 Q1465 1037 1418.5 1082 Q1372 1127 1311 1151 Q1250 1175 1183 1174 L714 1174 Q649 1175 587.5 1151.5 Q526 1128 478.5 1083.5 Q431 1039 402.5 975.5 Q374 912 374 834 L374 600 Q374 522 402 459 Q430 396 477 351.5 Q524 307 585.5 283 Q647 259 714 260 L1183 260 Q1260 260 1322.5 285.5 Q1385 311 1429 356 Q1473 401 1497 463.5 Q1521 526 1521 600 L1521 834 Z M1408 1024 Q1423 1002 1428 976.5 Q1433 951 1428 926.5 Q1423 902 1408.5 880.5 Q1394 859 1371 844 L669 375 Q652 362 634 357 Q616 352 597 352 Q565 352 536 367 Q507 382 489 410 Q474 432 469 457.5 Q464 483 468.5 507.5 Q473 532 487 553.5 Q501 575 524 590 L1228 1059 Q1250 1074 1275.5 1079 Q1301 1084 1325.5 1079 Q1350 1074 1371.5 1060 Q1393 1046 1408 1024 Z " />
<glyph glyph-name="one" unicode="1" horiz-adv-x="726" d="M567 0 L306 0 L306 1174 L71 1174 L71 1434 L567 1434 L567 0 Z " />
<glyph glyph-name="two" unicode="2" horiz-adv-x="1541" d="M1423 0 L106 0 L106 481 Q106 518 114.5 559.5 Q123 601 141 642 Q159 683 187.5 720 Q216 757 256.5 785.5 Q297 814 350 831 Q403 848 470 848 L1056 848 Q1109 848 1134.5 874.5 Q1160 901 1160 952 L1160 1067 Q1160 1120 1134 1147 Q1108 1174 1058 1174 L223 1174 L223 1434 L1058 1434 Q1124 1434 1177 1417 Q1230 1400 1270.5 1371.5 Q1311 1343 1340 1306 Q1369 1269 1387.5 1228.5 Q1406 1188 1414.5 1146.5 Q1423 1105 1423 1069 L1423 952 Q1423 851 1386.5 781.5 Q1350 712 1295 668.5 Q1240 625 1176.5 605.5 Q1113 586 1058 586 L470 586 Q438 586 419 577 Q400 568 389.5 553 Q379 538 374 519 Q369 500 366 481 L366 260 L1423 260 L1423 0 Z " />
<glyph glyph-name="three" unicode="3" horiz-adv-x="1473" d="M1333 365 Q1333 264 1296.5 194.5 Q1260 125 1205.5 81.5 Q1151 38 1087 19 Q1023 0 968 0 L134 0 L134 260 L968 260 Q1021 260 1046.5 287 Q1072 314 1072 365 L1072 586 L134 586 L134 848 L1072 848 L1072 1067 Q1072 1174 968 1174 L134 1174 L134 1434 L968 1434 Q1035 1434 1088 1417 Q1141 1400 1181.5 1371.5 Q1222 1343 1251 1306 Q1280 1269 1298 1228.5 Q1316 1188 1324.5 1146.5 Q1333 1105 1333 1069 L1333 365 Z " />
<glyph glyph-name="four" unicode="4" horiz-adv-x="1584" d="M1425 0 L1163 0 L1163 586 L239 586 Q211 586 187 596.5 Q163 607 145.5 624.5 Q128 642 118 666 Q108 690 108 717 L108 1434 L368 1434 L368 848 L1163 848 L1163 1434 L1425 1434 L1425 0 Z " />
<glyph glyph-name="five" unicode="5" horiz-adv-x="1537" d="M1445 365 Q1445 328 1436.5 287 Q1428 246 1409.5 205.5 Q1391 165 1362.5 128 Q1334 91 1293.5 62.5 Q1253 34 1200 17 Q1147 0 1081 0 L128 0 L128 260 L1081 260 Q1130 260 1156.5 290 Q1183 320 1183 365 L1183 481 Q1183 532 1157 559 Q1131 586 1079 586 L493 586 Q392 586 322.5 622.5 Q253 659 210 714 Q167 769 147.5 833 Q128 897 128 952 L128 1434 L1326 1434 L1326 1174 L388 1174 L388 952 Q388 900 415 874 Q442 848 493 848 L1081 848 Q1135 848 1199 828.5 Q1263 809 1317.5 765.5 Q1372 722 1408.5 652 Q1445 582 1445 481 L1445 365 Z " />
<glyph glyph-name="six" unicode="6" horiz-adv-x="1524" d="M382 848 L1074 848 Q1129 848 1192.5 828.5 Q1256 809 1311 765.5 Q1366 722 1402.5 652 Q1439 582 1439 481 L1439 365 Q1439 328 1430.5 287 Q1422 246 1403.5 205.5 Q1385 165 1356.5 128 Q1328 91 1287.5 62.5 Q1247 34 1194 17 Q1141 0 1074 0 L603 0 Q555 0 500.5 11 Q446 22 393 46.5 Q340 71 290.5 108.5 Q241 146 204 199.5 Q167 253 144.5 323 Q122 393 122 481 L122 952 Q122 1040 144.5 1110 Q167 1180 204 1233.5 Q241 1287 290.5 1325 Q340 1363 393 1387.5 Q446 1412 500.5 1423 Q555 1434 603 1434 L1255 1434 L1255 1174 L603 1174 Q553 1170 512.5 1153 Q472 1136 443 1108 Q414 1080 398 1040.5 Q382 1001 382 952 L382 848 Z M382 586 L382 481 Q382 430 399.5 389.5 Q417 349 447 320 Q477 291 517.5 275.5 Q558 260 605 260 L1074 260 Q1124 260 1150.5 290 Q1177 320 1177 365 L1177 481 Q1177 532 1151 559 Q1125 586 1072 586 L382 586 Z " />
<glyph glyph-name="seven" unicode="7" horiz-adv-x="1313" d="M1249 1368 Q1266 1337 1266 1302.5 Q1266 1268 1249 1237 L528 0 L227 0 L909 1174 L67 1174 L67 1434 L1136 1434 Q1171 1434 1201.5 1416.5 Q1232 1399 1249 1368 Z " />
<glyph glyph-name="eight" unicode="8" horiz-adv-x="1528" d="M1423 365 Q1423 328 1414.5 287 Q1406 246 1387.5 205.5 Q1369 165 1340 128 Q1311 91 1270.5 62.5 Q1230 34 1177 17 Q1124 0 1058 0 L470 0 Q416 0 352 19 Q288 38 233.5 81.5 Q179 125 142.5 194.5 Q106 264 106 365 L106 481 Q106 519 114.5 561 Q123 603 141.5 644 Q160 685 189 722 Q218 759 259 786 Q241 828 232 871 Q223 914 223 952 L223 1069 Q223 1169 259.5 1239 Q296 1309 350.5 1352 Q405 1395 469 1414.5 Q533 1434 587 1434 L939 1434 Q1006 1434 1059.5 1417 Q1113 1400 1153.5 1371.5 Q1194 1343 1222.5 1306 Q1251 1269 1269 1228.5 Q1287 1188 1295.5 1146.5 Q1304 1105 1304 1069 L1304 952 Q1304 854 1269 782 Q1301 761 1329 732.5 Q1357 704 1378 667 Q1399 630 1411 583.5 Q1423 537 1423 481 L1423 365 Z M1044 1067 Q1044 1120 1017 1147 Q990 1174 939 1174 L589 1174 Q536 1174 510.5 1147 Q485 1120 485 1069 L485 952 Q485 900 511.5 874 Q538 848 587 848 L939 848 Q992 848 1018 874.5 Q1044 901 1044 952 L1044 1067 Z M1160 481 Q1160 531 1132.5 558.5 Q1105 586 1058 586 L470 586 Q422 586 394 556 Q366 526 366 481 L366 365 Q366 317 395.5 288.5 Q425 260 470 260 L1058 260 Q1108 260 1134 290 Q1160 320 1160 365 L1160 481 Z " />
<glyph glyph-name="nine" unicode="9" horiz-adv-x="1524" d="M85 952 L85 1069 Q85 1105 93.5 1146.5 Q102 1188 120 1228.5 Q138 1269 167 1306 Q196 1343 236.5 1371.5 Q277 1400 330 1417 Q383 1434 450 1434 L919 1434 Q967 1434 1022 1423 Q1077 1412 1130.5 1387.5 Q1184 1363 1233 1325 Q1282 1287 1319.5 1233.5 Q1357 1180 1379.5 1110 Q1402 1040 1402 952 L1402 481 Q1402 393 1379.5 323 Q1357 253 1319.5 199.5 Q1282 146 1233 108.5 Q1184 71 1130.5 46.5 Q1077 22 1022 11 Q967 0 919 0 L270 0 L270 260 L919 260 Q968 264 1008.5 280 Q1049 296 1078.5 323.5 Q1108 351 1124 390.5 Q1140 430 1140 481 L1140 586 L450 586 Q413 586 372 594.5 Q331 603 290.5 621.5 Q250 640 213 668.5 Q176 697 147.5 738 Q119 779 102 832 Q85 885 85 952 Z M1140 952 Q1140 1003 1123 1044 Q1106 1085 1076.5 1114 Q1047 1143 1006.5 1158.5 Q966 1174 919 1174 L450 1174 Q402 1174 373.5 1144 Q345 1114 345 1069 L345 952 Q345 901 372 874.5 Q399 848 452 848 L1140 848 L1140 952 Z " />
<glyph glyph-name="equal" unicode="&#x3d;" horiz-adv-x="1211" d="M1074 834 L136 834 L136 1069 L1074 1069 L1074 834 Z M1074 365 L136 365 L136 600 L1074 600 L1074 365 Z " />
<glyph glyph-name="question" unicode="&#x3f;" horiz-adv-x="1363" d="M1277 952 Q1277 897 1258 833 Q1239 769 1195.5 714 Q1152 659 1082.5 622.5 Q1013 586 913 586 L692 586 L692 352 L431 352 L431 717 Q431 744 441 767.5 Q451 791 468.5 809 Q486 827 509.5 837.5 Q533 848 560 848 L913 848 Q964 848 990.5 874 Q1017 900 1017 952 L1017 1069 Q1017 1120 991 1147 Q965 1174 913 1174 L79 1174 L79 1434 L913 1434 Q968 1434 1032 1414.5 Q1096 1395 1150.5 1352 Q1205 1309 1241 1239 Q1277 1169 1277 1069 L1277 952 Z M689 131 Q689 104 679 80.5 Q669 57 651.5 39.5 Q634 22 610.5 12 Q587 2 560 2 Q534 2 510.5 12 Q487 22 469.5 39.5 Q452 57 441.5 80.5 Q431 104 431 131 Q431 157 441.5 180.5 Q452 204 469.5 221.5 Q487 239 510.5 249.5 Q534 260 560 260 Q587 260 610.5 249.5 Q634 239 651.5 221.5 Q669 204 679 180.5 Q689 157 689 131 Z " />
<glyph glyph-name="A" unicode="A" horiz-adv-x="1709" d="M1558 0 L1298 0 L1298 352 L384 352 L384 0 L124 0 L124 717 Q124 874 178 1006 Q232 1138 328 1233 Q424 1328 555 1381 Q686 1434 841 1434 L1427 1434 Q1454 1434 1478 1424 Q1502 1414 1520 1396 Q1538 1378 1548 1354 Q1558 1330 1558 1303 L1558 0 Z M384 612 L1298 612 L1298 1174 L841 1174 Q829 1174 790.5 1170.5 Q752 1167 701.5 1153 Q651 1139 595 1110 Q539 1081 492 1030 Q445 979 414.5 902.5 Q384 826 384 717 L384 612 Z " />
<glyph glyph-name="B" unicode="B" horiz-adv-x="1657" d="M1582 315 Q1582 267 1565.5 212 Q1549 157 1511.5 110 Q1474 63 1414 31.5 Q1354 0 1267 0 L280 0 Q252 0 228 10 Q204 20 186.5 37.5 Q169 55 159 79 Q149 103 149 131 L149 1303 Q149 1330 159 1354 Q169 1378 186.5 1396 Q204 1414 228 1424 Q252 1434 280 1434 L1150 1434 Q1198 1434 1253 1417 Q1308 1400 1355.5 1362.5 Q1403 1325 1434.5 1265 Q1466 1205 1466 1118 L1466 1069 Q1466 1000 1443 920.5 Q1420 841 1369 770 Q1413 743 1451.5 705 Q1490 667 1519 617 Q1548 567 1565 504 Q1582 441 1582 365 L1582 315 Z M1322 365 Q1322 416 1306 456.5 Q1290 497 1261 526 Q1232 555 1191 570.5 Q1150 586 1099 586 L513 586 L513 848 L982 848 Q1033 848 1074 863.5 Q1115 879 1144 908 Q1173 937 1188.5 977.5 Q1204 1018 1204 1069 L1204 1118 Q1204 1174 1150 1174 L409 1174 L409 260 L1267 260 Q1274 260 1284 261 Q1294 262 1302 267 Q1310 272 1316 284 Q1322 296 1322 317 L1322 365 Z " />
<glyph glyph-name="C" unicode="C" horiz-adv-x="1530" d="M1435 0 L497 0 Q461 0 419.5 8.5 Q378 17 337.5 35 Q297 53 260 81.5 Q223 110 194.5 150.5 Q166 191 149 244.5 Q132 298 132 365 L132 1069 Q132 1105 140.5 1146.5 Q149 1188 167 1228.5 Q185 1269 214 1306 Q243 1343 283.5 1371.5 Q324 1400 377 1417 Q430 1434 497 1434 L1435 1434 L1435 1174 L497 1174 Q446 1174 419 1147 Q392 1120 392 1067 L392 365 Q392 315 419.5 287.5 Q447 260 497 260 L1435 260 L1435 0 Z " />
<glyph glyph-name="D" unicode="D" horiz-adv-x="1686" d="M1582 600 Q1582 469 1536.5 359 Q1491 249 1411 169.5 Q1331 90 1221 45 Q1111 0 982 0 L280 0 Q252 0 228 10 Q204 20 186.5 37.5 Q169 55 159 79 Q149 103 149 131 L149 1303 Q149 1330 159 1354 Q169 1378 186.5 1396 Q204 1414 228 1424 Q252 1434 280 1434 L982 1434 Q1111 1434 1221 1389 Q1331 1344 1411 1264.5 Q1491 1185 1536.5 1074.5 Q1582 964 1582 834 L1582 600 Z M1322 834 Q1322 910 1297.5 973 Q1273 1036 1228 1080.5 Q1183 1125 1120.5 1149.5 Q1058 1174 982 1174 L409 1174 L409 260 L982 260 Q1058 260 1120.5 284.5 Q1183 309 1228 353.5 Q1273 398 1297.5 460.5 Q1322 523 1322 600 L1322 834 Z " />
<glyph glyph-name="E" unicode="E" horiz-adv-x="1547" d="M1330 586 L509 586 L509 848 L1330 848 L1330 586 Z M1447 0 L509 0 Q455 0 391 19 Q327 38 272.5 81.5 Q218 125 181.5 194.5 Q145 264 145 365 L145 1303 Q145 1330 155 1354 Q165 1378 182.5 1396 Q200 1414 224 1424 Q248 1434 276 1434 L1447 1434 L1447 1174 L405 1174 L405 365 Q405 314 432 287 Q459 260 511 260 L1447 260 L1447 0 Z " />
<glyph glyph-name="F" unicode="F" horiz-adv-x="1512" d="M1337 586 L515 586 L515 848 L1337 848 L1337 586 Z M1453 1174 L411 1174 L411 0 L151 0 L151 1303 Q151 1330 161 1354 Q171 1378 188.5 1396 Q206 1414 230 1424 Q254 1434 282 1434 L1453 1434 L1453 1174 Z " />
<glyph glyph-name="G" unicode="G" horiz-adv-x="1686" d="M1566 131 Q1566 103 1556 79 Q1546 55 1528.5 37.5 Q1511 20 1487 10 Q1463 0 1435 0 L497 0 Q461 0 419.5 8.5 Q378 17 337.5 35 Q297 53 260 81.5 Q223 110 194.5 150.5 Q166 191 149 244.5 Q132 298 132 365 L132 1069 Q132 1105 140.5 1146.5 Q149 1188 167 1228.5 Q185 1269 214 1306 Q243 1343 283.5 1371.5 Q324 1400 377 1417 Q430 1434 497 1434 L1554 1434 L1554 1174 L497 1174 Q446 1174 419 1147 Q392 1120 392 1067 L392 365 Q392 315 419.5 287.5 Q447 260 497 260 L1306 260 L1306 586 L614 586 L614 848 L1435 848 Q1463 848 1487 837.5 Q1511 827 1528.5 809 Q1546 791 1556 767.5 Q1566 744 1566 717 L1566 131 Z " />
<glyph glyph-name="H" unicode="H" horiz-adv-x="1739" d="M413 848 L1326 848 L1326 1434 L1586 1434 L1586 0 L1326 0 L1326 586 L413 586 L413 0 L153 0 L153 1434 L413 1434 L413 848 Z " />
<glyph glyph-name="I" unicode="I" horiz-adv-x="566" d="M413 0 L153 0 L153 1434 L413 1434 L413 0 Z " />
<glyph glyph-name="J" unicode="J" horiz-adv-x="1504" d="M1357 365 Q1357 287 1330 220 Q1303 153 1254.5 104 Q1206 55 1139 27.5 Q1072 0 993 0 L40 0 L40 260 L993 260 Q1041 260 1068 287.5 Q1095 315 1095 365 L1095 1434 L1357 1434 L1357 365 Z " />
<glyph glyph-name="K" unicode="K" horiz-adv-x="1666" d="M1654 0 L1285 0 L700 586 L517 586 L517 848 L700 848 L1285 1434 L1654 1434 L917 717 L1654 0 Z M413 0 L153 0 L153 1434 L413 1434 L413 0 Z " />
<glyph glyph-name="L" unicode="L" horiz-adv-x="1508" d="M1468 0 L282 0 Q254 0 230 10 Q206 20 188.5 37.5 Q171 55 161 79 Q151 103 151 131 L151 1434 L411 1434 L411 260 L1468 260 L1468 0 Z " />
<glyph glyph-name="M" unicode="M" horiz-adv-x="1971" d="M1820 0 L1558 0 L1558 854 L1097 43 Q1080 12 1049.5 -4 Q1019 -20 984 -20 Q950 -20 920.5 -4 Q891 12 874 43 L411 854 L411 0 L151 0 L151 1323 Q151 1368 177.5 1403 Q204 1438 247 1450 Q268 1455 289 1453.5 Q310 1452 329.5 1444.5 Q349 1437 365 1423.5 Q381 1410 392 1391 L984 362 L1576 1391 Q1599 1429 1639.5 1445 Q1680 1461 1724 1450 Q1766 1438 1793 1403 Q1820 1368 1820 1323 L1820 0 Z " />
<glyph glyph-name="N" unicode="N" horiz-adv-x="1735" d="M1584 111 Q1584 83 1573.5 59 Q1563 35 1545.5 17.5 Q1528 0 1504 -10 Q1480 -20 1453 -20 Q1429 -20 1404.5 -11 Q1380 -2 1361 18 L411 1010 L411 0 L151 0 L151 1323 Q151 1363 173.5 1395.5 Q196 1428 231 1444 Q268 1459 307 1451.5 Q346 1444 374 1415 L1324 424 L1324 1434 L1584 1434 L1584 111 Z " />
<glyph glyph-name="O" unicode="O" horiz-adv-x="1762" d="M1656 580 Q1656 449 1611 339 Q1566 229 1486 149 Q1406 69 1296.5 24.5 Q1187 -20 1058 -20 L706 -20 Q577 -20 467 24.5 Q357 69 277 149 Q197 229 151.5 339 Q106 449 106 580 L106 854 Q106 984 151.5 1094.5 Q197 1205 277 1284.5 Q357 1364 467 1409 Q577 1454 706 1454 L1058 1454 Q1187 1454 1296.5 1409 Q1406 1364 1486 1284.5 Q1566 1205 1611 1094.5 Q1656 984 1656 854 L1656 580 Z M1396 854 Q1396 931 1371.5 993.5 Q1347 1056 1302.5 1100.5 Q1258 1145 1195.5 1169.5 Q1133 1194 1058 1194 L706 1194 Q630 1194 567.5 1169.5 Q505 1145 460 1100.5 Q415 1056 390.5 993.5 Q366 931 366 854 L366 580 Q366 503 390.5 440.5 Q415 378 460 333.5 Q505 289 567.5 264.5 Q630 240 706 240 L1056 240 Q1132 240 1194.5 264.5 Q1257 289 1302 333.5 Q1347 378 1371.5 440.5 Q1396 503 1396 580 L1396 854 Z " />
<glyph glyph-name="P" unicode="P" horiz-adv-x="1651" d="M1580 834 Q1580 745 1558 675 Q1536 605 1498.5 551.5 Q1461 498 1412 460 Q1363 422 1309.5 398 Q1256 374 1201.5 363 Q1147 352 1099 352 L511 352 L511 612 L1099 612 Q1149 616 1189.5 632.5 Q1230 649 1259 677 Q1288 705 1304 744.5 Q1320 784 1320 834 L1320 952 Q1315 1001 1299 1042 Q1283 1083 1255.5 1112 Q1228 1141 1189 1157.5 Q1150 1174 1099 1174 L513 1174 Q461 1174 434 1147 Q407 1120 407 1069 L407 0 L147 0 L147 1069 Q147 1169 183.5 1239 Q220 1309 274.5 1352 Q329 1395 393 1414.5 Q457 1434 511 1434 L1099 1434 Q1187 1434 1257 1411.5 Q1327 1389 1380.5 1351.5 Q1434 1314 1471.5 1265 Q1509 1216 1533.5 1162.5 Q1558 1109 1569 1054.5 Q1580 1000 1580 952 L1580 834 Z " />
<glyph glyph-name="Q" unicode="Q" horiz-adv-x="1762" d="M1656 580 Q1656 480 1629.5 391.5 Q1603 303 1554.5 231 Q1506 159 1437.5 105 Q1369 51 1285 20 L1589 -221 L1212 -221 L962 -20 L706 -20 Q577 -20 467 24.5 Q357 69 277 149 Q197 229 151.5 339 Q106 449 106 580 L106 854 Q106 984 151.5 1094.5 Q197 1205 277 1284.5 Q357 1364 467 1409 Q577 1454 706 1454 L1058 1454 Q1187 1454 1296.5 1409 Q1406 1364 1486 1284.5 Q1566 1205 1611 1094.5 Q1656 984 1656 854 L1656 580 Z M1396 854 Q1396 931 1371.5 993.5 Q1347 1056 1302.5 1100.5 Q1258 1145 1195.5 1169.5 Q1133 1194 1058 1194 L706 1194 Q630 1194 567.5 1169.5 Q505 1145 460 1100.5 Q415 1056 390.5 993.5 Q366 931 366 854 L366 580 Q366 503 390.5 440.5 Q415 378 460 333.5 Q505 289 567.5 264.5 Q630 240 706 240 L1056 240 Q1132 240 1194.5 264.5 Q1257 289 1302 333.5 Q1347 378 1371.5 440.5 Q1396 503 1396 580 L1396 854 Z " />
<glyph glyph-name="R" unicode="R" horiz-adv-x="1694" d="M1584 952 Q1584 863 1562 793 Q1540 723 1502.5 669.5 Q1465 616 1416 578 Q1367 540 1313.5 515.5 Q1260 491 1205.5 480 Q1151 469 1103 469 L1646 0 L1244 0 L702 469 L515 469 L515 729 L1103 729 Q1152 733 1192.5 749.5 Q1233 766 1262.5 794 Q1292 822 1308 861.5 Q1324 901 1324 952 L1324 1116 Q1324 1138 1318.5 1149.5 Q1313 1161 1304.5 1166.5 Q1296 1172 1286.5 1173 Q1277 1174 1269 1174 L411 1174 L411 0 L151 0 L151 1303 Q151 1330 161 1354 Q171 1378 188.5 1396 Q206 1414 230 1424 Q254 1434 282 1434 L1269 1434 Q1356 1434 1416 1402.5 Q1476 1371 1513.5 1323.5 Q1551 1276 1567.5 1221 Q1584 1166 1584 1118 L1584 952 Z " />
<glyph glyph-name="S" unicode="S" horiz-adv-x="1594" d="M1529 422 Q1529 345 1509.5 283.5 Q1490 222 1458 175 Q1426 128 1383 95 Q1340 62 1294 41 Q1248 20 1200.5 10 Q1153 0 1111 0 L108 0 L108 260 L1111 260 Q1186 260 1227.5 304 Q1269 348 1269 422 Q1269 458 1258 488 Q1247 518 1226.5 540 Q1206 562 1176.5 574 Q1147 586 1111 586 L513 586 Q450 586 377 608.5 Q304 631 241.5 681 Q179 731 137.5 812 Q96 893 96 1010 Q96 1127 137.5 1207.5 Q179 1288 241.5 1338.5 Q304 1389 377 1411.5 Q450 1434 513 1434 L1398 1434 L1398 1174 L513 1174 Q439 1174 397.5 1129 Q356 1084 356 1010 Q356 935 397.5 891.5 Q439 848 513 848 L1111 848 L1113 848 Q1155 847 1202 836.5 Q1249 826 1295.5 804 Q1342 782 1384 748.5 Q1426 715 1458.5 668 Q1491 621 1510 560 Q1529 499 1529 422 Z " />
<glyph glyph-name="T" unicode="T" horiz-adv-x="1487" d="M1447 1174 L874 1174 L874 0 L614 0 L614 1174 L40 1174 L40 1434 L1447 1434 L1447 1174 Z " />
<glyph glyph-name="U" unicode="U" horiz-adv-x="1707" d="M1556 131 Q1556 103 1546 79 Q1536 55 1518 37.5 Q1500 20 1476 10 Q1452 0 1425 0 L839 0 Q756 0 671 18 Q586 36 506.5 73.5 Q427 111 357 169 Q287 227 234.5 306.5 Q182 386 152 488.5 Q122 591 122 717 L122 1434 L382 1434 L382 717 Q382 607 412.5 531 Q443 455 490 404 Q537 353 593 324 Q649 295 699.5 281 Q750 267 788.5 263.5 Q827 260 839 260 L1296 260 L1296 1434 L1556 1434 L1556 131 Z " />
<glyph glyph-name="V" unicode="V" horiz-adv-x="1582" d="M1586 1434 L907 51 Q891 19 859.5 -0.5 Q828 -20 790 -20 Q753 -20 721.5 -0.5 Q690 19 673 51 L-5 1434 L286 1434 L790 401 L1296 1434 L1586 1434 Z " />
<glyph glyph-name="W" unicode="W" horiz-adv-x="2053" d="M1982 1434 L1742 90 Q1734 50 1706 21 Q1678 -8 1638 -16 Q1597 -23 1560.5 -7 Q1524 9 1503 43 L1027 825 L550 43 Q533 14 503.5 -2 Q474 -18 440 -18 Q393 -18 357 12 Q321 42 313 90 L71 1434 L335 1434 L507 487 L917 1141 Q934 1170 963.5 1186 Q993 1202 1027 1202 Q1061 1202 1090 1186 Q1119 1170 1138 1141 L1546 487 L1718 1434 L1982 1434 Z " />
<glyph glyph-name="X" unicode="X" horiz-adv-x="1612" d="M806 922 L1244 1434 L1599 1434 L982 715 L1595 0 L1242 0 L806 508 L372 0 L18 0 L630 715 L16 1434 L368 1434 L806 922 Z " />
<glyph glyph-name="Y" unicode="Y" horiz-adv-x="1600" d="M1517 954 Q1517 865 1494.5 795 Q1472 725 1435 671.5 Q1398 618 1348.5 580 Q1299 542 1246 517.5 Q1193 493 1138.5 482 Q1084 471 1036 471 L931 471 L931 0 L669 0 L669 471 L565 471 Q517 471 462.5 482 Q408 493 354.5 517.5 Q301 542 252 580 Q203 618 165.5 671.5 Q128 725 105.5 795.5 Q83 866 83 954 L83 1434 L343 1434 L343 954 Q343 903 359 862.5 Q375 822 404 793 Q433 764 474.5 748.5 Q516 733 567 733 L1036 733 Q1073 739 1112 748.5 Q1151 758 1183 781 Q1215 804 1236 845 Q1257 886 1257 954 L1257 1434 L1517 1434 L1517 954 Z " />
<glyph glyph-name="Z" unicode="Z" horiz-adv-x="1461" d="M1378 1356 Q1393 1321 1387 1282.5 Q1381 1244 1355 1217 L497 260 L1376 260 L1376 0 L204 0 Q166 0 133.5 21.5 Q101 43 85 78 Q68 113 74.5 151 Q81 189 106 217 L966 1174 L85 1174 L85 1434 L1259 1434 Q1297 1434 1329.5 1412.5 Q1362 1391 1378 1356 Z " />
<glyph glyph-name="bracketleft" unicode="&#x5b;" horiz-adv-x="748" d="M677 1405 L399 1405 L395 27 L673 27 L673 -236 L266 -236 Q240 -236 216 -225.5 Q192 -215 173 -197 Q155 -178 144.5 -154 Q134 -130 134 -104 L134 1536 Q134 1563 145 1586.5 Q156 1610 174 1627.5 Q192 1645 216.5 1655 Q241 1665 268 1665 L677 1665 L677 1405 Z " />
<glyph glyph-name="backslash" unicode="&#x5c;" horiz-adv-x="1350" d="M1265 0 L986 0 L81 1434 L360 1434 L1265 0 Z " />
<glyph glyph-name="bracketright" unicode="&#x5d;" horiz-adv-x="748" d="M614 -104 Q614 -130 603.5 -154 Q593 -178 575 -197 Q556 -215 532.5 -225.5 Q509 -236 483 -236 L75 -236 L75 27 L352 27 L349 1405 L71 1405 L71 1665 L479 1665 Q506 1665 530.5 1655 Q555 1645 573.5 1627.5 Q592 1610 603 1586.5 Q614 1563 614 1536 L614 -104 Z " />
<glyph glyph-name="a" unicode="a" horiz-adv-x="1338" d="M1238 358 Q1238 304 1219 241.5 Q1200 179 1157.5 125.5 Q1115 72 1046.5 36 Q978 0 880 0 L411 0 Q357 0 294.5 19 Q232 38 178.5 80.5 Q125 123 89 191.5 Q53 260 53 358 Q53 412 72 475 Q91 538 133.5 591.5 Q176 645 244.5 681 Q313 717 411 717 L880 717 L880 469 L411 469 Q358 469 329 436.5 Q300 404 300 356 Q300 305 333.5 276.5 Q367 248 413 248 L880 248 Q933 248 962 280 Q991 312 991 360 L991 723 Q991 774 959.5 804 Q928 834 880 834 L309 834 L309 1081 L880 1081 Q934 1081 996.5 1062 Q1059 1043 1112.5 1000.5 Q1166 958 1202 889.5 Q1238 821 1238 723 L1238 358 Z " />
<glyph glyph-name="b" unicode="b" horiz-adv-x="1414" d="M1314 365 Q1314 328 1305.5 287 Q1297 246 1279 205.5 Q1261 165 1232.5 128 Q1204 91 1163.5 62.5 Q1123 34 1070 17 Q1017 0 950 0 L481 0 Q444 0 403 8.5 Q362 17 321.5 35 Q281 53 244 81.5 Q207 110 178.5 150.5 Q150 191 133 244.5 Q116 298 116 365 L116 1538 L376 1538 L376 365 Q376 317 406 288.5 Q436 260 481 260 L950 260 Q999 260 1026.5 289 Q1054 318 1054 365 L1054 717 Q1054 766 1025 793.5 Q996 821 950 821 L481 821 L481 1081 L950 1081 Q987 1081 1028 1072.5 Q1069 1064 1109.5 1046 Q1150 1028 1187 999.5 Q1224 971 1252 930.5 Q1280 890 1297 837 Q1314 784 1314 717 L1314 365 Z " />
<glyph glyph-name="c" unicode="c" horiz-adv-x="1262" d="M1169 0 L464 0 Q410 0 346 19 Q282 38 227.5 81.5 Q173 125 136.5 194.5 Q100 264 100 365 L100 717 Q100 754 108.5 795 Q117 836 135 876.5 Q153 917 181.5 954 Q210 991 250.5 1019 Q291 1047 344 1064 Q397 1081 464 1081 L1169 1081 L1169 821 L464 821 Q413 821 386.5 795 Q360 769 360 715 L360 365 Q360 314 387 287 Q414 260 466 260 L1169 260 L1169 0 Z " />
<glyph glyph-name="d" unicode="d" horiz-adv-x="1434" d="M1308 365 Q1308 298 1291 244.5 Q1274 191 1246 150.5 Q1218 110 1181 81.5 Q1144 53 1103.5 35 Q1063 17 1021.5 8.5 Q980 0 943 0 L474 0 Q407 0 354 17 Q301 34 260.5 62.5 Q220 91 191.5 128 Q163 165 145 205.5 Q127 246 118.5 287.5 Q110 329 110 365 L110 717 Q110 817 146.5 886.5 Q183 956 237.5 999.5 Q292 1043 356 1062 Q420 1081 474 1081 L943 1081 L943 821 L476 821 Q424 821 397 794.5 Q370 768 370 717 L370 367 Q370 314 396.5 287 Q423 260 474 260 L943 260 Q996 260 1022 287 Q1048 314 1048 365 L1048 1538 L1308 1538 L1308 365 Z " />
<glyph glyph-name="e" unicode="e" horiz-adv-x="1338" d="M1285 723 Q1285 669 1266 606.5 Q1247 544 1204.5 490.5 Q1162 437 1093.5 401 Q1025 365 927 365 L458 365 L458 612 L927 612 Q980 612 1009 644.5 Q1038 677 1038 725 Q1038 776 1005.5 805 Q973 834 927 834 L458 834 Q405 834 376 801.5 Q347 769 347 721 L347 358 Q347 306 379.5 277 Q412 248 460 248 L927 248 L927 0 L458 0 Q404 0 341.5 19 Q279 38 225.5 80.5 Q172 123 136 191.5 Q100 260 100 358 L100 723 Q100 777 119 839.5 Q138 902 180.5 955.5 Q223 1009 291.5 1045 Q360 1081 458 1081 L927 1081 Q981 1081 1043.5 1062 Q1106 1043 1159.5 1000.5 Q1213 958 1249 889.5 Q1285 821 1285 723 Z " />
<glyph glyph-name="f" unicode="f" horiz-adv-x="1127" d="M1079 821 L491 821 L491 1081 L1079 1081 L1079 821 Z M1079 1290 L493 1290 Q440 1290 413 1263.5 Q386 1237 386 1186 L386 0 L126 0 L126 1186 Q126 1253 143 1306 Q160 1359 188.5 1399.5 Q217 1440 254 1468.5 Q291 1497 331.5 1515 Q372 1533 413 1541.5 Q454 1550 491 1550 L1079 1550 L1079 1290 Z " />
<glyph glyph-name="g" unicode="g" horiz-adv-x="1414" d="M1298 -104 Q1298 -171 1281 -224.5 Q1264 -278 1236 -318.5 Q1208 -359 1171 -387.5 Q1134 -416 1093.5 -434 Q1053 -452 1011.5 -460.5 Q970 -469 933 -469 L464 -469 L464 -209 L933 -209 Q986 -209 1012 -182 Q1038 -155 1038 -104 L1038 717 Q1038 768 1012 794.5 Q986 821 933 821 L464 821 Q416 821 388 791.5 Q360 762 360 717 L360 365 Q360 314 387 287 Q414 260 466 260 L933 260 L933 0 L464 0 Q427 0 386 8.5 Q345 17 304.5 35 Q264 53 227 81.5 Q190 110 162 150.5 Q134 191 117 244.5 Q100 298 100 365 L100 717 Q100 754 108.5 795 Q117 836 135 876.5 Q153 917 181.5 954 Q210 991 250.5 1019 Q291 1047 344 1064 Q397 1081 464 1081 L933 1081 Q970 1081 1011.5 1072.5 Q1053 1064 1093.5 1046 Q1134 1028 1171 999.5 Q1208 971 1236 930.5 Q1264 890 1281 837 Q1298 784 1298 717 L1298 -104 Z " />
<glyph glyph-name="h" unicode="h" horiz-adv-x="1440" d="M1324 0 L1064 0 L1064 717 Q1064 768 1038 794.5 Q1012 821 960 821 L491 821 L491 1081 L960 1081 Q997 1081 1038 1072.5 Q1079 1064 1119.5 1046 Q1160 1028 1197 999.5 Q1234 971 1262 930.5 Q1290 890 1307 837 Q1324 784 1324 717 L1324 0 Z M386 0 L126 0 L126 1538 L386 1538 L386 0 Z " />
<glyph glyph-name="i" unicode="i" horiz-adv-x="513" d="M386 1303 L126 1303 L126 1538 L386 1538 L386 1303 Z M386 0 L126 0 L126 1081 L386 1081 L386 0 Z " />
<glyph glyph-name="j" unicode="j" horiz-adv-x="513" d="M386 1303 L126 1303 L126 1538 L386 1538 L386 1303 Z M386 -104 Q386 -171 369 -224.5 Q352 -278 324 -318.5 Q296 -359 259 -387.5 Q222 -416 181.5 -434 Q141 -452 100 -460.5 Q59 -469 22 -469 L-447 -469 L-447 -209 L22 -209 Q74 -209 100 -182 Q126 -155 126 -104 L126 1081 L386 1081 L386 -104 Z " />
<glyph glyph-name="k" unicode="k" horiz-adv-x="1416" d="M1392 0 L1017 0 L493 506 Q449 546 452 606 Q454 634 466.5 658.5 Q479 683 501 700 L976 1083 L1392 1083 L780 590 L1392 0 Z M386 0 L126 0 L126 1538 L386 1538 L386 0 Z " />
<glyph glyph-name="l" unicode="l" horiz-adv-x="642" d="M597 0 L481 0 Q425 0 361.5 19 Q298 38 243 81.5 Q188 125 152 194.5 Q116 264 116 365 L116 1538 L376 1538 L376 365 Q376 317 406 288.5 Q436 260 481 260 L597 260 L597 0 Z " />
<glyph glyph-name="m" unicode="m" horiz-adv-x="1789" d="M1087 0 L827 0 L827 717 Q827 768 800 794.5 Q773 821 720 821 L382 821 L382 0 L122 0 L122 952 Q122 979 132 1002.5 Q142 1026 160 1043.5 Q178 1061 202 1071 Q226 1081 253 1081 L722 1081 Q776 1081 838 1062 Q900 1043 956 1001 L956 1081 L1308 1081 Q1345 1081 1386 1072.5 Q1427 1064 1467.5 1046 Q1508 1028 1545 999.5 Q1582 971 1610 930.5 Q1638 890 1655 837 Q1672 784 1672 717 L1672 0 L1412 0 L1412 717 Q1412 768 1386.5 794.5 Q1361 821 1308 821 L1074 821 Q1087 773 1087 717 L1087 0 Z " />
<glyph glyph-name="n" unicode="n" horiz-adv-x="1426" d="M1320 0 L1060 0 L1060 600 Q1060 651 1042.5 691.5 Q1025 732 995 761 Q965 790 924.5 805.5 Q884 821 837 821 L382 821 L382 0 L122 0 L122 952 Q122 979 132 1002.5 Q142 1026 160 1043.5 Q178 1061 202 1071 Q226 1081 253 1081 L839 1081 Q888 1081 942.5 1070 Q997 1059 1050.5 1034.5 Q1104 1010 1152.5 972.5 Q1201 935 1238.5 881.5 Q1276 828 1298 758 Q1320 688 1320 600 L1320 0 Z " />
<glyph glyph-name="o" unicode="o" horiz-adv-x="1397" d="M1298 365 Q1298 298 1281 244.5 Q1264 191 1236 150.5 Q1208 110 1171 81.5 Q1134 53 1093.5 35 Q1053 17 1011.5 8.5 Q970 0 933 0 L464 0 Q410 0 346 19 Q282 38 227.5 81.5 Q173 125 136.5 194.5 Q100 264 100 365 L100 717 Q100 817 136.5 886.5 Q173 956 227.5 999.5 Q282 1043 346 1062 Q410 1081 464 1081 L933 1081 Q1033 1081 1103 1045 Q1173 1009 1216 954.5 Q1259 900 1278.5 836 Q1298 772 1298 717 L1298 365 Z M1038 715 Q1038 769 1011 795 Q984 821 933 821 L466 821 Q414 821 387 794.5 Q360 768 360 717 L360 365 Q360 314 387 287 Q414 260 466 260 L933 260 Q986 260 1012 287 Q1038 314 1038 365 L1038 715 Z " />
<glyph glyph-name="p" unicode="p" horiz-adv-x="1414" d="M1314 365 Q1314 298 1297 244.5 Q1280 191 1252 150.5 Q1224 110 1187 81.5 Q1150 53 1109.5 35 Q1069 17 1028 8.5 Q987 0 950 0 L481 0 L481 260 L950 260 Q1002 260 1028 287 Q1054 314 1054 365 L1054 715 Q1054 769 1027.5 795 Q1001 821 950 821 L483 821 Q430 821 403 794.5 Q376 768 376 717 L376 -338 L116 -338 L116 717 Q116 784 133 837 Q150 890 178.5 930.5 Q207 971 244 999.5 Q281 1028 321.5 1046 Q362 1064 403.5 1072.5 Q445 1081 481 1081 L950 1081 Q1017 1081 1070 1064 Q1123 1047 1163.5 1019 Q1204 991 1232.5 954 Q1261 917 1279 876.5 Q1297 836 1305.5 795 Q1314 754 1314 717 L1314 365 Z " />
<glyph glyph-name="q" unicode="q" horiz-adv-x="1414" d="M1298 -338 L1038 -338 L1038 717 Q1038 768 1012 794.5 Q986 821 933 821 L464 821 Q416 821 388 791.5 Q360 762 360 717 L360 365 Q360 314 387 287 Q414 260 466 260 L933 260 L933 0 L464 0 Q410 0 346 19 Q282 38 227.5 81.5 Q173 125 136.5 194.5 Q100 264 100 365 L100 717 Q100 754 108.5 795 Q117 836 135 876.5 Q153 917 181.5 954 Q210 991 250.5 1019 Q291 1047 344 1064 Q397 1081 464 1081 L933 1081 Q970 1081 1011.5 1072.5 Q1053 1064 1093.5 1046 Q1134 1028 1171 999.5 Q1208 971 1236 930.5 Q1264 890 1281 837 Q1298 784 1298 717 L1298 -338 Z " />
<glyph glyph-name="r" unicode="r" horiz-adv-x="1117" d="M1068 821 L483 821 Q430 821 403 794.5 Q376 768 376 717 L376 0 L116 0 L116 717 Q116 784 133 837 Q150 890 178.5 930.5 Q207 971 244 999.5 Q281 1028 321.5 1046 Q362 1064 403.5 1072.5 Q445 1081 481 1081 L1068 1081 L1068 821 Z " />
<glyph glyph-name="s" unicode="s" horiz-adv-x="1227" d="M1167 365 Q1167 298 1150 244.5 Q1133 191 1105 150.5 Q1077 110 1040 81.5 Q1003 53 962.5 35 Q922 17 880.5 8.5 Q839 0 802 0 L98 0 L98 260 L800 260 Q853 260 880 287 Q907 314 907 365 Q902 469 802 469 L399 469 Q313 469 253 499 Q193 529 155.5 574 Q118 619 101.5 671 Q85 723 85 768 Q85 855 116 914.5 Q147 974 194 1011 Q241 1048 296 1064.5 Q351 1081 399 1081 L1038 1081 L1038 821 L401 821 Q381 821 369.5 816.5 Q358 812 352.5 804.5 Q347 797 346 788.5 Q345 780 345 772 Q346 756 351 747 Q356 738 363.5 734 Q371 730 380.5 729.5 Q390 729 399 729 L802 729 Q902 729 972 693 Q1042 657 1085 602.5 Q1128 548 1147.5 484 Q1167 420 1167 365 Z " />
<glyph glyph-name="t" unicode="t" horiz-adv-x="1154" d="M1105 821 L651 821 L651 0 L388 0 L388 821 L50 821 L50 1081 L388 1081 L388 1434 L651 1434 L651 1081 L1105 1081 L1105 821 Z " />
<glyph glyph-name="u" unicode="u" horiz-adv-x="1426" d="M1304 131 Q1304 103 1294 79 Q1284 55 1266.5 37.5 Q1249 20 1225.5 10 Q1202 0 1175 0 L587 0 Q539 0 484.5 11 Q430 22 377 46.5 Q324 71 274.5 108.5 Q225 146 188 199.5 Q151 253 128.5 323 Q106 393 106 481 L106 1081 L366 1081 L366 481 Q366 430 383.5 389.5 Q401 349 431 320 Q461 291 501.5 275.5 Q542 260 589 260 L1044 260 L1044 1081 L1304 1081 L1304 131 Z " />
<glyph glyph-name="v" unicode="v" horiz-adv-x="1383" d="M1412 1081 Q1368 944 1309 811 Q1250 678 1173.5 557.5 Q1097 437 1002.5 334.5 Q908 232 793.5 157.5 Q679 83 544.5 40.5 Q410 -2 253 -2 Q226 -2 202 8 Q178 18 160 35.5 Q142 53 132 76.5 Q122 100 122 127 L122 1081 L382 1081 L382 268 Q477 268 564.5 309 Q652 350 730 417.5 Q808 485 874.5 571 Q941 657 993 747.5 Q1045 838 1081.5 925 Q1118 1012 1136 1081 L1412 1081 Z " />
<glyph glyph-name="w" unicode="w" horiz-adv-x="1870" d="M1902 1081 Q1840 942 1768 807.5 Q1696 673 1617.5 553 Q1539 433 1457 331.5 Q1375 230 1294.5 156.5 Q1214 83 1137.5 41.5 Q1061 0 993 0 Q965 0 941 10 Q917 20 899 37.5 Q881 55 871 79 Q861 103 861 131 L861 616 L345 39 Q325 19 301.5 9.5 Q278 0 253 0 Q226 0 202.5 10 Q179 20 161 37.5 Q143 55 132.5 79 Q122 103 122 131 L122 1081 L382 1081 L382 465 L900 1044 Q928 1072 966.5 1079.5 Q1005 1087 1042 1071 Q1079 1056 1100.5 1023.5 Q1122 991 1122 952 L1122 334 Q1206 415 1274 505 Q1342 595 1400.5 690.5 Q1459 786 1510.5 884.5 Q1562 983 1611 1081 L1902 1081 Z " />
<glyph glyph-name="x" unicode="x" horiz-adv-x="1424" d="M1357 1081 L890 571 L1416 0 L1058 0 L712 377 L366 0 L7 0 L532 573 L67 1081 L423 1081 L710 768 L999 1081 L1357 1081 Z " />
<glyph glyph-name="y" unicode="y" horiz-adv-x="1440" d="M1314 -104 Q1314 -171 1297 -224.5 Q1280 -278 1252 -318.5 Q1224 -359 1187 -387.5 Q1150 -416 1109.5 -434 Q1069 -452 1028 -460.5 Q987 -469 950 -469 L481 -469 L481 -209 L950 -209 Q1002 -209 1028 -182 Q1054 -155 1054 -104 L1054 1081 L1314 1081 L1314 -104 Z M950 0 L481 0 Q425 0 361.5 19 Q298 38 243 81.5 Q188 125 152 194.5 Q116 264 116 365 L116 1081 L376 1081 L376 365 Q376 314 403 287 Q430 260 483 260 L950 260 L950 0 Z " />
<glyph glyph-name="z" unicode="z" horiz-adv-x="1231" d="M1146 1001 Q1162 964 1154.5 926 Q1147 888 1120 860 L519 260 L1144 260 L1144 0 L206 0 Q166 0 133.5 22.5 Q101 45 85 80 Q70 117 77.5 155.5 Q85 194 114 223 L712 821 L87 821 L87 1081 L1027 1081 Q1066 1081 1098.5 1060 Q1131 1039 1146 1001 Z " />
<glyph glyph-name="braceleft" unicode="&#x7b;" horiz-adv-x="869" d="M798 1405 L669 1405 Q644 1405 617.5 1399.5 Q591 1394 569 1382 Q547 1370 533 1351 Q519 1332 519 1305 L519 1303 L519 952 Q519 875 497 816.5 Q475 758 440 715 Q482 661 499.5 599 Q517 537 517 483 L517 129 Q517 94 535 73.5 Q553 53 578 42.5 Q603 32 628 29.5 Q653 27 667 27 L796 27 L796 -236 L665 -236 Q624 -236 577.5 -227.5 Q531 -219 485.5 -200.5 Q440 -182 398.5 -153 Q357 -124 325.5 -83 Q294 -42 275.5 11 Q257 64 257 131 L257 481 Q257 534 229.5 560 Q202 586 153 586 Q125 586 101 596.5 Q77 607 59.5 624.5 Q42 642 32 666 Q22 690 22 717 Q22 744 32 767.5 Q42 791 59.5 808.5 Q77 826 100.5 836.5 Q124 847 151 848 Q205 848 232 874.5 Q259 901 259 952 L259 1305 Q259 1391 294 1458 Q329 1525 387 1571 Q445 1617 518.5 1641 Q592 1665 669 1665 L798 1665 L798 1405 Z " />
<glyph glyph-name="bar" unicode="&#x7c;" horiz-adv-x="533" d="M397 -236 L136 -236 L136 1669 L397 1669 L397 -236 Z " />
<glyph glyph-name="braceright" unicode="&#x7d;" horiz-adv-x="869" d="M847 717 Q847 690 837 666 Q827 642 809.5 624.5 Q792 607 768.5 596.5 Q745 586 718 586 Q667 586 639.5 560 Q612 534 612 481 L614 131 Q614 64 595 11 Q576 -42 544 -83 Q512 -124 470.5 -153 Q429 -182 383.5 -200.5 Q338 -219 291.5 -227.5 Q245 -236 204 -236 L75 -236 L73 27 L204 27 Q217 27 242 29.5 Q267 32 291.5 42.5 Q316 53 334 73.5 Q352 94 352 129 L352 483 Q352 537 370.5 599 Q389 661 429 715 Q394 758 371.5 816.5 Q349 875 349 952 L349 1303 L349 1305 Q344 1333 330.5 1352 Q317 1371 297 1383 Q277 1395 252.5 1400 Q228 1405 202 1405 L71 1405 L71 1665 L202 1665 Q283 1665 357 1639.5 Q431 1614 487.5 1566.5 Q544 1519 577 1452.5 Q610 1386 610 1305 Q610 1298 611 1210.5 Q612 1123 612 952 Q612 901 638 874.5 Q664 848 718 848 Q745 847 768.5 836.5 Q792 826 809.5 808.5 Q827 791 837 767.5 Q847 744 847 717 Z " />
<glyph glyph-name="dagger" unicode="&#x2020;" horiz-adv-x="863" d="M560 1303 L784 1303 L784 1069 L560 1069 L560 -236 L300 -236 L300 1069 L79 1069 L79 1303 L300 1303 L300 1669 L560 1669 L560 1303 Z " />
<glyph glyph-name="cent" unicode="&#xa2;" horiz-adv-x="1045" d="M931 248 L685 248 L685 0 L452 0 L452 248 Q399 248 337.5 266.5 Q276 285 223 327 Q170 369 135 436 Q100 503 100 600 L100 834 Q100 887 118.5 948.5 Q137 1010 179 1063 Q221 1116 288 1151 Q355 1186 452 1186 L452 1434 L685 1434 L685 1186 L931 1186 L931 952 L452 952 Q396 952 365.5 919 Q335 886 335 834 L335 600 Q335 546 367 513.5 Q399 481 452 481 L931 481 L931 248 Z " />
<glyph glyph-name="sterling" unicode="&#xa3;" horiz-adv-x="1801" d="M1009 596 L671 596 L671 260 L1357 260 Q1410 260 1436 286.5 Q1462 313 1462 362 L1462 494 L1722 494 L1722 362 Q1722 262 1686 193 Q1650 124 1595.5 81 Q1541 38 1477.5 19 Q1414 0 1359 0 L542 0 Q515 0 491.5 10 Q468 20 450.5 37.5 Q433 55 423 78.5 Q413 102 413 129 L413 596 L75 596 L75 829 L413 829 L413 1071 Q413 1126 432 1189.5 Q451 1253 494 1307.5 Q537 1362 606 1398 Q675 1434 775 1434 L1255 1434 L1255 1174 L775 1174 Q727 1174 699 1145 Q671 1116 671 1071 L671 829 L1009 829 L1009 596 Z " />
<glyph glyph-name="section" unicode="&#xa7;" horiz-adv-x="1649" d="M1552 186 Q1552 109 1532.5 47.5 Q1513 -14 1481 -61 Q1449 -108 1406 -141 Q1363 -174 1317 -195 Q1271 -216 1223.5 -226 Q1176 -236 1134 -236 L130 -236 L130 27 L1134 27 Q1170 27 1199 39 Q1228 51 1249 72.5 Q1270 94 1281 123 Q1292 152 1292 186 Q1292 222 1280 252.5 Q1268 283 1247 305 Q1226 327 1197 339.5 Q1168 352 1134 352 L536 352 Q494 352 446.5 362 Q399 372 353 393 Q307 414 264 447.5 Q221 481 189 528 Q157 575 137.5 636.5 Q118 698 118 776 Q118 854 136 911 Q154 968 180 1010 Q152 1056 135 1114.5 Q118 1173 118 1245 Q118 1322 137.5 1383.5 Q157 1445 189 1492 Q221 1539 264 1572.5 Q307 1606 353 1627.5 Q399 1649 446.5 1659 Q494 1669 536 1669 L1421 1669 L1421 1407 L536 1407 Q499 1407 470 1394.5 Q441 1382 420.5 1360.5 Q400 1339 389 1309 Q378 1279 378 1245 Q378 1209 389.5 1179 Q401 1149 422 1127 Q443 1105 472 1093 Q501 1081 536 1081 L1136 1081 Q1178 1080 1225 1070 Q1272 1060 1318.5 1038.5 Q1365 1017 1407 983.5 Q1449 950 1481.5 903 Q1514 856 1533 794 Q1552 732 1552 655 Q1552 578 1533 520.5 Q1514 463 1488 420 Q1517 373 1534.5 316 Q1552 259 1552 186 Z M536 821 Q502 821 464.5 827.5 Q427 834 388 848 Q383 834 380.5 816.5 Q378 799 378 776 Q378 739 389.5 709 Q401 679 422 657.5 Q443 636 472 624 Q501 612 536 612 L1136 612 Q1170 610 1206.5 604 Q1243 598 1281 584 Q1286 598 1289 615 Q1292 632 1292 655 Q1292 691 1280 721.5 Q1268 752 1247 774 Q1226 796 1197 808.5 Q1168 821 1134 821 L536 821 Z " />
<glyph glyph-name="germandbls" unicode="&#xdf;" horiz-adv-x="1604" d="M1552 362 Q1552 262 1516 193 Q1480 124 1425.5 81 Q1371 38 1307.5 19 Q1244 0 1189 0 L489 0 L489 260 L1189 260 Q1240 260 1267 286.5 Q1294 313 1294 362 Q1291 467 1189 467 L788 467 Q702 467 642.5 496.5 Q583 526 546 571 Q509 616 492.5 668.5 Q476 721 476 766 Q476 851 507 910.5 Q538 970 585 1007 Q632 1044 686.5 1060.5 Q741 1077 788 1077 L839 1077 Q943 1077 943 1180 Q940 1284 839 1284 L491 1284 Q438 1284 412 1257.5 Q386 1231 386 1180 L386 0 L126 0 L126 1180 Q126 1280 162 1349 Q198 1418 252.5 1461 Q307 1504 370.5 1523 Q434 1542 489 1542 L839 1542 Q905 1542 958 1525.5 Q1011 1509 1051.5 1480.5 Q1092 1452 1121 1415.5 Q1150 1379 1168.5 1338.5 Q1187 1298 1195.5 1257 Q1204 1216 1204 1180 Q1204 1080 1167.5 1010.5 Q1131 941 1076.5 898 Q1022 855 958 836 Q894 817 839 817 L790 817 Q770 817 759 812 Q748 807 743 800 Q738 793 737 784 Q736 775 737 768 Q737 753 741.5 744.5 Q746 736 753 732 Q760 728 769.5 727.5 Q779 727 788 727 L1189 727 Q1255 727 1308 710 Q1361 693 1401.5 665 Q1442 637 1470.5 600 Q1499 563 1517 522.5 Q1535 482 1543.5 440.5 Q1552 399 1552 362 Z " />
<glyph glyph-name="Oslash" unicode="&#xd8;" horiz-adv-x="1764" d="M1482 1290 Q1564 1210 1611 1099 Q1658 988 1658 854 L1658 580 Q1658 449 1613 339 Q1568 229 1488 149 Q1408 69 1298.5 24.5 Q1189 -20 1060 -20 L708 -20 Q648 -20 591.5 -10 Q535 0 483 18 L386 -104 L89 -104 L284 143 Q200 224 154 335 Q108 446 108 580 L108 854 Q108 985 153.5 1095.5 Q199 1206 279 1285.5 Q359 1365 469 1409.5 Q579 1454 708 1454 L1060 1454 Q1120 1454 1176 1444 Q1232 1434 1283 1415 L1380 1538 L1677 1538 L1482 1290 Z M1398 854 Q1398 923 1377.5 981.5 Q1357 1040 1320 1083 L659 242 Q671 240 682.5 240 Q694 240 708 240 L1058 240 Q1134 240 1196.5 264.5 Q1259 289 1304 333.5 Q1349 378 1373.5 440.5 Q1398 503 1398 580 L1398 854 Z M368 580 Q368 508 388.5 451 Q409 394 446 350 L1107 1192 Q1095 1194 1084 1194 Q1073 1194 1060 1194 L708 1194 Q632 1194 569.5 1169.5 Q507 1145 462 1100.5 Q417 1056 392.5 993.5 Q368 931 368 854 L368 580 Z " />
<glyph glyph-name="yen" unicode="&#xa5;" horiz-adv-x="1649" d="M1292 129 L956 129 L956 0 L696 0 L696 129 L358 129 L358 362 L696 362 L696 467 L591 467 Q543 467 489 478 Q435 489 381.5 513 Q328 537 279.5 574.5 Q231 612 193.5 665.5 Q156 719 134 788.5 Q112 858 112 946 L112 1434 L372 1434 L372 946 Q372 895 389 854.5 Q406 814 435.5 785.5 Q465 757 505.5 742 Q546 727 593 727 L1058 727 Q1107 729 1147.5 745 Q1188 761 1217.5 789.5 Q1247 818 1263 857.5 Q1279 897 1279 946 L1279 1434 L1537 1434 L1537 946 Q1537 858 1515 788.5 Q1493 719 1456 665.5 Q1419 612 1370 574.5 Q1321 537 1268 513 Q1215 489 1160.5 478 Q1106 467 1058 467 L956 467 L956 362 L1292 362 L1292 129 Z " />
<glyph glyph-name="mu" unicode="&#xb5;" horiz-adv-x="1459" d="M1343 131 Q1343 103 1333 79 Q1323 55 1305.5 37.5 Q1288 20 1264.5 10 Q1241 0 1214 0 L626 0 Q575 0 518 11.5 Q461 23 405 51 L405 -469 L145 -469 L145 1081 L405 1081 L405 481 Q405 414 426 373 Q447 332 479 309 Q511 286 550.5 275.5 Q590 265 628 260 L1083 260 L1083 1081 L1343 1081 L1343 131 Z " />
<glyph glyph-name="ordfeminine" unicode="&#xaa;" horiz-adv-x="1234" d="M1115 827 Q1115 796 1108 762 Q1101 728 1085.5 694 Q1070 660 1046 629 Q1022 598 988 574 Q954 550 909.5 536 Q865 522 808 522 L407 522 Q361 522 307.5 538 Q254 554 208.5 590 Q163 626 132.5 684.5 Q102 743 102 827 Q102 873 118.5 926.5 Q135 980 171 1026 Q207 1072 265 1102.5 Q323 1133 407 1133 L808 1133 L808 924 L407 924 Q378 924 359 915 Q340 906 329.5 891.5 Q319 877 315 859.5 Q311 842 311 825 Q311 780 338 754.5 Q365 729 407 729 L808 729 Q837 729 856 738 Q875 747 886.5 761 Q898 775 902.5 792.5 Q907 810 907 827 L907 1128 Q907 1175 878.5 1200 Q850 1225 808 1225 L304 1225 L304 1434 L808 1434 Q854 1434 908 1417.5 Q962 1401 1008 1365 Q1054 1329 1084.5 1270.5 Q1115 1212 1115 1128 L1115 827 Z " />
<glyph glyph-name="ordmasculine" unicode="&#xba;" horiz-adv-x="1250" d="M1132 827 Q1132 743 1101.5 684.5 Q1071 626 1025 590 Q979 554 925 538 Q871 522 825 522 L423 522 Q377 522 323.5 538 Q270 554 224.5 590 Q179 626 148.5 684.5 Q118 743 118 827 L118 1128 Q118 1212 148.5 1270.5 Q179 1329 224.5 1365 Q270 1401 323.5 1417.5 Q377 1434 423 1434 L825 1434 Q909 1434 967.5 1403.5 Q1026 1373 1062.5 1327 Q1099 1281 1115.5 1227.5 Q1132 1174 1132 1128 L1132 827 Z M923 1128 Q923 1144 918.5 1161 Q914 1178 903 1192.5 Q892 1207 873 1216 Q854 1225 825 1225 L423 1225 Q407 1225 390 1221 Q373 1217 359 1206 Q345 1195 336 1176 Q327 1157 327 1128 L327 827 Q327 782 353.5 755.5 Q380 729 423 729 L825 729 Q842 729 859.5 733.5 Q877 738 891 749 Q905 760 914 779 Q923 798 923 827 L923 1128 Z " />
<glyph glyph-name="oslash" unicode="&#xf8;" horiz-adv-x="1397" d="M1175 995 Q1208 967 1231.5 932.5 Q1255 898 1269.5 861 Q1284 824 1291 787 Q1298 750 1298 717 L1298 365 Q1298 298 1281 244.5 Q1264 191 1236 150.5 Q1208 110 1171 81.5 Q1134 53 1093.5 35 Q1053 17 1011.5 8.5 Q970 0 933 0 L464 0 L450 0 L374 -104 L85 -104 L223 84 Q170 127 135 195.5 Q100 264 100 365 L100 717 Q100 817 136.5 886.5 Q173 956 227.5 999.5 Q282 1043 346 1062 Q410 1081 464 1081 L933 1081 L948 1081 L1023 1186 L1314 1186 L1175 995 Z M360 365 Q360 324 378 297 L757 821 L466 821 Q414 821 387 794.5 Q360 768 360 717 L360 365 Z M1038 715 Q1038 757 1019 782 L638 260 L933 260 Q986 260 1012 287 Q1038 314 1038 365 L1038 715 Z " />
<glyph glyph-name="florin" unicode="&#x192;" horiz-adv-x="1473" d="M1373 817 L790 817 L790 1077 L1373 1077 L1373 817 Z M1373 1284 L790 1284 Q737 1284 711 1257.5 Q685 1231 685 1180 L685 -221 Q685 -288 668.5 -340.5 Q652 -393 623.5 -433.5 Q595 -474 558.5 -502.5 Q522 -531 481.5 -549 Q441 -567 400 -575.5 Q359 -584 323 -584 L89 -584 L89 -324 L321 -324 Q373 -324 400 -297.5 Q427 -271 427 -221 L427 1180 Q427 1280 463 1349 Q499 1418 553.5 1461 Q608 1504 671.5 1523 Q735 1542 790 1542 L1373 1542 L1373 1284 Z " />
<glyph glyph-name="divide" unicode="&#xf7;" horiz-adv-x="1137" d="M698 1069 Q698 1042 688 1018.5 Q678 995 660.5 977.5 Q643 960 619.5 950 Q596 940 569 940 Q542 940 518.5 950 Q495 960 477.5 977.5 Q460 995 450 1018.5 Q440 1042 440 1069 Q440 1096 450 1119.5 Q460 1143 477.5 1160.5 Q495 1178 518.5 1188 Q542 1198 569 1198 Q596 1198 619.5 1188 Q643 1178 660.5 1160.5 Q678 1143 688 1119.5 Q698 1096 698 1069 Z M1038 600 L100 600 L100 834 L1038 834 L1038 600 Z M698 365 Q698 338 688 314.5 Q678 291 660.5 273.5 Q643 256 619.5 246 Q596 236 569 236 Q542 236 518.5 246 Q495 256 477.5 273.5 Q460 291 450 314.5 Q440 338 440 365 Q440 392 450 415.5 Q460 439 477.5 456.5 Q495 474 518.5 484 Q542 494 569 494 Q596 494 619.5 484 Q643 474 660.5 456.5 Q678 439 688 415.5 Q698 392 698 365 Z " />
<glyph glyph-name="Euro" unicode="&#x20ac;" horiz-adv-x="1854" d="M1042 418 L704 418 L704 365 Q704 317 733 288.5 Q762 260 808 260 L1746 260 L1746 0 L808 0 Q753 0 689 19 Q625 38 570 81.5 Q515 125 478.5 194.5 Q442 264 442 365 L442 418 L104 418 L104 651 L442 651 L442 782 L104 782 L104 1016 L442 1016 L442 1069 Q442 1105 450.5 1146.5 Q459 1188 477.5 1228.5 Q496 1269 524.5 1306 Q553 1343 594 1371.5 Q635 1400 688 1417 Q741 1434 808 1434 L1746 1434 L1746 1174 L808 1174 Q757 1174 730.5 1147 Q704 1120 704 1067 L704 1016 L1042 1016 L1042 782 L704 782 L704 651 L1042 651 L1042 418 Z " />
<glyph glyph-name="daggerdbl" unicode="&#x2021;" horiz-adv-x="898" d="M579 1303 L802 1303 L802 1069 L579 1069 L579 365 L802 365 L802 131 L579 131 L579 -236 L319 -236 L319 131 L98 131 L98 365 L319 365 L319 1069 L98 1069 L98 1303 L319 1303 L319 1669 L579 1669 L579 1303 Z " />
<glyph glyph-name="circumflex" unicode="&#x2c6;" horiz-adv-x="1141" d="M919 1159 L571 1339 L223 1159 L102 1327 L571 1593 L1040 1327 L919 1159 Z " />
<glyph glyph-name="caron" unicode="&#x2c7;" horiz-adv-x="1141" d="M223 1573 L571 1393 L919 1573 L1040 1405 L571 1139 L102 1405 L223 1573 Z " />
<glyph glyph-name="cedilla" unicode="&#xb8;" horiz-adv-x="1033" d="M550 -70 Q579 -70 615.5 -77 Q652 -84 684.5 -103.5 Q717 -123 739 -158 Q761 -193 761 -250 Q761 -307 732.5 -346 Q704 -385 658.5 -409 Q613 -433 556.5 -443 Q500 -453 444 -453 Q393 -453 359 -450.5 Q325 -448 300.5 -444.5 Q276 -441 257.5 -437 Q239 -433 220 -430 L220 -254 Q261 -273 313 -286 Q365 -299 421 -299 Q478 -299 516 -287.5 Q554 -276 554 -248 Q554 -232 542 -222 Q530 -212 512 -206.5 Q494 -201 474 -199 Q454 -197 438 -197 Q415 -197 389 -200 Q363 -203 343 -209 L429 18 L585 18 L550 -70 Z " />
<glyph glyph-name="ogonek" unicode="&#x2db;" horiz-adv-x="1033" d="M603 18 Q542 -27 506 -82 Q470 -137 470 -186 Q470 -224 496 -239 Q522 -254 579 -254 Q604 -254 634.5 -249 Q665 -244 695 -236 Q725 -228 752.5 -219.5 Q780 -211 798 -203 L798 -389 Q780 -394 754.5 -402 Q729 -410 694.5 -417 Q660 -424 616 -429 Q572 -434 517 -434 Q463 -434 416 -424 Q369 -414 333.5 -392 Q298 -370 277.5 -334 Q257 -298 257 -246 Q257 -217 265 -180.5 Q273 -144 291 -107.5 Q309 -71 339 -38 Q369 -5 413 18 L603 18 Z " />
<glyph glyph-name="ring" unicode="&#x2da;" horiz-adv-x="1141" d="M280 1354 Q280 1403 301.5 1446.5 Q323 1490 361 1522.5 Q399 1555 452.5 1574 Q506 1593 571 1593 Q642 1593 696.5 1574 Q751 1555 787.5 1522.5 Q824 1490 842.5 1446.5 Q861 1403 861 1354 Q861 1305 841 1261.5 Q821 1218 783.5 1185 Q746 1152 692 1133 Q638 1114 571 1114 Q502 1114 448 1133 Q394 1152 356.5 1185 Q319 1218 299.5 1261.5 Q280 1305 280 1354 Z M472 1354 Q472 1313 497.5 1285 Q523 1257 571 1257 Q619 1257 643 1285 Q667 1313 667 1354 Q667 1394 643 1422 Q619 1450 571 1450 Q523 1450 497.5 1422 Q472 1394 472 1354 Z " />
<glyph glyph-name="hungarumlaut" unicode="&#x2dd;" horiz-adv-x="1141" d="M659 1346 L280 1159 L225 1251 L546 1538 L659 1346 Z M1089 1346 L710 1159 L659 1251 L976 1538 L1089 1346 Z " />
<glyph glyph-name="breve" unicode="&#x2d8;" horiz-adv-x="1141" d="M978 1552 Q976 1527 969.5 1489.5 Q963 1452 946 1409.5 Q929 1367 900.5 1324.5 Q872 1282 827 1248 Q782 1214 719.5 1192.5 Q657 1171 571 1171 Q485 1171 422 1192.5 Q359 1214 314.5 1248 Q270 1282 241 1324.5 Q212 1367 195.5 1409.5 Q179 1452 171.5 1489.5 Q164 1527 163 1552 L352 1552 Q358 1534 370.5 1509 Q383 1484 407.5 1461 Q432 1438 471.5 1421.5 Q511 1405 571 1405 Q630 1405 669.5 1421.5 Q709 1438 734 1461 Q759 1484 772.5 1509 Q786 1534 792 1552 L978 1552 Z " />
<glyph glyph-name="macron" unicode="&#xaf;" horiz-adv-x="1141" d="M235 1200 L235 1436 L907 1436 L907 1200 L235 1200 Z " />
<glyph glyph-name="tilde" unicode="&#x2dc;" horiz-adv-x="1141" d="M964 1511 Q964 1415 944 1349 Q924 1283 890 1242.5 Q856 1202 810.5 1184.5 Q765 1167 714 1167 Q660 1167 623 1186 Q586 1205 557 1227.5 Q528 1250 502 1269 Q476 1288 444 1288 Q414 1288 396.5 1273 Q379 1258 370 1237.5 Q361 1217 358 1197 Q355 1177 354 1167 L177 1167 Q177 1252 197.5 1316.5 Q218 1381 252.5 1424.5 Q287 1468 332.5 1489.5 Q378 1511 429 1511 Q476 1511 510.5 1492 Q545 1473 575 1450.5 Q605 1428 633.5 1409.5 Q662 1391 698 1391 Q728 1391 745.5 1406 Q763 1421 772 1440.5 Q781 1460 784 1480 Q787 1500 788 1511 L964 1511 Z " />
<glyph glyph-name="quoteleft" unicode="&#x2018;" horiz-adv-x="476" d="M220 1374 L403 1374 L311 870 L65 870 L220 1374 Z " />
<glyph glyph-name="quoteright" unicode="&#x2019;" horiz-adv-x="472" d="M261 870 L79 870 L171 1374 L417 1374 L261 870 Z " />
<glyph glyph-name="quotedblleft" unicode="&#x201c;" horiz-adv-x="844" d="M220 1374 L403 1374 L311 870 L65 870 L220 1374 Z M589 1374 L771 1374 L679 870 L433 870 L589 1374 Z " />
<glyph glyph-name="quotedblright" unicode="&#x201d;" horiz-adv-x="840" d="M630 870 L448 870 L540 1374 L786 1374 L630 870 Z M261 870 L79 870 L171 1374 L417 1374 L261 870 Z " />
<glyph glyph-name="quotesinglbase" unicode="&#x201a;" horiz-adv-x="461" d="M229 -184 L46 -184 L139 319 L384 319 L229 -184 Z " />
<glyph glyph-name="quotedblbase" unicode="&#x201e;" horiz-adv-x="830" d="M597 -184 L415 -184 L507 319 L753 319 L597 -184 Z M229 -184 L46 -184 L139 319 L384 319 L229 -184 Z " />
<glyph glyph-name="grave" unicode="&#x60;" horiz-adv-x="1141" d="M306 1589 L788 1309 L718 1159 L196 1346 L306 1589 Z " />
<glyph glyph-name="acute" unicode="&#xb4;" horiz-adv-x="1141" d="M945 1346 L423 1159 L354 1309 L835 1589 L945 1346 Z " />
<glyph glyph-name="dieresis" unicode="&#xa8;" horiz-adv-x="1141" d="M468 1315 Q468 1288 457.5 1264.5 Q447 1241 429.5 1223.5 Q412 1206 388.5 1196 Q365 1186 339 1186 Q312 1186 288.5 1196 Q265 1206 247.5 1223.5 Q230 1241 220 1264.5 Q210 1288 210 1315 Q210 1341 220 1364.5 Q230 1388 247.5 1405.5 Q265 1423 288.5 1433.5 Q312 1444 339 1444 Q365 1444 388.5 1433.5 Q412 1423 429.5 1405.5 Q447 1388 457.5 1364.5 Q468 1341 468 1315 Z M931 1315 Q931 1288 920.5 1264.5 Q910 1241 892.5 1223.5 Q875 1206 851.5 1196 Q828 1186 802 1186 Q775 1186 751.5 1196 Q728 1206 710.5 1223.5 Q693 1241 683 1264.5 Q673 1288 673 1315 Q673 1341 683 1364.5 Q693 1388 710.5 1405.5 Q728 1423 751.5 1433.5 Q775 1444 802 1444 Q828 1444 851.5 1433.5 Q875 1423 892.5 1405.5 Q910 1388 920.5 1364.5 Q931 1341 931 1315 Z " />
<glyph glyph-name="degree" unicode="&#xb0;" horiz-adv-x="730" d="M75 1083 Q75 1143 97.5 1196 Q120 1249 159.5 1288.5 Q199 1328 251.5 1351 Q304 1374 364 1374 Q424 1374 477 1351 Q530 1328 569.5 1288.5 Q609 1249 632 1196 Q655 1143 655 1083 Q655 1023 632 970.5 Q609 918 569.5 879 Q530 840 477 817.5 Q424 795 364 795 Q304 795 251.5 817.5 Q199 840 159.5 879 Q120 918 97.5 970.5 Q75 1023 75 1083 Z M255 1083 Q255 1037 286 1006 Q317 975 364 975 Q387 975 407 983.5 Q427 992 442 1006.5 Q457 1021 465.5 1040.5 Q474 1060 474 1083 Q474 1106 465.5 1126.5 Q457 1147 442 1162 Q427 1177 407 1185.5 Q387 1194 364 1194 Q317 1194 286 1162 Q255 1130 255 1083 Z " />
<glyph glyph-name="plusminus" unicode="&#xb1;" horiz-adv-x="1190" d="M1064 600 L712 600 L712 371 L479 371 L479 600 L126 600 L126 834 L479 834 L479 1063 L712 1063 L712 834 L1064 834 L1064 600 Z M1064 0 L126 0 L126 233 L1064 233 L1064 0 Z " />
<glyph glyph-name="logicalnot" unicode="&#xac;" horiz-adv-x="1184" d="M1044 248 L810 248 L810 600 L106 600 L106 834 L1044 834 L1044 248 Z " />
<glyph glyph-name="bullet" unicode="&#x2022;" horiz-adv-x="683" d="M542 729 Q542 687 526 650 Q510 613 482.5 586 Q455 559 418.5 543.5 Q382 528 341 528 Q299 528 262.5 543.5 Q226 559 199 586 Q172 613 156.5 650 Q141 687 141 729 Q141 769 156.5 805 Q172 841 199 868.5 Q226 896 262.5 912 Q299 928 341 928 Q382 928 418.5 912 Q455 896 482.5 868.5 Q510 841 526 805 Q542 769 542 729 Z " />
<glyph glyph-name="dotaccent" unicode="&#x2d9;" horiz-adv-x="1141" d="M700 1315 Q700 1288 689.5 1264.5 Q679 1241 661.5 1223.5 Q644 1206 620.5 1196 Q597 1186 571 1186 Q544 1186 520.5 1196 Q497 1206 479.5 1223.5 Q462 1241 452 1264.5 Q442 1288 442 1315 Q442 1341 452 1364.5 Q462 1388 479.5 1405.5 Q497 1423 520.5 1433.5 Q544 1444 571 1444 Q597 1444 620.5 1433.5 Q644 1423 661.5 1405.5 Q679 1388 689.5 1364.5 Q700 1341 700 1315 Z " />
<glyph glyph-name="period" unicode="&#x2e;" horiz-adv-x="420" d="M339 131 Q339 104 328.5 80.5 Q318 57 300.5 39.5 Q283 22 259.5 12 Q236 2 210 2 Q183 2 159.5 12 Q136 22 118.5 39.5 Q101 57 91 80.5 Q81 104 81 131 Q81 157 91 180.5 Q101 204 118.5 221.5 Q136 239 159.5 249.5 Q183 260 210 260 Q236 260 259.5 249.5 Q283 239 300.5 221.5 Q318 204 328.5 180.5 Q339 157 339 131 Z " />
<glyph glyph-name="comma" unicode="&#x2c;" horiz-adv-x="461" d="M229 -184 L46 -184 L139 319 L384 319 L229 -184 Z " />
<glyph glyph-name="semicolon" unicode="&#x3b;" horiz-adv-x="515" d="M401 950 Q401 923 390.5 899.5 Q380 876 362.5 858.5 Q345 841 321.5 831 Q298 821 272 821 Q245 821 221.5 831 Q198 841 180.5 858.5 Q163 876 153 899.5 Q143 923 143 950 Q143 976 153 999.5 Q163 1023 180.5 1040.5 Q198 1058 221.5 1068.5 Q245 1079 272 1079 Q298 1079 321.5 1068.5 Q345 1058 362.5 1040.5 Q380 1023 390.5 999.5 Q401 976 401 950 Z M243 -184 L61 -184 L153 319 L399 319 L243 -184 Z " />
<glyph glyph-name="colon" unicode="&#x3a;" horiz-adv-x="498" d="M378 131 Q378 104 367.5 80.5 Q357 57 339.5 39.5 Q322 22 298.5 12 Q275 2 249 2 Q222 2 198.5 12 Q175 22 157.5 39.5 Q140 57 130 80.5 Q120 104 120 131 Q120 157 130 180.5 Q140 204 157.5 221.5 Q175 239 198.5 249.5 Q222 260 249 260 Q275 260 298.5 249.5 Q322 239 339.5 221.5 Q357 204 367.5 180.5 Q378 157 378 131 Z M378 950 Q378 923 367.5 899.5 Q357 876 339.5 858.5 Q322 841 298.5 831 Q275 821 249 821 Q222 821 198.5 831 Q175 841 157.5 858.5 Q140 876 130 899.5 Q120 923 120 950 Q120 976 130 999.5 Q140 1023 157.5 1040.5 Q175 1058 198.5 1068.5 Q222 1079 249 1079 Q275 1079 298.5 1068.5 Q322 1058 339.5 1040.5 Q357 1023 367.5 999.5 Q378 976 378 950 Z " />
<glyph glyph-name="exclamdown" unicode="&#xa1;" horiz-adv-x="511" d="M165 674 L343 674 L405 -408 L104 -408 L165 674 Z M124 895 Q124 922 134.5 945.5 Q145 969 162.5 986.5 Q180 1004 203.5 1014 Q227 1024 253 1024 Q280 1024 303.5 1014 Q327 1004 344.5 986.5 Q362 969 372 945.5 Q382 922 382 895 Q382 869 372 845.5 Q362 822 344.5 804.5 Q327 787 303.5 776.5 Q280 766 253 766 Q227 766 203.5 776.5 Q180 787 162.5 804.5 Q145 822 134.5 845.5 Q124 869 124 895 Z " />
<glyph glyph-name="questiondown" unicode="&#xbf;" horiz-adv-x="1354" d="M81 74 Q81 129 100 193 Q119 257 162.5 312 Q206 367 275.5 403.5 Q345 440 446 440 L667 440 L667 674 L927 674 L927 309 Q927 282 917 258.5 Q907 235 889.5 217 Q872 199 848.5 188.5 Q825 178 798 178 L446 178 Q395 178 368 152 Q341 126 341 74 L341 -43 Q341 -147 446 -147 L1279 -147 L1279 -408 L446 -408 Q409 -408 367.5 -399.5 Q326 -391 285.5 -373 Q245 -355 208 -326 Q171 -297 143 -256.5 Q115 -216 98 -163 Q81 -110 81 -43 L81 74 Z M669 895 Q669 922 679 945.5 Q689 969 706.5 986.5 Q724 1004 747.5 1014 Q771 1024 798 1024 Q824 1024 847.5 1014 Q871 1004 888.5 986.5 Q906 969 916.5 945.5 Q927 922 927 895 Q927 869 916.5 845.5 Q906 822 888.5 804.5 Q871 787 847.5 776.5 Q824 766 798 766 Q771 766 747.5 776.5 Q724 787 706.5 804.5 Q689 822 679 845.5 Q669 869 669 895 Z " />
<glyph glyph-name="onehalf" unicode="&#xbd;" horiz-adv-x="1551" d="M1117 1303 L380 12 L141 12 L878 1303 L1117 1303 Z M372 621 L190 621 L190 1096 L96 1096 L96 1278 L372 1278 L372 621 Z M1457 37 L847 37 L847 270 Q847 304 859 337.5 Q871 371 895 397.5 Q919 424 954 440.5 Q989 457 1034 457 L1275 457 L1275 512 L894 512 L894 694 L1271 694 Q1316 694 1351 677.5 Q1386 661 1409.5 634.5 Q1433 608 1445 575 Q1457 542 1457 508 L1457 461 Q1457 416 1440.5 381 Q1424 346 1397.5 322 Q1371 298 1338 286 Q1305 274 1271 274 L1029 274 L1029 219 L1457 219 L1457 37 Z " />
<glyph glyph-name="onequarter" unicode="&#xbc;" horiz-adv-x="1616" d="M1117 1303 L380 12 L141 12 L878 1303 L1117 1303 Z M372 621 L190 621 L190 1096 L96 1096 L96 1278 L372 1278 L372 621 Z M1509 37 L1326 37 L1326 694 L1509 694 L1509 37 Z M1509 274 L991 274 Q971 274 954.5 281 Q938 288 925 300.5 Q912 313 905 329.5 Q898 346 898 365 L898 694 L1081 694 L1081 457 L1509 457 L1509 274 Z " />
<glyph glyph-name="onesuperior" unicode="&#xb9;" horiz-adv-x="490" d="M364 621 L182 621 L182 1096 L87 1096 L87 1278 L364 1278 L364 621 Z " />
<glyph glyph-name="threequarters" unicode="&#xbe;" horiz-adv-x="1881" d="M1382 1303 L644 12 L405 12 L1142 1303 L1382 1303 Z M1773 37 L1591 37 L1591 694 L1773 694 L1773 37 Z M1773 274 L1255 274 Q1236 274 1219 281 Q1202 288 1189.5 300.5 Q1177 313 1170 329.5 Q1163 346 1163 365 L1163 694 L1345 694 L1345 457 L1773 457 L1773 274 Z M616 858 L114 858 L114 1040 L616 1040 L616 858 Z M677 807 Q677 762 660.5 727 Q644 692 617.5 668.5 Q591 645 558 633 Q525 621 491 621 L114 621 L114 803 L495 803 L495 1096 L114 1096 L114 1278 L491 1278 Q536 1278 571 1261.5 Q606 1245 629.5 1218.5 Q653 1192 665 1159 Q677 1126 677 1092 L677 807 Z " />
<glyph glyph-name="threesuperior" unicode="&#xb3;" horiz-adv-x="791" d="M626 858 L124 858 L124 1040 L626 1040 L626 858 Z M687 807 Q687 762 670.5 727 Q654 692 627.5 668.5 Q601 645 568 633 Q535 621 501 621 L124 621 L124 803 L505 803 L505 1096 L124 1096 L124 1278 L501 1278 Q546 1278 581 1261.5 Q616 1245 639.5 1218.5 Q663 1192 675 1159 Q687 1126 687 1092 L687 807 Z " />
<glyph glyph-name="twosuperior" unicode="&#xb2;" horiz-adv-x="830" d="M718 621 L108 621 L108 854 Q108 888 120 921 Q132 954 155.5 980.5 Q179 1007 214 1023.5 Q249 1040 294 1040 L536 1040 L536 1096 L155 1096 L155 1278 L532 1278 Q577 1278 612 1261.5 Q647 1245 670.5 1218.5 Q694 1192 706 1159 Q718 1126 718 1092 L718 1044 Q718 999 701.5 964.5 Q685 930 658.5 906 Q632 882 599 870 Q566 858 532 858 L290 858 L290 803 L718 803 L718 621 Z " />
<glyph glyph-name="quotedbl" unicode="&#x22;" horiz-adv-x="783" d="M300 870 L134 870 L96 1374 L341 1374 L300 870 Z M648 870 L483 870 L444 1374 L689 1374 L648 870 Z " />
<glyph glyph-name="numbersign" unicode="&#x23;" horiz-adv-x="1494" d="M239 1044 L454 1044 L528 1374 L771 1374 L698 1044 L948 1044 L1021 1374 L1265 1374 L1191 1044 L1421 1044 L1369 811 L1140 811 L1087 567 L1308 567 L1257 334 L1036 334 L962 0 L718 0 L792 334 L542 334 L468 0 L225 0 L298 334 L71 334 L126 567 L349 567 L403 811 L184 811 L239 1044 Z M593 567 L843 567 L896 811 L646 811 L593 567 Z " />
<glyph glyph-name="quotesingle" unicode="&#x27;" horiz-adv-x="435" d="M300 870 L134 870 L96 1374 L341 1374 L300 870 Z " />
<glyph glyph-name="less" unicode="&#x3c;" horiz-adv-x="1076" d="M974 1253 L378 719 L974 197 L599 197 L116 621 Q71 658 71 719 Q71 747 82.5 772 Q94 797 114 815 L603 1253 L974 1253 Z " />
<glyph glyph-name="greater" unicode="&#x3e;" horiz-adv-x="1076" d="M472 1253 L962 815 Q982 797 993.5 772 Q1005 747 1005 719 Q1005 690 993 664.5 Q981 639 960 621 L476 197 L102 197 L698 719 L102 1253 L472 1253 Z " />
<glyph glyph-name="asciicircum" unicode="&#x5e;" horiz-adv-x="881" d="M851 696 L433 1161 L30 698 L30 1034 L345 1395 Q381 1436 433 1436 Q458 1436 481.5 1425.5 Q505 1415 522 1397 L851 1028 L851 696 Z " />
<glyph glyph-name="underscore" unicode="&#x5f;" horiz-adv-x="1395" d="M1269 -352 L126 -352 L126 -119 L1269 -119 L1269 -352 Z " />
<glyph glyph-name="asciitilde" unicode="&#x7e;" horiz-adv-x="1297" d="M1189 606 Q1168 585 1139 567 Q1110 549 1075 535.5 Q1040 522 1001.5 514 Q963 506 923 506 Q861 506 790.5 523 Q720 540 647 560 Q574 580 502 597 Q430 614 366 614 Q331 614 294 604 Q257 594 222.5 578 Q188 562 158.5 542 Q129 522 110 502 L110 764 Q131 785 162 804 Q193 823 229 836.5 Q265 850 302.5 858 Q340 866 374 866 Q435 866 506.5 849 Q578 832 651.5 811 Q725 790 797 773 Q869 756 933 756 Q967 756 1004 766 Q1041 776 1075.5 792.5 Q1110 809 1139.5 829 Q1169 849 1189 870 L1189 606 Z " />
<glyph glyph-name="at" unicode="&#x40;" horiz-adv-x="1354" d="M1247 440 Q1247 409 1236 373 Q1225 337 1200 306 Q1175 275 1135 254 Q1095 233 1038 233 L569 233 Q537 233 501 244 Q465 255 434 280 Q403 305 382.5 344 Q362 383 362 440 Q362 471 373 508 Q384 545 408.5 576 Q433 607 472.5 628 Q512 649 569 649 L778 649 L778 467 L569 467 Q566 467 562 466.5 Q558 466 554 463.5 Q550 461 547 455.5 Q544 450 544 440 Q544 426 552 421 Q560 416 571 416 L812 416 Q820 416 825.5 421.5 Q831 427 831 442 L831 676 Q831 685 827.5 693.5 Q824 702 802 702 L466 702 L466 885 L804 885 Q835 885 872 874 Q909 863 940 838 Q971 813 992 773 Q1013 733 1013 676 L1013 440 Q1013 434 1012 428 Q1011 422 1011 416 L1038 416 Q1049 416 1056.5 419 Q1064 422 1064 442 L1064 793 Q1064 826 1053 852.5 Q1042 879 1023 897.5 Q1004 916 978 926 Q952 936 921 936 L452 936 Q419 936 392.5 925 Q366 914 347.5 894.5 Q329 875 319 849 Q309 823 309 793 L309 324 Q309 292 320 265.5 Q331 239 350.5 220 Q370 201 396 190.5 Q422 180 452 180 L569 180 L569 -2 L452 -2 Q403 -2 346 15 Q289 32 240 71 Q191 110 158.5 172 Q126 234 126 324 L126 793 Q126 842 143 899 Q160 956 199 1004.5 Q238 1053 300 1085.5 Q362 1118 452 1118 L921 1118 Q970 1118 1027 1101 Q1084 1084 1133 1045.5 Q1182 1007 1214.5 945 Q1247 883 1247 793 L1247 440 Z " />
<glyph glyph-name="AE" unicode="&#xc6;" horiz-adv-x="2700" d="M2600 0 L1662 0 Q1626 0 1585.5 8 Q1545 16 1505 33.5 Q1465 51 1428.5 78.5 Q1392 106 1363.5 145 Q1335 184 1317 235.5 Q1299 287 1298 352 L384 352 L384 0 L124 0 L124 717 Q124 874 178 1006 Q232 1138 328 1233 Q424 1328 555 1381 Q686 1434 841 1434 L1427 1434 L1437 1434 L2600 1434 L2600 1174 L1558 1174 L1558 365 Q1558 314 1585 287 Q1612 260 1664 260 L2600 260 L2600 0 Z M384 612 L1298 612 L1298 1174 L841 1174 Q829 1174 790.5 1170.5 Q752 1167 701.5 1153 Q651 1139 595 1110 Q539 1081 492 1030 Q445 979 414.5 902.5 Q384 826 384 717 L384 612 Z M2484 586 L1662 586 L1662 848 L2484 848 L2484 586 Z " />
<glyph glyph-name="ae" unicode="&#xe6;" horiz-adv-x="2231" d="M2176 723 Q2176 669 2157 606.5 Q2138 544 2095.5 490.5 Q2053 437 1984.5 401 Q1916 365 1818 365 L1349 365 L1349 612 L1818 612 Q1871 612 1899.5 644.5 Q1928 677 1928 725 Q1928 776 1896 805 Q1864 834 1818 834 L1349 834 Q1296 834 1267 801.5 Q1238 769 1238 723 L1238 358 L1238 348 Q1241 300 1273 274 Q1305 248 1351 248 L1818 248 L1818 0 L1349 0 Q1295 0 1232 19.5 Q1169 39 1115 82 Q1072 45 1014.5 22.5 Q957 0 880 0 L411 0 Q357 0 294.5 19 Q232 38 178.5 80.5 Q125 123 89 191.5 Q53 260 53 358 Q53 412 72 475 Q91 538 133.5 591.5 Q176 645 244.5 681 Q313 717 411 717 L880 717 L880 469 L411 469 Q358 469 329 436.5 Q300 404 300 356 Q300 305 333.5 276.5 Q367 248 413 248 L880 248 Q933 248 962 280 Q991 312 991 360 L991 723 Q991 774 959.5 804 Q928 834 880 834 L309 834 L309 1081 L880 1081 Q934 1081 996.5 1062 Q1059 1043 1113 999 Q1155 1037 1213.5 1059 Q1272 1081 1349 1081 L1818 1081 Q1872 1081 1934.5 1062 Q1997 1043 2050.5 1000.5 Q2104 958 2140 889.5 Q2176 821 2176 723 Z " />
<glyph glyph-name="oe" unicode="&#x153;" horiz-adv-x="2284" d="M2238 723 Q2238 687 2229.5 646.5 Q2221 606 2203 566.5 Q2185 527 2156.5 490.5 Q2128 454 2088.5 426 Q2049 398 1997 381.5 Q1945 365 1879 365 L1410 365 L1410 612 L1879 612 Q1932 612 1961 644.5 Q1990 677 1990 725 Q1990 776 1958 805 Q1926 834 1879 834 L1410 834 Q1358 834 1329 801.5 Q1300 769 1300 721 L1300 358 Q1300 306 1332 277 Q1364 248 1412 248 L1879 248 L1879 0 L1410 0 Q1355 0 1292 19.5 Q1229 39 1173 84 Q1146 62 1115.5 46 Q1085 30 1053.5 20 Q1022 10 991.5 5 Q961 0 933 0 L464 0 Q410 0 346 19 Q282 38 227.5 81.5 Q173 125 136.5 194.5 Q100 264 100 365 L100 717 Q100 817 136.5 886.5 Q173 956 227.5 999.5 Q282 1043 346 1062 Q410 1081 464 1081 L933 1081 Q1012 1081 1070.5 1058 Q1129 1035 1173 997 Q1216 1035 1274 1058 Q1332 1081 1410 1081 L1879 1081 Q1933 1081 1996 1062 Q2059 1043 2112.5 1000.5 Q2166 958 2202 889.5 Q2238 821 2238 723 Z M1038 715 Q1038 769 1011 795 Q984 821 933 821 L466 821 Q414 821 387 794.5 Q360 768 360 717 L360 365 Q360 314 387 287 Q414 260 466 260 L933 260 Q986 260 1012 287 Q1038 314 1038 365 L1038 715 Z " />
<glyph glyph-name="OE" unicode="&#x152;" horiz-adv-x="2796" d="M2699 0 L1761 0 Q1726 0 1687 7.5 Q1648 15 1609.5 30.5 Q1571 46 1535 71.5 Q1499 97 1470 133 Q1391 61 1286.5 20.5 Q1182 -20 1058 -20 L706 -20 Q577 -20 467 24.5 Q357 69 277 149 Q197 229 151.5 339 Q106 449 106 580 L106 854 Q106 984 151.5 1094.5 Q197 1205 277 1284.5 Q357 1364 467 1409 Q577 1454 706 1454 L1058 1454 Q1157 1454 1244.5 1427.5 Q1332 1401 1404 1352 Q1420 1389 1452 1411.5 Q1484 1434 1527 1434 L2699 1434 L2699 1174 L1656 1174 L1656 365 Q1656 314 1683 287 Q1710 260 1763 260 L2699 260 L2699 0 Z M1396 854 Q1396 931 1371.5 993.5 Q1347 1056 1302.5 1100.5 Q1258 1145 1195.5 1169.5 Q1133 1194 1058 1194 L706 1194 Q630 1194 567.5 1169.5 Q505 1145 460 1100.5 Q415 1056 390.5 993.5 Q366 931 366 854 L366 580 Q366 503 390.5 440.5 Q415 378 460 333.5 Q505 289 567.5 264.5 Q630 240 706 240 L1056 240 Q1132 240 1194.5 264.5 Q1257 289 1302 333.5 Q1347 378 1371.5 440.5 Q1396 503 1396 580 L1396 854 Z M2582 586 L1761 586 L1761 848 L2582 848 L2582 586 Z " />
<glyph glyph-name="paragraph" unicode="&#xb6;" horiz-adv-x="1932" d="M1302 1174 Q1314 1124 1314 1069 L1314 0 L1054 0 L1054 1069 Q1054 1120 1027 1147 Q1000 1174 948 1174 L567 1174 Q516 1174 477 1157.5 Q438 1141 410 1112 Q382 1083 366 1042 Q350 1001 345 952 L345 834 Q345 784 361 744.5 Q377 705 406 677 Q435 649 476 632.5 Q517 616 567 612 L950 612 L950 352 L567 352 Q519 352 464.5 363 Q410 374 356.5 398 Q303 422 254 460 Q205 498 167.5 551.5 Q130 605 107.5 675 Q85 745 85 834 L85 952 Q85 1000 96 1054.5 Q107 1109 131.5 1162.5 Q156 1216 194 1265 Q232 1314 285.5 1351.5 Q339 1389 409 1411.5 Q479 1434 567 1434 L950 1434 Q1002 1434 1064.5 1415 Q1127 1396 1181 1356 L1181 1434 L1414 1434 Q1469 1434 1532.5 1414.5 Q1596 1395 1651 1352 Q1706 1309 1742.5 1239 Q1779 1169 1779 1069 L1779 0 L1519 0 L1519 1069 Q1519 1120 1492 1147 Q1465 1174 1412 1174 L1302 1174 Z " />
<glyph glyph-name="registered" unicode="&#xae;" horiz-adv-x="1436" d="M1312 623 Q1312 533 1289.5 464.5 Q1267 396 1229.5 346 Q1192 296 1144.5 262 Q1097 228 1046.5 207.5 Q996 187 947 178.5 Q898 170 859 170 L577 170 Q538 170 489.5 178.5 Q441 187 390.5 207.5 Q340 228 292 262 Q244 296 206.5 346 Q169 396 146.5 464.5 Q124 533 124 623 L124 811 Q124 900 146.5 968.5 Q169 1037 206.5 1087.5 Q244 1138 292 1172 Q340 1206 390.5 1226.5 Q441 1247 489.5 1255.5 Q538 1264 577 1264 L859 1264 Q898 1264 947 1255.5 Q996 1247 1046.5 1226.5 Q1097 1206 1145 1172 Q1193 1138 1230 1087.5 Q1267 1037 1289.5 968.5 Q1312 900 1312 811 L1312 623 Z M1036 815 Q1036 767 1022.5 731 Q1009 695 986.5 669.5 Q964 644 935.5 628 Q907 612 878 604 L1089 424 Q1118 456 1137 504.5 Q1156 553 1156 623 L1156 811 Q1156 996 1011 1069 Q983 1083 956 1090.5 Q929 1098 907 1102 Q881 1106 859 1108 L577 1108 Q570 1108 545 1106 Q520 1104 487 1095 Q454 1086 417.5 1067.5 Q381 1049 350.5 1016 Q320 983 300 933 Q280 883 280 811 L280 623 Q280 551 300 501 Q320 451 350.5 418 Q381 385 417.5 366.5 Q454 348 487.5 339 Q521 330 546 328 Q571 326 579 326 L859 326 Q867 326 891 327.5 Q915 329 948 338 L651 596 L624 596 L624 754 L818 754 Q880 754 880 815 L880 879 L567 879 L567 440 L411 440 L411 956 Q411 988 434 1011 Q457 1034 489 1034 L884 1034 Q921 1034 949 1020.5 Q977 1007 996.5 985.5 Q1016 964 1026 937 Q1036 910 1036 883 L1036 815 Z " />
<glyph glyph-name="copyright" unicode="&#xa9;" horiz-adv-x="1436" d="M1312 623 Q1312 533 1289.5 464.5 Q1267 396 1229.5 346 Q1192 296 1144.5 262 Q1097 228 1046.5 207.5 Q996 187 947 178.5 Q898 170 859 170 L577 170 Q538 170 489.5 178.5 Q441 187 390.5 207.5 Q340 228 292 262 Q244 296 206.5 346 Q169 396 146.5 464.5 Q124 533 124 623 L124 811 Q124 900 146.5 968.5 Q169 1037 206.5 1087.5 Q244 1138 292 1172 Q340 1206 390.5 1226.5 Q441 1247 489.5 1255.5 Q538 1264 577 1264 L859 1264 Q898 1264 947 1255.5 Q996 1247 1046.5 1226.5 Q1097 1206 1145 1172 Q1193 1138 1230 1087.5 Q1267 1037 1289.5 968.5 Q1312 900 1312 811 L1312 623 Z M1156 623 L1156 811 Q1156 996 1011 1069 Q983 1083 956 1090.5 Q929 1098 907 1102 Q881 1106 859 1108 L577 1108 Q570 1108 545 1106 Q520 1104 487 1095 Q454 1086 417.5 1067.5 Q381 1049 350.5 1016 Q320 983 300 933 Q280 883 280 811 L280 623 Q280 551 300 501 Q320 451 350.5 418 Q381 385 417.5 366.5 Q454 348 487.5 339 Q521 330 546 328 Q571 326 579 326 L859 326 Q867 326 892 328 Q917 330 950 339.5 Q983 349 1019 367.5 Q1055 386 1085.5 419 Q1116 452 1136 502 Q1156 552 1156 623 Z M964 410 L589 410 Q564 410 534 419.5 Q504 429 478 449.5 Q452 470 434.5 502.5 Q417 535 417 582 L417 862 Q417 887 426 917.5 Q435 948 455.5 973.5 Q476 999 508.5 1016.5 Q541 1034 589 1034 L964 1034 L964 879 L589 879 Q586 879 584 878.5 Q582 878 580 878 Q578 877 577 877 Q575 875 574 869.5 Q573 864 573 862 L573 582 Q573 575 574 573 Q574 571 575 571 Q577 568 582 566.5 Q587 565 589 565 L964 565 L964 410 Z " />
<glyph glyph-name="trademark" unicode="&#x2122;" horiz-adv-x="1645" d="M1511 846 L1369 846 L1369 1139 L1210 870 L1210 872 Q1190 838 1148 838 Q1131 838 1114.5 846.5 Q1098 855 1089 872 L1089 870 L927 1139 L927 846 L790 846 L790 1374 Q790 1399 803 1417.5 Q816 1436 839 1442 Q862 1448 883.5 1439.5 Q905 1431 919 1411 L1148 1047 L1380 1411 Q1394 1431 1415.5 1439.5 Q1437 1448 1460 1442 Q1483 1436 1497 1417.5 Q1511 1399 1511 1374 L1511 846 Z M696 1296 L476 1296 L476 846 L335 846 L335 1296 L116 1296 L116 1436 L696 1436 L696 1296 Z " />
<glyph glyph-name="partialdiff" unicode="&#x2202;" horiz-adv-x="1422" d="M1290 365 Q1290 264 1253.5 194.5 Q1217 125 1162.5 81.5 Q1108 38 1044 19 Q980 0 925 0 L456 0 Q389 0 336 17 Q283 34 242.5 62.5 Q202 91 173 128 Q144 165 126 205.5 Q108 246 99.5 287.5 Q91 329 91 365 L91 717 Q91 784 108 837 Q125 890 153.5 930.5 Q182 971 219 999.5 Q256 1028 296.5 1046 Q337 1064 378.5 1072.5 Q420 1081 456 1081 L925 1081 L925 821 L458 821 Q405 821 378.5 794.5 Q352 768 352 717 L352 367 Q352 260 456 260 L925 260 Q978 260 1003.5 287 Q1029 314 1029 365 L1029 1186 Q1029 1236 1014 1276.5 Q999 1317 971 1346 Q943 1375 901.5 1391 Q860 1407 808 1407 L677 1407 L677 1669 L808 1669 Q897 1669 967 1646.5 Q1037 1624 1090.5 1586.5 Q1144 1549 1182 1500 Q1220 1451 1244 1397.5 Q1268 1344 1279 1289 Q1290 1234 1290 1186 L1290 365 Z " />
<glyph glyph-name="guillemotleft" unicode="&#xab;" horiz-adv-x="1426" d="M804 952 L339 535 L802 131 L466 131 L106 446 Q65 481 65 535 Q65 559 75 582.5 Q85 606 104 623 L472 952 L804 952 Z M1337 952 L872 535 L1335 131 L999 131 L638 446 Q597 482 597 535 Q597 559 607.5 582.5 Q618 606 636 623 L1005 952 L1337 952 Z " />
<glyph glyph-name="guillemotright" unicode="&#xbb;" horiz-adv-x="1426" d="M954 952 L1322 623 Q1341 606 1351 582.5 Q1361 559 1361 535 Q1361 481 1320 446 L960 131 L624 131 L1087 535 L622 952 L954 952 Z M421 952 L790 623 Q808 606 818.5 582.5 Q829 559 829 535 Q829 482 788 446 L427 131 L91 131 L554 535 L89 952 L421 952 Z " />
<glyph glyph-name="endash" unicode="&#x2013;" horiz-adv-x="1051" d="M935 600 L116 600 L116 834 L935 834 L935 600 Z " />
<glyph glyph-name="emdash" unicode="&#x2014;" horiz-adv-x="1870" d="M1754 600 L116 600 L116 834 L1754 834 L1754 600 Z " />
<glyph glyph-name="guilsinglleft" unicode="&#x2039;" horiz-adv-x="894" d="M804 952 L339 535 L802 131 L466 131 L106 446 Q65 481 65 535 Q65 559 75 582.5 Q85 606 104 623 L472 952 L804 952 Z " />
<glyph glyph-name="guilsinglright" unicode="&#x203a;" horiz-adv-x="894" d="M421 952 L790 623 Q808 606 818.5 582.5 Q829 559 829 535 Q829 482 788 446 L427 131 L91 131 L554 535 L89 952 L421 952 Z " />
<glyph glyph-name="fraction" unicode="&#x2044;" horiz-adv-x="1043" d="M1005 1303 L268 12 L28 12 L765 1303 L1005 1303 Z " />
<glyph glyph-name="perthousand" unicode="&#x2030;" horiz-adv-x="2520" d="M1695 365 Q1695 295 1668.5 233.5 Q1642 172 1596 126 Q1550 80 1488.5 53.5 Q1427 27 1357 27 Q1286 27 1224.5 53.5 Q1163 80 1116.5 126 Q1070 172 1043.5 233.5 Q1017 295 1017 365 Q1017 435 1043.5 496.5 Q1070 558 1116.5 604.5 Q1163 651 1224.5 678 Q1286 705 1357 705 Q1427 705 1488.5 678 Q1550 651 1596 604.5 Q1642 558 1668.5 496.5 Q1695 435 1695 365 Z M1367 1303 L630 12 L390 12 L1128 1303 L1367 1303 Z M757 952 Q757 881 730.5 819.5 Q704 758 657.5 711.5 Q611 665 549 638.5 Q487 612 417 612 Q347 612 285.5 638.5 Q224 665 178 711.5 Q132 758 105.5 819.5 Q79 881 79 952 Q79 1022 105.5 1083.5 Q132 1145 178 1191 Q224 1237 285.5 1263.5 Q347 1290 417 1290 Q487 1290 549 1263.5 Q611 1237 657.5 1191 Q704 1145 730.5 1083.5 Q757 1022 757 952 Z M1486 365 Q1486 392 1476 415.5 Q1466 439 1448.5 457 Q1431 475 1407.5 485.5 Q1384 496 1357 496 Q1330 496 1306 485.5 Q1282 475 1264.5 457 Q1247 439 1236.5 415.5 Q1226 392 1226 365 Q1226 338 1236.5 314.5 Q1247 291 1264.5 273.5 Q1282 256 1306 246 Q1330 236 1357 236 Q1384 236 1407.5 246 Q1431 256 1448.5 273.5 Q1466 291 1476 314.5 Q1486 338 1486 365 Z M548 952 Q548 979 538 1002.5 Q528 1026 510.5 1043.5 Q493 1061 469 1071 Q445 1081 417 1081 Q390 1081 366.5 1071 Q343 1061 325.5 1043.5 Q308 1026 298 1002.5 Q288 979 288 952 Q288 925 298 901 Q308 877 325.5 859 Q343 841 366.5 831 Q390 821 417 821 Q445 821 469 831 Q493 841 510.5 859 Q528 877 538 901 Q548 925 548 952 Z M2443 365 Q2443 295 2416.5 233.5 Q2390 172 2344 126 Q2298 80 2236.5 53.5 Q2175 27 2105 27 Q2034 27 1972 53.5 Q1910 80 1864 126 Q1818 172 1791.5 233.5 Q1765 295 1765 365 Q1765 435 1791.5 496.5 Q1818 558 1864 604.5 Q1910 651 1972 678 Q2034 705 2105 705 Q2175 705 2236.5 678 Q2298 651 2344 604.5 Q2390 558 2416.5 496.5 Q2443 435 2443 365 Z M2234 365 Q2234 392 2224 415.5 Q2214 439 2196.5 457 Q2179 475 2155.5 485.5 Q2132 496 2105 496 Q2078 496 2054 485.5 Q2030 475 2012.5 457 Q1995 439 1984.5 415.5 Q1974 392 1974 365 Q1974 338 1984.5 314.5 Q1995 291 2012.5 273.5 Q2030 256 2054 246 Q2078 236 2105 236 Q2132 236 2155.5 246 Q2179 256 2196.5 273.5 Q2214 291 2224 314.5 Q2234 338 2234 365 Z " />
<glyph glyph-name="dotlessi" unicode="&#x131;" horiz-adv-x="513" d="M386 0 L126 0 L126 1081 L386 1081 L386 0 Z " />
<glyph glyph-name="thorn" unicode="&#xfe;" horiz-adv-x="1424" d="M1324 365 Q1324 298 1307 244.5 Q1290 191 1262 150.5 Q1234 110 1197 81.5 Q1160 53 1119.5 35 Q1079 17 1038 8.5 Q997 0 960 0 L491 0 L491 260 L960 260 Q1012 260 1038 287 Q1064 314 1064 365 L1064 715 Q1064 769 1037.5 795 Q1011 821 960 821 L493 821 Q389 821 386 727 L386 -338 L126 -338 L126 1538 L386 1538 L386 1065 Q412 1073 439 1077 Q466 1081 491 1081 L960 1081 Q1027 1081 1080 1064 Q1133 1047 1173.5 1019 Q1214 991 1242.5 954 Q1271 917 1289 876.5 Q1307 836 1315.5 795 Q1324 754 1324 717 L1324 365 Z " />
<glyph glyph-name="nbspace" unicode="&#xa0;" horiz-adv-x="666" d="" />
<glyph glyph-name="approxequal" unicode="&#x2248;" horiz-adv-x="1371" d="M1222 811 Q1201 790 1172 772 Q1143 754 1108 740.5 Q1073 727 1034.5 719 Q996 711 956 711 Q894 711 823.5 728 Q753 745 680 765 Q607 785 535 802 Q463 819 399 819 Q364 819 327 809 Q290 799 255.5 783 Q221 767 191.5 747 Q162 727 143 707 L143 969 Q164 990 195 1009 Q226 1028 262 1041.5 Q298 1055 335.5 1063 Q373 1071 407 1071 Q468 1071 539.5 1054 Q611 1037 684.5 1016 Q758 995 830 978 Q902 961 966 961 Q1000 961 1037 971 Q1074 981 1108.5 997.5 Q1143 1014 1172.5 1034 Q1202 1054 1222 1075 L1222 811 Z M1222 401 Q1201 380 1172 362 Q1143 344 1108 330.5 Q1073 317 1034.5 309 Q996 301 956 301 Q894 301 823.5 318 Q753 335 680 355.5 Q607 376 535 393 Q463 410 399 410 Q364 410 327 400 Q290 390 255.5 373.5 Q221 357 191.5 337 Q162 317 143 297 L143 559 Q164 580 195 599 Q226 618 262 632 Q298 646 335.5 654 Q373 662 407 662 Q468 662 539.5 644.5 Q611 627 684.5 606.5 Q758 586 830 568.5 Q902 551 966 551 Q1000 551 1037 561 Q1074 571 1108.5 587.5 Q1143 604 1172.5 624.5 Q1202 645 1222 666 L1222 401 Z " />
<glyph glyph-name="periodcentered" unicode="&#xb7;" horiz-adv-x="437" d="M347 719 Q347 692 336.5 668.5 Q326 645 308.5 627.5 Q291 610 267.5 600 Q244 590 218 590 Q191 590 167.5 600 Q144 610 126.5 627.5 Q109 645 99 668.5 Q89 692 89 719 Q89 745 99 768.5 Q109 792 126.5 809.5 Q144 827 167.5 837.5 Q191 848 218 848 Q244 848 267.5 837.5 Q291 827 308.5 809.5 Q326 792 336.5 768.5 Q347 745 347 719 Z " />
<glyph glyph-name="Lslash" unicode="&#x141;" horiz-adv-x="1676" d="M874 805 L579 657 L579 260 L1636 260 L1636 0 L450 0 Q422 0 398 10 Q374 20 356.5 37.5 Q339 55 329 79 Q319 103 319 131 L319 526 L55 395 L55 670 L319 801 L319 1434 L579 1434 L579 932 L874 1079 L874 805 Z " />
<glyph glyph-name="lslash" unicode="&#x142;" horiz-adv-x="941" d="M876 805 L581 657 L581 365 Q581 317 610.5 288.5 Q640 260 685 260 L802 260 L802 0 L685 0 Q648 0 607 8.5 Q566 17 525.5 35 Q485 53 448 81.5 Q411 110 383 150.5 Q355 191 338 244.5 Q321 298 321 365 L321 526 L57 395 L57 670 L321 801 L321 1538 L581 1538 L581 932 L876 1079 L876 805 Z " />
<glyph glyph-name="Scaron" unicode="&#x160;" horiz-adv-x="1594" d="M1529 422 Q1529 345 1509.5 283.5 Q1490 222 1458 175 Q1426 128 1383 95 Q1340 62 1294 41 Q1248 20 1200.5 10 Q1153 0 1111 0 L108 0 L108 260 L1111 260 Q1186 260 1227.5 304 Q1269 348 1269 422 Q1269 458 1258 488 Q1247 518 1226.5 540 Q1206 562 1176.5 574 Q1147 586 1111 586 L513 586 Q450 586 377 608.5 Q304 631 241.5 681 Q179 731 137.5 812 Q96 893 96 1010 Q96 1127 137.5 1207.5 Q179 1288 241.5 1338.5 Q304 1389 377 1411.5 Q450 1434 513 1434 L1398 1434 L1398 1174 L513 1174 Q439 1174 397.5 1129 Q356 1084 356 1010 Q356 935 397.5 891.5 Q439 848 513 848 L1111 848 L1113 848 Q1155 847 1202 836.5 Q1249 826 1295.5 804 Q1342 782 1384 748.5 Q1426 715 1458.5 668 Q1491 621 1510 560 Q1529 499 1529 422 Z M465 1983 L813 1803 L1161 1983 L1282 1815 L813 1549 L344 1815 L465 1983 Z " />
<glyph glyph-name="scaron" unicode="&#x161;" horiz-adv-x="1227" d="M1167 365 Q1167 298 1150 244.5 Q1133 191 1105 150.5 Q1077 110 1040 81.5 Q1003 53 962.5 35 Q922 17 880.5 8.5 Q839 0 802 0 L98 0 L98 260 L800 260 Q853 260 880 287 Q907 314 907 365 Q902 469 802 469 L399 469 Q313 469 253 499 Q193 529 155.5 574 Q118 619 101.5 671 Q85 723 85 768 Q85 855 116 914.5 Q147 974 194 1011 Q241 1048 296 1064.5 Q351 1081 399 1081 L1038 1081 L1038 821 L401 821 Q381 821 369.5 816.5 Q358 812 352.5 804.5 Q347 797 346 788.5 Q345 780 345 772 Q346 756 351 747 Q356 738 363.5 734 Q371 730 380.5 729.5 Q390 729 399 729 L802 729 Q902 729 972 693 Q1042 657 1085 602.5 Q1128 548 1147.5 484 Q1167 420 1167 365 Z M278 1614 L626 1434 L974 1614 L1095 1446 L626 1180 L157 1446 L278 1614 Z " />
<glyph glyph-name="Yacute" unicode="&#xdd;" horiz-adv-x="1600" d="M1517 954 Q1517 865 1494.5 795 Q1472 725 1435 671.5 Q1398 618 1348.5 580 Q1299 542 1246 517.5 Q1193 493 1138.5 482 Q1084 471 1036 471 L931 471 L931 0 L669 0 L669 471 L565 471 Q517 471 462.5 482 Q408 493 354.5 517.5 Q301 542 252 580 Q203 618 165.5 671.5 Q128 725 105.5 795.5 Q83 866 83 954 L83 1434 L343 1434 L343 954 Q343 903 359 862.5 Q375 822 404 793 Q433 764 474.5 748.5 Q516 733 567 733 L1036 733 Q1073 739 1112 748.5 Q1151 758 1183 781 Q1215 804 1236 845 Q1257 886 1257 954 L1257 1434 L1517 1434 L1517 954 Z M1391 1612 L869 1425 L800 1575 L1281 1855 L1391 1612 Z " />
<glyph glyph-name="yacute" unicode="&#xfd;" horiz-adv-x="1440" d="M1314 -104 Q1314 -171 1297 -224.5 Q1280 -278 1252 -318.5 Q1224 -359 1187 -387.5 Q1150 -416 1109.5 -434 Q1069 -452 1028 -460.5 Q987 -469 950 -469 L481 -469 L481 -209 L950 -209 Q1002 -209 1028 -182 Q1054 -155 1054 -104 L1054 1081 L1314 1081 L1314 -104 Z M950 0 L481 0 Q425 0 361.5 19 Q298 38 243 81.5 Q188 125 152 194.5 Q116 264 116 365 L116 1081 L376 1081 L376 365 Q376 314 403 287 Q430 260 483 260 L950 260 L950 0 Z M1248 1265 L726 1078 L657 1228 L1138 1508 L1248 1265 Z " />
<glyph glyph-name="Zcaron" unicode="&#x17d;" horiz-adv-x="1461" d="M1378 1356 Q1393 1321 1387 1282.5 Q1381 1244 1355 1217 L497 260 L1376 260 L1376 0 L204 0 Q166 0 133.5 21.5 Q101 43 85 78 Q68 113 74.5 151 Q81 189 106 217 L966 1174 L85 1174 L85 1434 L1259 1434 Q1297 1434 1329.5 1412.5 Q1362 1391 1378 1356 Z M383 1983 L731 1803 L1079 1983 L1200 1815 L731 1549 L262 1815 L383 1983 Z " />
<glyph glyph-name="zcaron" unicode="&#x17e;" horiz-adv-x="1231" d="M1146 1001 Q1162 964 1154.5 926 Q1147 888 1120 860 L519 260 L1144 260 L1144 0 L206 0 Q166 0 133.5 22.5 Q101 45 85 80 Q70 117 77.5 155.5 Q85 194 114 223 L712 821 L87 821 L87 1081 L1027 1081 Q1066 1081 1098.5 1060 Q1131 1039 1146 1001 Z M268 1634 L616 1454 L964 1634 L1085 1466 L616 1200 L147 1466 L268 1634 Z " />
<glyph glyph-name="Adieresis" unicode="&#xc4;" horiz-adv-x="1709" d="M1558 0 L1298 0 L1298 352 L384 352 L384 0 L124 0 L124 717 Q124 874 178 1006 Q232 1138 328 1233 Q424 1328 555 1381 Q686 1434 841 1434 L1427 1434 Q1454 1434 1478 1424 Q1502 1414 1520 1396 Q1538 1378 1548 1354 Q1558 1330 1558 1303 L1558 0 Z M384 612 L1298 612 L1298 1174 L841 1174 Q829 1174 790.5 1170.5 Q752 1167 701.5 1153 Q651 1139 595 1110 Q539 1081 492 1030 Q445 979 414.5 902.5 Q384 826 384 717 L384 612 Z M738 1725 Q738 1698 727.5 1674.5 Q717 1651 699.5 1633.5 Q682 1616 658.5 1606 Q635 1596 609 1596 Q582 1596 558.5 1606 Q535 1616 517.5 1633.5 Q500 1651 490 1674.5 Q480 1698 480 1725 Q480 1751 490 1774.5 Q500 1798 517.5 1815.5 Q535 1833 558.5 1843.5 Q582 1854 609 1854 Q635 1854 658.5 1843.5 Q682 1833 699.5 1815.5 Q717 1798 727.5 1774.5 Q738 1751 738 1725 Z M1201 1725 Q1201 1698 1190.5 1674.5 Q1180 1651 1162.5 1633.5 Q1145 1616 1121.5 1606 Q1098 1596 1072 1596 Q1045 1596 1021.5 1606 Q998 1616 980.5 1633.5 Q963 1651 953 1674.5 Q943 1698 943 1725 Q943 1751 953 1774.5 Q963 1798 980.5 1815.5 Q998 1833 1021.5 1843.5 Q1045 1854 1072 1854 Q1098 1854 1121.5 1843.5 Q1145 1833 1162.5 1815.5 Q1180 1798 1190.5 1774.5 Q1201 1751 1201 1725 Z " />
<glyph glyph-name="Aring" unicode="&#xc5;" horiz-adv-x="1709" d="M1558 0 L1298 0 L1298 352 L384 352 L384 0 L124 0 L124 717 Q124 874 178 1006 Q232 1138 328 1233 Q424 1328 555 1381 Q686 1434 841 1434 L1427 1434 Q1454 1434 1478 1424 Q1502 1414 1520 1396 Q1538 1378 1548 1354 Q1558 1330 1558 1303 L1558 0 Z M384 612 L1298 612 L1298 1174 L841 1174 Q829 1174 790.5 1170.5 Q752 1167 701.5 1153 Q651 1139 595 1110 Q539 1081 492 1030 Q445 979 414.5 902.5 Q384 826 384 717 L384 612 Z M550 1764 Q550 1813 571.5 1856.5 Q593 1900 631 1932.5 Q669 1965 722.5 1984 Q776 2003 841 2003 Q912 2003 966.5 1984 Q1021 1965 1057.5 1932.5 Q1094 1900 1112.5 1856.5 Q1131 1813 1131 1764 Q1131 1715 1111 1671.5 Q1091 1628 1053.5 1595 Q1016 1562 962 1543 Q908 1524 841 1524 Q772 1524 718 1543 Q664 1562 626.5 1595 Q589 1628 569.5 1671.5 Q550 1715 550 1764 Z M742 1764 Q742 1723 767.5 1695 Q793 1667 841 1667 Q889 1667 913 1695 Q937 1723 937 1764 Q937 1804 913 1832 Q889 1860 841 1860 Q793 1860 767.5 1832 Q742 1804 742 1764 Z " />
<glyph glyph-name="Ccedilla" unicode="&#xc7;" horiz-adv-x="1530" d="M1435 0 L921 0 L894 -70 Q923 -70 959.5 -77 Q996 -84 1028.5 -103.5 Q1061 -123 1083 -158 Q1105 -193 1105 -250 Q1105 -307 1076.5 -346 Q1048 -385 1002.5 -409 Q957 -433 900.5 -443 Q844 -453 788 -453 Q737 -453 703 -450.5 Q669 -448 645 -444.5 Q621 -441 602.5 -437 Q584 -433 565 -430 L565 -254 Q605 -273 657.5 -286 Q710 -299 765 -299 Q822 -299 860 -287.5 Q898 -276 898 -248 Q898 -232 886 -222 Q874 -212 856 -206.5 Q838 -201 818 -199 Q798 -197 782 -197 Q759 -197 733 -200 Q707 -203 687 -209 L765 0 L497 0 Q461 0 419.5 8.5 Q378 17 337.5 35 Q297 53 260 81.5 Q223 110 194.5 150.5 Q166 191 149 244.5 Q132 298 132 365 L132 1069 Q132 1105 140.5 1146.5 Q149 1188 167 1228.5 Q185 1269 214 1306 Q243 1343 283.5 1371.5 Q324 1400 377 1417 Q430 1434 497 1434 L1435 1434 L1435 1174 L497 1174 Q446 1174 419 1147 Q392 1120 392 1067 L392 365 Q392 315 419.5 287.5 Q447 260 497 260 L1435 260 L1435 0 Z " />
<glyph glyph-name="Eacute" unicode="&#xc9;" horiz-adv-x="1547" d="M1330 586 L509 586 L509 848 L1330 848 L1330 586 Z M1447 0 L509 0 Q455 0 391 19 Q327 38 272.5 81.5 Q218 125 181.5 194.5 Q145 264 145 365 L145 1303 Q145 1330 155 1354 Q165 1378 182.5 1396 Q200 1414 224 1424 Q248 1434 276 1434 L1447 1434 L1447 1174 L405 1174 L405 365 Q405 314 432 287 Q459 260 511 260 L1447 260 L1447 0 Z M1408 1756 L886 1569 L817 1719 L1298 1999 L1408 1756 Z " />
<glyph glyph-name="Ntilde" unicode="&#xd1;" horiz-adv-x="1735" d="M1584 111 Q1584 83 1573.5 59 Q1563 35 1545.5 17.5 Q1528 0 1504 -10 Q1480 -20 1453 -20 Q1429 -20 1404.5 -11 Q1380 -2 1361 18 L411 1010 L411 0 L151 0 L151 1323 Q151 1363 173.5 1395.5 Q196 1428 231 1444 Q268 1459 307 1451.5 Q346 1444 374 1415 L1324 424 L1324 1434 L1584 1434 L1584 111 Z M1261 1841 Q1261 1745 1241 1679 Q1221 1613 1187 1572.5 Q1153 1532 1107.5 1514.5 Q1062 1497 1011 1497 Q957 1497 920 1516 Q883 1535 854 1557.5 Q825 1580 799 1599 Q773 1618 741 1618 Q711 1618 693.5 1603 Q676 1588 667 1567.5 Q658 1547 655 1527 Q652 1507 651 1497 L474 1497 Q474 1582 494.5 1646.5 Q515 1711 549.5 1754.5 Q584 1798 629.5 1819.5 Q675 1841 726 1841 Q773 1841 807.5 1822 Q842 1803 872 1780.5 Q902 1758 930.5 1739.5 Q959 1721 995 1721 Q1025 1721 1042.5 1736 Q1060 1751 1069 1770.5 Q1078 1790 1081 1810 Q1084 1830 1085 1841 L1261 1841 Z " />
<glyph glyph-name="Odieresis" unicode="&#xd6;" horiz-adv-x="1762" d="M1656 580 Q1656 449 1611 339 Q1566 229 1486 149 Q1406 69 1296.5 24.5 Q1187 -20 1058 -20 L706 -20 Q577 -20 467 24.5 Q357 69 277 149 Q197 229 151.5 339 Q106 449 106 580 L106 854 Q106 984 151.5 1094.5 Q197 1205 277 1284.5 Q357 1364 467 1409 Q577 1454 706 1454 L1058 1454 Q1187 1454 1296.5 1409 Q1406 1364 1486 1284.5 Q1566 1205 1611 1094.5 Q1656 984 1656 854 L1656 580 Z M1396 854 Q1396 931 1371.5 993.5 Q1347 1056 1302.5 1100.5 Q1258 1145 1195.5 1169.5 Q1133 1194 1058 1194 L706 1194 Q630 1194 567.5 1169.5 Q505 1145 460 1100.5 Q415 1056 390.5 993.5 Q366 931 366 854 L366 580 Q366 503 390.5 440.5 Q415 378 460 333.5 Q505 289 567.5 264.5 Q630 240 706 240 L1056 240 Q1132 240 1194.5 264.5 Q1257 289 1302 333.5 Q1347 378 1371.5 440.5 Q1396 503 1396 580 L1396 854 Z M777 1725 Q777 1698 766.5 1674.5 Q756 1651 738.5 1633.5 Q721 1616 697.5 1606 Q674 1596 648 1596 Q621 1596 597.5 1606 Q574 1616 556.5 1633.5 Q539 1651 529 1674.5 Q519 1698 519 1725 Q519 1751 529 1774.5 Q539 1798 556.5 1815.5 Q574 1833 597.5 1843.5 Q621 1854 648 1854 Q674 1854 697.5 1843.5 Q721 1833 738.5 1815.5 Q756 1798 766.5 1774.5 Q777 1751 777 1725 Z M1240 1725 Q1240 1698 1229.5 1674.5 Q1219 1651 1201.5 1633.5 Q1184 1616 1160.5 1606 Q1137 1596 1111 1596 Q1084 1596 1060.5 1606 Q1037 1616 1019.5 1633.5 Q1002 1651 992 1674.5 Q982 1698 982 1725 Q982 1751 992 1774.5 Q1002 1798 1019.5 1815.5 Q1037 1833 1060.5 1843.5 Q1084 1854 1111 1854 Q1137 1854 1160.5 1843.5 Q1184 1833 1201.5 1815.5 Q1219 1798 1229.5 1774.5 Q1240 1751 1240 1725 Z " />
<glyph glyph-name="Udieresis" unicode="&#xdc;" horiz-adv-x="1707" d="M1556 131 Q1556 103 1546 79 Q1536 55 1518 37.5 Q1500 20 1476 10 Q1452 0 1425 0 L839 0 Q756 0 671 18 Q586 36 506.5 73.5 Q427 111 357 169 Q287 227 234.5 306.5 Q182 386 152 488.5 Q122 591 122 717 L122 1434 L382 1434 L382 717 Q382 607 412.5 531 Q443 455 490 404 Q537 353 593 324 Q649 295 699.5 281 Q750 267 788.5 263.5 Q827 260 839 260 L1296 260 L1296 1434 L1556 1434 L1556 131 Z M736 1657 Q736 1630 725.5 1606.5 Q715 1583 697.5 1565.5 Q680 1548 656.5 1538 Q633 1528 607 1528 Q580 1528 556.5 1538 Q533 1548 515.5 1565.5 Q498 1583 488 1606.5 Q478 1630 478 1657 Q478 1683 488 1706.5 Q498 1730 515.5 1747.5 Q533 1765 556.5 1775.5 Q580 1786 607 1786 Q633 1786 656.5 1775.5 Q680 1765 697.5 1747.5 Q715 1730 725.5 1706.5 Q736 1683 736 1657 Z M1199 1657 Q1199 1630 1188.5 1606.5 Q1178 1583 1160.5 1565.5 Q1143 1548 1119.5 1538 Q1096 1528 1070 1528 Q1043 1528 1019.5 1538 Q996 1548 978.5 1565.5 Q961 1583 951 1606.5 Q941 1630 941 1657 Q941 1683 951 1706.5 Q961 1730 978.5 1747.5 Q996 1765 1019.5 1775.5 Q1043 1786 1070 1786 Q1096 1786 1119.5 1775.5 Q1143 1765 1160.5 1747.5 Q1178 1730 1188.5 1706.5 Q1199 1683 1199 1657 Z " />
<glyph glyph-name="aacute" unicode="&#xe1;" horiz-adv-x="1338" d="M1238 358 Q1238 304 1219 241.5 Q1200 179 1157.5 125.5 Q1115 72 1046.5 36 Q978 0 880 0 L411 0 Q357 0 294.5 19 Q232 38 178.5 80.5 Q125 123 89 191.5 Q53 260 53 358 Q53 412 72 475 Q91 538 133.5 591.5 Q176 645 244.5 681 Q313 717 411 717 L880 717 L880 469 L411 469 Q358 469 329 436.5 Q300 404 300 356 Q300 305 333.5 276.5 Q367 248 413 248 L880 248 Q933 248 962 280 Q991 312 991 360 L991 723 Q991 774 959.5 804 Q928 834 880 834 L309 834 L309 1081 L880 1081 Q934 1081 996.5 1062 Q1059 1043 1112.5 1000.5 Q1166 958 1202 889.5 Q1238 821 1238 723 L1238 358 Z M1207 1407 L685 1220 L616 1370 L1097 1650 L1207 1407 Z " />
<glyph glyph-name="agrave" unicode="&#xe0;" horiz-adv-x="1338" d="M1238 358 Q1238 304 1219 241.5 Q1200 179 1157.5 125.5 Q1115 72 1046.5 36 Q978 0 880 0 L411 0 Q357 0 294.5 19 Q232 38 178.5 80.5 Q125 123 89 191.5 Q53 260 53 358 Q53 412 72 475 Q91 538 133.5 591.5 Q176 645 244.5 681 Q313 717 411 717 L880 717 L880 469 L411 469 Q358 469 329 436.5 Q300 404 300 356 Q300 305 333.5 276.5 Q367 248 413 248 L880 248 Q933 248 962 280 Q991 312 991 360 L991 723 Q991 774 959.5 804 Q928 834 880 834 L309 834 L309 1081 L880 1081 Q934 1081 996.5 1062 Q1059 1043 1112.5 1000.5 Q1166 958 1202 889.5 Q1238 821 1238 723 L1238 358 Z M221 1650 L703 1370 L633 1220 L111 1407 L221 1650 Z " />
<glyph glyph-name="acircumflex" unicode="&#xe2;" horiz-adv-x="1338" d="M1238 358 Q1238 304 1219 241.5 Q1200 179 1157.5 125.5 Q1115 72 1046.5 36 Q978 0 880 0 L411 0 Q357 0 294.5 19 Q232 38 178.5 80.5 Q125 123 89 191.5 Q53 260 53 358 Q53 412 72 475 Q91 538 133.5 591.5 Q176 645 244.5 681 Q313 717 411 717 L880 717 L880 469 L411 469 Q358 469 329 436.5 Q300 404 300 356 Q300 305 333.5 276.5 Q367 248 413 248 L880 248 Q933 248 962 280 Q991 312 991 360 L991 723 Q991 774 959.5 804 Q928 834 880 834 L309 834 L309 1081 L880 1081 Q934 1081 996.5 1062 Q1059 1043 1112.5 1000.5 Q1166 958 1202 889.5 Q1238 821 1238 723 L1238 358 Z M993 1220 L645 1400 L297 1220 L176 1388 L645 1654 L1114 1388 L993 1220 Z " />
<glyph glyph-name="adieresis" unicode="&#xe4;" horiz-adv-x="1338" d="M1238 358 Q1238 304 1219 241.5 Q1200 179 1157.5 125.5 Q1115 72 1046.5 36 Q978 0 880 0 L411 0 Q357 0 294.5 19 Q232 38 178.5 80.5 Q125 123 89 191.5 Q53 260 53 358 Q53 412 72 475 Q91 538 133.5 591.5 Q176 645 244.5 681 Q313 717 411 717 L880 717 L880 469 L411 469 Q358 469 329 436.5 Q300 404 300 356 Q300 305 333.5 276.5 Q367 248 413 248 L880 248 Q933 248 962 280 Q991 312 991 360 L991 723 Q991 774 959.5 804 Q928 834 880 834 L309 834 L309 1081 L880 1081 Q934 1081 996.5 1062 Q1059 1043 1112.5 1000.5 Q1166 958 1202 889.5 Q1238 821 1238 723 L1238 358 Z M542 1376 Q542 1349 531.5 1325.5 Q521 1302 503.5 1284.5 Q486 1267 462.5 1257 Q439 1247 413 1247 Q386 1247 362.5 1257 Q339 1267 321.5 1284.5 Q304 1302 294 1325.5 Q284 1349 284 1376 Q284 1402 294 1425.5 Q304 1449 321.5 1466.5 Q339 1484 362.5 1494.5 Q386 1505 413 1505 Q439 1505 462.5 1494.5 Q486 1484 503.5 1466.5 Q521 1449 531.5 1425.5 Q542 1402 542 1376 Z M1005 1376 Q1005 1349 994.5 1325.5 Q984 1302 966.5 1284.5 Q949 1267 925.5 1257 Q902 1247 876 1247 Q849 1247 825.5 1257 Q802 1267 784.5 1284.5 Q767 1302 757 1325.5 Q747 1349 747 1376 Q747 1402 757 1425.5 Q767 1449 784.5 1466.5 Q802 1484 825.5 1494.5 Q849 1505 876 1505 Q902 1505 925.5 1494.5 Q949 1484 966.5 1466.5 Q984 1449 994.5 1425.5 Q1005 1402 1005 1376 Z " />
<glyph glyph-name="atilde" unicode="&#xe3;" horiz-adv-x="1338" d="M1238 358 Q1238 304 1219 241.5 Q1200 179 1157.5 125.5 Q1115 72 1046.5 36 Q978 0 880 0 L411 0 Q357 0 294.5 19 Q232 38 178.5 80.5 Q125 123 89 191.5 Q53 260 53 358 Q53 412 72 475 Q91 538 133.5 591.5 Q176 645 244.5 681 Q313 717 411 717 L880 717 L880 469 L411 469 Q358 469 329 436.5 Q300 404 300 356 Q300 305 333.5 276.5 Q367 248 413 248 L880 248 Q933 248 962 280 Q991 312 991 360 L991 723 Q991 774 959.5 804 Q928 834 880 834 L309 834 L309 1081 L880 1081 Q934 1081 996.5 1062 Q1059 1043 1112.5 1000.5 Q1166 958 1202 889.5 Q1238 821 1238 723 L1238 358 Z M1038 1572 Q1038 1476 1018 1410 Q998 1344 964 1303.5 Q930 1263 884.5 1245.5 Q839 1228 788 1228 Q734 1228 697 1247 Q660 1266 631 1288.5 Q602 1311 576 1330 Q550 1349 518 1349 Q488 1349 470.5 1334 Q453 1319 444 1298.5 Q435 1278 432 1258 Q429 1238 428 1228 L251 1228 Q251 1313 271.5 1377.5 Q292 1442 326.5 1485.5 Q361 1529 406.5 1550.5 Q452 1572 503 1572 Q550 1572 584.5 1553 Q619 1534 649 1511.5 Q679 1489 707.5 1470.5 Q736 1452 772 1452 Q802 1452 819.5 1467 Q837 1482 846 1501.5 Q855 1521 858 1541 Q861 1561 862 1572 L1038 1572 Z " />
<glyph glyph-name="aring" unicode="&#xe5;" horiz-adv-x="1338" d="M1238 358 Q1238 304 1219 241.5 Q1200 179 1157.5 125.5 Q1115 72 1046.5 36 Q978 0 880 0 L411 0 Q357 0 294.5 19 Q232 38 178.5 80.5 Q125 123 89 191.5 Q53 260 53 358 Q53 412 72 475 Q91 538 133.5 591.5 Q176 645 244.5 681 Q313 717 411 717 L880 717 L880 469 L411 469 Q358 469 329 436.5 Q300 404 300 356 Q300 305 333.5 276.5 Q367 248 413 248 L880 248 Q933 248 962 280 Q991 312 991 360 L991 723 Q991 774 959.5 804 Q928 834 880 834 L309 834 L309 1081 L880 1081 Q934 1081 996.5 1062 Q1059 1043 1112.5 1000.5 Q1166 958 1202 889.5 Q1238 821 1238 723 L1238 358 Z M354 1415 Q354 1464 375.5 1507.5 Q397 1551 435 1583.5 Q473 1616 526.5 1635 Q580 1654 645 1654 Q716 1654 770.5 1635 Q825 1616 861.5 1583.5 Q898 1551 916.5 1507.5 Q935 1464 935 1415 Q935 1366 915 1322.5 Q895 1279 857.5 1246 Q820 1213 766 1194 Q712 1175 645 1175 Q576 1175 522 1194 Q468 1213 430.5 1246 Q393 1279 373.5 1322.5 Q354 1366 354 1415 Z M546 1415 Q546 1374 571.5 1346 Q597 1318 645 1318 Q693 1318 717 1346 Q741 1374 741 1415 Q741 1455 717 1483 Q693 1511 645 1511 Q597 1511 571.5 1483 Q546 1455 546 1415 Z " />
<glyph glyph-name="ccedilla" unicode="&#xe7;" horiz-adv-x="1262" d="M1169 0 L771 0 L745 -70 Q774 -70 810.5 -77 Q847 -84 879.5 -103.5 Q912 -123 934 -158 Q956 -193 956 -250 Q956 -307 927.5 -346 Q899 -385 853.5 -409 Q808 -433 751 -443 Q694 -453 638 -453 Q587 -453 553 -450.5 Q519 -448 495 -444.5 Q471 -441 452.5 -437 Q434 -433 415 -430 L415 -254 Q455 -273 507.5 -286 Q560 -299 616 -299 Q673 -299 711 -287.5 Q749 -276 749 -248 Q749 -232 737 -222 Q725 -212 707 -206.5 Q689 -201 668.5 -199 Q648 -197 632 -197 Q609 -197 583.5 -200 Q558 -203 538 -209 L616 0 L464 0 Q410 0 346 19 Q282 38 227.5 81.5 Q173 125 136.5 194.5 Q100 264 100 365 L100 717 Q100 754 108.5 795 Q117 836 135 876.5 Q153 917 181.5 954 Q210 991 250.5 1019 Q291 1047 344 1064 Q397 1081 464 1081 L1169 1081 L1169 821 L464 821 Q413 821 386.5 795 Q360 769 360 715 L360 365 Q360 314 387 287 Q414 260 466 260 L1169 260 L1169 0 Z " />
<glyph glyph-name="eacute" unicode="&#xe9;" horiz-adv-x="1338" d="M1285 723 Q1285 669 1266 606.5 Q1247 544 1204.5 490.5 Q1162 437 1093.5 401 Q1025 365 927 365 L458 365 L458 612 L927 612 Q980 612 1009 644.5 Q1038 677 1038 725 Q1038 776 1005.5 805 Q973 834 927 834 L458 834 Q405 834 376 801.5 Q347 769 347 721 L347 358 Q347 306 379.5 277 Q412 248 460 248 L927 248 L927 0 L458 0 Q404 0 341.5 19 Q279 38 225.5 80.5 Q172 123 136 191.5 Q100 260 100 358 L100 723 Q100 777 119 839.5 Q138 902 180.5 955.5 Q223 1009 291.5 1045 Q360 1081 458 1081 L927 1081 Q981 1081 1043.5 1062 Q1106 1043 1159.5 1000.5 Q1213 958 1249 889.5 Q1285 821 1285 723 Z M1213 1407 L691 1220 L622 1370 L1103 1650 L1213 1407 Z " />
<glyph glyph-name="egrave" unicode="&#xe8;" horiz-adv-x="1338" d="M1285 723 Q1285 669 1266 606.5 Q1247 544 1204.5 490.5 Q1162 437 1093.5 401 Q1025 365 927 365 L458 365 L458 612 L927 612 Q980 612 1009 644.5 Q1038 677 1038 725 Q1038 776 1005.5 805 Q973 834 927 834 L458 834 Q405 834 376 801.5 Q347 769 347 721 L347 358 Q347 306 379.5 277 Q412 248 460 248 L927 248 L927 0 L458 0 Q404 0 341.5 19 Q279 38 225.5 80.5 Q172 123 136 191.5 Q100 260 100 358 L100 723 Q100 777 119 839.5 Q138 902 180.5 955.5 Q223 1009 291.5 1045 Q360 1081 458 1081 L927 1081 Q981 1081 1043.5 1062 Q1106 1043 1159.5 1000.5 Q1213 958 1249 889.5 Q1285 821 1285 723 Z M252 1650 L734 1370 L664 1220 L142 1407 L252 1650 Z " />
<glyph glyph-name="ecircumflex" unicode="&#xea;" horiz-adv-x="1338" d="M1285 723 Q1285 669 1266 606.5 Q1247 544 1204.5 490.5 Q1162 437 1093.5 401 Q1025 365 927 365 L458 365 L458 612 L927 612 Q980 612 1009 644.5 Q1038 677 1038 725 Q1038 776 1005.5 805 Q973 834 927 834 L458 834 Q405 834 376 801.5 Q347 769 347 721 L347 358 Q347 306 379.5 277 Q412 248 460 248 L927 248 L927 0 L458 0 Q404 0 341.5 19 Q279 38 225.5 80.5 Q172 123 136 191.5 Q100 260 100 358 L100 723 Q100 777 119 839.5 Q138 902 180.5 955.5 Q223 1009 291.5 1045 Q360 1081 458 1081 L927 1081 Q981 1081 1043.5 1062 Q1106 1043 1159.5 1000.5 Q1213 958 1249 889.5 Q1285 821 1285 723 Z M1040 1220 L692 1400 L344 1220 L223 1388 L692 1654 L1161 1388 L1040 1220 Z " />
<glyph glyph-name="edieresis" unicode="&#xeb;" horiz-adv-x="1338" d="M1285 723 Q1285 669 1266 606.5 Q1247 544 1204.5 490.5 Q1162 437 1093.5 401 Q1025 365 927 365 L458 365 L458 612 L927 612 Q980 612 1009 644.5 Q1038 677 1038 725 Q1038 776 1005.5 805 Q973 834 927 834 L458 834 Q405 834 376 801.5 Q347 769 347 721 L347 358 Q347 306 379.5 277 Q412 248 460 248 L927 248 L927 0 L458 0 Q404 0 341.5 19 Q279 38 225.5 80.5 Q172 123 136 191.5 Q100 260 100 358 L100 723 Q100 777 119 839.5 Q138 902 180.5 955.5 Q223 1009 291.5 1045 Q360 1081 458 1081 L927 1081 Q981 1081 1043.5 1062 Q1106 1043 1159.5 1000.5 Q1213 958 1249 889.5 Q1285 821 1285 723 Z M589 1376 Q589 1349 578.5 1325.5 Q568 1302 550.5 1284.5 Q533 1267 509.5 1257 Q486 1247 460 1247 Q433 1247 409.5 1257 Q386 1267 368.5 1284.5 Q351 1302 341 1325.5 Q331 1349 331 1376 Q331 1402 341 1425.5 Q351 1449 368.5 1466.5 Q386 1484 409.5 1494.5 Q433 1505 460 1505 Q486 1505 509.5 1494.5 Q533 1484 550.5 1466.5 Q568 1449 578.5 1425.5 Q589 1402 589 1376 Z M1052 1376 Q1052 1349 1041.5 1325.5 Q1031 1302 1013.5 1284.5 Q996 1267 972.5 1257 Q949 1247 923 1247 Q896 1247 872.5 1257 Q849 1267 831.5 1284.5 Q814 1302 804 1325.5 Q794 1349 794 1376 Q794 1402 804 1425.5 Q814 1449 831.5 1466.5 Q849 1484 872.5 1494.5 Q896 1505 923 1505 Q949 1505 972.5 1494.5 Q996 1484 1013.5 1466.5 Q1031 1449 1041.5 1425.5 Q1052 1402 1052 1376 Z " />
<glyph glyph-name="iacute" unicode="&#xed;" horiz-adv-x="513" d="M386 0 L126 0 L126 1081 L386 1081 L386 0 Z M788 1407 L266 1220 L197 1370 L678 1650 L788 1407 Z " />
<glyph glyph-name="igrave" unicode="&#xec;" horiz-adv-x="513" d="M386 0 L126 0 L126 1081 L386 1081 L386 0 Z M-154 1650 L328 1370 L258 1220 L-264 1407 L-154 1650 Z " />
<glyph glyph-name="icircumflex" unicode="&#xee;" horiz-adv-x="513" d="M386 0 L126 0 L126 1081 L386 1081 L386 0 Z M607 1159 L259 1339 L-89 1159 L-210 1327 L259 1593 L728 1327 L607 1159 Z " />
<glyph glyph-name="idieresis" unicode="&#xef;" horiz-adv-x="513" d="M386 0 L126 0 L126 1081 L386 1081 L386 0 Z M156 1376 Q156 1349 145.5 1325.5 Q135 1302 117.5 1284.5 Q100 1267 76.5 1257 Q53 1247 27 1247 Q0 1247 -23.5 1257 Q-47 1267 -64.5 1284.5 Q-82 1302 -92 1325.5 Q-102 1349 -102 1376 Q-102 1402 -92 1425.5 Q-82 1449 -64.5 1466.5 Q-47 1484 -23.5 1494.5 Q0 1505 27 1505 Q53 1505 76.5 1494.5 Q100 1484 117.5 1466.5 Q135 1449 145.5 1425.5 Q156 1402 156 1376 Z M619 1376 Q619 1349 608.5 1325.5 Q598 1302 580.5 1284.5 Q563 1267 539.5 1257 Q516 1247 490 1247 Q463 1247 439.5 1257 Q416 1267 398.5 1284.5 Q381 1302 371 1325.5 Q361 1349 361 1376 Q361 1402 371 1425.5 Q381 1449 398.5 1466.5 Q416 1484 439.5 1494.5 Q463 1505 490 1505 Q516 1505 539.5 1494.5 Q563 1484 580.5 1466.5 Q598 1449 608.5 1425.5 Q619 1402 619 1376 Z " />
<glyph glyph-name="ntilde" unicode="&#xf1;" horiz-adv-x="1426" d="M1320 0 L1060 0 L1060 600 Q1060 651 1042.5 691.5 Q1025 732 995 761 Q965 790 924.5 805.5 Q884 821 837 821 L382 821 L382 0 L122 0 L122 952 Q122 979 132 1002.5 Q142 1026 160 1043.5 Q178 1061 202 1071 Q226 1081 253 1081 L839 1081 Q888 1081 942.5 1070 Q997 1059 1050.5 1034.5 Q1104 1010 1152.5 972.5 Q1201 935 1238.5 881.5 Q1276 828 1298 758 Q1320 688 1320 600 L1320 0 Z M1114 1572 Q1114 1476 1094 1410 Q1074 1344 1040 1303.5 Q1006 1263 960.5 1245.5 Q915 1228 864 1228 Q810 1228 773 1247 Q736 1266 707 1288.5 Q678 1311 652 1330 Q626 1349 594 1349 Q564 1349 546.5 1334 Q529 1319 520 1298.5 Q511 1278 508 1258 Q505 1238 504 1228 L327 1228 Q327 1313 347.5 1377.5 Q368 1442 402.5 1485.5 Q437 1529 482.5 1550.5 Q528 1572 579 1572 Q626 1572 660.5 1553 Q695 1534 725 1511.5 Q755 1489 783.5 1470.5 Q812 1452 848 1452 Q878 1452 895.5 1467 Q913 1482 922 1501.5 Q931 1521 934 1541 Q937 1561 938 1572 L1114 1572 Z " />
<glyph glyph-name="oacute" unicode="&#xf3;" horiz-adv-x="1397" d="M1298 365 Q1298 298 1281 244.5 Q1264 191 1236 150.5 Q1208 110 1171 81.5 Q1134 53 1093.5 35 Q1053 17 1011.5 8.5 Q970 0 933 0 L464 0 Q410 0 346 19 Q282 38 227.5 81.5 Q173 125 136.5 194.5 Q100 264 100 365 L100 717 Q100 817 136.5 886.5 Q173 956 227.5 999.5 Q282 1043 346 1062 Q410 1081 464 1081 L933 1081 Q1033 1081 1103 1045 Q1173 1009 1216 954.5 Q1259 900 1278.5 836 Q1298 772 1298 717 L1298 365 Z M1038 715 Q1038 769 1011 795 Q984 821 933 821 L466 821 Q414 821 387 794.5 Q360 768 360 717 L360 365 Q360 314 387 287 Q414 260 466 260 L933 260 Q986 260 1012 287 Q1038 314 1038 365 L1038 715 Z M1230 1407 L708 1220 L639 1370 L1120 1650 L1230 1407 Z " />
<glyph glyph-name="ograve" unicode="&#xf2;" horiz-adv-x="1397" d="M1298 365 Q1298 298 1281 244.5 Q1264 191 1236 150.5 Q1208 110 1171 81.5 Q1134 53 1093.5 35 Q1053 17 1011.5 8.5 Q970 0 933 0 L464 0 Q410 0 346 19 Q282 38 227.5 81.5 Q173 125 136.5 194.5 Q100 264 100 365 L100 717 Q100 817 136.5 886.5 Q173 956 227.5 999.5 Q282 1043 346 1062 Q410 1081 464 1081 L933 1081 Q1033 1081 1103 1045 Q1173 1009 1216 954.5 Q1259 900 1278.5 836 Q1298 772 1298 717 L1298 365 Z M1038 715 Q1038 769 1011 795 Q984 821 933 821 L466 821 Q414 821 387 794.5 Q360 768 360 717 L360 365 Q360 314 387 287 Q414 260 466 260 L933 260 Q986 260 1012 287 Q1038 314 1038 365 L1038 715 Z M274 1650 L756 1370 L686 1220 L164 1407 L274 1650 Z " />
<glyph glyph-name="ocircumflex" unicode="&#xf4;" horiz-adv-x="1397" d="M1298 365 Q1298 298 1281 244.5 Q1264 191 1236 150.5 Q1208 110 1171 81.5 Q1134 53 1093.5 35 Q1053 17 1011.5 8.5 Q970 0 933 0 L464 0 Q410 0 346 19 Q282 38 227.5 81.5 Q173 125 136.5 194.5 Q100 264 100 365 L100 717 Q100 817 136.5 886.5 Q173 956 227.5 999.5 Q282 1043 346 1062 Q410 1081 464 1081 L933 1081 Q1033 1081 1103 1045 Q1173 1009 1216 954.5 Q1259 900 1278.5 836 Q1298 772 1298 717 L1298 365 Z M1038 715 Q1038 769 1011 795 Q984 821 933 821 L466 821 Q414 821 387 794.5 Q360 768 360 717 L360 365 Q360 314 387 287 Q414 260 466 260 L933 260 Q986 260 1012 287 Q1038 314 1038 365 L1038 715 Z M1046 1220 L698 1400 L350 1220 L229 1388 L698 1654 L1167 1388 L1046 1220 Z " />
<glyph glyph-name="odieresis" unicode="&#xf6;" horiz-adv-x="1397" d="M1298 365 Q1298 298 1281 244.5 Q1264 191 1236 150.5 Q1208 110 1171 81.5 Q1134 53 1093.5 35 Q1053 17 1011.5 8.5 Q970 0 933 0 L464 0 Q410 0 346 19 Q282 38 227.5 81.5 Q173 125 136.5 194.5 Q100 264 100 365 L100 717 Q100 817 136.5 886.5 Q173 956 227.5 999.5 Q282 1043 346 1062 Q410 1081 464 1081 L933 1081 Q1033 1081 1103 1045 Q1173 1009 1216 954.5 Q1259 900 1278.5 836 Q1298 772 1298 717 L1298 365 Z M1038 715 Q1038 769 1011 795 Q984 821 933 821 L466 821 Q414 821 387 794.5 Q360 768 360 717 L360 365 Q360 314 387 287 Q414 260 466 260 L933 260 Q986 260 1012 287 Q1038 314 1038 365 L1038 715 Z M595 1376 Q595 1349 584.5 1325.5 Q574 1302 556.5 1284.5 Q539 1267 515.5 1257 Q492 1247 466 1247 Q439 1247 415.5 1257 Q392 1267 374.5 1284.5 Q357 1302 347 1325.5 Q337 1349 337 1376 Q337 1402 347 1425.5 Q357 1449 374.5 1466.5 Q392 1484 415.5 1494.5 Q439 1505 466 1505 Q492 1505 515.5 1494.5 Q539 1484 556.5 1466.5 Q574 1449 584.5 1425.5 Q595 1402 595 1376 Z M1058 1376 Q1058 1349 1047.5 1325.5 Q1037 1302 1019.5 1284.5 Q1002 1267 978.5 1257 Q955 1247 929 1247 Q902 1247 878.5 1257 Q855 1267 837.5 1284.5 Q820 1302 810 1325.5 Q800 1349 800 1376 Q800 1402 810 1425.5 Q820 1449 837.5 1466.5 Q855 1484 878.5 1494.5 Q902 1505 929 1505 Q955 1505 978.5 1494.5 Q1002 1484 1019.5 1466.5 Q1037 1449 1047.5 1425.5 Q1058 1402 1058 1376 Z " />
<glyph glyph-name="otilde" unicode="&#xf5;" horiz-adv-x="1397" d="M1298 365 Q1298 298 1281 244.5 Q1264 191 1236 150.5 Q1208 110 1171 81.5 Q1134 53 1093.5 35 Q1053 17 1011.5 8.5 Q970 0 933 0 L464 0 Q410 0 346 19 Q282 38 227.5 81.5 Q173 125 136.5 194.5 Q100 264 100 365 L100 717 Q100 817 136.5 886.5 Q173 956 227.5 999.5 Q282 1043 346 1062 Q410 1081 464 1081 L933 1081 Q1033 1081 1103 1045 Q1173 1009 1216 954.5 Q1259 900 1278.5 836 Q1298 772 1298 717 L1298 365 Z M1038 715 Q1038 769 1011 795 Q984 821 933 821 L466 821 Q414 821 387 794.5 Q360 768 360 717 L360 365 Q360 314 387 287 Q414 260 466 260 L933 260 Q986 260 1012 287 Q1038 314 1038 365 L1038 715 Z M1091 1572 Q1091 1476 1071 1410 Q1051 1344 1017 1303.5 Q983 1263 937.5 1245.5 Q892 1228 841 1228 Q787 1228 750 1247 Q713 1266 684 1288.5 Q655 1311 629 1330 Q603 1349 571 1349 Q541 1349 523.5 1334 Q506 1319 497 1298.5 Q488 1278 485 1258 Q482 1238 481 1228 L304 1228 Q304 1313 324.5 1377.5 Q345 1442 379.5 1485.5 Q414 1529 459.5 1550.5 Q505 1572 556 1572 Q603 1572 637.5 1553 Q672 1534 702 1511.5 Q732 1489 760.5 1470.5 Q789 1452 825 1452 Q855 1452 872.5 1467 Q890 1482 899 1501.5 Q908 1521 911 1541 Q914 1561 915 1572 L1091 1572 Z " />
<glyph glyph-name="uacute" unicode="&#xfa;" horiz-adv-x="1426" d="M1304 131 Q1304 103 1294 79 Q1284 55 1266.5 37.5 Q1249 20 1225.5 10 Q1202 0 1175 0 L587 0 Q539 0 484.5 11 Q430 22 377 46.5 Q324 71 274.5 108.5 Q225 146 188 199.5 Q151 253 128.5 323 Q106 393 106 481 L106 1081 L366 1081 L366 481 Q366 430 383.5 389.5 Q401 349 431 320 Q461 291 501.5 275.5 Q542 260 589 260 L1044 260 L1044 1081 L1304 1081 L1304 131 Z M1236 1346 L714 1159 L645 1309 L1126 1589 L1236 1346 Z " />
<glyph glyph-name="ugrave" unicode="&#xf9;" horiz-adv-x="1426" d="M1304 131 Q1304 103 1294 79 Q1284 55 1266.5 37.5 Q1249 20 1225.5 10 Q1202 0 1175 0 L587 0 Q539 0 484.5 11 Q430 22 377 46.5 Q324 71 274.5 108.5 Q225 146 188 199.5 Q151 253 128.5 323 Q106 393 106 481 L106 1081 L366 1081 L366 481 Q366 430 383.5 389.5 Q401 349 431 320 Q461 291 501.5 275.5 Q542 260 589 260 L1044 260 L1044 1081 L1304 1081 L1304 131 Z M284 1589 L766 1309 L696 1159 L174 1346 L284 1589 Z " />
<glyph glyph-name="ucircumflex" unicode="&#xfb;" horiz-adv-x="1426" d="M1304 131 Q1304 103 1294 79 Q1284 55 1266.5 37.5 Q1249 20 1225.5 10 Q1202 0 1175 0 L587 0 Q539 0 484.5 11 Q430 22 377 46.5 Q324 71 274.5 108.5 Q225 146 188 199.5 Q151 253 128.5 323 Q106 393 106 481 L106 1081 L366 1081 L366 481 Q366 430 383.5 389.5 Q401 349 431 320 Q461 291 501.5 275.5 Q542 260 589 260 L1044 260 L1044 1081 L1304 1081 L1304 131 Z M1052 1220 L704 1400 L356 1220 L235 1388 L704 1654 L1173 1388 L1052 1220 Z " />
<glyph glyph-name="udieresis" unicode="&#xfc;" horiz-adv-x="1426" d="M1304 131 Q1304 103 1294 79 Q1284 55 1266.5 37.5 Q1249 20 1225.5 10 Q1202 0 1175 0 L587 0 Q539 0 484.5 11 Q430 22 377 46.5 Q324 71 274.5 108.5 Q225 146 188 199.5 Q151 253 128.5 323 Q106 393 106 481 L106 1081 L366 1081 L366 481 Q366 430 383.5 389.5 Q401 349 431 320 Q461 291 501.5 275.5 Q542 260 589 260 L1044 260 L1044 1081 L1304 1081 L1304 131 Z M601 1376 Q601 1349 590.5 1325.5 Q580 1302 562.5 1284.5 Q545 1267 521.5 1257 Q498 1247 472 1247 Q445 1247 421.5 1257 Q398 1267 380.5 1284.5 Q363 1302 353 1325.5 Q343 1349 343 1376 Q343 1402 353 1425.5 Q363 1449 380.5 1466.5 Q398 1484 421.5 1494.5 Q445 1505 472 1505 Q498 1505 521.5 1494.5 Q545 1484 562.5 1466.5 Q580 1449 590.5 1425.5 Q601 1402 601 1376 Z M1064 1376 Q1064 1349 1053.5 1325.5 Q1043 1302 1025.5 1284.5 Q1008 1267 984.5 1257 Q961 1247 935 1247 Q908 1247 884.5 1257 Q861 1267 843.5 1284.5 Q826 1302 816 1325.5 Q806 1349 806 1376 Q806 1402 816 1425.5 Q826 1449 843.5 1466.5 Q861 1484 884.5 1494.5 Q908 1505 935 1505 Q961 1505 984.5 1494.5 Q1008 1484 1025.5 1466.5 Q1043 1449 1053.5 1425.5 Q1064 1402 1064 1376 Z " />
<glyph glyph-name="Agrave" unicode="&#xc0;" horiz-adv-x="1709" d="M1558 0 L1298 0 L1298 352 L384 352 L384 0 L124 0 L124 717 Q124 874 178 1006 Q232 1138 328 1233 Q424 1328 555 1381 Q686 1434 841 1434 L1427 1434 Q1454 1434 1478 1424 Q1502 1414 1520 1396 Q1538 1378 1548 1354 Q1558 1330 1558 1303 L1558 0 Z M384 612 L1298 612 L1298 1174 L841 1174 Q829 1174 790.5 1170.5 Q752 1167 701.5 1153 Q651 1139 595 1110 Q539 1081 492 1030 Q445 979 414.5 902.5 Q384 826 384 717 L384 612 Z M478 1999 L960 1719 L890 1569 L368 1756 L478 1999 Z " />
<glyph glyph-name="Atilde" unicode="&#xc3;" horiz-adv-x="1709" d="M1558 0 L1298 0 L1298 352 L384 352 L384 0 L124 0 L124 717 Q124 874 178 1006 Q232 1138 328 1233 Q424 1328 555 1381 Q686 1434 841 1434 L1427 1434 Q1454 1434 1478 1424 Q1502 1414 1520 1396 Q1538 1378 1548 1354 Q1558 1330 1558 1303 L1558 0 Z M384 612 L1298 612 L1298 1174 L841 1174 Q829 1174 790.5 1170.5 Q752 1167 701.5 1153 Q651 1139 595 1110 Q539 1081 492 1030 Q445 979 414.5 902.5 Q384 826 384 717 L384 612 Z M1234 1921 Q1234 1825 1214 1759 Q1194 1693 1160 1652.5 Q1126 1612 1080.5 1594.5 Q1035 1577 984 1577 Q930 1577 893 1596 Q856 1615 827 1637.5 Q798 1660 772 1679 Q746 1698 714 1698 Q684 1698 666.5 1683 Q649 1668 640 1647.5 Q631 1627 628 1607 Q625 1587 624 1577 L447 1577 Q447 1662 467.5 1726.5 Q488 1791 522.5 1834.5 Q557 1878 602.5 1899.5 Q648 1921 699 1921 Q746 1921 780.5 1902 Q815 1883 845 1860.5 Q875 1838 903.5 1819.5 Q932 1801 968 1801 Q998 1801 1015.5 1816 Q1033 1831 1042 1850.5 Q1051 1870 1054 1890 Q1057 1910 1058 1921 L1234 1921 Z " />
<glyph glyph-name="Otilde" unicode="&#xd5;" horiz-adv-x="1762" d="M1656 580 Q1656 449 1611 339 Q1566 229 1486 149 Q1406 69 1296.5 24.5 Q1187 -20 1058 -20 L706 -20 Q577 -20 467 24.5 Q357 69 277 149 Q197 229 151.5 339 Q106 449 106 580 L106 854 Q106 984 151.5 1094.5 Q197 1205 277 1284.5 Q357 1364 467 1409 Q577 1454 706 1454 L1058 1454 Q1187 1454 1296.5 1409 Q1406 1364 1486 1284.5 Q1566 1205 1611 1094.5 Q1656 984 1656 854 L1656 580 Z M1396 854 Q1396 931 1371.5 993.5 Q1347 1056 1302.5 1100.5 Q1258 1145 1195.5 1169.5 Q1133 1194 1058 1194 L706 1194 Q630 1194 567.5 1169.5 Q505 1145 460 1100.5 Q415 1056 390.5 993.5 Q366 931 366 854 L366 580 Q366 503 390.5 440.5 Q415 378 460 333.5 Q505 289 567.5 264.5 Q630 240 706 240 L1056 240 Q1132 240 1194.5 264.5 Q1257 289 1302 333.5 Q1347 378 1371.5 440.5 Q1396 503 1396 580 L1396 854 Z M1273 1941 Q1273 1845 1253 1779 Q1233 1713 1199 1672.5 Q1165 1632 1119.5 1614.5 Q1074 1597 1023 1597 Q969 1597 932 1616 Q895 1635 866 1657.5 Q837 1680 811 1699 Q785 1718 753 1718 Q723 1718 705.5 1703 Q688 1688 679 1667.5 Q670 1647 667 1627 Q664 1607 663 1597 L486 1597 Q486 1682 506.5 1746.5 Q527 1811 561.5 1854.5 Q596 1898 641.5 1919.5 Q687 1941 738 1941 Q785 1941 819.5 1922 Q854 1903 884 1880.5 Q914 1858 942.5 1839.5 Q971 1821 1007 1821 Q1037 1821 1054.5 1836 Q1072 1851 1081 1870.5 Q1090 1890 1093 1910 Q1096 1930 1097 1941 L1273 1941 Z " />
<glyph glyph-name="ydieresis" unicode="&#xff;" horiz-adv-x="1440" d="M1314 -104 Q1314 -171 1297 -224.5 Q1280 -278 1252 -318.5 Q1224 -359 1187 -387.5 Q1150 -416 1109.5 -434 Q1069 -452 1028 -460.5 Q987 -469 950 -469 L481 -469 L481 -209 L950 -209 Q1002 -209 1028 -182 Q1054 -155 1054 -104 L1054 1081 L1314 1081 L1314 -104 Z M950 0 L481 0 Q425 0 361.5 19 Q298 38 243 81.5 Q188 125 152 194.5 Q116 264 116 365 L116 1081 L376 1081 L376 365 Q376 314 403 287 Q430 260 483 260 L950 260 L950 0 Z M611 1376 Q611 1349 600.5 1325.5 Q590 1302 572.5 1284.5 Q555 1267 531.5 1257 Q508 1247 482 1247 Q455 1247 431.5 1257 Q408 1267 390.5 1284.5 Q373 1302 363 1325.5 Q353 1349 353 1376 Q353 1402 363 1425.5 Q373 1449 390.5 1466.5 Q408 1484 431.5 1494.5 Q455 1505 482 1505 Q508 1505 531.5 1494.5 Q555 1484 572.5 1466.5 Q590 1449 600.5 1425.5 Q611 1402 611 1376 Z M1074 1376 Q1074 1349 1063.5 1325.5 Q1053 1302 1035.5 1284.5 Q1018 1267 994.5 1257 Q971 1247 945 1247 Q918 1247 894.5 1257 Q871 1267 853.5 1284.5 Q836 1302 826 1325.5 Q816 1349 816 1376 Q816 1402 826 1425.5 Q836 1449 853.5 1466.5 Q871 1484 894.5 1494.5 Q918 1505 945 1505 Q971 1505 994.5 1494.5 Q1018 1484 1035.5 1466.5 Q1053 1449 1063.5 1425.5 Q1074 1402 1074 1376 Z " />
<glyph glyph-name="Ydieresis" unicode="&#x178;" horiz-adv-x="1600" d="M1517 954 Q1517 865 1494.5 795 Q1472 725 1435 671.5 Q1398 618 1348.5 580 Q1299 542 1246 517.5 Q1193 493 1138.5 482 Q1084 471 1036 471 L931 471 L931 0 L669 0 L669 471 L565 471 Q517 471 462.5 482 Q408 493 354.5 517.5 Q301 542 252 580 Q203 618 165.5 671.5 Q128 725 105.5 795.5 Q83 866 83 954 L83 1434 L343 1434 L343 954 Q343 903 359 862.5 Q375 822 404 793 Q433 764 474.5 748.5 Q516 733 567 733 L1036 733 Q1073 739 1112 748.5 Q1151 758 1183 781 Q1215 804 1236 845 Q1257 886 1257 954 L1257 1434 L1517 1434 L1517 954 Z M697 1725 Q697 1698 686.5 1674.5 Q676 1651 658.5 1633.5 Q641 1616 617.5 1606 Q594 1596 568 1596 Q541 1596 517.5 1606 Q494 1616 476.5 1633.5 Q459 1651 449 1674.5 Q439 1698 439 1725 Q439 1751 449 1774.5 Q459 1798 476.5 1815.5 Q494 1833 517.5 1843.5 Q541 1854 568 1854 Q594 1854 617.5 1843.5 Q641 1833 658.5 1815.5 Q676 1798 686.5 1774.5 Q697 1751 697 1725 Z M1160 1725 Q1160 1698 1149.5 1674.5 Q1139 1651 1121.5 1633.5 Q1104 1616 1080.5 1606 Q1057 1596 1031 1596 Q1004 1596 980.5 1606 Q957 1616 939.5 1633.5 Q922 1651 912 1674.5 Q902 1698 902 1725 Q902 1751 912 1774.5 Q922 1798 939.5 1815.5 Q957 1833 980.5 1843.5 Q1004 1854 1031 1854 Q1057 1854 1080.5 1843.5 Q1104 1833 1121.5 1815.5 Q1139 1798 1149.5 1774.5 Q1160 1751 1160 1725 Z " />
<glyph glyph-name="Acircumflex" unicode="&#xc2;" horiz-adv-x="1709" d="M1558 0 L1298 0 L1298 352 L384 352 L384 0 L124 0 L124 717 Q124 874 178 1006 Q232 1138 328 1233 Q424 1328 555 1381 Q686 1434 841 1434 L1427 1434 Q1454 1434 1478 1424 Q1502 1414 1520 1396 Q1538 1378 1548 1354 Q1558 1330 1558 1303 L1558 0 Z M384 612 L1298 612 L1298 1174 L841 1174 Q829 1174 790.5 1170.5 Q752 1167 701.5 1153 Q651 1139 595 1110 Q539 1081 492 1030 Q445 979 414.5 902.5 Q384 826 384 717 L384 612 Z M1189 1569 L841 1749 L493 1569 L372 1737 L841 2003 L1310 1737 L1189 1569 Z " />
<glyph glyph-name="Ecircumflex" unicode="&#xca;" horiz-adv-x="1547" d="M1330 586 L509 586 L509 848 L1330 848 L1330 586 Z M1447 0 L509 0 Q455 0 391 19 Q327 38 272.5 81.5 Q218 125 181.5 194.5 Q145 264 145 365 L145 1303 Q145 1330 155 1354 Q165 1378 182.5 1396 Q200 1414 224 1424 Q248 1434 276 1434 L1447 1434 L1447 1174 L405 1174 L405 365 Q405 314 432 287 Q459 260 511 260 L1447 260 L1447 0 Z M1144 1569 L796 1749 L448 1569 L327 1737 L796 2003 L1265 1737 L1144 1569 Z " />
<glyph glyph-name="Aacute" unicode="&#xc1;" horiz-adv-x="1709" d="M1558 0 L1298 0 L1298 352 L384 352 L384 0 L124 0 L124 717 Q124 874 178 1006 Q232 1138 328 1233 Q424 1328 555 1381 Q686 1434 841 1434 L1427 1434 Q1454 1434 1478 1424 Q1502 1414 1520 1396 Q1538 1378 1548 1354 Q1558 1330 1558 1303 L1558 0 Z M384 612 L1298 612 L1298 1174 L841 1174 Q829 1174 790.5 1170.5 Q752 1167 701.5 1153 Q651 1139 595 1110 Q539 1081 492 1030 Q445 979 414.5 902.5 Q384 826 384 717 L384 612 Z M1412 1756 L890 1569 L821 1719 L1302 1999 L1412 1756 Z " />
<glyph glyph-name="Edieresis" unicode="&#xcb;" horiz-adv-x="1547" d="M1330 586 L509 586 L509 848 L1330 848 L1330 586 Z M1447 0 L509 0 Q455 0 391 19 Q327 38 272.5 81.5 Q218 125 181.5 194.5 Q145 264 145 365 L145 1303 Q145 1330 155 1354 Q165 1378 182.5 1396 Q200 1414 224 1424 Q248 1434 276 1434 L1447 1434 L1447 1174 L405 1174 L405 365 Q405 314 432 287 Q459 260 511 260 L1447 260 L1447 0 Z M755 1725 Q755 1698 744.5 1674.5 Q734 1651 716.5 1633.5 Q699 1616 675.5 1606 Q652 1596 626 1596 Q599 1596 575.5 1606 Q552 1616 534.5 1633.5 Q517 1651 507 1674.5 Q497 1698 497 1725 Q497 1751 507 1774.5 Q517 1798 534.5 1815.5 Q552 1833 575.5 1843.5 Q599 1854 626 1854 Q652 1854 675.5 1843.5 Q699 1833 716.5 1815.5 Q734 1798 744.5 1774.5 Q755 1751 755 1725 Z M1218 1725 Q1218 1698 1207.5 1674.5 Q1197 1651 1179.5 1633.5 Q1162 1616 1138.5 1606 Q1115 1596 1089 1596 Q1062 1596 1038.5 1606 Q1015 1616 997.5 1633.5 Q980 1651 970 1674.5 Q960 1698 960 1725 Q960 1751 970 1774.5 Q980 1798 997.5 1815.5 Q1015 1833 1038.5 1843.5 Q1062 1854 1089 1854 Q1115 1854 1138.5 1843.5 Q1162 1833 1179.5 1815.5 Q1197 1798 1207.5 1774.5 Q1218 1751 1218 1725 Z " />
<glyph glyph-name="Egrave" unicode="&#xc8;" horiz-adv-x="1547" d="M1330 586 L509 586 L509 848 L1330 848 L1330 586 Z M1447 0 L509 0 Q455 0 391 19 Q327 38 272.5 81.5 Q218 125 181.5 194.5 Q145 264 145 365 L145 1303 Q145 1330 155 1354 Q165 1378 182.5 1396 Q200 1414 224 1424 Q248 1434 276 1434 L1447 1434 L1447 1174 L405 1174 L405 365 Q405 314 432 287 Q459 260 511 260 L1447 260 L1447 0 Z M456 1999 L938 1719 L868 1569 L346 1756 L456 1999 Z " />
<glyph glyph-name="Iacute" unicode="&#xcd;" horiz-adv-x="566" d="M413 0 L153 0 L153 1434 L413 1434 L413 0 Z M805 1756 L283 1569 L214 1719 L695 1999 L805 1756 Z " />
<glyph glyph-name="Icircumflex" unicode="&#xce;" horiz-adv-x="566" d="M413 0 L153 0 L153 1434 L413 1434 L413 0 Z M633 1569 L285 1749 L-63 1569 L-184 1737 L285 2003 L754 1737 L633 1569 Z " />
<glyph glyph-name="Idieresis" unicode="&#xcf;" horiz-adv-x="566" d="M413 0 L153 0 L153 1434 L413 1434 L413 0 Z M182 1725 Q182 1698 171.5 1674.5 Q161 1651 143.5 1633.5 Q126 1616 102.5 1606 Q79 1596 53 1596 Q26 1596 2.5 1606 Q-21 1616 -38.5 1633.5 Q-56 1651 -66 1674.5 Q-76 1698 -76 1725 Q-76 1751 -66 1774.5 Q-56 1798 -38.5 1815.5 Q-21 1833 2.5 1843.5 Q26 1854 53 1854 Q79 1854 102.5 1843.5 Q126 1833 143.5 1815.5 Q161 1798 171.5 1774.5 Q182 1751 182 1725 Z M645 1725 Q645 1698 634.5 1674.5 Q624 1651 606.5 1633.5 Q589 1616 565.5 1606 Q542 1596 516 1596 Q489 1596 465.5 1606 Q442 1616 424.5 1633.5 Q407 1651 397 1674.5 Q387 1698 387 1725 Q387 1751 397 1774.5 Q407 1798 424.5 1815.5 Q442 1833 465.5 1843.5 Q489 1854 516 1854 Q542 1854 565.5 1843.5 Q589 1833 606.5 1815.5 Q624 1798 634.5 1774.5 Q645 1751 645 1725 Z " />
<glyph glyph-name="Igrave" unicode="&#xcc;" horiz-adv-x="566" d="M413 0 L153 0 L153 1434 L413 1434 L413 0 Z M-137 1999 L345 1719 L275 1569 L-247 1756 L-137 1999 Z " />
<glyph glyph-name="Oacute" unicode="&#xd3;" horiz-adv-x="1762" d="M1656 580 Q1656 449 1611 339 Q1566 229 1486 149 Q1406 69 1296.5 24.5 Q1187 -20 1058 -20 L706 -20 Q577 -20 467 24.5 Q357 69 277 149 Q197 229 151.5 339 Q106 449 106 580 L106 854 Q106 984 151.5 1094.5 Q197 1205 277 1284.5 Q357 1364 467 1409 Q577 1454 706 1454 L1058 1454 Q1187 1454 1296.5 1409 Q1406 1364 1486 1284.5 Q1566 1205 1611 1094.5 Q1656 984 1656 854 L1656 580 Z M1396 854 Q1396 931 1371.5 993.5 Q1347 1056 1302.5 1100.5 Q1258 1145 1195.5 1169.5 Q1133 1194 1058 1194 L706 1194 Q630 1194 567.5 1169.5 Q505 1145 460 1100.5 Q415 1056 390.5 993.5 Q366 931 366 854 L366 580 Q366 503 390.5 440.5 Q415 378 460 333.5 Q505 289 567.5 264.5 Q630 240 706 240 L1056 240 Q1132 240 1194.5 264.5 Q1257 289 1302 333.5 Q1347 378 1371.5 440.5 Q1396 503 1396 580 L1396 854 Z M1391 1756 L869 1569 L800 1719 L1281 1999 L1391 1756 Z " />
<glyph glyph-name="Ocircumflex" unicode="&#xd4;" horiz-adv-x="1762" d="M1656 580 Q1656 449 1611 339 Q1566 229 1486 149 Q1406 69 1296.5 24.5 Q1187 -20 1058 -20 L706 -20 Q577 -20 467 24.5 Q357 69 277 149 Q197 229 151.5 339 Q106 449 106 580 L106 854 Q106 984 151.5 1094.5 Q197 1205 277 1284.5 Q357 1364 467 1409 Q577 1454 706 1454 L1058 1454 Q1187 1454 1296.5 1409 Q1406 1364 1486 1284.5 Q1566 1205 1611 1094.5 Q1656 984 1656 854 L1656 580 Z M1396 854 Q1396 931 1371.5 993.5 Q1347 1056 1302.5 1100.5 Q1258 1145 1195.5 1169.5 Q1133 1194 1058 1194 L706 1194 Q630 1194 567.5 1169.5 Q505 1145 460 1100.5 Q415 1056 390.5 993.5 Q366 931 366 854 L366 580 Q366 503 390.5 440.5 Q415 378 460 333.5 Q505 289 567.5 264.5 Q630 240 706 240 L1056 240 Q1132 240 1194.5 264.5 Q1257 289 1302 333.5 Q1347 378 1371.5 440.5 Q1396 503 1396 580 L1396 854 Z M1228 1569 L880 1749 L532 1569 L411 1737 L880 2003 L1349 1737 L1228 1569 Z " />
<glyph glyph-name="Ograve" unicode="&#xd2;" horiz-adv-x="1762" d="M1656 580 Q1656 449 1611 339 Q1566 229 1486 149 Q1406 69 1296.5 24.5 Q1187 -20 1058 -20 L706 -20 Q577 -20 467 24.5 Q357 69 277 149 Q197 229 151.5 339 Q106 449 106 580 L106 854 Q106 984 151.5 1094.5 Q197 1205 277 1284.5 Q357 1364 467 1409 Q577 1454 706 1454 L1058 1454 Q1187 1454 1296.5 1409 Q1406 1364 1486 1284.5 Q1566 1205 1611 1094.5 Q1656 984 1656 854 L1656 580 Z M1396 854 Q1396 931 1371.5 993.5 Q1347 1056 1302.5 1100.5 Q1258 1145 1195.5 1169.5 Q1133 1194 1058 1194 L706 1194 Q630 1194 567.5 1169.5 Q505 1145 460 1100.5 Q415 1056 390.5 993.5 Q366 931 366 854 L366 580 Q366 503 390.5 440.5 Q415 378 460 333.5 Q505 289 567.5 264.5 Q630 240 706 240 L1056 240 Q1132 240 1194.5 264.5 Q1257 289 1302 333.5 Q1347 378 1371.5 440.5 Q1396 503 1396 580 L1396 854 Z M460 1999 L942 1719 L872 1569 L350 1756 L460 1999 Z " />
<glyph glyph-name="Uacute" unicode="&#xda;" horiz-adv-x="1707" d="M1556 131 Q1556 103 1546 79 Q1536 55 1518 37.5 Q1500 20 1476 10 Q1452 0 1425 0 L839 0 Q756 0 671 18 Q586 36 506.5 73.5 Q427 111 357 169 Q287 227 234.5 306.5 Q182 386 152 488.5 Q122 591 122 717 L122 1434 L382 1434 L382 717 Q382 607 412.5 531 Q443 455 490 404 Q537 353 593 324 Q649 295 699.5 281 Q750 267 788.5 263.5 Q827 260 839 260 L1296 260 L1296 1434 L1556 1434 L1556 131 Z M1348 1674 L826 1487 L757 1637 L1238 1917 L1348 1674 Z " />
<glyph glyph-name="Ucircumflex" unicode="&#xdb;" horiz-adv-x="1707" d="M1556 131 Q1556 103 1546 79 Q1536 55 1518 37.5 Q1500 20 1476 10 Q1452 0 1425 0 L839 0 Q756 0 671 18 Q586 36 506.5 73.5 Q427 111 357 169 Q287 227 234.5 306.5 Q182 386 152 488.5 Q122 591 122 717 L122 1434 L382 1434 L382 717 Q382 607 412.5 531 Q443 455 490 404 Q537 353 593 324 Q649 295 699.5 281 Q750 267 788.5 263.5 Q827 260 839 260 L1296 260 L1296 1434 L1556 1434 L1556 131 Z M1187 1569 L839 1749 L491 1569 L370 1737 L839 2003 L1308 1737 L1187 1569 Z " />
<glyph glyph-name="Ugrave" unicode="&#xd9;" horiz-adv-x="1707" d="M1556 131 Q1556 103 1546 79 Q1536 55 1518 37.5 Q1500 20 1476 10 Q1452 0 1425 0 L839 0 Q756 0 671 18 Q586 36 506.5 73.5 Q427 111 357 169 Q287 227 234.5 306.5 Q182 386 152 488.5 Q122 591 122 717 L122 1434 L382 1434 L382 717 Q382 607 412.5 531 Q443 455 490 404 Q537 353 593 324 Q649 295 699.5 281 Q750 267 788.5 263.5 Q827 260 839 260 L1296 260 L1296 1434 L1556 1434 L1556 131 Z M458 1917 L940 1637 L870 1487 L348 1674 L458 1917 Z " />
<glyph glyph-name="Eth" unicode="&#xd0;" horiz-adv-x="1920" d="M1816 600 Q1816 469 1768.5 359 Q1721 249 1639 169.5 Q1557 90 1448.5 45 Q1340 0 1218 0 L513 0 Q486 0 462.5 10 Q439 20 421 37.5 Q403 55 392.5 79 Q382 103 382 131 L382 600 L44 600 L44 834 L382 834 L382 1303 Q382 1330 392.5 1354 Q403 1378 421 1396 Q439 1414 462.5 1424 Q486 1434 513 1434 L1218 1434 Q1335 1434 1443.5 1390 Q1552 1346 1634.5 1266.5 Q1717 1187 1766.5 1077 Q1816 967 1816 834 L1816 600 Z M644 600 L644 260 L1216 260 Q1294 260 1356.5 285.5 Q1419 311 1463.5 356 Q1508 401 1532 463.5 Q1556 526 1556 600 L1556 834 Q1556 911 1528 974 Q1500 1037 1453.5 1082 Q1407 1127 1346 1151 Q1285 1175 1218 1174 L644 1174 L644 834 L982 834 L982 600 L644 600 Z " />
<glyph glyph-name="eth" unicode="&#xf0;" horiz-adv-x="1414" d="M1298 365 Q1298 298 1281 244.5 Q1264 191 1236 150.5 Q1208 110 1171 81.5 Q1134 53 1093.5 35 Q1053 17 1011.5 8.5 Q970 0 933 0 L464 0 Q397 0 344 17 Q291 34 250.5 62.5 Q210 91 181.5 128 Q153 165 135 205.5 Q117 246 108.5 287.5 Q100 329 100 365 L100 717 Q100 817 136.5 886.5 Q173 956 227.5 999.5 Q282 1043 346 1062 Q410 1081 464 1081 L933 1081 L933 821 L466 821 Q414 821 387 794.5 Q360 768 360 717 L360 367 Q360 314 386.5 287 Q413 260 464 260 L933 260 Q986 260 1012 287 Q1038 314 1038 365 L1038 1186 Q1038 1236 1023 1276.5 Q1008 1317 979.5 1346 Q951 1375 909.5 1391 Q868 1407 816 1407 L685 1407 L685 1669 L816 1669 Q891 1669 953.5 1652.5 Q1016 1636 1065.5 1607.5 Q1115 1579 1153 1540.5 Q1191 1502 1218 1458 L1455 1577 L1560 1368 L1294 1235 Q1296 1223 1297 1210.5 Q1298 1198 1298 1186 L1298 365 Z " />
<glyph glyph-name="Thorn" unicode="&#xde;" horiz-adv-x="1662" d="M413 1235 Q439 1243 466 1247 Q493 1251 517 1251 L1105 1251 Q1193 1251 1263 1229 Q1333 1207 1386.5 1169.5 Q1440 1132 1477.5 1083 Q1515 1034 1539.5 980 Q1564 926 1575 871.5 Q1586 817 1586 768 L1586 651 Q1586 562 1564 492 Q1542 422 1504.5 369 Q1467 316 1418 278 Q1369 240 1315.5 216 Q1262 192 1207.5 181 Q1153 170 1105 170 L517 170 L517 430 L1105 430 Q1155 434 1195.5 450 Q1236 466 1265 494 Q1294 522 1310 561.5 Q1326 601 1326 651 L1326 768 Q1326 817 1310.5 858 Q1295 899 1266.5 928.5 Q1238 958 1197 974.5 Q1156 991 1105 991 L519 991 Q468 991 441.5 965.5 Q415 940 413 895 L413 -104 L153 -104 L153 1550 L413 1550 L413 1235 Z " />
<glyph glyph-name="ellipsis" unicode="&#x2026;" horiz-adv-x="1141" d="M339 131 Q339 104 328.5 80.5 Q318 57 300.5 39.5 Q283 22 259.5 12 Q236 2 210 2 Q183 2 159.5 12 Q136 22 118.5 39.5 Q101 57 91 80.5 Q81 104 81 131 Q81 157 91 180.5 Q101 204 118.5 221.5 Q136 239 159.5 249.5 Q183 260 210 260 Q236 260 259.5 249.5 Q283 239 300.5 221.5 Q318 204 328.5 180.5 Q339 157 339 131 Z M700 131 Q700 104 689.5 80.5 Q679 57 661.5 39.5 Q644 22 620.5 12 Q597 2 571 2 Q544 2 520.5 12 Q497 22 479.5 39.5 Q462 57 452 80.5 Q442 104 442 131 Q442 157 452 180.5 Q462 204 479.5 221.5 Q497 239 520.5 249.5 Q544 260 571 260 Q597 260 620.5 249.5 Q644 239 661.5 221.5 Q679 204 689.5 180.5 Q700 157 700 131 Z M1060 131 Q1060 104 1049.5 80.5 Q1039 57 1021.5 39.5 Q1004 22 980.5 12 Q957 2 931 2 Q904 2 880.5 12 Q857 22 839.5 39.5 Q822 57 812 80.5 Q802 104 802 131 Q802 157 812 180.5 Q822 204 839.5 221.5 Q857 239 880.5 249.5 Q904 260 931 260 Q957 260 980.5 249.5 Q1004 239 1021.5 221.5 Q1039 204 1049.5 180.5 Q1060 157 1060 131 Z " />
<glyph glyph-name="fi" unicode="&#xfb01;" horiz-adv-x="1580" d="M1079 1290 L493 1290 Q440 1290 413 1263.5 Q386 1237 386 1186 L386 0 L126 0 L126 1186 Q126 1253 143 1306 Q160 1359 188.5 1399.5 Q217 1440 254 1468.5 Q291 1497 331.5 1515 Q372 1533 413 1541.5 Q454 1550 491 1550 L1079 1550 L1079 1290 Z M1453 0 L1193 0 L1191 821 L491 821 L491 1081 L1455 1081 L1453 0 Z M1453 1290 L1193 1290 L1193 1546 L1453 1546 L1453 1290 Z " />
<glyph glyph-name="fl" unicode="&#xfb02;" horiz-adv-x="1709" d="M1664 0 L1548 0 Q1492 0 1428.5 19 Q1365 38 1310 81.5 Q1255 125 1219 194.5 Q1183 264 1183 365 L1183 1290 L493 1290 Q440 1290 413 1263.5 Q386 1237 386 1186 L386 0 L126 0 L126 1186 Q126 1253 143 1306 Q160 1359 188.5 1399.5 Q217 1440 254 1468.5 Q291 1497 331.5 1515 Q372 1533 413 1541.5 Q454 1550 491 1550 L1445 1550 L1443 365 Q1443 317 1473 288.5 Q1503 260 1548 260 L1664 260 L1664 0 Z M935 821 L491 821 L491 1081 L935 1081 L935 821 Z " />
<glyph glyph-name="uni0326" unicode="&#x326;" horiz-adv-x="382" d="M190 -582 L42 -582 L116 -180 L313 -180 L190 -582 Z " />
<glyph glyph-name="uni0312" unicode="&#x312;" horiz-adv-x="392" d="M182 1364 L327 1364 L253 963 L57 963 L182 1364 Z " />
<glyph glyph-name="uni0315" unicode="&#x315;" horiz-adv-x="390" d="M216 963 L69 963 L143 1364 L339 1364 L216 963 Z " />
<glyph glyph-name="uni00AD" unicode="&#xad;" horiz-adv-x="1170" d="M1054 600 L116 600 L116 834 L1054 834 L1054 600 Z " />
<glyph glyph-name="currency" unicode="&#xa4;" horiz-adv-x="898" d="M337 721 Q337 674 368 643 Q399 612 446 612 Q469 612 489 620.5 Q509 629 524 643.5 Q539 658 547.5 678 Q556 698 556 721 Q556 744 547.5 764 Q539 784 524 799 Q509 814 489 822.5 Q469 831 446 831 Q423 831 403 822.5 Q383 814 368.5 799 Q354 784 345.5 764 Q337 744 337 721 Z M827 942 L714 831 Q725 805 731 777.5 Q737 750 737 721 Q737 689 729.5 659.5 Q722 630 710 602 L827 487 L675 344 L562 457 Q509 432 446 432 Q415 432 387 437 Q359 442 333 453 L225 344 L75 494 L184 600 Q170 628 163.5 658.5 Q157 689 157 721 Q157 752 163 782 Q169 812 182 840 L71 952 L225 1090 L327 985 Q355 997 384.5 1004.5 Q414 1012 446 1012 Q478 1012 509.5 1004.5 Q541 997 569 983 L675 1090 L827 942 Z " />
<glyph glyph-name="dotlessj" unicode="&#x237;" horiz-adv-x="513" d="M386 -104 Q386 -171 369 -224.5 Q352 -278 324 -318.5 Q296 -359 259 -387.5 Q222 -416 181.5 -434 Q141 -452 100 -460.5 Q59 -469 22 -469 L-447 -469 L-447 -209 L22 -209 Q74 -209 100 -182 Q126 -155 126 -104 L126 1081 L386 1081 L386 -104 Z " />
<glyph glyph-name="Amacron" unicode="&#x100;" horiz-adv-x="1709" d="M1558 0 L1298 0 L1298 352 L384 352 L384 0 L124 0 L124 717 Q124 874 178 1006 Q232 1138 328 1233 Q424 1328 555 1381 Q686 1434 841 1434 L1427 1434 Q1454 1434 1478 1424 Q1502 1414 1520 1396 Q1538 1378 1548 1354 Q1558 1330 1558 1303 L1558 0 Z M384 612 L1298 612 L1298 1174 L841 1174 Q829 1174 790.5 1170.5 Q752 1167 701.5 1153 Q651 1139 595 1110 Q539 1081 492 1030 Q445 979 414.5 902.5 Q384 826 384 717 L384 612 Z M518 1550 L518 1786 L1190 1786 L1190 1550 L518 1550 Z " />
<glyph glyph-name="Abreve" unicode="&#x102;" horiz-adv-x="1709" d="M1558 0 L1298 0 L1298 352 L384 352 L384 0 L124 0 L124 717 Q124 874 178 1006 Q232 1138 328 1233 Q424 1328 555 1381 Q686 1434 841 1434 L1427 1434 Q1454 1434 1478 1424 Q1502 1414 1520 1396 Q1538 1378 1548 1354 Q1558 1330 1558 1303 L1558 0 Z M384 612 L1298 612 L1298 1174 L841 1174 Q829 1174 790.5 1170.5 Q752 1167 701.5 1153 Q651 1139 595 1110 Q539 1081 492 1030 Q445 979 414.5 902.5 Q384 826 384 717 L384 612 Z M1261 1902 Q1259 1877 1252.5 1839.5 Q1246 1802 1229 1759.5 Q1212 1717 1183.5 1674.5 Q1155 1632 1110 1598 Q1065 1564 1002.5 1542.5 Q940 1521 854 1521 Q768 1521 705 1542.5 Q642 1564 597.5 1598 Q553 1632 524 1674.5 Q495 1717 478.5 1759.5 Q462 1802 454.5 1839.5 Q447 1877 446 1902 L635 1902 Q641 1884 653.5 1859 Q666 1834 690.5 1811 Q715 1788 754.5 1771.5 Q794 1755 854 1755 Q913 1755 952.5 1771.5 Q992 1788 1017 1811 Q1042 1834 1055.5 1859 Q1069 1884 1075 1902 L1261 1902 Z " />
<glyph glyph-name="Aogonek" unicode="&#x104;" horiz-adv-x="1709" d="M1558 0 L1509 0 Q1458 -42 1429 -91.5 Q1400 -141 1400 -186 Q1400 -224 1426 -239 Q1452 -254 1509 -254 Q1534 -254 1564.5 -249 Q1595 -244 1625 -236 Q1655 -228 1682.5 -219.5 Q1710 -211 1728 -203 L1728 -389 Q1710 -394 1684.5 -402 Q1659 -410 1624.5 -417 Q1590 -424 1546 -429 Q1502 -434 1447 -434 Q1393 -434 1346 -424 Q1299 -414 1263.5 -392 Q1228 -370 1207.5 -334 Q1187 -298 1187 -246 Q1187 -219 1193.5 -186.5 Q1200 -154 1215 -121 Q1230 -88 1253.5 -56.5 Q1277 -25 1312 0 L1298 0 L1298 352 L384 352 L384 0 L124 0 L124 717 Q124 874 178 1006 Q232 1138 328 1233 Q424 1328 555 1381 Q686 1434 841 1434 L1427 1434 Q1454 1434 1478 1424 Q1502 1414 1520 1396 Q1538 1378 1548 1354 Q1558 1330 1558 1303 L1558 0 Z M384 612 L1298 612 L1298 1174 L841 1174 Q829 1174 790.5 1170.5 Q752 1167 701.5 1153 Q651 1139 595 1110 Q539 1081 492 1030 Q445 979 414.5 902.5 Q384 826 384 717 L384 612 Z " />
<glyph glyph-name="Cacute" unicode="&#x106;" horiz-adv-x="1530" d="M1435 0 L497 0 Q461 0 419.5 8.5 Q378 17 337.5 35 Q297 53 260 81.5 Q223 110 194.5 150.5 Q166 191 149 244.5 Q132 298 132 365 L132 1069 Q132 1105 140.5 1146.5 Q149 1188 167 1228.5 Q185 1269 214 1306 Q243 1343 283.5 1371.5 Q324 1400 377 1417 Q430 1434 497 1434 L1435 1434 L1435 1174 L497 1174 Q446 1174 419 1147 Q392 1120 392 1067 L392 365 Q392 315 419.5 287.5 Q447 260 497 260 L1435 260 L1435 0 Z M1367 1696 L845 1509 L776 1659 L1257 1939 L1367 1696 Z " />
<glyph glyph-name="Ccircumflex" unicode="&#x108;" horiz-adv-x="1530" d="M1435 0 L497 0 Q461 0 419.5 8.5 Q378 17 337.5 35 Q297 53 260 81.5 Q223 110 194.5 150.5 Q166 191 149 244.5 Q132 298 132 365 L132 1069 Q132 1105 140.5 1146.5 Q149 1188 167 1228.5 Q185 1269 214 1306 Q243 1343 283.5 1371.5 Q324 1400 377 1417 Q430 1434 497 1434 L1435 1434 L1435 1174 L497 1174 Q446 1174 419 1147 Q392 1120 392 1067 L392 365 Q392 315 419.5 287.5 Q447 260 497 260 L1435 260 L1435 0 Z M1150 1509 L802 1689 L454 1509 L333 1677 L802 1943 L1271 1677 L1150 1509 Z " />
<glyph glyph-name="Cdotaccent" unicode="&#x10a;" horiz-adv-x="1530" d="M1435 0 L497 0 Q461 0 419.5 8.5 Q378 17 337.5 35 Q297 53 260 81.5 Q223 110 194.5 150.5 Q166 191 149 244.5 Q132 298 132 365 L132 1069 Q132 1105 140.5 1146.5 Q149 1188 167 1228.5 Q185 1269 214 1306 Q243 1343 283.5 1371.5 Q324 1400 377 1417 Q430 1434 497 1434 L1435 1434 L1435 1174 L497 1174 Q446 1174 419 1147 Q392 1120 392 1067 L392 365 Q392 315 419.5 287.5 Q447 260 497 260 L1435 260 L1435 0 Z M927 1665 Q927 1638 916.5 1614.5 Q906 1591 888.5 1573.5 Q871 1556 847.5 1546 Q824 1536 798 1536 Q771 1536 747.5 1546 Q724 1556 706.5 1573.5 Q689 1591 679 1614.5 Q669 1638 669 1665 Q669 1691 679 1714.5 Q689 1738 706.5 1755.5 Q724 1773 747.5 1783.5 Q771 1794 798 1794 Q824 1794 847.5 1783.5 Q871 1773 888.5 1755.5 Q906 1738 916.5 1714.5 Q927 1691 927 1665 Z " />
<glyph glyph-name="Ccaron" unicode="&#x10c;" horiz-adv-x="1530" d="M1435 0 L497 0 Q461 0 419.5 8.5 Q378 17 337.5 35 Q297 53 260 81.5 Q223 110 194.5 150.5 Q166 191 149 244.5 Q132 298 132 365 L132 1069 Q132 1105 140.5 1146.5 Q149 1188 167 1228.5 Q185 1269 214 1306 Q243 1343 283.5 1371.5 Q324 1400 377 1417 Q430 1434 497 1434 L1435 1434 L1435 1174 L497 1174 Q446 1174 419 1147 Q392 1120 392 1067 L392 365 Q392 315 419.5 287.5 Q447 260 497 260 L1435 260 L1435 0 Z M471 1923 L819 1743 L1167 1923 L1288 1755 L819 1489 L350 1755 L471 1923 Z " />
<glyph glyph-name="Dcaron" unicode="&#x10e;" horiz-adv-x="1686" d="M1582 600 Q1582 469 1536.5 359 Q1491 249 1411 169.5 Q1331 90 1221 45 Q1111 0 982 0 L280 0 Q252 0 228 10 Q204 20 186.5 37.5 Q169 55 159 79 Q149 103 149 131 L149 1303 Q149 1330 159 1354 Q169 1378 186.5 1396 Q204 1414 228 1424 Q252 1434 280 1434 L982 1434 Q1111 1434 1221 1389 Q1331 1344 1411 1264.5 Q1491 1185 1536.5 1074.5 Q1582 964 1582 834 L1582 600 Z M1322 834 Q1322 910 1297.5 973 Q1273 1036 1228 1080.5 Q1183 1125 1120.5 1149.5 Q1058 1174 982 1174 L409 1174 L409 260 L982 260 Q1058 260 1120.5 284.5 Q1183 309 1228 353.5 Q1273 398 1297.5 460.5 Q1322 523 1322 600 L1322 834 Z M495 1923 L843 1743 L1191 1923 L1312 1755 L843 1489 L374 1755 L495 1923 Z " />
<glyph glyph-name="Dcroat" unicode="&#x110;" horiz-adv-x="1920" d="M1816 600 Q1816 469 1768.5 359 Q1721 249 1639 169.5 Q1557 90 1448.5 45 Q1340 0 1218 0 L513 0 Q486 0 462.5 10 Q439 20 421 37.5 Q403 55 392.5 79 Q382 103 382 131 L382 600 L44 600 L44 834 L382 834 L382 1303 Q382 1330 392.5 1354 Q403 1378 421 1396 Q439 1414 462.5 1424 Q486 1434 513 1434 L1218 1434 Q1335 1434 1443.5 1390 Q1552 1346 1634.5 1266.5 Q1717 1187 1766.5 1077 Q1816 967 1816 834 L1816 600 Z M644 600 L644 260 L1216 260 Q1294 260 1356.5 285.5 Q1419 311 1463.5 356 Q1508 401 1532 463.5 Q1556 526 1556 600 L1556 834 Q1556 911 1528 974 Q1500 1037 1453.5 1082 Q1407 1127 1346 1151 Q1285 1175 1218 1174 L644 1174 L644 834 L982 834 L982 600 L644 600 Z " />
<glyph glyph-name="Emacron" unicode="&#x112;" horiz-adv-x="1547" d="M1330 586 L509 586 L509 848 L1330 848 L1330 586 Z M1447 0 L509 0 Q455 0 391 19 Q327 38 272.5 81.5 Q218 125 181.5 194.5 Q145 264 145 365 L145 1303 Q145 1330 155 1354 Q165 1378 182.5 1396 Q200 1414 224 1424 Q248 1434 276 1434 L1447 1434 L1447 1174 L405 1174 L405 365 Q405 314 432 287 Q459 260 511 260 L1447 260 L1447 0 Z M479 1550 L479 1786 L1151 1786 L1151 1550 L479 1550 Z " />
<glyph glyph-name="Ebreve" unicode="&#x114;" horiz-adv-x="1547" d="M1330 586 L509 586 L509 848 L1330 848 L1330 586 Z M1447 0 L509 0 Q455 0 391 19 Q327 38 272.5 81.5 Q218 125 181.5 194.5 Q145 264 145 365 L145 1303 Q145 1330 155 1354 Q165 1378 182.5 1396 Q200 1414 224 1424 Q248 1434 276 1434 L1447 1434 L1447 1174 L405 1174 L405 365 Q405 314 432 287 Q459 260 511 260 L1447 260 L1447 0 Z M1222 1902 Q1220 1877 1213.5 1839.5 Q1207 1802 1190 1759.5 Q1173 1717 1144.5 1674.5 Q1116 1632 1071 1598 Q1026 1564 963.5 1542.5 Q901 1521 815 1521 Q729 1521 666 1542.5 Q603 1564 558.5 1598 Q514 1632 485 1674.5 Q456 1717 439.5 1759.5 Q423 1802 415.5 1839.5 Q408 1877 407 1902 L596 1902 Q602 1884 614.5 1859 Q627 1834 651.5 1811 Q676 1788 715.5 1771.5 Q755 1755 815 1755 Q874 1755 913.5 1771.5 Q953 1788 978 1811 Q1003 1834 1016.5 1859 Q1030 1884 1036 1902 L1222 1902 Z " />
<glyph glyph-name="Edotaccent" unicode="&#x116;" horiz-adv-x="1547" d="M1330 586 L509 586 L509 848 L1330 848 L1330 586 Z M1447 0 L509 0 Q455 0 391 19 Q327 38 272.5 81.5 Q218 125 181.5 194.5 Q145 264 145 365 L145 1303 Q145 1330 155 1354 Q165 1378 182.5 1396 Q200 1414 224 1424 Q248 1434 276 1434 L1447 1434 L1447 1174 L405 1174 L405 365 Q405 314 432 287 Q459 260 511 260 L1447 260 L1447 0 Z M944 1665 Q944 1638 933.5 1614.5 Q923 1591 905.5 1573.5 Q888 1556 864.5 1546 Q841 1536 815 1536 Q788 1536 764.5 1546 Q741 1556 723.5 1573.5 Q706 1591 696 1614.5 Q686 1638 686 1665 Q686 1691 696 1714.5 Q706 1738 723.5 1755.5 Q741 1773 764.5 1783.5 Q788 1794 815 1794 Q841 1794 864.5 1783.5 Q888 1773 905.5 1755.5 Q923 1738 933.5 1714.5 Q944 1691 944 1665 Z " />
<glyph glyph-name="Eogonek" unicode="&#x118;" horiz-adv-x="1547" d="M1447 0 L1228 0 Q1177 -42 1148.5 -91.5 Q1120 -141 1120 -186 Q1120 -224 1145.5 -239 Q1171 -254 1228 -254 Q1253 -254 1284 -249 Q1315 -244 1345 -236 Q1375 -228 1402 -219.5 Q1429 -211 1447 -203 L1447 -389 Q1429 -394 1403.5 -402 Q1378 -410 1344 -417 Q1310 -424 1266 -429 Q1222 -434 1167 -434 Q1113 -434 1065.5 -424 Q1018 -414 983 -392 Q948 -370 927.5 -334 Q907 -298 907 -246 Q907 -219 913.5 -186.5 Q920 -154 934.5 -121 Q949 -88 972.5 -56.5 Q996 -25 1031 0 L509 0 Q455 0 391 19 Q327 38 272.5 81.5 Q218 125 181.5 194.5 Q145 264 145 365 L145 1303 Q145 1330 155 1354 Q165 1378 182.5 1396 Q200 1414 224 1424 Q248 1434 276 1434 L1447 1434 L1447 1174 L405 1174 L405 365 Q405 314 432 287 Q459 260 511 260 L1447 260 L1447 0 Z M1330 586 L509 586 L509 848 L1330 848 L1330 586 Z " />
<glyph glyph-name="Ecaron" unicode="&#x11a;" horiz-adv-x="1547" d="M1330 586 L509 586 L509 848 L1330 848 L1330 586 Z M1447 0 L509 0 Q455 0 391 19 Q327 38 272.5 81.5 Q218 125 181.5 194.5 Q145 264 145 365 L145 1303 Q145 1330 155 1354 Q165 1378 182.5 1396 Q200 1414 224 1424 Q248 1434 276 1434 L1447 1434 L1447 1174 L405 1174 L405 365 Q405 314 432 287 Q459 260 511 260 L1447 260 L1447 0 Z M467 1923 L815 1743 L1163 1923 L1284 1755 L815 1489 L346 1755 L467 1923 Z " />
<glyph glyph-name="Gcircumflex" unicode="&#x11c;" horiz-adv-x="1686" d="M1566 131 Q1566 103 1556 79 Q1546 55 1528.5 37.5 Q1511 20 1487 10 Q1463 0 1435 0 L497 0 Q461 0 419.5 8.5 Q378 17 337.5 35 Q297 53 260 81.5 Q223 110 194.5 150.5 Q166 191 149 244.5 Q132 298 132 365 L132 1069 Q132 1105 140.5 1146.5 Q149 1188 167 1228.5 Q185 1269 214 1306 Q243 1343 283.5 1371.5 Q324 1400 377 1417 Q430 1434 497 1434 L1554 1434 L1554 1174 L497 1174 Q446 1174 419 1147 Q392 1120 392 1067 L392 365 Q392 315 419.5 287.5 Q447 260 497 260 L1306 260 L1306 586 L614 586 L614 848 L1435 848 Q1463 848 1487 837.5 Q1511 827 1528.5 809 Q1546 791 1556 767.5 Q1566 744 1566 717 L1566 131 Z M1232 1509 L884 1689 L536 1509 L415 1677 L884 1943 L1353 1677 L1232 1509 Z " />
<glyph glyph-name="Gbreve" unicode="&#x11e;" horiz-adv-x="1686" d="M1566 131 Q1566 103 1556 79 Q1546 55 1528.5 37.5 Q1511 20 1487 10 Q1463 0 1435 0 L497 0 Q461 0 419.5 8.5 Q378 17 337.5 35 Q297 53 260 81.5 Q223 110 194.5 150.5 Q166 191 149 244.5 Q132 298 132 365 L132 1069 Q132 1105 140.5 1146.5 Q149 1188 167 1228.5 Q185 1269 214 1306 Q243 1343 283.5 1371.5 Q324 1400 377 1417 Q430 1434 497 1434 L1554 1434 L1554 1174 L497 1174 Q446 1174 419 1147 Q392 1120 392 1067 L392 365 Q392 315 419.5 287.5 Q447 260 497 260 L1306 260 L1306 586 L614 586 L614 848 L1435 848 Q1463 848 1487 837.5 Q1511 827 1528.5 809 Q1546 791 1556 767.5 Q1566 744 1566 717 L1566 131 Z M1291 1902 Q1289 1877 1282.5 1839.5 Q1276 1802 1259 1759.5 Q1242 1717 1213.5 1674.5 Q1185 1632 1140 1598 Q1095 1564 1032.5 1542.5 Q970 1521 884 1521 Q798 1521 735 1542.5 Q672 1564 627.5 1598 Q583 1632 554 1674.5 Q525 1717 508.5 1759.5 Q492 1802 484.5 1839.5 Q477 1877 476 1902 L665 1902 Q671 1884 683.5 1859 Q696 1834 720.5 1811 Q745 1788 784.5 1771.5 Q824 1755 884 1755 Q943 1755 982.5 1771.5 Q1022 1788 1047 1811 Q1072 1834 1085.5 1859 Q1099 1884 1105 1902 L1291 1902 Z " />
<glyph glyph-name="Gdotaccent" unicode="&#x120;" horiz-adv-x="1686" d="M1566 131 Q1566 103 1556 79 Q1546 55 1528.5 37.5 Q1511 20 1487 10 Q1463 0 1435 0 L497 0 Q461 0 419.5 8.5 Q378 17 337.5 35 Q297 53 260 81.5 Q223 110 194.5 150.5 Q166 191 149 244.5 Q132 298 132 365 L132 1069 Q132 1105 140.5 1146.5 Q149 1188 167 1228.5 Q185 1269 214 1306 Q243 1343 283.5 1371.5 Q324 1400 377 1417 Q430 1434 497 1434 L1554 1434 L1554 1174 L497 1174 Q446 1174 419 1147 Q392 1120 392 1067 L392 365 Q392 315 419.5 287.5 Q447 260 497 260 L1306 260 L1306 586 L614 586 L614 848 L1435 848 Q1463 848 1487 837.5 Q1511 827 1528.5 809 Q1546 791 1556 767.5 Q1566 744 1566 717 L1566 131 Z M1013 1665 Q1013 1638 1002.5 1614.5 Q992 1591 974.5 1573.5 Q957 1556 933.5 1546 Q910 1536 884 1536 Q857 1536 833.5 1546 Q810 1556 792.5 1573.5 Q775 1591 765 1614.5 Q755 1638 755 1665 Q755 1691 765 1714.5 Q775 1738 792.5 1755.5 Q810 1773 833.5 1783.5 Q857 1794 884 1794 Q910 1794 933.5 1783.5 Q957 1773 974.5 1755.5 Q992 1738 1002.5 1714.5 Q1013 1691 1013 1665 Z " />
<glyph glyph-name="Gcommaaccent" unicode="&#x122;" horiz-adv-x="1686" d="M1566 131 Q1566 103 1556 79 Q1546 55 1528.5 37.5 Q1511 20 1487 10 Q1463 0 1435 0 L497 0 Q461 0 419.5 8.5 Q378 17 337.5 35 Q297 53 260 81.5 Q223 110 194.5 150.5 Q166 191 149 244.5 Q132 298 132 365 L132 1069 Q132 1105 140.5 1146.5 Q149 1188 167 1228.5 Q185 1269 214 1306 Q243 1343 283.5 1371.5 Q324 1400 377 1417 Q430 1434 497 1434 L1554 1434 L1554 1174 L497 1174 Q446 1174 419 1147 Q392 1120 392 1067 L392 365 Q392 315 419.5 287.5 Q447 260 497 260 L1306 260 L1306 586 L614 586 L614 848 L1435 848 Q1463 848 1487 837.5 Q1511 827 1528.5 809 Q1546 791 1556 767.5 Q1566 744 1566 717 L1566 131 Z M856 -582 L708 -582 L782 -180 L979 -180 L856 -582 Z " />
<glyph glyph-name="Hcircumflex" unicode="&#x124;" horiz-adv-x="1739" d="M413 848 L1326 848 L1326 1434 L1586 1434 L1586 0 L1326 0 L1326 586 L413 586 L413 0 L153 0 L153 1434 L413 1434 L413 848 Z M1218 1509 L870 1689 L522 1509 L401 1677 L870 1943 L1339 1677 L1218 1509 Z " />
<glyph glyph-name="Hbar" unicode="&#x126;" horiz-adv-x="1739" d="M413 1184 L1326 1184 L1326 1434 L1586 1434 L1586 1184 L1689 1184 L1689 950 L1586 950 L1586 0 L1326 0 L1326 586 L413 586 L413 0 L153 0 L153 950 L50 950 L50 1184 L153 1184 L153 1434 L413 1434 L413 1184 Z M1326 848 L1326 950 L413 950 L413 848 L1326 848 Z " />
<glyph glyph-name="Itilde" unicode="&#x128;" horiz-adv-x="566" d="M413 0 L153 0 L153 1434 L413 1434 L413 0 Z M678 1861 Q678 1765 658 1699 Q638 1633 604 1592.5 Q570 1552 524.5 1534.5 Q479 1517 428 1517 Q374 1517 337 1536 Q300 1555 271 1577.5 Q242 1600 216 1619 Q190 1638 158 1638 Q128 1638 110.5 1623 Q93 1608 84 1587.5 Q75 1567 72 1547 Q69 1527 68 1517 L-109 1517 Q-109 1602 -88.5 1666.5 Q-68 1731 -33.5 1774.5 Q1 1818 46.5 1839.5 Q92 1861 143 1861 Q190 1861 224.5 1842 Q259 1823 289 1800.5 Q319 1778 347.5 1759.5 Q376 1741 412 1741 Q442 1741 459.5 1756 Q477 1771 486 1790.5 Q495 1810 498 1830 Q501 1850 502 1861 L678 1861 Z " />
<glyph glyph-name="Imacron" unicode="&#x12a;" horiz-adv-x="566" d="M413 0 L153 0 L153 1434 L413 1434 L413 0 Z M-51 1550 L-51 1786 L621 1786 L621 1550 L-51 1550 Z " />
<glyph glyph-name="Ibreve" unicode="&#x12c;" horiz-adv-x="566" d="M413 0 L153 0 L153 1434 L413 1434 L413 0 Z M692 1902 Q690 1877 683.5 1839.5 Q677 1802 660 1759.5 Q643 1717 614.5 1674.5 Q586 1632 541 1598 Q496 1564 433.5 1542.5 Q371 1521 285 1521 Q199 1521 136 1542.5 Q73 1564 28.5 1598 Q-16 1632 -45 1674.5 Q-74 1717 -90.5 1759.5 Q-107 1802 -114.5 1839.5 Q-122 1877 -123 1902 L66 1902 Q72 1884 84.5 1859 Q97 1834 121.5 1811 Q146 1788 185.5 1771.5 Q225 1755 285 1755 Q344 1755 383.5 1771.5 Q423 1788 448 1811 Q473 1834 486.5 1859 Q500 1884 506 1902 L692 1902 Z " />
<glyph glyph-name="Iogonek" unicode="&#x12e;" horiz-adv-x="566" d="M413 0 L364 0 Q313 -42 284 -91.5 Q255 -141 255 -186 Q255 -224 281 -239 Q307 -254 364 -254 Q389 -254 419.5 -249 Q450 -244 480 -236 Q510 -228 537.5 -219.5 Q565 -211 583 -203 L583 -389 Q565 -394 539.5 -402 Q514 -410 479.5 -417 Q445 -424 401 -429 Q357 -434 302 -434 Q248 -434 201 -424 Q154 -414 118.5 -392 Q83 -370 62.5 -334 Q42 -298 42 -246 Q42 -219 48.5 -186.5 Q55 -154 70 -121 Q85 -88 108.5 -56.5 Q132 -25 167 0 L153 0 L153 1434 L413 1434 L413 0 Z " />
<glyph glyph-name="Idotaccent" unicode="&#x130;" horiz-adv-x="566" d="M413 0 L153 0 L153 1434 L413 1434 L413 0 Z M414 1665 Q414 1638 403.5 1614.5 Q393 1591 375.5 1573.5 Q358 1556 334.5 1546 Q311 1536 285 1536 Q258 1536 234.5 1546 Q211 1556 193.5 1573.5 Q176 1591 166 1614.5 Q156 1638 156 1665 Q156 1691 166 1714.5 Q176 1738 193.5 1755.5 Q211 1773 234.5 1783.5 Q258 1794 285 1794 Q311 1794 334.5 1783.5 Q358 1773 375.5 1755.5 Q393 1738 403.5 1714.5 Q414 1691 414 1665 Z " />
<glyph glyph-name="IJ" unicode="&#x132;" horiz-adv-x="2010" d="M413 0 L153 0 L153 1434 L413 1434 L413 0 Z M1863 365 Q1863 287 1836 220 Q1809 153 1760.5 104 Q1712 55 1645 27.5 Q1578 0 1499 0 L546 0 L546 260 L1499 260 Q1547 260 1574 287.5 Q1601 315 1601 365 L1601 1434 L1863 1434 L1863 365 Z " />
<glyph glyph-name="Jcircumflex" unicode="&#x134;" horiz-adv-x="1504" d="M1357 365 Q1357 287 1330 220 Q1303 153 1254.5 104 Q1206 55 1139 27.5 Q1072 0 993 0 L40 0 L40 260 L993 260 Q1041 260 1068 287.5 Q1095 315 1095 365 L1095 1434 L1357 1434 L1357 365 Z M1574 1509 L1226 1689 L878 1509 L757 1677 L1226 1943 L1695 1677 L1574 1509 Z " />
<glyph glyph-name="Kcommaaccent" unicode="&#x136;" horiz-adv-x="1666" d="M1654 0 L1285 0 L700 586 L517 586 L517 848 L700 848 L1285 1434 L1654 1434 L917 717 L1654 0 Z M413 0 L153 0 L153 1434 L413 1434 L413 0 Z M743 -582 L595 -582 L669 -180 L866 -180 L743 -582 Z " />
<glyph glyph-name="Lacute" unicode="&#x139;" horiz-adv-x="1508" d="M1468 0 L282 0 Q254 0 230 10 Q206 20 188.5 37.5 Q171 55 161 79 Q151 103 151 131 L151 1434 L411 1434 L411 260 L1468 260 L1468 0 Z M811 1696 L289 1509 L220 1659 L701 1939 L811 1696 Z " />
<glyph glyph-name="Lcommaaccent" unicode="&#x13b;" horiz-adv-x="1508" d="M1468 0 L282 0 Q254 0 230 10 Q206 20 188.5 37.5 Q171 55 161 79 Q151 103 151 131 L151 1434 L411 1434 L411 260 L1468 260 L1468 0 Z M765 -582 L617 -582 L691 -180 L888 -180 L765 -582 Z " />
<glyph glyph-name="Ldot" unicode="&#x13f;" horiz-adv-x="1752" d="M1468 0 L282 0 Q254 0 230 10 Q206 20 188.5 37.5 Q171 55 161 79 Q151 103 151 131 L151 1434 L411 1434 L411 260 L1468 260 L1468 0 Z M1662 719 Q1662 692 1651.5 668.5 Q1641 645 1623.5 627.5 Q1606 610 1582.5 600 Q1559 590 1533 590 Q1506 590 1482.5 600 Q1459 610 1441.5 627.5 Q1424 645 1414 668.5 Q1404 692 1404 719 Q1404 745 1414 768.5 Q1424 792 1441.5 809.5 Q1459 827 1482.5 837.5 Q1506 848 1533 848 Q1559 848 1582.5 837.5 Q1606 827 1623.5 809.5 Q1641 792 1651.5 768.5 Q1662 745 1662 719 Z " />
<glyph glyph-name="Lcaron" unicode="&#x13d;" horiz-adv-x="1508" d="M1468 0 L282 0 Q254 0 230 10 Q206 20 188.5 37.5 Q171 55 161 79 Q151 103 151 131 L151 1434 L411 1434 L411 260 L1468 260 L1468 0 Z M765 1313 L618 1313 L692 1714 L888 1714 L765 1313 Z " />
<glyph glyph-name="Nacute" unicode="&#x143;" horiz-adv-x="1735" d="M1584 111 Q1584 83 1573.5 59 Q1563 35 1545.5 17.5 Q1528 0 1504 -10 Q1480 -20 1453 -20 Q1429 -20 1404.5 -11 Q1380 -2 1361 18 L411 1010 L411 0 L151 0 L151 1323 Q151 1363 173.5 1395.5 Q196 1428 231 1444 Q268 1459 307 1451.5 Q346 1444 374 1415 L1324 424 L1324 1434 L1584 1434 L1584 111 Z M1379 1696 L857 1509 L788 1659 L1269 1939 L1379 1696 Z " />
<glyph glyph-name="Ncommaaccent" unicode="&#x145;" horiz-adv-x="1735" d="M1584 111 Q1584 83 1573.5 59 Q1563 35 1545.5 17.5 Q1528 0 1504 -10 Q1480 -20 1453 -20 Q1429 -20 1404.5 -11 Q1380 -2 1361 18 L411 1010 L411 0 L151 0 L151 1323 Q151 1363 173.5 1395.5 Q196 1428 231 1444 Q268 1459 307 1451.5 Q346 1444 374 1415 L1324 424 L1324 1434 L1584 1434 L1584 111 Z M880 -582 L732 -582 L806 -180 L1003 -180 L880 -582 Z " />
<glyph glyph-name="Ncaron" unicode="&#x147;" horiz-adv-x="1735" d="M1584 111 Q1584 83 1573.5 59 Q1563 35 1545.5 17.5 Q1528 0 1504 -10 Q1480 -20 1453 -20 Q1429 -20 1404.5 -11 Q1380 -2 1361 18 L411 1010 L411 0 L151 0 L151 1323 Q151 1363 173.5 1395.5 Q196 1428 231 1444 Q268 1459 307 1451.5 Q346 1444 374 1415 L1324 424 L1324 1434 L1584 1434 L1584 111 Z M520 1923 L868 1743 L1216 1923 L1337 1755 L868 1489 L399 1755 L520 1923 Z " />
<glyph glyph-name="Eng" unicode="&#x14a;" horiz-adv-x="1735" d="M1584 -217 Q1584 -295 1557 -362 Q1530 -429 1481.5 -478 Q1433 -527 1366 -554.5 Q1299 -582 1220 -582 L268 -582 L268 -322 L1220 -322 Q1268 -322 1295 -294.5 Q1322 -267 1322 -217 L1322 59 L411 1010 L411 0 L151 0 L151 1323 Q151 1363 173.5 1395.5 Q196 1428 231 1444 Q268 1459 307 1451.5 Q346 1444 374 1415 L1322 426 L1324 1434 L1584 1434 L1584 -217 Z " />
<glyph glyph-name="Omacron" unicode="&#x14c;" horiz-adv-x="1762" d="M1656 580 Q1656 449 1611 339 Q1566 229 1486 149 Q1406 69 1296.5 24.5 Q1187 -20 1058 -20 L706 -20 Q577 -20 467 24.5 Q357 69 277 149 Q197 229 151.5 339 Q106 449 106 580 L106 854 Q106 984 151.5 1094.5 Q197 1205 277 1284.5 Q357 1364 467 1409 Q577 1454 706 1454 L1058 1454 Q1187 1454 1296.5 1409 Q1406 1364 1486 1284.5 Q1566 1205 1611 1094.5 Q1656 984 1656 854 L1656 580 Z M1396 854 Q1396 931 1371.5 993.5 Q1347 1056 1302.5 1100.5 Q1258 1145 1195.5 1169.5 Q1133 1194 1058 1194 L706 1194 Q630 1194 567.5 1169.5 Q505 1145 460 1100.5 Q415 1056 390.5 993.5 Q366 931 366 854 L366 580 Q366 503 390.5 440.5 Q415 378 460 333.5 Q505 289 567.5 264.5 Q630 240 706 240 L1056 240 Q1132 240 1194.5 264.5 Q1257 289 1302 333.5 Q1347 378 1371.5 440.5 Q1396 503 1396 580 L1396 854 Z M544 1550 L544 1786 L1216 1786 L1216 1550 L544 1550 Z " />
<glyph glyph-name="Obreve" unicode="&#x14e;" horiz-adv-x="1762" d="M1656 580 Q1656 449 1611 339 Q1566 229 1486 149 Q1406 69 1296.5 24.5 Q1187 -20 1058 -20 L706 -20 Q577 -20 467 24.5 Q357 69 277 149 Q197 229 151.5 339 Q106 449 106 580 L106 854 Q106 984 151.5 1094.5 Q197 1205 277 1284.5 Q357 1364 467 1409 Q577 1454 706 1454 L1058 1454 Q1187 1454 1296.5 1409 Q1406 1364 1486 1284.5 Q1566 1205 1611 1094.5 Q1656 984 1656 854 L1656 580 Z M1396 854 Q1396 931 1371.5 993.5 Q1347 1056 1302.5 1100.5 Q1258 1145 1195.5 1169.5 Q1133 1194 1058 1194 L706 1194 Q630 1194 567.5 1169.5 Q505 1145 460 1100.5 Q415 1056 390.5 993.5 Q366 931 366 854 L366 580 Q366 503 390.5 440.5 Q415 378 460 333.5 Q505 289 567.5 264.5 Q630 240 706 240 L1056 240 Q1132 240 1194.5 264.5 Q1257 289 1302 333.5 Q1347 378 1371.5 440.5 Q1396 503 1396 580 L1396 854 Z M1287 1902 Q1285 1877 1278.5 1839.5 Q1272 1802 1255 1759.5 Q1238 1717 1209.5 1674.5 Q1181 1632 1136 1598 Q1091 1564 1028.5 1542.5 Q966 1521 880 1521 Q794 1521 731 1542.5 Q668 1564 623.5 1598 Q579 1632 550 1674.5 Q521 1717 504.5 1759.5 Q488 1802 480.5 1839.5 Q473 1877 472 1902 L661 1902 Q667 1884 679.5 1859 Q692 1834 716.5 1811 Q741 1788 780.5 1771.5 Q820 1755 880 1755 Q939 1755 978.5 1771.5 Q1018 1788 1043 1811 Q1068 1834 1081.5 1859 Q1095 1884 1101 1902 L1287 1902 Z " />
<glyph glyph-name="Ohungarumlaut" unicode="&#x150;" horiz-adv-x="1762" d="M1656 580 Q1656 449 1611 339 Q1566 229 1486 149 Q1406 69 1296.5 24.5 Q1187 -20 1058 -20 L706 -20 Q577 -20 467 24.5 Q357 69 277 149 Q197 229 151.5 339 Q106 449 106 580 L106 854 Q106 984 151.5 1094.5 Q197 1205 277 1284.5 Q357 1364 467 1409 Q577 1454 706 1454 L1058 1454 Q1187 1454 1296.5 1409 Q1406 1364 1486 1284.5 Q1566 1205 1611 1094.5 Q1656 984 1656 854 L1656 580 Z M1396 854 Q1396 931 1371.5 993.5 Q1347 1056 1302.5 1100.5 Q1258 1145 1195.5 1169.5 Q1133 1194 1058 1194 L706 1194 Q630 1194 567.5 1169.5 Q505 1145 460 1100.5 Q415 1056 390.5 993.5 Q366 931 366 854 L366 580 Q366 503 390.5 440.5 Q415 378 460 333.5 Q505 289 567.5 264.5 Q630 240 706 240 L1056 240 Q1132 240 1194.5 264.5 Q1257 289 1302 333.5 Q1347 378 1371.5 440.5 Q1396 503 1396 580 L1396 854 Z M1046 1696 L667 1509 L612 1601 L933 1888 L1046 1696 Z M1476 1696 L1097 1509 L1046 1601 L1363 1888 L1476 1696 Z " />
<glyph glyph-name="Racute" unicode="&#x154;" horiz-adv-x="1694" d="M1584 952 Q1584 863 1562 793 Q1540 723 1502.5 669.5 Q1465 616 1416 578 Q1367 540 1313.5 515.5 Q1260 491 1205.5 480 Q1151 469 1103 469 L1646 0 L1244 0 L702 469 L515 469 L515 729 L1103 729 Q1152 733 1192.5 749.5 Q1233 766 1262.5 794 Q1292 822 1308 861.5 Q1324 901 1324 952 L1324 1116 Q1324 1138 1318.5 1149.5 Q1313 1161 1304.5 1166.5 Q1296 1172 1286.5 1173 Q1277 1174 1269 1174 L411 1174 L411 0 L151 0 L151 1303 Q151 1330 161 1354 Q171 1378 188.5 1396 Q206 1414 230 1424 Q254 1434 282 1434 L1269 1434 Q1356 1434 1416 1402.5 Q1476 1371 1513.5 1323.5 Q1551 1276 1567.5 1221 Q1584 1166 1584 1118 L1584 952 Z M1359 1696 L837 1509 L768 1659 L1249 1939 L1359 1696 Z " />
<glyph glyph-name="Rcommaaccent" unicode="&#x156;" horiz-adv-x="1694" d="M1584 952 Q1584 863 1562 793 Q1540 723 1502.5 669.5 Q1465 616 1416 578 Q1367 540 1313.5 515.5 Q1260 491 1205.5 480 Q1151 469 1103 469 L1646 0 L1244 0 L702 469 L515 469 L515 729 L1103 729 Q1152 733 1192.5 749.5 Q1233 766 1262.5 794 Q1292 822 1308 861.5 Q1324 901 1324 952 L1324 1116 Q1324 1138 1318.5 1149.5 Q1313 1161 1304.5 1166.5 Q1296 1172 1286.5 1173 Q1277 1174 1269 1174 L411 1174 L411 0 L151 0 L151 1303 Q151 1330 161 1354 Q171 1378 188.5 1396 Q206 1414 230 1424 Q254 1434 282 1434 L1269 1434 Q1356 1434 1416 1402.5 Q1476 1371 1513.5 1323.5 Q1551 1276 1567.5 1221 Q1584 1166 1584 1118 L1584 952 Z M860 -582 L712 -582 L786 -180 L983 -180 L860 -582 Z " />
<glyph glyph-name="Rcaron" unicode="&#x158;" horiz-adv-x="1694" d="M1584 952 Q1584 863 1562 793 Q1540 723 1502.5 669.5 Q1465 616 1416 578 Q1367 540 1313.5 515.5 Q1260 491 1205.5 480 Q1151 469 1103 469 L1646 0 L1244 0 L702 469 L515 469 L515 729 L1103 729 Q1152 733 1192.5 749.5 Q1233 766 1262.5 794 Q1292 822 1308 861.5 Q1324 901 1324 952 L1324 1116 Q1324 1138 1318.5 1149.5 Q1313 1161 1304.5 1166.5 Q1296 1172 1286.5 1173 Q1277 1174 1269 1174 L411 1174 L411 0 L151 0 L151 1303 Q151 1330 161 1354 Q171 1378 188.5 1396 Q206 1414 230 1424 Q254 1434 282 1434 L1269 1434 Q1356 1434 1416 1402.5 Q1476 1371 1513.5 1323.5 Q1551 1276 1567.5 1221 Q1584 1166 1584 1118 L1584 952 Z M499 1923 L847 1743 L1195 1923 L1316 1755 L847 1489 L378 1755 L499 1923 Z " />
<glyph glyph-name="Sacute" unicode="&#x15a;" horiz-adv-x="1594" d="M1529 422 Q1529 345 1509.5 283.5 Q1490 222 1458 175 Q1426 128 1383 95 Q1340 62 1294 41 Q1248 20 1200.5 10 Q1153 0 1111 0 L108 0 L108 260 L1111 260 Q1186 260 1227.5 304 Q1269 348 1269 422 Q1269 458 1258 488 Q1247 518 1226.5 540 Q1206 562 1176.5 574 Q1147 586 1111 586 L513 586 Q450 586 377 608.5 Q304 631 241.5 681 Q179 731 137.5 812 Q96 893 96 1010 Q96 1127 137.5 1207.5 Q179 1288 241.5 1338.5 Q304 1389 377 1411.5 Q450 1434 513 1434 L1398 1434 L1398 1174 L513 1174 Q439 1174 397.5 1129 Q356 1084 356 1010 Q356 935 397.5 891.5 Q439 848 513 848 L1111 848 L1113 848 Q1155 847 1202 836.5 Q1249 826 1295.5 804 Q1342 782 1384 748.5 Q1426 715 1458.5 668 Q1491 621 1510 560 Q1529 499 1529 422 Z M1353 1696 L831 1509 L762 1659 L1243 1939 L1353 1696 Z " />
<glyph glyph-name="Scircumflex" unicode="&#x15c;" horiz-adv-x="1594" d="M1529 422 Q1529 345 1509.5 283.5 Q1490 222 1458 175 Q1426 128 1383 95 Q1340 62 1294 41 Q1248 20 1200.5 10 Q1153 0 1111 0 L108 0 L108 260 L1111 260 Q1186 260 1227.5 304 Q1269 348 1269 422 Q1269 458 1258 488 Q1247 518 1226.5 540 Q1206 562 1176.5 574 Q1147 586 1111 586 L513 586 Q450 586 377 608.5 Q304 631 241.5 681 Q179 731 137.5 812 Q96 893 96 1010 Q96 1127 137.5 1207.5 Q179 1288 241.5 1338.5 Q304 1389 377 1411.5 Q450 1434 513 1434 L1398 1434 L1398 1174 L513 1174 Q439 1174 397.5 1129 Q356 1084 356 1010 Q356 935 397.5 891.5 Q439 848 513 848 L1111 848 L1113 848 Q1155 847 1202 836.5 Q1249 826 1295.5 804 Q1342 782 1384 748.5 Q1426 715 1458.5 668 Q1491 621 1510 560 Q1529 499 1529 422 Z M1144 1509 L796 1689 L448 1509 L327 1677 L796 1943 L1265 1677 L1144 1509 Z " />
<glyph glyph-name="Scedilla" unicode="&#x15e;" horiz-adv-x="1594" d="M1529 422 Q1529 345 1509.5 283.5 Q1490 222 1458 175 Q1426 128 1383 95 Q1340 62 1294 41 Q1248 20 1200.5 10 Q1153 0 1111 0 L882 0 L855 -70 Q884 -70 920.5 -77 Q957 -84 989.5 -103.5 Q1022 -123 1044 -158 Q1066 -193 1066 -250 Q1066 -307 1037.5 -346 Q1009 -385 963.5 -409 Q918 -433 861.5 -443 Q805 -453 749 -453 Q698 -453 664 -450.5 Q630 -448 606 -444.5 Q582 -441 563.5 -437 Q545 -433 526 -430 L526 -254 Q566 -273 618.5 -286 Q671 -299 726 -299 Q783 -299 821 -287.5 Q859 -276 859 -248 Q859 -232 847 -222 Q835 -212 817 -206.5 Q799 -201 779 -199 Q759 -197 743 -197 Q720 -197 694 -200 Q668 -203 648 -209 L726 0 L108 0 L108 260 L1111 260 Q1186 260 1227.5 304 Q1269 348 1269 422 Q1269 458 1258 488 Q1247 518 1226.5 540 Q1206 562 1176.5 574 Q1147 586 1111 586 L513 586 Q450 586 377 608.5 Q304 631 241.5 681 Q179 731 137.5 812 Q96 893 96 1010 Q96 1127 137.5 1207.5 Q179 1288 241.5 1338.5 Q304 1389 377 1411.5 Q450 1434 513 1434 L1398 1434 L1398 1174 L513 1174 Q439 1174 397.5 1129 Q356 1084 356 1010 Q356 935 397.5 891.5 Q439 848 513 848 L1113 848 Q1155 847 1202 836.5 Q1249 826 1295.5 804 Q1342 782 1384 748.5 Q1426 715 1458.5 668 Q1491 621 1510 560 Q1529 499 1529 422 Z " />
<glyph glyph-name="Tcommaaccent" unicode="&#x162;" horiz-adv-x="1487" d="M1447 1174 L874 1174 L874 0 L614 0 L614 1174 L40 1174 L40 1434 L1447 1434 L1447 1174 Z M714 -582 L566 -582 L640 -180 L837 -180 L714 -582 Z " />
<glyph glyph-name="Tcaron" unicode="&#x164;" horiz-adv-x="1487" d="M1447 1174 L874 1174 L874 0 L614 0 L614 1174 L40 1174 L40 1434 L1447 1434 L1447 1174 Z M395 1923 L743 1743 L1091 1923 L1212 1755 L743 1489 L274 1755 L395 1923 Z " />
<glyph glyph-name="Tbar" unicode="&#x166;" horiz-adv-x="1487" d="M1152 500 L874 500 L874 0 L614 0 L614 500 L333 500 L333 733 L614 733 L614 1174 L40 1174 L40 1434 L1447 1434 L1447 1174 L874 1174 L874 733 L1152 733 L1152 500 Z " />
<glyph glyph-name="Utilde" unicode="&#x168;" horiz-adv-x="1707" d="M1556 131 Q1556 103 1546 79 Q1536 55 1518 37.5 Q1500 20 1476 10 Q1452 0 1425 0 L839 0 Q756 0 671 18 Q586 36 506.5 73.5 Q427 111 357 169 Q287 227 234.5 306.5 Q182 386 152 488.5 Q122 591 122 717 L122 1434 L382 1434 L382 717 Q382 607 412.5 531 Q443 455 490 404 Q537 353 593 324 Q649 295 699.5 281 Q750 267 788.5 263.5 Q827 260 839 260 L1296 260 L1296 1434 L1556 1434 L1556 131 Z M1247 1861 Q1247 1765 1227 1699 Q1207 1633 1173 1592.5 Q1139 1552 1093.5 1534.5 Q1048 1517 997 1517 Q943 1517 906 1536 Q869 1555 840 1577.5 Q811 1600 785 1619 Q759 1638 727 1638 Q697 1638 679.5 1623 Q662 1608 653 1587.5 Q644 1567 641 1547 Q638 1527 637 1517 L460 1517 Q460 1602 480.5 1666.5 Q501 1731 535.5 1774.5 Q570 1818 615.5 1839.5 Q661 1861 712 1861 Q759 1861 793.5 1842 Q828 1823 858 1800.5 Q888 1778 916.5 1759.5 Q945 1741 981 1741 Q1011 1741 1028.5 1756 Q1046 1771 1055 1790.5 Q1064 1810 1067 1830 Q1070 1850 1071 1861 L1247 1861 Z " />
<glyph glyph-name="Umacron" unicode="&#x16a;" horiz-adv-x="1707" d="M1556 131 Q1556 103 1546 79 Q1536 55 1518 37.5 Q1500 20 1476 10 Q1452 0 1425 0 L839 0 Q756 0 671 18 Q586 36 506.5 73.5 Q427 111 357 169 Q287 227 234.5 306.5 Q182 386 152 488.5 Q122 591 122 717 L122 1434 L382 1434 L382 717 Q382 607 412.5 531 Q443 455 490 404 Q537 353 593 324 Q649 295 699.5 281 Q750 267 788.5 263.5 Q827 260 839 260 L1296 260 L1296 1434 L1556 1434 L1556 131 Z M518 1550 L518 1786 L1190 1786 L1190 1550 L518 1550 Z " />
<glyph glyph-name="Ubreve" unicode="&#x16c;" horiz-adv-x="1707" d="M1556 131 Q1556 103 1546 79 Q1536 55 1518 37.5 Q1500 20 1476 10 Q1452 0 1425 0 L839 0 Q756 0 671 18 Q586 36 506.5 73.5 Q427 111 357 169 Q287 227 234.5 306.5 Q182 386 152 488.5 Q122 591 122 717 L122 1434 L382 1434 L382 717 Q382 607 412.5 531 Q443 455 490 404 Q537 353 593 324 Q649 295 699.5 281 Q750 267 788.5 263.5 Q827 260 839 260 L1296 260 L1296 1434 L1556 1434 L1556 131 Z M1261 1902 Q1259 1877 1252.5 1839.5 Q1246 1802 1229 1759.5 Q1212 1717 1183.5 1674.5 Q1155 1632 1110 1598 Q1065 1564 1002.5 1542.5 Q940 1521 854 1521 Q768 1521 705 1542.5 Q642 1564 597.5 1598 Q553 1632 524 1674.5 Q495 1717 478.5 1759.5 Q462 1802 454.5 1839.5 Q447 1877 446 1902 L635 1902 Q641 1884 653.5 1859 Q666 1834 690.5 1811 Q715 1788 754.5 1771.5 Q794 1755 854 1755 Q913 1755 952.5 1771.5 Q992 1788 1017 1811 Q1042 1834 1055.5 1859 Q1069 1884 1075 1902 L1261 1902 Z " />
<glyph glyph-name="Uring" unicode="&#x16e;" horiz-adv-x="1707" d="M1556 131 Q1556 103 1546 79 Q1536 55 1518 37.5 Q1500 20 1476 10 Q1452 0 1425 0 L839 0 Q756 0 671 18 Q586 36 506.5 73.5 Q427 111 357 169 Q287 227 234.5 306.5 Q182 386 152 488.5 Q122 591 122 717 L122 1434 L382 1434 L382 717 Q382 607 412.5 531 Q443 455 490 404 Q537 353 593 324 Q649 295 699.5 281 Q750 267 788.5 263.5 Q827 260 839 260 L1296 260 L1296 1434 L1556 1434 L1556 131 Z M563 1704 Q563 1753 584.5 1796.5 Q606 1840 644 1872.5 Q682 1905 735.5 1924 Q789 1943 854 1943 Q925 1943 979.5 1924 Q1034 1905 1070.5 1872.5 Q1107 1840 1125.5 1796.5 Q1144 1753 1144 1704 Q1144 1655 1124 1611.5 Q1104 1568 1066.5 1535 Q1029 1502 975 1483 Q921 1464 854 1464 Q785 1464 731 1483 Q677 1502 639.5 1535 Q602 1568 582.5 1611.5 Q563 1655 563 1704 Z M755 1704 Q755 1663 780.5 1635 Q806 1607 854 1607 Q902 1607 926 1635 Q950 1663 950 1704 Q950 1744 926 1772 Q902 1800 854 1800 Q806 1800 780.5 1772 Q755 1744 755 1704 Z " />
<glyph glyph-name="Uhungarumlaut" unicode="&#x170;" horiz-adv-x="1707" d="M1556 131 Q1556 103 1546 79 Q1536 55 1518 37.5 Q1500 20 1476 10 Q1452 0 1425 0 L839 0 Q756 0 671 18 Q586 36 506.5 73.5 Q427 111 357 169 Q287 227 234.5 306.5 Q182 386 152 488.5 Q122 591 122 717 L122 1434 L382 1434 L382 717 Q382 607 412.5 531 Q443 455 490 404 Q537 353 593 324 Q649 295 699.5 281 Q750 267 788.5 263.5 Q827 260 839 260 L1296 260 L1296 1434 L1556 1434 L1556 131 Z M999 1696 L620 1509 L565 1601 L886 1888 L999 1696 Z M1429 1696 L1050 1509 L999 1601 L1316 1888 L1429 1696 Z " />
<glyph glyph-name="Uogonek" unicode="&#x172;" horiz-adv-x="1707" d="M1556 131 Q1556 103 1546 79 Q1536 55 1518 37.5 Q1500 20 1476 10 Q1452 0 1425 0 L1337 0 Q1286 -42 1257 -91.5 Q1228 -141 1228 -186 Q1228 -224 1254 -239 Q1280 -254 1337 -254 Q1362 -254 1392.5 -249 Q1423 -244 1453 -236 Q1483 -228 1510.5 -219.5 Q1538 -211 1556 -203 L1556 -389 Q1538 -394 1512.5 -402 Q1487 -410 1452.5 -417 Q1418 -424 1374 -429 Q1330 -434 1275 -434 Q1221 -434 1174 -424 Q1127 -414 1091.5 -392 Q1056 -370 1035.5 -334 Q1015 -298 1015 -246 Q1015 -219 1021.5 -186.5 Q1028 -154 1043 -121 Q1058 -88 1081.5 -56.5 Q1105 -25 1140 0 L839 0 Q756 0 671 18 Q586 36 506.5 73.5 Q427 111 357 169 Q287 227 234.5 306.5 Q182 386 152 488.5 Q122 591 122 717 L122 1434 L382 1434 L382 717 Q382 607 412.5 531 Q443 455 490 404 Q537 353 593 324 Q649 295 699.5 281 Q750 267 788.5 263.5 Q827 260 839 260 L1296 260 L1296 1434 L1556 1434 L1556 131 Z " />
<glyph glyph-name="Wcircumflex" unicode="&#x174;" horiz-adv-x="2053" d="M1982 1434 L1742 90 Q1734 50 1706 21 Q1678 -8 1638 -16 Q1597 -23 1560.5 -7 Q1524 9 1503 43 L1027 825 L550 43 Q533 14 503.5 -2 Q474 -18 440 -18 Q393 -18 357 12 Q321 42 313 90 L71 1434 L335 1434 L507 487 L917 1141 Q934 1170 963.5 1186 Q993 1202 1027 1202 Q1061 1202 1090 1186 Q1119 1170 1138 1141 L1546 487 L1718 1434 L1982 1434 Z M1374 1509 L1026 1689 L678 1509 L557 1677 L1026 1943 L1495 1677 L1374 1509 Z " />
<glyph glyph-name="Wgrave" unicode="&#x1e80;" horiz-adv-x="2053" d="M1982 1434 L1742 90 Q1734 50 1706 21 Q1678 -8 1638 -16 Q1597 -23 1560.5 -7 Q1524 9 1503 43 L1027 825 L550 43 Q533 14 503.5 -2 Q474 -18 440 -18 Q393 -18 357 12 Q321 42 313 90 L71 1434 L335 1434 L507 487 L917 1141 Q934 1170 963.5 1186 Q993 1202 1027 1202 Q1061 1202 1090 1186 Q1119 1170 1138 1141 L1546 487 L1718 1434 L1982 1434 Z M615 1939 L1097 1659 L1027 1509 L505 1696 L615 1939 Z " />
<glyph glyph-name="Wacute" unicode="&#x1e82;" horiz-adv-x="2053" d="M1982 1434 L1742 90 Q1734 50 1706 21 Q1678 -8 1638 -16 Q1597 -23 1560.5 -7 Q1524 9 1503 43 L1027 825 L550 43 Q533 14 503.5 -2 Q474 -18 440 -18 Q393 -18 357 12 Q321 42 313 90 L71 1434 L335 1434 L507 487 L917 1141 Q934 1170 963.5 1186 Q993 1202 1027 1202 Q1061 1202 1090 1186 Q1119 1170 1138 1141 L1546 487 L1718 1434 L1982 1434 Z M1547 1696 L1025 1509 L956 1659 L1437 1939 L1547 1696 Z " />
<glyph glyph-name="Wdieresis" unicode="&#x1e84;" horiz-adv-x="2053" d="M1982 1434 L1742 90 Q1734 50 1706 21 Q1678 -8 1638 -16 Q1597 -23 1560.5 -7 Q1524 9 1503 43 L1027 825 L550 43 Q533 14 503.5 -2 Q474 -18 440 -18 Q393 -18 357 12 Q321 42 313 90 L71 1434 L335 1434 L507 487 L917 1141 Q934 1170 963.5 1186 Q993 1202 1027 1202 Q1061 1202 1090 1186 Q1119 1170 1138 1141 L1546 487 L1718 1434 L1982 1434 Z M923 1665 Q923 1638 912.5 1614.5 Q902 1591 884.5 1573.5 Q867 1556 843.5 1546 Q820 1536 794 1536 Q767 1536 743.5 1546 Q720 1556 702.5 1573.5 Q685 1591 675 1614.5 Q665 1638 665 1665 Q665 1691 675 1714.5 Q685 1738 702.5 1755.5 Q720 1773 743.5 1783.5 Q767 1794 794 1794 Q820 1794 843.5 1783.5 Q867 1773 884.5 1755.5 Q902 1738 912.5 1714.5 Q923 1691 923 1665 Z M1386 1665 Q1386 1638 1375.5 1614.5 Q1365 1591 1347.5 1573.5 Q1330 1556 1306.5 1546 Q1283 1536 1257 1536 Q1230 1536 1206.5 1546 Q1183 1556 1165.5 1573.5 Q1148 1591 1138 1614.5 Q1128 1638 1128 1665 Q1128 1691 1138 1714.5 Q1148 1738 1165.5 1755.5 Q1183 1773 1206.5 1783.5 Q1230 1794 1257 1794 Q1283 1794 1306.5 1783.5 Q1330 1773 1347.5 1755.5 Q1365 1738 1375.5 1714.5 Q1386 1691 1386 1665 Z " />
<glyph glyph-name="Ycircumflex" unicode="&#x176;" horiz-adv-x="1600" d="M1517 954 Q1517 865 1494.5 795 Q1472 725 1435 671.5 Q1398 618 1348.5 580 Q1299 542 1246 517.5 Q1193 493 1138.5 482 Q1084 471 1036 471 L931 471 L931 0 L669 0 L669 471 L565 471 Q517 471 462.5 482 Q408 493 354.5 517.5 Q301 542 252 580 Q203 618 165.5 671.5 Q128 725 105.5 795.5 Q83 866 83 954 L83 1434 L343 1434 L343 954 Q343 903 359 862.5 Q375 822 404 793 Q433 764 474.5 748.5 Q516 733 567 733 L1036 733 Q1073 739 1112 748.5 Q1151 758 1183 781 Q1215 804 1236 845 Q1257 886 1257 954 L1257 1434 L1517 1434 L1517 954 Z M1148 1509 L800 1689 L452 1509 L331 1677 L800 1943 L1269 1677 L1148 1509 Z " />
<glyph glyph-name="Ygrave" unicode="&#x1ef2;" horiz-adv-x="1600" d="M1517 954 Q1517 865 1494.5 795 Q1472 725 1435 671.5 Q1398 618 1348.5 580 Q1299 542 1246 517.5 Q1193 493 1138.5 482 Q1084 471 1036 471 L931 471 L931 0 L669 0 L669 471 L565 471 Q517 471 462.5 482 Q408 493 354.5 517.5 Q301 542 252 580 Q203 618 165.5 671.5 Q128 725 105.5 795.5 Q83 866 83 954 L83 1434 L343 1434 L343 954 Q343 903 359 862.5 Q375 822 404 793 Q433 764 474.5 748.5 Q516 733 567 733 L1036 733 Q1073 739 1112 748.5 Q1151 758 1183 781 Q1215 804 1236 845 Q1257 886 1257 954 L1257 1434 L1517 1434 L1517 954 Z M380 1939 L862 1659 L792 1509 L270 1696 L380 1939 Z " />
<glyph glyph-name="Zacute" unicode="&#x179;" horiz-adv-x="1461" d="M1378 1356 Q1393 1321 1387 1282.5 Q1381 1244 1355 1217 L497 260 L1376 260 L1376 0 L204 0 Q166 0 133.5 21.5 Q101 43 85 78 Q68 113 74.5 151 Q81 189 106 217 L966 1174 L85 1174 L85 1434 L1259 1434 Q1297 1434 1329.5 1412.5 Q1362 1391 1378 1356 Z M1258 1696 L736 1509 L667 1659 L1148 1939 L1258 1696 Z " />
<glyph glyph-name="Zdotaccent" unicode="&#x17b;" horiz-adv-x="1461" d="M1378 1356 Q1393 1321 1387 1282.5 Q1381 1244 1355 1217 L497 260 L1376 260 L1376 0 L204 0 Q166 0 133.5 21.5 Q101 43 85 78 Q68 113 74.5 151 Q81 189 106 217 L966 1174 L85 1174 L85 1434 L1259 1434 Q1297 1434 1329.5 1412.5 Q1362 1391 1378 1356 Z M860 1665 Q860 1638 849.5 1614.5 Q839 1591 821.5 1573.5 Q804 1556 780.5 1546 Q757 1536 731 1536 Q704 1536 680.5 1546 Q657 1556 639.5 1573.5 Q622 1591 612 1614.5 Q602 1638 602 1665 Q602 1691 612 1714.5 Q622 1738 639.5 1755.5 Q657 1773 680.5 1783.5 Q704 1794 731 1794 Q757 1794 780.5 1783.5 Q804 1773 821.5 1755.5 Q839 1738 849.5 1714.5 Q860 1691 860 1665 Z " />
<glyph glyph-name="AEacute" unicode="&#x1fc;" horiz-adv-x="2700" d="M2600 0 L1662 0 Q1626 0 1585.5 8 Q1545 16 1505 33.5 Q1465 51 1428.5 78.5 Q1392 106 1363.5 145 Q1335 184 1317 235.5 Q1299 287 1298 352 L384 352 L384 0 L124 0 L124 717 Q124 874 178 1006 Q232 1138 328 1233 Q424 1328 555 1381 Q686 1434 841 1434 L1427 1434 L1437 1434 L2600 1434 L2600 1174 L1558 1174 L1558 365 Q1558 314 1585 287 Q1612 260 1664 260 L2600 260 L2600 0 Z M384 612 L1298 612 L1298 1174 L841 1174 Q829 1174 790.5 1170.5 Q752 1167 701.5 1153 Q651 1139 595 1110 Q539 1081 492 1030 Q445 979 414.5 902.5 Q384 826 384 717 L384 612 Z M2484 586 L1662 586 L1662 848 L2484 848 L2484 586 Z M1949 1696 L1427 1509 L1358 1659 L1839 1939 L1949 1696 Z " />
<glyph glyph-name="Oslashacute" unicode="&#x1fe;" horiz-adv-x="1764" d="M1482 1290 Q1564 1210 1611 1099 Q1658 988 1658 854 L1658 580 Q1658 449 1613 339 Q1568 229 1488 149 Q1408 69 1298.5 24.5 Q1189 -20 1060 -20 L708 -20 Q648 -20 591.5 -10 Q535 0 483 18 L386 -104 L89 -104 L284 143 Q200 224 154 335 Q108 446 108 580 L108 854 Q108 985 153.5 1095.5 Q199 1206 279 1285.5 Q359 1365 469 1409.5 Q579 1454 708 1454 L1060 1454 Q1120 1454 1176 1444 Q1232 1434 1283 1415 L1380 1538 L1677 1538 L1482 1290 Z M1398 854 Q1398 923 1377.5 981.5 Q1357 1040 1320 1083 L659 242 Q671 240 682.5 240 Q694 240 708 240 L1058 240 Q1134 240 1196.5 264.5 Q1259 289 1304 333.5 Q1349 378 1373.5 440.5 Q1398 503 1398 580 L1398 854 Z M368 580 Q368 508 388.5 451 Q409 394 446 350 L1107 1192 Q1095 1194 1084 1194 Q1073 1194 1060 1194 L708 1194 Q632 1194 569.5 1169.5 Q507 1145 462 1100.5 Q417 1056 392.5 993.5 Q368 931 368 854 L368 580 Z M1422 1696 L900 1509 L831 1659 L1312 1939 L1422 1696 Z " />
<glyph glyph-name="amacron" unicode="&#x101;" horiz-adv-x="1338" d="M1238 358 Q1238 304 1219 241.5 Q1200 179 1157.5 125.5 Q1115 72 1046.5 36 Q978 0 880 0 L411 0 Q357 0 294.5 19 Q232 38 178.5 80.5 Q125 123 89 191.5 Q53 260 53 358 Q53 412 72 475 Q91 538 133.5 591.5 Q176 645 244.5 681 Q313 717 411 717 L880 717 L880 469 L411 469 Q358 469 329 436.5 Q300 404 300 356 Q300 305 333.5 276.5 Q367 248 413 248 L880 248 Q933 248 962 280 Q991 312 991 360 L991 723 Q991 774 959.5 804 Q928 834 880 834 L309 834 L309 1081 L880 1081 Q934 1081 996.5 1062 Q1059 1043 1112.5 1000.5 Q1166 958 1202 889.5 Q1238 821 1238 723 L1238 358 Z M333 1200 L333 1436 L1005 1436 L1005 1200 L333 1200 Z " />
<glyph glyph-name="abreve" unicode="&#x103;" horiz-adv-x="1338" d="M1238 358 Q1238 304 1219 241.5 Q1200 179 1157.5 125.5 Q1115 72 1046.5 36 Q978 0 880 0 L411 0 Q357 0 294.5 19 Q232 38 178.5 80.5 Q125 123 89 191.5 Q53 260 53 358 Q53 412 72 475 Q91 538 133.5 591.5 Q176 645 244.5 681 Q313 717 411 717 L880 717 L880 469 L411 469 Q358 469 329 436.5 Q300 404 300 356 Q300 305 333.5 276.5 Q367 248 413 248 L880 248 Q933 248 962 280 Q991 312 991 360 L991 723 Q991 774 959.5 804 Q928 834 880 834 L309 834 L309 1081 L880 1081 Q934 1081 996.5 1062 Q1059 1043 1112.5 1000.5 Q1166 958 1202 889.5 Q1238 821 1238 723 L1238 358 Z M1076 1552 Q1074 1527 1067.5 1489.5 Q1061 1452 1044 1409.5 Q1027 1367 998.5 1324.5 Q970 1282 925 1248 Q880 1214 817.5 1192.5 Q755 1171 669 1171 Q583 1171 520 1192.5 Q457 1214 412.5 1248 Q368 1282 339 1324.5 Q310 1367 293.5 1409.5 Q277 1452 269.5 1489.5 Q262 1527 261 1552 L450 1552 Q456 1534 468.5 1509 Q481 1484 505.5 1461 Q530 1438 569.5 1421.5 Q609 1405 669 1405 Q728 1405 767.5 1421.5 Q807 1438 832 1461 Q857 1484 870.5 1509 Q884 1534 890 1552 L1076 1552 Z " />
<glyph glyph-name="aogonek" unicode="&#x105;" horiz-adv-x="1338" d="M1238 358 Q1238 305 1219.5 243.5 Q1201 182 1159.5 128.5 Q1118 75 1051.5 38.5 Q985 2 890 0 Q839 -42 810.5 -91.5 Q782 -141 782 -186 Q782 -224 807.5 -239 Q833 -254 890 -254 Q915 -254 946 -249 Q977 -244 1007 -236 Q1037 -228 1064 -219.5 Q1091 -211 1109 -203 L1109 -389 Q1091 -394 1065.5 -402 Q1040 -410 1006 -417 Q972 -424 928 -429 Q884 -434 829 -434 Q775 -434 727.5 -424 Q680 -414 645 -392 Q610 -370 589.5 -334 Q569 -298 569 -246 Q569 -219 575.5 -186.5 Q582 -154 596.5 -121 Q611 -88 635 -56.5 Q659 -25 694 0 L411 0 Q357 0 294.5 19 Q232 38 178.5 80.5 Q125 123 89 191.5 Q53 260 53 358 Q53 412 72 475 Q91 538 133.5 591.5 Q176 645 244.5 681 Q313 717 411 717 L880 717 L880 469 L411 469 Q358 469 329 436.5 Q300 404 300 356 Q300 305 333.5 276.5 Q367 248 413 248 L880 248 Q933 248 962 280 Q991 312 991 360 L991 723 Q991 774 959.5 804 Q928 834 880 834 L309 834 L309 1081 L880 1081 Q934 1081 996.5 1062 Q1059 1043 1112.5 1000.5 Q1166 958 1202 889.5 Q1238 821 1238 723 L1238 358 Z " />
<glyph glyph-name="cacute" unicode="&#x107;" horiz-adv-x="1262" d="M1169 0 L464 0 Q410 0 346 19 Q282 38 227.5 81.5 Q173 125 136.5 194.5 Q100 264 100 365 L100 717 Q100 754 108.5 795 Q117 836 135 876.5 Q153 917 181.5 954 Q210 991 250.5 1019 Q291 1047 344 1064 Q397 1081 464 1081 L1169 1081 L1169 821 L464 821 Q413 821 386.5 795 Q360 769 360 715 L360 365 Q360 314 387 287 Q414 260 466 260 L1169 260 L1169 0 Z M1240 1346 L718 1159 L649 1309 L1130 1589 L1240 1346 Z " />
<glyph glyph-name="ccircumflex" unicode="&#x109;" horiz-adv-x="1262" d="M1169 0 L464 0 Q410 0 346 19 Q282 38 227.5 81.5 Q173 125 136.5 194.5 Q100 264 100 365 L100 717 Q100 754 108.5 795 Q117 836 135 876.5 Q153 917 181.5 954 Q210 991 250.5 1019 Q291 1047 344 1064 Q397 1081 464 1081 L1169 1081 L1169 821 L464 821 Q413 821 386.5 795 Q360 769 360 715 L360 365 Q360 314 387 287 Q414 260 466 260 L1169 260 L1169 0 Z M1005 1159 L657 1339 L309 1159 L188 1327 L657 1593 L1126 1327 L1005 1159 Z " />
<glyph glyph-name="cdotaccent" unicode="&#x10b;" horiz-adv-x="1262" d="M1169 0 L464 0 Q410 0 346 19 Q282 38 227.5 81.5 Q173 125 136.5 194.5 Q100 264 100 365 L100 717 Q100 754 108.5 795 Q117 836 135 876.5 Q153 917 181.5 954 Q210 991 250.5 1019 Q291 1047 344 1064 Q397 1081 464 1081 L1169 1081 L1169 821 L464 821 Q413 821 386.5 795 Q360 769 360 715 L360 365 Q360 314 387 287 Q414 260 466 260 L1169 260 L1169 0 Z M796 1315 Q796 1288 785.5 1264.5 Q775 1241 757.5 1223.5 Q740 1206 716.5 1196 Q693 1186 667 1186 Q640 1186 616.5 1196 Q593 1206 575.5 1223.5 Q558 1241 548 1264.5 Q538 1288 538 1315 Q538 1341 548 1364.5 Q558 1388 575.5 1405.5 Q593 1423 616.5 1433.5 Q640 1444 667 1444 Q693 1444 716.5 1433.5 Q740 1423 757.5 1405.5 Q775 1388 785.5 1364.5 Q796 1341 796 1315 Z " />
<glyph glyph-name="ccaron" unicode="&#x10d;" horiz-adv-x="1262" d="M1169 0 L464 0 Q410 0 346 19 Q282 38 227.5 81.5 Q173 125 136.5 194.5 Q100 264 100 365 L100 717 Q100 754 108.5 795 Q117 836 135 876.5 Q153 917 181.5 954 Q210 991 250.5 1019 Q291 1047 344 1064 Q397 1081 464 1081 L1169 1081 L1169 821 L464 821 Q413 821 386.5 795 Q360 769 360 715 L360 365 Q360 314 387 287 Q414 260 466 260 L1169 260 L1169 0 Z M342 1573 L690 1393 L1038 1573 L1159 1405 L690 1139 L221 1405 L342 1573 Z " />
<glyph glyph-name="dcaron" unicode="&#x10f;" horiz-adv-x="1743" d="M1299 365 Q1299 298 1282 244.5 Q1265 191 1237 150.5 Q1209 110 1172 81.5 Q1135 53 1094.5 35 Q1054 17 1012.5 8.5 Q971 0 934 0 L465 0 Q398 0 345 17 Q292 34 251.5 62.5 Q211 91 182.5 128 Q154 165 136 205.5 Q118 246 109.5 287.5 Q101 329 101 365 L101 717 Q101 817 137.5 886.5 Q174 956 228.5 999.5 Q283 1043 347 1062 Q411 1081 465 1081 L934 1081 L934 821 L467 821 Q415 821 388 794.5 Q361 768 361 717 L361 367 Q361 314 387.5 287 Q414 260 465 260 L934 260 Q987 260 1013 287 Q1039 314 1039 365 L1039 1538 L1299 1538 L1299 365 Z M1570 963 L1423 963 L1497 1364 L1693 1364 L1570 963 Z " />
<glyph glyph-name="dcroat" unicode="&#x111;" horiz-adv-x="1414" d="M1298 1438 L1505 1438 L1505 1204 L1298 1204 L1298 365 Q1298 298 1281 244.5 Q1264 191 1236 150.5 Q1208 110 1171 81.5 Q1134 53 1093.5 35 Q1053 17 1011.5 8.5 Q970 0 933 0 L464 0 Q397 0 344 17 Q291 34 250.5 62.5 Q210 91 181.5 128 Q153 165 135 205.5 Q117 246 108.5 287.5 Q100 329 100 365 L100 717 Q100 817 136.5 886.5 Q173 956 227.5 999.5 Q282 1043 346 1062 Q410 1081 464 1081 L933 1081 L933 821 L466 821 Q414 821 387 794.5 Q360 768 360 717 L360 367 Q360 314 386.5 287 Q413 260 464 260 L933 260 Q986 260 1012 287 Q1038 314 1038 365 L1038 1204 L825 1204 L825 1438 L1038 1438 L1038 1538 L1298 1538 L1298 1438 Z " />
<glyph glyph-name="emacron" unicode="&#x113;" horiz-adv-x="1338" d="M1285 723 Q1285 669 1266 606.5 Q1247 544 1204.5 490.5 Q1162 437 1093.5 401 Q1025 365 927 365 L458 365 L458 612 L927 612 Q980 612 1009 644.5 Q1038 677 1038 725 Q1038 776 1005.5 805 Q973 834 927 834 L458 834 Q405 834 376 801.5 Q347 769 347 721 L347 358 Q347 306 379.5 277 Q412 248 460 248 L927 248 L927 0 L458 0 Q404 0 341.5 19 Q279 38 225.5 80.5 Q172 123 136 191.5 Q100 260 100 358 L100 723 Q100 777 119 839.5 Q138 902 180.5 955.5 Q223 1009 291.5 1045 Q360 1081 458 1081 L927 1081 Q981 1081 1043.5 1062 Q1106 1043 1159.5 1000.5 Q1213 958 1249 889.5 Q1285 821 1285 723 Z M333 1200 L333 1436 L1005 1436 L1005 1200 L333 1200 Z " />
<glyph glyph-name="ebreve" unicode="&#x115;" horiz-adv-x="1338" d="M1285 723 Q1285 669 1266 606.5 Q1247 544 1204.5 490.5 Q1162 437 1093.5 401 Q1025 365 927 365 L458 365 L458 612 L927 612 Q980 612 1009 644.5 Q1038 677 1038 725 Q1038 776 1005.5 805 Q973 834 927 834 L458 834 Q405 834 376 801.5 Q347 769 347 721 L347 358 Q347 306 379.5 277 Q412 248 460 248 L927 248 L927 0 L458 0 Q404 0 341.5 19 Q279 38 225.5 80.5 Q172 123 136 191.5 Q100 260 100 358 L100 723 Q100 777 119 839.5 Q138 902 180.5 955.5 Q223 1009 291.5 1045 Q360 1081 458 1081 L927 1081 Q981 1081 1043.5 1062 Q1106 1043 1159.5 1000.5 Q1213 958 1249 889.5 Q1285 821 1285 723 Z M1076 1552 Q1074 1527 1067.5 1489.5 Q1061 1452 1044 1409.5 Q1027 1367 998.5 1324.5 Q970 1282 925 1248 Q880 1214 817.5 1192.5 Q755 1171 669 1171 Q583 1171 520 1192.5 Q457 1214 412.5 1248 Q368 1282 339 1324.5 Q310 1367 293.5 1409.5 Q277 1452 269.5 1489.5 Q262 1527 261 1552 L450 1552 Q456 1534 468.5 1509 Q481 1484 505.5 1461 Q530 1438 569.5 1421.5 Q609 1405 669 1405 Q728 1405 767.5 1421.5 Q807 1438 832 1461 Q857 1484 870.5 1509 Q884 1534 890 1552 L1076 1552 Z " />
<glyph glyph-name="edotaccent" unicode="&#x117;" horiz-adv-x="1338" d="M1285 723 Q1285 669 1266 606.5 Q1247 544 1204.5 490.5 Q1162 437 1093.5 401 Q1025 365 927 365 L458 365 L458 612 L927 612 Q980 612 1009 644.5 Q1038 677 1038 725 Q1038 776 1005.5 805 Q973 834 927 834 L458 834 Q405 834 376 801.5 Q347 769 347 721 L347 358 Q347 306 379.5 277 Q412 248 460 248 L927 248 L927 0 L458 0 Q404 0 341.5 19 Q279 38 225.5 80.5 Q172 123 136 191.5 Q100 260 100 358 L100 723 Q100 777 119 839.5 Q138 902 180.5 955.5 Q223 1009 291.5 1045 Q360 1081 458 1081 L927 1081 Q981 1081 1043.5 1062 Q1106 1043 1159.5 1000.5 Q1213 958 1249 889.5 Q1285 821 1285 723 Z M798 1315 Q798 1288 787.5 1264.5 Q777 1241 759.5 1223.5 Q742 1206 718.5 1196 Q695 1186 669 1186 Q642 1186 618.5 1196 Q595 1206 577.5 1223.5 Q560 1241 550 1264.5 Q540 1288 540 1315 Q540 1341 550 1364.5 Q560 1388 577.5 1405.5 Q595 1423 618.5 1433.5 Q642 1444 669 1444 Q695 1444 718.5 1433.5 Q742 1423 759.5 1405.5 Q777 1388 787.5 1364.5 Q798 1341 798 1315 Z " />
<glyph glyph-name="eogonek" unicode="&#x119;" horiz-adv-x="1338" d="M1285 723 Q1285 669 1266 606.5 Q1247 544 1204.5 490.5 Q1162 437 1093.5 401 Q1025 365 927 365 L458 365 L458 612 L927 612 Q980 612 1009 644.5 Q1038 677 1038 725 Q1038 776 1005.5 805 Q973 834 927 834 L458 834 Q405 834 376 801.5 Q347 769 347 721 L347 358 Q347 306 379.5 277 Q412 248 460 248 L927 248 L927 0 L849 0 Q798 -42 769.5 -91.5 Q741 -141 741 -186 Q741 -224 766.5 -239 Q792 -254 849 -254 Q874 -254 905 -249 Q936 -244 966 -236 Q996 -228 1023 -219.5 Q1050 -211 1068 -203 L1068 -389 Q1050 -394 1024.5 -402 Q999 -410 965 -417 Q931 -424 887 -429 Q843 -434 788 -434 Q734 -434 686.5 -424 Q639 -414 604 -392 Q569 -370 548.5 -334 Q528 -298 528 -246 Q528 -219 534.5 -186.5 Q541 -154 555.5 -121 Q570 -88 594 -56.5 Q618 -25 653 0 L458 0 Q404 0 341.5 19 Q279 38 225.5 80.5 Q172 123 136 191.5 Q100 260 100 358 L100 723 Q100 777 119 839.5 Q138 902 180.5 955.5 Q223 1009 291.5 1045 Q360 1081 458 1081 L927 1081 Q981 1081 1043.5 1062 Q1106 1043 1159.5 1000.5 Q1213 958 1249 889.5 Q1285 821 1285 723 Z " />
<glyph glyph-name="ecaron" unicode="&#x11b;" horiz-adv-x="1338" d="M1285 723 Q1285 669 1266 606.5 Q1247 544 1204.5 490.5 Q1162 437 1093.5 401 Q1025 365 927 365 L458 365 L458 612 L927 612 Q980 612 1009 644.5 Q1038 677 1038 725 Q1038 776 1005.5 805 Q973 834 927 834 L458 834 Q405 834 376 801.5 Q347 769 347 721 L347 358 Q347 306 379.5 277 Q412 248 460 248 L927 248 L927 0 L458 0 Q404 0 341.5 19 Q279 38 225.5 80.5 Q172 123 136 191.5 Q100 260 100 358 L100 723 Q100 777 119 839.5 Q138 902 180.5 955.5 Q223 1009 291.5 1045 Q360 1081 458 1081 L927 1081 Q981 1081 1043.5 1062 Q1106 1043 1159.5 1000.5 Q1213 958 1249 889.5 Q1285 821 1285 723 Z M321 1573 L669 1393 L1017 1573 L1138 1405 L669 1139 L200 1405 L321 1573 Z " />
<glyph glyph-name="gcircumflex" unicode="&#x11d;" horiz-adv-x="1414" d="M1298 -104 Q1298 -171 1281 -224.5 Q1264 -278 1236 -318.5 Q1208 -359 1171 -387.5 Q1134 -416 1093.5 -434 Q1053 -452 1011.5 -460.5 Q970 -469 933 -469 L464 -469 L464 -209 L933 -209 Q986 -209 1012 -182 Q1038 -155 1038 -104 L1038 717 Q1038 768 1012 794.5 Q986 821 933 821 L464 821 Q416 821 388 791.5 Q360 762 360 717 L360 365 Q360 314 387 287 Q414 260 466 260 L933 260 L933 0 L464 0 Q427 0 386 8.5 Q345 17 304.5 35 Q264 53 227 81.5 Q190 110 162 150.5 Q134 191 117 244.5 Q100 298 100 365 L100 717 Q100 754 108.5 795 Q117 836 135 876.5 Q153 917 181.5 954 Q210 991 250.5 1019 Q291 1047 344 1064 Q397 1081 464 1081 L933 1081 Q970 1081 1011.5 1072.5 Q1053 1064 1093.5 1046 Q1134 1028 1171 999.5 Q1208 971 1236 930.5 Q1264 890 1281 837 Q1298 784 1298 717 L1298 -104 Z M1054 1159 L706 1339 L358 1159 L237 1327 L706 1593 L1175 1327 L1054 1159 Z " />
<glyph glyph-name="gbreve" unicode="&#x11f;" horiz-adv-x="1414" d="M1298 -104 Q1298 -171 1281 -224.5 Q1264 -278 1236 -318.5 Q1208 -359 1171 -387.5 Q1134 -416 1093.5 -434 Q1053 -452 1011.5 -460.5 Q970 -469 933 -469 L464 -469 L464 -209 L933 -209 Q986 -209 1012 -182 Q1038 -155 1038 -104 L1038 717 Q1038 768 1012 794.5 Q986 821 933 821 L464 821 Q416 821 388 791.5 Q360 762 360 717 L360 365 Q360 314 387 287 Q414 260 466 260 L933 260 L933 0 L464 0 Q427 0 386 8.5 Q345 17 304.5 35 Q264 53 227 81.5 Q190 110 162 150.5 Q134 191 117 244.5 Q100 298 100 365 L100 717 Q100 754 108.5 795 Q117 836 135 876.5 Q153 917 181.5 954 Q210 991 250.5 1019 Q291 1047 344 1064 Q397 1081 464 1081 L933 1081 Q970 1081 1011.5 1072.5 Q1053 1064 1093.5 1046 Q1134 1028 1171 999.5 Q1208 971 1236 930.5 Q1264 890 1281 837 Q1298 784 1298 717 L1298 -104 Z M1113 1552 Q1111 1527 1104.5 1489.5 Q1098 1452 1081 1409.5 Q1064 1367 1035.5 1324.5 Q1007 1282 962 1248 Q917 1214 854.5 1192.5 Q792 1171 706 1171 Q620 1171 557 1192.5 Q494 1214 449.5 1248 Q405 1282 376 1324.5 Q347 1367 330.5 1409.5 Q314 1452 306.5 1489.5 Q299 1527 298 1552 L487 1552 Q493 1534 505.5 1509 Q518 1484 542.5 1461 Q567 1438 606.5 1421.5 Q646 1405 706 1405 Q765 1405 804.5 1421.5 Q844 1438 869 1461 Q894 1484 907.5 1509 Q921 1534 927 1552 L1113 1552 Z " />
<glyph glyph-name="gdotaccent" unicode="&#x121;" horiz-adv-x="1414" d="M1298 -104 Q1298 -171 1281 -224.5 Q1264 -278 1236 -318.5 Q1208 -359 1171 -387.5 Q1134 -416 1093.5 -434 Q1053 -452 1011.5 -460.5 Q970 -469 933 -469 L464 -469 L464 -209 L933 -209 Q986 -209 1012 -182 Q1038 -155 1038 -104 L1038 717 Q1038 768 1012 794.5 Q986 821 933 821 L464 821 Q416 821 388 791.5 Q360 762 360 717 L360 365 Q360 314 387 287 Q414 260 466 260 L933 260 L933 0 L464 0 Q427 0 386 8.5 Q345 17 304.5 35 Q264 53 227 81.5 Q190 110 162 150.5 Q134 191 117 244.5 Q100 298 100 365 L100 717 Q100 754 108.5 795 Q117 836 135 876.5 Q153 917 181.5 954 Q210 991 250.5 1019 Q291 1047 344 1064 Q397 1081 464 1081 L933 1081 Q970 1081 1011.5 1072.5 Q1053 1064 1093.5 1046 Q1134 1028 1171 999.5 Q1208 971 1236 930.5 Q1264 890 1281 837 Q1298 784 1298 717 L1298 -104 Z M835 1315 Q835 1288 824.5 1264.5 Q814 1241 796.5 1223.5 Q779 1206 755.5 1196 Q732 1186 706 1186 Q679 1186 655.5 1196 Q632 1206 614.5 1223.5 Q597 1241 587 1264.5 Q577 1288 577 1315 Q577 1341 587 1364.5 Q597 1388 614.5 1405.5 Q632 1423 655.5 1433.5 Q679 1444 706 1444 Q732 1444 755.5 1433.5 Q779 1423 796.5 1405.5 Q814 1388 824.5 1364.5 Q835 1341 835 1315 Z " />
<glyph glyph-name="gcommaaccent" unicode="&#x123;" horiz-adv-x="1414" d="M1298 -104 Q1298 -171 1281 -224.5 Q1264 -278 1236 -318.5 Q1208 -359 1171 -387.5 Q1134 -416 1093.5 -434 Q1053 -452 1011.5 -460.5 Q970 -469 933 -469 L464 -469 L464 -209 L933 -209 Q986 -209 1012 -182 Q1038 -155 1038 -104 L1038 717 Q1038 768 1012 794.5 Q986 821 933 821 L464 821 Q416 821 388 791.5 Q360 762 360 717 L360 365 Q360 314 387 287 Q414 260 466 260 L933 260 L933 0 L464 0 Q427 0 386 8.5 Q345 17 304.5 35 Q264 53 227 81.5 Q190 110 162 150.5 Q134 191 117 244.5 Q100 298 100 365 L100 717 Q100 754 108.5 795 Q117 836 135 876.5 Q153 917 181.5 954 Q210 991 250.5 1019 Q291 1047 344 1064 Q397 1081 464 1081 L933 1081 Q970 1081 1011.5 1072.5 Q1053 1064 1093.5 1046 Q1134 1028 1171 999.5 Q1208 971 1236 930.5 Q1264 890 1281 837 Q1298 784 1298 717 L1298 -104 Z M696 1671 L841 1671 L767 1270 L571 1270 L696 1671 Z " />
<glyph glyph-name="hcircumflex" unicode="&#x125;" horiz-adv-x="1440" d="M1324 0 L1064 0 L1064 717 Q1064 768 1038 794.5 Q1012 821 960 821 L491 821 L491 1081 L960 1081 Q997 1081 1038 1072.5 Q1079 1064 1119.5 1046 Q1160 1028 1197 999.5 Q1234 971 1262 930.5 Q1290 890 1307 837 Q1324 784 1324 717 L1324 0 Z M386 0 L126 0 L126 1538 L386 1538 L386 0 Z M1232 1159 L884 1339 L536 1159 L415 1327 L884 1593 L1353 1327 L1232 1159 Z " />
<glyph glyph-name="hbar" unicode="&#x127;" horiz-adv-x="1440" d="M386 1438 L534 1438 L534 1204 L386 1204 L386 0 L126 0 L126 1204 L-25 1204 L-25 1438 L126 1438 L126 1538 L386 1538 L386 1438 Z M1324 0 L1064 0 L1064 717 Q1064 768 1038 794.5 Q1012 821 960 821 L491 821 L491 1081 L960 1081 Q997 1081 1038 1072.5 Q1079 1064 1119.5 1046 Q1160 1028 1197 999.5 Q1234 971 1262 930.5 Q1290 890 1307 837 Q1324 784 1324 717 L1324 0 Z " />
<glyph glyph-name="itilde" unicode="&#x129;" horiz-adv-x="513" d="M386 0 L126 0 L126 1081 L386 1081 L386 0 Z M652 1511 Q652 1415 632 1349 Q612 1283 578 1242.5 Q544 1202 498.5 1184.5 Q453 1167 402 1167 Q348 1167 311 1186 Q274 1205 245 1227.5 Q216 1250 190 1269 Q164 1288 132 1288 Q102 1288 84.5 1273 Q67 1258 58 1237.5 Q49 1217 46 1197 Q43 1177 42 1167 L-135 1167 Q-135 1252 -114.5 1316.5 Q-94 1381 -59.5 1424.5 Q-25 1468 20.5 1489.5 Q66 1511 117 1511 Q164 1511 198.5 1492 Q233 1473 263 1450.5 Q293 1428 321.5 1409.5 Q350 1391 386 1391 Q416 1391 433.5 1406 Q451 1421 460 1440.5 Q469 1460 472 1480 Q475 1500 476 1511 L652 1511 Z " />
<glyph glyph-name="imacron" unicode="&#x12b;" horiz-adv-x="513" d="M386 0 L126 0 L126 1081 L386 1081 L386 0 Z M-77 1200 L-77 1436 L595 1436 L595 1200 L-77 1200 Z " />
<glyph glyph-name="ibreve" unicode="&#x12d;" horiz-adv-x="513" d="M386 0 L126 0 L126 1081 L386 1081 L386 0 Z M666 1552 Q664 1527 657.5 1489.5 Q651 1452 634 1409.5 Q617 1367 588.5 1324.5 Q560 1282 515 1248 Q470 1214 407.5 1192.5 Q345 1171 259 1171 Q173 1171 110 1192.5 Q47 1214 2.5 1248 Q-42 1282 -71 1324.5 Q-100 1367 -116.5 1409.5 Q-133 1452 -140.5 1489.5 Q-148 1527 -149 1552 L40 1552 Q46 1534 58.5 1509 Q71 1484 95.5 1461 Q120 1438 159.5 1421.5 Q199 1405 259 1405 Q318 1405 357.5 1421.5 Q397 1438 422 1461 Q447 1484 460.5 1509 Q474 1534 480 1552 L666 1552 Z " />
<glyph glyph-name="iogonek" unicode="&#x12f;" horiz-adv-x="513" d="M386 0 L341 0 Q290 -42 261.5 -91.5 Q233 -141 233 -186 Q233 -224 258.5 -239 Q284 -254 341 -254 Q366 -254 397 -249 Q428 -244 458 -236 Q488 -228 515 -219.5 Q542 -211 560 -203 L560 -389 Q542 -394 516.5 -402 Q491 -410 457 -417 Q423 -424 379 -429 Q335 -434 280 -434 Q226 -434 178.5 -424 Q131 -414 96 -392 Q61 -370 40.5 -334 Q20 -298 20 -246 Q20 -219 26.5 -186.5 Q33 -154 48 -121 Q63 -88 86.5 -56.5 Q110 -25 145 0 L126 0 L126 1081 L386 1081 L386 0 Z M386 1303 L126 1303 L126 1538 L386 1538 L386 1303 Z " />
<glyph glyph-name="ij" unicode="&#x133;" horiz-adv-x="965" d="M386 1303 L126 1303 L126 1538 L386 1538 L386 1303 Z M386 0 L126 0 L126 1081 L386 1081 L386 0 Z M839 1303 L579 1303 L579 1538 L839 1538 L839 1303 Z M839 -104 Q839 -171 822 -224.5 Q805 -278 777 -318.5 Q749 -359 712 -387.5 Q675 -416 634.5 -434 Q594 -452 553 -460.5 Q512 -469 475 -469 L6 -469 L6 -209 L475 -209 Q527 -209 553 -182 Q579 -155 579 -104 L579 1081 L839 1081 L839 -104 Z " />
<glyph glyph-name="jcircumflex" unicode="&#x135;" horiz-adv-x="513" d="M386 -104 Q386 -171 369 -224.5 Q352 -278 324 -318.5 Q296 -359 259 -387.5 Q222 -416 181.5 -434 Q141 -452 100 -460.5 Q59 -469 22 -469 L-447 -469 L-447 -209 L22 -209 Q74 -209 100 -182 Q126 -155 126 -104 L126 1081 L386 1081 L386 -104 Z M607 1159 L259 1339 L-89 1159 L-210 1327 L259 1593 L728 1327 L607 1159 Z " />
<glyph glyph-name="kcommaaccent" unicode="&#x137;" horiz-adv-x="1416" d="M1392 0 L1017 0 L493 506 Q449 546 452 606 Q454 634 466.5 658.5 Q479 683 501 700 L976 1083 L1392 1083 L780 590 L1392 0 Z M386 0 L126 0 L126 1538 L386 1538 L386 0 Z M639 -582 L491 -582 L565 -180 L762 -180 L639 -582 Z " />
<glyph glyph-name="kgreenlandic" unicode="&#x138;" horiz-adv-x="1416" d="M1392 0 L1017 0 L493 506 Q449 546 452 606 Q454 634 466.5 658.5 Q479 683 501 700 L976 1083 L1392 1083 L780 590 L1392 0 Z M386 0 L126 0 L126 1538 L386 1538 L386 0 Z " />
<glyph glyph-name="lacute" unicode="&#x13a;" horiz-adv-x="642" d="M597 0 L481 0 Q425 0 361.5 19 Q298 38 243 81.5 Q188 125 152 194.5 Q116 264 116 365 L116 1538 L376 1538 L376 365 Q376 317 406 288.5 Q436 260 481 260 L597 260 L597 0 Z M784 1784 L262 1597 L193 1747 L674 2027 L784 1784 Z " />
<glyph glyph-name="lcommaaccent" unicode="&#x13c;" horiz-adv-x="642" d="M597 0 L481 0 Q425 0 361.5 19 Q298 38 243 81.5 Q188 125 152 194.5 Q116 264 116 365 L116 1538 L376 1538 L376 365 Q376 317 406 288.5 Q436 260 481 260 L597 260 L597 0 Z M333 -582 L185 -582 L259 -180 L456 -180 L333 -582 Z " />
<glyph glyph-name="ldotaccent" unicode="&#x140;" horiz-adv-x="808" d="M597 0 L481 0 Q425 0 361.5 19 Q298 38 243 81.5 Q188 125 152 194.5 Q116 264 116 365 L116 1538 L376 1538 L376 365 Q376 317 406 288.5 Q436 260 481 260 L597 260 L597 0 Z M718 719 Q718 692 707.5 668.5 Q697 645 679.5 627.5 Q662 610 638.5 600 Q615 590 589 590 Q562 590 538.5 600 Q515 610 497.5 627.5 Q480 645 470 668.5 Q460 692 460 719 Q460 745 470 768.5 Q480 792 497.5 809.5 Q515 827 538.5 837.5 Q562 848 589 848 Q615 848 638.5 837.5 Q662 827 679.5 809.5 Q697 792 707.5 768.5 Q718 745 718 719 Z " />
<glyph glyph-name="lcaron" unicode="&#x13e;" horiz-adv-x="971" d="M597 0 L481 0 Q425 0 361.5 19 Q298 38 243 81.5 Q188 125 152 194.5 Q116 264 116 365 L116 1538 L376 1538 L376 365 Q376 317 406 288.5 Q436 260 481 260 L597 260 L597 0 Z M798 963 L651 963 L725 1364 L921 1364 L798 963 Z " />
<glyph glyph-name="nacute" unicode="&#x144;" horiz-adv-x="1426" d="M1320 0 L1060 0 L1060 600 Q1060 651 1042.5 691.5 Q1025 732 995 761 Q965 790 924.5 805.5 Q884 821 837 821 L382 821 L382 0 L122 0 L122 952 Q122 979 132 1002.5 Q142 1026 160 1043.5 Q178 1061 202 1071 Q226 1081 253 1081 L839 1081 Q888 1081 942.5 1070 Q997 1059 1050.5 1034.5 Q1104 1010 1152.5 972.5 Q1201 935 1238.5 881.5 Q1276 828 1298 758 Q1320 688 1320 600 L1320 0 Z M1224 1346 L702 1159 L633 1309 L1114 1589 L1224 1346 Z " />
<glyph glyph-name="ncommaaccent" unicode="&#x146;" horiz-adv-x="1426" d="M1320 0 L1060 0 L1060 600 Q1060 651 1042.5 691.5 Q1025 732 995 761 Q965 790 924.5 805.5 Q884 821 837 821 L382 821 L382 0 L122 0 L122 952 Q122 979 132 1002.5 Q142 1026 160 1043.5 Q178 1061 202 1071 Q226 1081 253 1081 L839 1081 Q888 1081 942.5 1070 Q997 1059 1050.5 1034.5 Q1104 1010 1152.5 972.5 Q1201 935 1238.5 881.5 Q1276 828 1298 758 Q1320 688 1320 600 L1320 0 Z M725 -582 L577 -582 L651 -180 L848 -180 L725 -582 Z " />
<glyph glyph-name="ncaron" unicode="&#x148;" horiz-adv-x="1426" d="M1320 0 L1060 0 L1060 600 Q1060 651 1042.5 691.5 Q1025 732 995 761 Q965 790 924.5 805.5 Q884 821 837 821 L382 821 L382 0 L122 0 L122 952 Q122 979 132 1002.5 Q142 1026 160 1043.5 Q178 1061 202 1071 Q226 1081 253 1081 L839 1081 Q888 1081 942.5 1070 Q997 1059 1050.5 1034.5 Q1104 1010 1152.5 972.5 Q1201 935 1238.5 881.5 Q1276 828 1298 758 Q1320 688 1320 600 L1320 0 Z M364 1573 L712 1393 L1060 1573 L1181 1405 L712 1139 L243 1405 L364 1573 Z " />
<glyph glyph-name="napostrophe" unicode="&#x149;" horiz-adv-x="1643" d="M216 963 L69 963 L143 1364 L339 1364 L216 963 Z M1537 0 L1277 0 L1277 600 Q1277 651 1259.5 691.5 Q1242 732 1212 761 Q1182 790 1141.5 805.5 Q1101 821 1054 821 L599 821 L599 0 L339 0 L339 952 Q339 979 349 1002.5 Q359 1026 377 1043.5 Q395 1061 419 1071 Q443 1081 470 1081 L1056 1081 Q1105 1081 1159.5 1070 Q1214 1059 1267.5 1034.5 Q1321 1010 1369.5 972.5 Q1418 935 1455.5 881.5 Q1493 828 1515 758 Q1537 688 1537 600 L1537 0 Z " />
<glyph glyph-name="eng" unicode="&#x14b;" horiz-adv-x="1426" d="M1316 -217 Q1316 -284 1299 -337 Q1282 -390 1254 -430.5 Q1226 -471 1189 -500 Q1152 -529 1111.5 -547 Q1071 -565 1030 -573.5 Q989 -582 952 -582 L483 -582 L483 -322 L952 -322 Q1004 -322 1030 -295 Q1056 -268 1056 -217 L1060 600 Q1060 651 1042.5 691.5 Q1025 732 995 761 Q965 790 924.5 805.5 Q884 821 837 821 L382 821 L382 0 L122 0 L122 952 Q122 979 132 1002.5 Q142 1026 160 1043.5 Q178 1061 202 1071 Q226 1081 253 1081 L839 1081 Q888 1081 942.5 1070 Q997 1059 1050.5 1034.5 Q1104 1010 1152.5 972.5 Q1201 935 1238.5 881.5 Q1276 828 1298 758 Q1320 688 1320 600 L1316 -217 Z " />
<glyph glyph-name="omacron" unicode="&#x14d;" horiz-adv-x="1397" d="M1298 365 Q1298 298 1281 244.5 Q1264 191 1236 150.5 Q1208 110 1171 81.5 Q1134 53 1093.5 35 Q1053 17 1011.5 8.5 Q970 0 933 0 L464 0 Q410 0 346 19 Q282 38 227.5 81.5 Q173 125 136.5 194.5 Q100 264 100 365 L100 717 Q100 817 136.5 886.5 Q173 956 227.5 999.5 Q282 1043 346 1062 Q410 1081 464 1081 L933 1081 Q1033 1081 1103 1045 Q1173 1009 1216 954.5 Q1259 900 1278.5 836 Q1298 772 1298 717 L1298 365 Z M1038 715 Q1038 769 1011 795 Q984 821 933 821 L466 821 Q414 821 387 794.5 Q360 768 360 717 L360 365 Q360 314 387 287 Q414 260 466 260 L933 260 Q986 260 1012 287 Q1038 314 1038 365 L1038 715 Z M362 1200 L362 1436 L1034 1436 L1034 1200 L362 1200 Z " />
<glyph glyph-name="obreve" unicode="&#x14f;" horiz-adv-x="1397" d="M1298 365 Q1298 298 1281 244.5 Q1264 191 1236 150.5 Q1208 110 1171 81.5 Q1134 53 1093.5 35 Q1053 17 1011.5 8.5 Q970 0 933 0 L464 0 Q410 0 346 19 Q282 38 227.5 81.5 Q173 125 136.5 194.5 Q100 264 100 365 L100 717 Q100 817 136.5 886.5 Q173 956 227.5 999.5 Q282 1043 346 1062 Q410 1081 464 1081 L933 1081 Q1033 1081 1103 1045 Q1173 1009 1216 954.5 Q1259 900 1278.5 836 Q1298 772 1298 717 L1298 365 Z M1038 715 Q1038 769 1011 795 Q984 821 933 821 L466 821 Q414 821 387 794.5 Q360 768 360 717 L360 365 Q360 314 387 287 Q414 260 466 260 L933 260 Q986 260 1012 287 Q1038 314 1038 365 L1038 715 Z M1105 1552 Q1103 1527 1096.5 1489.5 Q1090 1452 1073 1409.5 Q1056 1367 1027.5 1324.5 Q999 1282 954 1248 Q909 1214 846.5 1192.5 Q784 1171 698 1171 Q612 1171 549 1192.5 Q486 1214 441.5 1248 Q397 1282 368 1324.5 Q339 1367 322.5 1409.5 Q306 1452 298.5 1489.5 Q291 1527 290 1552 L479 1552 Q485 1534 497.5 1509 Q510 1484 534.5 1461 Q559 1438 598.5 1421.5 Q638 1405 698 1405 Q757 1405 796.5 1421.5 Q836 1438 861 1461 Q886 1484 899.5 1509 Q913 1534 919 1552 L1105 1552 Z " />
<glyph glyph-name="ohungarumlaut" unicode="&#x151;" horiz-adv-x="1397" d="M1298 365 Q1298 298 1281 244.5 Q1264 191 1236 150.5 Q1208 110 1171 81.5 Q1134 53 1093.5 35 Q1053 17 1011.5 8.5 Q970 0 933 0 L464 0 Q410 0 346 19 Q282 38 227.5 81.5 Q173 125 136.5 194.5 Q100 264 100 365 L100 717 Q100 817 136.5 886.5 Q173 956 227.5 999.5 Q282 1043 346 1062 Q410 1081 464 1081 L933 1081 Q1033 1081 1103 1045 Q1173 1009 1216 954.5 Q1259 900 1278.5 836 Q1298 772 1298 717 L1298 365 Z M1038 715 Q1038 769 1011 795 Q984 821 933 821 L466 821 Q414 821 387 794.5 Q360 768 360 717 L360 365 Q360 314 387 287 Q414 260 466 260 L933 260 Q986 260 1012 287 Q1038 314 1038 365 L1038 715 Z M864 1346 L485 1159 L430 1251 L751 1538 L864 1346 Z M1294 1346 L915 1159 L864 1251 L1181 1538 L1294 1346 Z " />
<glyph glyph-name="racute" unicode="&#x155;" horiz-adv-x="1117" d="M1068 821 L483 821 Q430 821 403 794.5 Q376 768 376 717 L376 0 L116 0 L116 717 Q116 784 133 837 Q150 890 178.5 930.5 Q207 971 244 999.5 Q281 1028 321.5 1046 Q362 1064 403.5 1072.5 Q445 1081 481 1081 L1068 1081 L1068 821 Z M1125 1346 L603 1159 L534 1309 L1015 1589 L1125 1346 Z " />
<glyph glyph-name="rcommaaccent" unicode="&#x157;" horiz-adv-x="1117" d="M1068 821 L483 821 Q430 821 403 794.5 Q376 768 376 717 L376 0 L116 0 L116 717 Q116 784 133 837 Q150 890 178.5 930.5 Q207 971 244 999.5 Q281 1028 321.5 1046 Q362 1064 403.5 1072.5 Q445 1081 481 1081 L1068 1081 L1068 821 Z M571 -582 L423 -582 L497 -180 L694 -180 L571 -582 Z " />
<glyph glyph-name="rcaron" unicode="&#x159;" horiz-adv-x="1117" d="M1068 821 L483 821 Q430 821 403 794.5 Q376 768 376 717 L376 0 L116 0 L116 717 Q116 784 133 837 Q150 890 178.5 930.5 Q207 971 244 999.5 Q281 1028 321.5 1046 Q362 1064 403.5 1072.5 Q445 1081 481 1081 L1068 1081 L1068 821 Z M212 1573 L560 1393 L908 1573 L1029 1405 L560 1139 L91 1405 L212 1573 Z " />
<glyph glyph-name="sacute" unicode="&#x15b;" horiz-adv-x="1227" d="M1167 365 Q1167 298 1150 244.5 Q1133 191 1105 150.5 Q1077 110 1040 81.5 Q1003 53 962.5 35 Q922 17 880.5 8.5 Q839 0 802 0 L98 0 L98 260 L800 260 Q853 260 880 287 Q907 314 907 365 Q902 469 802 469 L399 469 Q313 469 253 499 Q193 529 155.5 574 Q118 619 101.5 671 Q85 723 85 768 Q85 855 116 914.5 Q147 974 194 1011 Q241 1048 296 1064.5 Q351 1081 399 1081 L1038 1081 L1038 821 L401 821 Q381 821 369.5 816.5 Q358 812 352.5 804.5 Q347 797 346 788.5 Q345 780 345 772 Q346 756 351 747 Q356 738 363.5 734 Q371 730 380.5 729.5 Q390 729 399 729 L802 729 Q902 729 972 693 Q1042 657 1085 602.5 Q1128 548 1147.5 484 Q1167 420 1167 365 Z M1133 1346 L611 1159 L542 1309 L1023 1589 L1133 1346 Z " />
<glyph glyph-name="scircumflex" unicode="&#x15d;" horiz-adv-x="1227" d="M1167 365 Q1167 298 1150 244.5 Q1133 191 1105 150.5 Q1077 110 1040 81.5 Q1003 53 962.5 35 Q922 17 880.5 8.5 Q839 0 802 0 L98 0 L98 260 L800 260 Q853 260 880 287 Q907 314 907 365 Q902 469 802 469 L399 469 Q313 469 253 499 Q193 529 155.5 574 Q118 619 101.5 671 Q85 723 85 768 Q85 855 116 914.5 Q147 974 194 1011 Q241 1048 296 1064.5 Q351 1081 399 1081 L1038 1081 L1038 821 L401 821 Q381 821 369.5 816.5 Q358 812 352.5 804.5 Q347 797 346 788.5 Q345 780 345 772 Q346 756 351 747 Q356 738 363.5 734 Q371 730 380.5 729.5 Q390 729 399 729 L802 729 Q902 729 972 693 Q1042 657 1085 602.5 Q1128 548 1147.5 484 Q1167 420 1167 365 Z M962 1159 L614 1339 L266 1159 L145 1327 L614 1593 L1083 1327 L962 1159 Z " />
</font>
</svg>
