<?xml version="1.0" encoding="UTF-8"?>
<svg xmlns="http://www.w3.org/2000/svg" xmlns:xlink="http://www.w3.org/1999/xlink" version="1.2" >
<font id="Faster One">
<font-face  font-family="Faster One" units-per-em="1000" ascent="898" descent="-165" font-style="normal" font-weight="400" font-stretch="normal" cap-height="625" x-height="529" underline-position="-75" underline-thickness="50" />
<missing-glyph  horiz-adv-x="150" d="" />
<glyph glyph-name="space" unicode="&#x20;" horiz-adv-x="200" d="" />
<glyph glyph-name="exclam" unicode="&#x21;" horiz-adv-x="534" d="M237 196 L-186 241 L242 241 L237 196 Z M247 292 L-169 337 L252 337 L247 292 Z M258 388 L-152 433 L263 433 L258 388 Z M268 484 L-135 529 L273 529 L268 484 Z M188 44 Q188 21 196 3 L-220 48 L188 48 L188 44 Z M223 145 Q206 127 197 102 L-203 145 L223 145 Z M352 625 L500 625 Q531 625 531 605 Q531 600 530 598 L425 170 L264 170 L311 598 Q315 625 352 625 Z M218 44 Q218 101 249 125 Q280 149 337 149 Q394 149 415 136.5 Q436 124 436 96 Q436 40 409.5 16.5 Q383 -7 321.5 -7 Q260 -7 239 4.5 Q218 16 218 44 Z " />
<glyph glyph-name="quotedbl" unicode="&#x22;" horiz-adv-x="665" d="M680 604 L669 540 Q668 536 574 275 L479 275 L479 506 Q479 542 489 598 Q493 625 529 625 L649 625 Q680 625 680 604 Z M211 337 L211 292 L-100 337 L211 337 Z M211 433 L211 388 L-83 433 L211 433 Z M211 529 L211 484 L-66 529 L211 529 Z M442 604 L431 540 Q430 536 336 275 L241 275 L241 506 Q241 542 251 598 Q255 625 291 625 L411 625 Q442 625 442 604 Z " />
<glyph glyph-name="numbersign" unicode="&#x23;" horiz-adv-x="746" d="M638 665 L689 665 L613 474 L746 474 L728 426 Q718 402 706 398 Q700 397 689 395 L582 395 L516 228 L649 228 L631 181 Q623 163 615 157.5 Q607 152 592 150 L485 150 L420 -15 Q415 -25 411 -29 Q400 -40 377 -40 L326 -40 L401 150 L221 150 L156 -15 Q151 -25 147 -29 Q136 -40 113 -40 L62 -40 L137 150 L0 150 L19 197 Q26 215 34.5 220.5 Q43 226 58 228 L168 228 L234 395 L97 395 L116 443 Q126 467 138 470 Q144 472 155 474 L265 474 L331 640 Q336 650 340 654 Q351 665 374 665 L425 665 L349 474 L529 474 L595 640 Q600 650 604 654 Q615 665 638 665 Z M318 395 L252 228 L432 228 L498 395 L318 395 Z " />
<glyph glyph-name="dollar" unicode="&#x24;" horiz-adv-x="770" d="M555 467 Q522 467 508.5 455.5 Q495 444 489 414 L548 407 Q638 396 675 362.5 Q712 329 712 270 Q712 163 654.5 84 Q597 5 487 1 L466 -100 L343 -100 L365 1 Q277 8 216 25 L272 184 Q346 162 433 162 Q469 162 502 166 L509 208 L451 215 Q364 226 329.5 261 Q295 296 295 357 Q295 464 346 541 Q397 618 501 635 L519 718 L639 718 L623 638 Q696 633 753 622 L698 467 L555 467 Z M266 388 L-159 433 L272 433 Q269 422 266 388 Z M303 529 L285 485 L-130 529 L303 529 Z M266 337 Q268 310 274 292 L-149 337 L266 337 Z M396 196 L-126 241 L305 241 Q340 207 396 196 Z M391 625 Q358 604 342 584 L-44 625 L391 625 Z M-148 145 L226 145 L211 101 L-148 145 Z M-166 48 L193 48 L178 4 L-166 48 Z " />
<glyph glyph-name="percent" unicode="&#x25;" horiz-adv-x="971" d="M358 -40 L307 -40 L576 640 Q581 650 585 654 Q596 665 619 665 L670 665 L401 -15 Q396 -25 392 -29 Q381 -40 358 -40 Z M629 346 Q651 374 686 386 Q721 398 785 398 Q849 398 879.5 370.5 Q910 343 910 285 Q910 252 900 195.5 Q890 139 878 105 Q866 71 844 43 Q805 -9 701 -9 Q625 -9 594 18.5 Q563 46 563 105 Q563 137 573 193 Q583 249 595 283.5 Q607 318 629 346 Z M704 92 Q751 92 755 116 L787 297 L767 297 Q722 297 718 274 L686 92 L704 92 Z M127 573 Q149 601 184 613 Q219 625 283 625 Q347 625 377.5 597.5 Q408 570 408 512 Q408 479 398 422.5 Q388 366 376 332 Q364 298 342 270 Q303 218 199 218 Q123 218 92 245.5 Q61 273 61 332 Q61 364 71 420 Q81 476 93 510.5 Q105 545 127 573 Z M202 319 Q249 319 253 343 L285 524 L265 524 Q220 524 216 501 L184 319 L202 319 Z " />
<glyph glyph-name="ampersand" unicode="&#x26;" horiz-adv-x="832" d="M261 433 L252 388 L-171 433 L261 433 Z M191 241 Q180 199 180 196 L-241 241 L191 241 Z M173 145 L173 100 L-250 145 L173 145 Z M-136 529 L295 529 Q284 506 277 485 L-136 529 Z M246 337 Q227 316 215 294 L-186 337 L246 337 Z M183 48 Q191 23 208 3 L-215 48 L183 48 Z M376 625 Q351 609 329 584 L-54 625 L376 625 Z M341 -15 Q203 -15 203 119 Q203 198 235 268 Q252 305 284 331 Q316 357 360 363 L360 367 L284 396 Q308 529 361.5 577 Q415 625 504 625 Q593 625 684 604 L630 462 L546 462 Q515 462 500 453.5 Q485 445 481 420 L475 382 L823 382 L777 242 L711 242 L651 -100 L531 -115 L531 21 Q410 -15 341 -15 Z M461 143 Q497 143 531 148 L531 242 L420 242 Q409 202 409 180 Q409 143 461 143 Z " />
<glyph glyph-name="quotesingle" unicode="&#x27;" horiz-adv-x="427" d="M211 337 L211 292 L-100 337 L211 337 Z M211 433 L211 388 L-83 433 L211 433 Z M211 529 L211 484 L-66 529 L211 529 Z M442 604 L431 540 Q430 536 336 275 L241 275 L241 506 Q241 542 251 598 Q255 625 291 625 L411 625 Q442 625 442 604 Z " />
<glyph glyph-name="parenleft" unicode="&#x28;" horiz-adv-x="558" d="M230 337 L222 292 L-202 337 L230 337 Z M255 433 L242 388 L-176 433 L255 433 Z M214 196 L-210 241 L216 241 Q214 211 214 196 Z M216 145 Q220 115 223 100 L-201 145 L216 145 Z M-132 529 L299 529 Q288 510 276 485 L-132 529 Z M239 48 Q248 24 263 3 L-160 48 L239 48 Z M-56 625 L375 625 Q349 601 336 583 L-56 625 Z M487 494 Q469 471 454 425 Q439 379 426.5 308.5 Q414 238 414 195 Q414 152 423.5 127 Q433 102 441.5 95.5 Q450 89 466 81 L431 -66 Q244 -40 244 186 Q244 242 256 312 Q319 658 564 690 L548 543 Q530 536 517.5 526.5 Q505 517 487 494 Z " />
<glyph glyph-name="parenright" unicode="&#x29;" horiz-adv-x="512" d="M269 292 L-155 337 L277 337 L269 292 Z M144 3 L-280 48 L149 48 L144 3 Z M258 241 Q247 204 244 196 L-174 241 L258 241 Z M-176 625 L255 625 L244 580 L-176 625 Z M284 433 Q285 429 285 420.5 Q285 412 283 388 L-140 433 L284 433 Z M219 145 Q201 117 178 103 L-212 145 L219 145 Z M269 484 L-155 529 L231 529 L228 516 Q251 509 269 484 Z M486 429 Q486 378 473 302 Q413 -43 166 -76 L182 71 Q197 77 205.5 82 Q214 87 229.5 102.5 Q245 118 256 140 Q283 196 299 285 Q315 374 315 416.5 Q315 459 306 484 Q297 509 287.5 517.5 Q278 526 263 533 L299 680 Q486 654 486 429 Z " />
<glyph glyph-name="asterisk" unicode="&#x2a;" horiz-adv-x="648" d="M129 485 L-180 529 L150 529 L129 485 Z M162 337 L153 325 Q137 302 135 294 L-169 337 L162 337 Z M207 196 L-114 241 L157 241 Q158 239 207 196 Z M148 394 L162 388 L-157 433 L115 433 Q118 405 148 394 Z M569 565 Q587 565 592 538 L602 467 Q603 462 603 453 Q603 427 582 422 L525 406 L435 406 L499 351 L523 304 Q525 300 525 288 Q525 276 501 260 L437 216 Q420 204 409.5 204 Q399 204 392 215 L361 263 L354 345 L315 262 L275 216 Q266 205 254.5 205 Q243 205 231 216 L180 260 Q165 272 165 283.5 Q165 295 174 304 L215 351 L294 404 L208 404 L159 422 Q145 427 145 438.5 Q145 450 153 466 L187 538 Q201 567 217 567 Q219 567 227 565 L278 547 L338 492 L326 580 L336 638 Q340 665 377 665 L449 665 Q479 665 479 644 Q479 640 469 580 L425 491 L507 548 L561 564 Q564 565 569 565 Z " />
<glyph glyph-name="plus" unicode="&#x2b;" horiz-adv-x="600" d="M71 240 L96 384 L244 384 L272 539 L408 539 L380 384 L529 384 L504 240 L355 240 L327 84 L191 84 L219 240 L71 240 Z " />
<glyph glyph-name="comma" unicode="&#x2c;" horiz-adv-x="325" d="M93 99 Q105 159 130 182.5 Q155 206 210 206 Q265 206 284.5 191 Q304 176 304 141 Q304 72 248 -15 L160 -151 L80 -122 L136 22 Q90 30 90 72 Q90 84 93 99 Z M-154 48 L59 48 Q71 10 97 -1 L-154 48 Z M72 145 Q66 125 63 100 L-159 145 L72 145 Z " />
<glyph glyph-name="hyphen" unicode="&#x2d;" horiz-adv-x="350" d="M324 196 L0 241 L332 241 L324 196 Z M341 292 L17 337 L349 337 L341 292 Z " />
<glyph glyph-name="period" unicode="&#x2e;" horiz-adv-x="325" d="M72 145 Q66 125 63 100 L-159 145 L72 145 Z M70 3 L-154 48 L59 48 Q61 19 70 3 Z M93 99 Q103 158 128.5 182 Q154 206 209.5 206 Q265 206 284.5 191 Q304 176 304 148 Q304 120 300 99 Q290 40 264.5 17 Q239 -6 183.5 -6 Q128 -6 108.5 8.5 Q89 23 89 50.5 Q89 78 93 99 Z " />
<glyph glyph-name="slash" unicode="&#x2f;" horiz-adv-x="651" d="M219 -40 L148 -40 L537 640 Q542 650 546 654 Q557 665 580 665 L651 665 L262 -15 Q257 -25 253 -29 Q242 -40 219 -40 Z M141 3 L-150 48 L165 48 L141 3 Z M251 196 L-40 241 L275 241 L251 196 Z M306 292 L15 337 L330 337 L306 292 Z M361 388 L70 433 L385 433 L361 388 Z M416 484 L125 529 L439 529 L416 484 Z M196 100 L-95 145 L220 145 L196 100 Z M470 580 L179 625 L493 625 L470 580 Z " />
<glyph glyph-name="zero" unicode="0" horiz-adv-x="773" d="M184 292 L-240 337 L192 337 L184 292 Z M174 196 L-250 241 L178 241 Q176 224 174 196 Z M215 433 L203 388 L-217 433 L215 433 Z M174 145 Q176 121 180 100 L-243 145 L174 145 Z M252 529 Q238 501 232 485 L-178 529 L252 529 Z M339 625 Q310 606 291 584 L-91 625 L339 625 Z M234 3 L-190 48 L198 48 Q212 21 234 3 Z M531 640 Q647 640 695 594.5 Q743 549 743 453 Q743 400 727.5 312.5 Q712 225 692 168.5 Q672 112 637 68 Q570 -15 416 -15 Q300 -15 252 30 Q204 75 204 171 Q204 232 219 315.5 Q234 399 254.5 456 Q275 513 310 556 Q377 640 531 640 Z M425 146 Q468 146 487 155.5 Q506 165 512 199 L561 479 L516 479 Q474 479 457.5 470 Q441 461 435 426 L385 146 L425 146 Z " />
<glyph glyph-name="one" unicode="1" horiz-adv-x="709" d="M504 0 L304 0 L378 425 L211 425 L236 573 L463 625 L613 625 L504 0 Z M273 3 L-151 48 L281 48 L273 3 Z M307 196 L-117 241 L315 241 L307 196 Z M324 292 L-100 337 L332 337 L324 292 Z M174 388 L-250 433 L182 433 L174 388 Z M190 484 L-234 529 L197 529 L190 484 Z M290 100 L-134 145 L298 145 L290 100 Z M207 589 L-105 625 L327 625 L209 598 L207 589 Z " />
<glyph glyph-name="two" unicode="2" horiz-adv-x="808" d="M322 475 L322 602 Q448 640 568 640 Q702 640 744 604 Q784 569 784 498.5 Q784 428 764.5 378.5 Q745 329 689.5 292 Q634 255 598 240 Q538 215 457 188 L452 160 L720 160 L692 0 L204 0 L226 125 Q236 185 254.5 214 Q273 243 285.5 258.5 Q298 274 319 289.5 Q340 305 356.5 315.5 Q373 326 402.5 340.5 Q432 355 452 364 Q472 373 509 389 Q546 405 570 416 L579 475 L322 475 Z M174 3 L-250 48 L182 48 L174 3 Z M191 100 L-233 145 L199 145 L191 100 Z M292 529 L292 484 L-132 529 L292 529 Z M293 625 L293 580 L-130 625 L293 625 Z M235 241 L235 240 Q223 220 214 197 L-197 241 L235 241 Z M333 337 Q307 320 280 297 L-97 337 L333 337 Z M537 433 L449 396 L99 433 L537 433 Z " />
<glyph glyph-name="three" unicode="3" horiz-adv-x="795" d="M344 292 L-79 337 L352 337 L344 292 Z M214 145 L200 100 L-218 145 L214 145 Z M182 48 L168 3 L-250 48 L182 48 Z M287 529 L287 484 L-137 529 L287 529 Z M328 196 L-96 241 L336 241 L328 196 Z M288 625 L288 580 L-135 625 L288 625 Z M-63 433 L369 433 L360 388 L-63 433 Z M318 475 L318 602 Q440 640 548 640 Q646 640 702 620 Q765 598 765 522 Q765 392 657 337 L656 332 Q727 297 727 219 Q727 -15 417 -15 Q303 -15 202 11 L258 176 Q344 153 407 153 Q470 153 516 159 L527 223 L366 240 L391 385 L559 405 L570 475 L318 475 Z " />
<glyph glyph-name="four" unicode="4" horiz-adv-x="812" d="M451 3 L27 48 L459 48 L451 3 Z M174 100 L-250 145 L182 145 L174 100 Z M-230 241 L202 241 L197 232 L191 196 L-230 241 Z M230 293 L-177 337 L254 337 L230 293 Z M387 581 L-20 625 L410 625 L387 581 Z M282 390 L-124 433 L306 433 L282 390 Z M335 486 L-71 529 L358 529 L335 486 Z M481 0 L498 100 L205 100 L227 225 L444 625 L781 625 L718 272 L780 272 L750 100 L688 100 L671 0 L481 0 Z M554 475 L434 272 L528 272 L564 475 L554 475 Z " />
<glyph glyph-name="five" unicode="5" horiz-adv-x="799" d="M-161 433 L271 433 L261 388 L-161 433 Z M291 529 L282 484 L-140 529 L291 529 Z M302 580 L-119 625 L311 625 L302 580 Z M-250 48 L182 48 L168 3 L-250 48 Z M199 101 L-217 145 L214 145 L199 101 Z M253 337 L253 326 Q253 308 256 292 L-168 337 L253 337 Z M283 241 Q314 212 385 198 L-20 241 L283 241 Z M257 176 Q343 153 411 153 Q479 153 524 159 L532 209 L463 217 Q362 229 322.5 251.5 Q283 274 283 326 Q283 345 287 365 L342 625 L774 625 L729 453 L507 467 L496 406 L551 399 Q656 385 699 351.5 Q742 318 742 252.5 Q742 187 722.5 136 Q703 85 673 56.5 Q643 28 598.5 11.5 Q554 -5 515 -10 Q476 -15 426 -15 Q302 -15 201 11 L257 176 Z " />
<glyph glyph-name="six" unicode="6" horiz-adv-x="769" d="M183 292 L-240 337 L192 337 Q190 331 183 292 Z M177 241 Q177 238 175.5 221 Q174 204 174 196 L-250 241 L177 241 Z M217 433 Q211 417 204 388 L-215 433 L217 433 Z M181 100 L-243 145 L175 145 Q176 123 181 100 Z M261 529 Q245 501 238 486 L-169 529 L261 529 Z M361 625 Q330 606 307 585 L-68 625 L361 625 Z M200 48 Q214 21 233 5 L-170 48 L200 48 Z M469 257 Q437 257 423 249.5 Q409 242 404 215 L390 136 L429 136 Q461 136 474.5 143.5 Q488 151 493 178 L507 257 L469 257 Z M707 259 Q707 122 631.5 53.5 Q556 -15 412 -15 Q300 -15 252 32 Q204 79 204 177 Q204 233 218.5 316 Q233 399 255 456 Q277 513 317 556 Q394 640 574 640 Q610 640 668 631.5 Q726 623 753 614 L703 475 L451 475 L438 405 L486 405 Q584 405 641 381 Q707 353 707 259 Z " />
<glyph glyph-name="seven" unicode="7" horiz-adv-x="702" d="M174 388 L-250 433 L181 433 L174 388 Z M186 484 L-238 529 L191 529 L186 484 Z M196 580 L-226 625 L201 625 L196 580 Z M185 48 L161 4 L-247 48 L185 48 Z M-86 337 L346 337 L322 293 L-86 337 Z M-193 145 L239 145 L215 101 L-193 145 Z M268 198 L-139 241 L292 241 L268 198 Z M679 500 L408 0 L193 0 L442 448 L213 448 L231 625 L701 625 L679 500 Z " />
<glyph glyph-name="eight" unicode="8" horiz-adv-x="781" d="M198 238 Q187 217 181 197 L-233 241 L199 241 L198 238 Z M242 433 L242 422 Q242 399 244 388 L-180 433 L242 433 Z M263 529 Q253 507 248 485 L-168 529 L263 529 Z M172 145 Q171 140 171 127.5 Q171 115 174 100 L-250 145 L172 145 Z M271 318 Q254 308 241 294 L-157 337 L260 337 Q263 330 271 318 Z M351 625 Q324 609 300 584 L-79 625 L351 625 Z M190 48 Q203 22 228 3 L-195 48 L190 48 Z M533 640 Q629 640 686 606.5 Q743 573 743 498 Q743 441 717 391.5 Q691 342 650 315 L649 308 Q678 292 694.5 262.5 Q711 233 711 196 Q711 123 671 74 Q597 -15 424 -15 Q201 -15 201 131 Q201 188 232 236.5 Q263 285 313 308 L314 315 Q272 351 272 416.5 Q272 482 295.5 526 Q319 570 360 594 Q437 640 533 640 Z M432 240 Q421 240 418 223 L402 136 L441 136 Q473 136 486.5 143.5 Q500 151 505 178 L509 201 L450 234 Q439 240 432 240 Z M522 385 Q541 385 545 403 L559 484 L521 484 Q489 484 474.5 476.5 Q460 469 456 442 L453 423 L509 389 Q517 385 522 385 Z " />
<glyph glyph-name="nine" unicode="9" horiz-adv-x="787" d="M219 388 L-205 433 L223 433 Q221 416 219 388 Z M199 101 L-216 145 L215 145 L199 101 Z M166 4 L-250 48 L181 48 L166 4 Z M253 529 L235 485 L-178 529 L253 529 Z M346 625 L346 624 Q316 608 294 584 L-85 625 L346 625 Z M220 337 Q224 311 228 298 L-136 337 L220 337 Z M329 209 L328 204 L10 241 L267 241 Q295 217 329 209 Z M490 376 Q522 376 535.5 383.5 Q549 391 554 418 L567 489 L528 489 Q496 489 482 481.5 Q468 474 464 447 L452 376 L490 376 Z M473 228 Q335 228 292 262.5 Q249 297 249 367 Q249 503 325.5 571.5 Q402 640 545 640 Q657 640 705.5 592.5 Q754 545 754 446 Q754 391 740 313 Q709 141 641.5 63 Q574 -15 437.5 -15 Q301 -15 200 11 L257 176 Q343 153 402.5 153 Q462 153 509 159 L521 228 L473 228 Z " />
<glyph glyph-name="colon" unicode="&#x3a;" horiz-adv-x="325" d="M72 145 Q66 125 63 100 L-159 145 L72 145 Z M70 3 L-154 48 L59 48 Q61 19 70 3 Z M93 99 Q103 158 128.5 182 Q154 206 209.5 206 Q265 206 284.5 191 Q304 176 304 148 Q304 120 300 99 Q290 40 264.5 17 Q239 -6 183.5 -6 Q128 -6 108.5 8.5 Q89 23 89 50.5 Q89 78 93 99 Z M125 434 Q119 414 116 389 L-106 434 L125 434 Z M123 292 L-101 337 L112 337 Q114 308 123 292 Z M146 388 Q156 447 181.5 471 Q207 495 262.5 495 Q318 495 337.5 480 Q357 465 357 437 Q357 409 353 388 Q343 329 317.5 306 Q292 283 236.5 283 Q181 283 161.5 297.5 Q142 312 142 339.5 Q142 367 146 388 Z " />
<glyph glyph-name="semicolon" unicode="&#x3b;" horiz-adv-x="325" d="M93 99 Q105 159 130 182.5 Q155 206 210 206 Q265 206 284.5 191 Q304 176 304 141 Q304 72 248 -15 L160 -151 L80 -122 L136 22 Q90 30 90 72 Q90 84 93 99 Z M-154 48 L59 48 Q71 10 97 -1 L-154 48 Z M72 145 Q66 125 63 100 L-159 145 L72 145 Z M125 434 Q119 414 116 389 L-106 434 L125 434 Z M123 292 L-101 337 L112 337 Q114 308 123 292 Z M146 388 Q156 447 181.5 471 Q207 495 262.5 495 Q318 495 337.5 480 Q357 465 357 437 Q357 409 353 388 Q343 329 317.5 306 Q292 283 236.5 283 Q181 283 161.5 297.5 Q142 312 142 339.5 Q142 367 146 388 Z " />
<glyph glyph-name="less" unicode="&#x3c;" horiz-adv-x="600" d="M497 557 L537 423 L250 315 L249 308 L488 201 L400 67 L96 221 L128 403 L497 557 Z " />
<glyph glyph-name="equal" unicode="&#x3d;" horiz-adv-x="600" d="M50 121 L75 265 L508 265 L483 121 L50 121 Z M92 359 L117 503 L550 503 L525 359 L92 359 Z " />
<glyph glyph-name="greater" unicode="&#x3e;" horiz-adv-x="600" d="M110 67 L70 201 L357 309 L358 316 L119 423 L207 557 L511 403 L479 221 L110 67 Z " />
<glyph glyph-name="question" unicode="&#x3f;" horiz-adv-x="610" d="M223 292 L-151 337 L228 337 L224 296 L223 292 Z M213 196 L-161 241 L218 241 L213 196 Z M200 484 L-173 529 L201 529 L200 484 Z M166 44 Q166 18 174 3 L-200 48 L166 48 L166 44 Z M200 145 Q182 128 174 102 L-181 145 L200 145 Z M292 433 Q247 415 237 393 L-90 433 L292 433 Z M446 487 Q422 489 390 489 Q358 489 304.5 482.5 Q251 476 230 469 L232 612 Q341 640 435 640 Q527 640 568 625 Q609 610 624.5 585.5 Q640 561 640 523 Q640 438 594.5 386.5 Q549 335 442 302 L403 175 L241 175 L261 363 Q263 381 276 391 Q289 401 332 416 L440 453 L446 487 Z M196 44 Q196 100 226.5 124.5 Q257 149 314.5 149 Q372 149 393 136.5 Q414 124 414 96 Q414 40 387 16.5 Q360 -7 299 -7 Q238 -7 217 4.5 Q196 16 196 44 Z " />
<glyph glyph-name="at" unicode="&#x40;" horiz-adv-x="1068" d="M715 221 Q747 221 763.5 227.5 Q780 234 786 257 L797 319 L767 319 Q733 319 715 311.5 Q697 304 693 277 L684 221 L715 221 Z M703 690 Q871 690 946.5 652.5 Q1022 615 1022 535 Q1022 523 1018 497 L947 90 L852 90 L809 153 Q739 81 629 81 Q508 81 508 198 Q508 322 580.5 381 Q653 440 780 440 L818 440 L831 513 Q784 523 720.5 523 Q657 523 632.5 521.5 Q608 520 576.5 512 Q545 504 525 490 Q477 455 464 380 L429 183 Q425 164 425 140 Q425 116 436 95.5 Q447 75 462.5 64.5 Q478 54 505 48 Q541 40 610 40 L789 40 L772 -54 Q669 -75 592 -75 Q515 -75 465 -67.5 Q415 -60 370.5 -42.5 Q326 -25 296 4 Q231 65 231 178 Q231 208 240 266 L254 349 Q270 446 312.5 515 Q355 584 418 621 Q535 690 703 690 Z M213 292 L-211 337 L221 337 L213 292 Z M-188 433 L243 433 Q235 409 231 388 L-188 433 Z M205 241 Q203 226 201 196 L-220 241 L205 241 Z M285 529 Q269 501 262 485 L-138 529 L285 529 Z M202 145 Q203 128 209 100 L-210 145 L202 145 Z M226 48 Q237 25 253 5 L-158 48 L226 48 Z " />
<glyph glyph-name="A" unicode="A" horiz-adv-x="851" d="M392 0 L192 0 L455 625 L749 625 L793 0 L592 0 L588 99 L431 99 L392 0 Z M573 258 L573 433 L563 433 L493 258 L573 258 Z M160 4 L-250 48 L179 48 L160 4 Z M201 101 L-209 145 L220 145 L201 101 Z M242 197 L-168 241 L260 241 L242 197 Z M282 293 L-127 337 L301 337 L282 293 Z M323 389 L-86 433 L341 433 L323 389 Z M404 582 L-4 625 L422 625 L404 582 Z M363 486 L-45 529 L381 529 L363 486 Z M404 582 L422 625 L-4 625 L404 582 Z " />
<glyph glyph-name="B" unicode="B" horiz-adv-x="774" d="M622 625 Q694 625 726.5 600 Q759 575 759 523 Q759 447 725.5 398 Q692 349 644 337 L643 331 Q733 314 733 212 Q733 122 684 61 Q635 0 546 0 L204 0 L314 625 L622 625 Z M512 249 L437 249 L419 147 L493 147 Q518 147 531 167 Q544 187 544 218 Q544 249 512 249 Z M540 488 L480 488 L463 395 L522 395 Q568 395 568 460 Q568 488 540 488 Z M174 3 L-250 48 L182 48 L174 3 Z M208 196 L-216 241 L216 241 L208 196 Z M225 292 L-199 337 L233 337 L225 292 Z M242 388 L-182 433 L250 433 L242 388 Z M259 484 L-165 529 L266 529 L259 484 Z M191 100 L-233 145 L199 145 L191 100 Z M275 580 L-148 625 L283 625 L275 580 Z " />
<glyph glyph-name="C" unicode="C" horiz-adv-x="683" d="M192 317 Q190 309 188 295 L-205 337 L195 337 L192 317 Z M181 241 Q178 218 178 199 L-216 241 L181 241 Z M219 433 L207 392 L-181 433 L219 433 Z M179 145 Q183 117 186 103 L-203 145 L179 145 Z M260 529 Q246 503 240 489 L-134 529 L260 529 Z M209 48 Q222 25 239 11 L-107 48 L209 48 Z M355 625 Q326 607 310 592 L4 625 L355 625 Z M443 -15 Q317 -15 262.5 34 Q208 83 208 185 Q208 228 222 312 Q252 484 325.5 562 Q399 640 558 640 Q595 640 642.5 632.5 Q690 625 712 614 L656 461 Q597 475 545.5 475 Q494 475 472 465 Q450 455 445 425 L399 163 Q435 155 473 155 Q554 155 621 179 L605 11 Q541 -15 443 -15 Z " />
<glyph glyph-name="D" unicode="D" horiz-adv-x="841" d="M580 625 Q709 625 763.5 579.5 Q818 534 818 432 Q818 380 806 312 Q776 144 703.5 72 Q631 0 470 0 L204 0 L314 625 L580 625 Z M554 465 L475 465 L422 160 L501 160 Q540 160 559 169.5 Q578 179 584 213 L619 412 Q620 418 620 428 Q620 451 604 458 Q588 465 554 465 Z M174 3 L-250 48 L182 48 L174 3 Z M208 196 L-216 241 L216 241 L208 196 Z M225 292 L-199 337 L233 337 L225 292 Z M242 388 L-182 433 L250 433 L242 388 Z M259 484 L-165 529 L266 529 L259 484 Z M191 100 L-233 145 L199 145 L191 100 Z M275 580 L-148 625 L283 625 L275 580 Z " />
<glyph glyph-name="E" unicode="E" horiz-adv-x="726" d="M625 236 L435 236 L422 160 L655 160 L627 0 L204 0 L314 625 L732 625 L680 465 L475 465 L461 381 L651 381 L625 236 Z M174 3 L-250 48 L182 48 L174 3 Z M208 196 L-216 241 L216 241 L208 196 Z M225 292 L-199 337 L233 337 L225 292 Z M242 388 L-182 433 L250 433 L242 388 Z M259 484 L-165 529 L266 529 L259 484 Z M191 100 L-233 145 L199 145 L191 100 Z M275 580 L-148 625 L283 625 L275 580 Z " />
<glyph glyph-name="F" unicode="F" horiz-adv-x="666" d="M596 232 L434 232 L394 0 L204 0 L314 625 L704 625 L651 465 L475 465 L461 381 L623 381 L596 232 Z M174 3 L-250 48 L182 48 L174 3 Z M208 196 L-216 241 L216 241 L208 196 Z M225 292 L-199 337 L233 337 L225 292 Z M242 388 L-182 433 L250 433 L242 388 Z M259 484 L-165 529 L266 529 L259 484 Z M191 100 L-233 145 L199 145 L191 100 Z M275 580 L-148 625 L283 625 L275 580 Z " />
<glyph glyph-name="G" unicode="G" horiz-adv-x="767" d="M683 30 Q561 -15 438 -15 Q315 -15 260.5 34 Q206 83 206 185 Q206 228 220 312 Q250 486 326 563 Q402 640 578 640 Q616 640 673 632 Q730 624 757 614 L702 461 Q627 475 564.5 475 Q502 475 475 465 Q448 455 443 425 L394 142 L457 142 Q491 142 507.5 149.5 Q524 157 529 184 L534 211 L486 211 L513 364 L742 364 L683 30 Z M192 317 Q190 309 188 295 L-205 337 L195 337 L192 317 Z M181 241 Q178 218 178 199 L-216 241 L181 241 Z M219 433 L207 392 L-181 433 L219 433 Z M179 145 Q183 117 186 103 L-203 145 L179 145 Z M260 529 Q246 503 240 489 L-134 529 L260 529 Z M209 48 Q222 25 239 11 L-107 48 L209 48 Z M355 625 Q326 607 310 592 L4 625 L355 625 Z " />
<glyph glyph-name="H" unicode="H" horiz-adv-x="846" d="M537 0 L575 221 L432 221 L394 0 L204 0 L314 625 L504 625 L465 404 L608 404 L647 625 L837 625 L727 0 L537 0 Z M174 3 L-250 48 L182 48 L174 3 Z M208 196 L-216 241 L216 241 L208 196 Z M225 292 L-199 337 L233 337 L225 292 Z M242 388 L-182 433 L250 433 L242 388 Z M259 484 L-165 529 L266 529 L259 484 Z M191 100 L-233 145 L199 145 L191 100 Z M275 580 L-148 625 L283 625 L275 580 Z " />
<glyph glyph-name="I" unicode="I" horiz-adv-x="504" d="M204 0 L314 625 L504 625 L394 0 L204 0 Z M174 3 L-250 48 L182 48 L174 3 Z M208 196 L-216 241 L216 241 L208 196 Z M225 292 L-199 337 L233 337 L225 292 Z M242 388 L-182 433 L250 433 L242 388 Z M259 484 L-165 529 L266 529 L259 484 Z M191 100 L-233 145 L199 145 L191 100 Z M275 580 L-148 625 L283 625 L275 580 Z " />
<glyph glyph-name="J" unicode="J" horiz-adv-x="566" d="M265 160 Q294 160 303.5 168.5 Q313 177 315 190 L363 465 L285 465 L314 625 L582 625 L501 165 Q487 84 441.5 42 Q396 0 325 0 L177 0 L206 160 L265 160 Z M147 3 L-277 48 L155 48 L147 3 Z M285 196 L-139 241 L293 241 L285 196 Z M302 292 L-122 337 L310 337 L302 292 Z M319 388 L-105 433 L327 433 L319 388 Z M257 484 L-167 529 L264 529 L257 484 Z M164 100 L-260 145 L172 145 L164 100 Z M275 580 L-148 625 L283 625 L275 580 Z " />
<glyph glyph-name="K" unicode="K" horiz-adv-x="771" d="M448 253 L449 272 L441 272 L394 0 L204 0 L314 625 L504 625 L459 370 L467 370 Q475 402 485 418 L611 625 L816 625 L620 318 L711 0 L506 0 L451 224 Q448 234 448 253 Z M174 3 L-250 48 L182 48 L174 3 Z M208 196 L-216 241 L216 241 L208 196 Z M225 292 L-199 337 L233 337 L225 292 Z M242 388 L-182 433 L250 433 L242 388 Z M259 484 L-165 529 L266 529 L259 484 Z M191 100 L-233 145 L199 145 L191 100 Z M275 580 L-148 625 L283 625 L275 580 Z " />
<glyph glyph-name="L" unicode="L" horiz-adv-x="622" d="M584 0 L204 0 L314 625 L504 625 L422 160 L612 160 L584 0 Z M174 3 L-250 48 L182 48 L174 3 Z M208 196 L-216 241 L216 241 L208 196 Z M225 292 L-199 337 L233 337 L225 292 Z M242 388 L-182 433 L250 433 L242 388 Z M259 484 L-165 529 L266 529 L259 484 Z M191 100 L-233 145 L199 145 L191 100 Z M275 580 L-148 625 L283 625 L275 580 Z " />
<glyph glyph-name="M" unicode="M" horiz-adv-x="1023" d="M172 3 L-250 48 L182 48 L172 3 Z M194 100 L-227 145 L205 145 L194 100 Z M217 196 L-204 241 L227 241 L217 196 Z M239 292 L-181 337 L250 337 L239 292 Z M262 388 L-158 433 L272 433 L262 388 Z M284 484 L-135 529 L295 529 L284 484 Z M307 580 L-112 625 L317 625 L307 580 Z M400 0 L202 0 L348 625 L596 625 L614 307 L621 307 L751 625 L999 625 L925 0 L726 0 L768 303 L761 303 L636 0 L491 0 L470 303 L465 303 L400 0 Z " />
<glyph glyph-name="N" unicode="N" horiz-adv-x="851" d="M451 222 Q447 229 447 241.5 Q447 254 449 270 L441 270 L394 0 L204 0 L314 625 L493 625 L595 403 Q598 396 598 383.5 Q598 371 596 355 L604 355 L652 625 L842 625 L732 0 L553 0 L451 222 Z M174 3 L-250 48 L182 48 L174 3 Z M208 196 L-216 241 L216 241 L208 196 Z M225 292 L-199 337 L233 337 L225 292 Z M242 388 L-182 433 L250 433 L242 388 Z M259 484 L-165 529 L266 529 L259 484 Z M191 100 L-233 145 L199 145 L191 100 Z M275 580 L-148 625 L283 625 L275 580 Z " />
<glyph glyph-name="O" unicode="O" horiz-adv-x="815" d="M475 156 Q514 156 533 165.5 Q552 175 558 209 L604 469 L524 469 Q486 469 467 459.5 Q448 450 442 416 L396 156 L475 156 Z M557 640 Q684 640 738 590.5 Q792 541 792 438 Q792 335 759.5 222.5 Q727 110 656.5 47.5 Q586 -15 450.5 -15 Q315 -15 261 34.5 Q207 84 207 187 Q207 236 221 316.5 Q235 397 258 455.5 Q281 514 320 557 Q395 640 557 640 Z M192 317 Q190 309 188 295 L-205 337 L195 337 L192 317 Z M181 241 Q178 218 178 199 L-216 241 L181 241 Z M219 433 L207 392 L-181 433 L219 433 Z M179 145 Q183 117 186 103 L-203 145 L179 145 Z M260 529 Q246 503 240 489 L-134 529 L260 529 Z M209 48 Q222 25 239 11 L-107 48 L209 48 Z M355 625 Q326 607 310 592 L4 625 L355 625 Z " />
<glyph glyph-name="P" unicode="P" horiz-adv-x="769" d="M544 151 L420 151 L394 0 L204 0 L314 625 L614 625 Q784 625 784 467 Q784 392 763 331.5 Q742 271 716.5 235.5 Q691 200 646.5 175.5 Q602 151 544 151 Z M492 311 Q526 311 543.5 318.5 Q561 326 566 353 Q579 427 579 434 Q579 453 564 459 Q549 465 519 465 L475 465 L448 311 L492 311 Z M174 3 L-250 48 L182 48 L174 3 Z M208 196 L-216 241 L216 241 L208 196 Z M241 388 L-182 433 L249 433 L241 388 Z M258 484 L-165 529 L266 529 L258 484 Z M191 100 L-233 145 L199 145 L191 100 Z M275 580 L-148 625 L283 625 L275 580 Z M224 292 L-199 337 L232 337 L224 292 Z " />
<glyph glyph-name="Q" unicode="Q" horiz-adv-x="815" d="M207 187 Q207 236 221 316.5 Q235 397 258 455.5 Q281 514 320 557 Q395 640 557 640 Q683 640 737.5 589.5 Q792 539 792 439 Q792 339 763 247.5 Q734 156 693 107 L755 65 L685 -50 L509 -15 L516 23 L431 0 Q310 0 258.5 48.5 Q207 97 207 187 Z M475 156 Q514 156 533 165.5 Q552 175 558 209 L604 469 L524 469 Q486 469 467 459.5 Q448 450 442 416 L396 156 L475 156 Z M195 337 L188 295 L-205 337 L195 337 Z M181 241 Q178 218 178 199 L-216 241 L181 241 Z M219 433 L207 392 L-181 433 L219 433 Z M179 145 Q181 128 187 103 L-203 145 L179 145 Z M260 529 Q246 503 240 489 L-134 529 L260 529 Z M215 48 Q229 33 255 11 L-107 48 L215 48 Z M355 625 Q326 607 310 592 L4 625 L355 625 Z " />
<glyph glyph-name="R" unicode="R" horiz-adv-x="795" d="M614 625 Q785 625 785 472 Q785 409 766 352 Q731 244 656 208 L722 0 L513 0 L467 186 L426 186 L394 0 L204 0 L314 625 L614 625 Z M497 340 Q531 340 548.5 347.5 Q566 355 572.5 390.5 Q579 426 579 434 Q579 454 563.5 459.5 Q548 465 513 465 L475 465 L453 340 L497 340 Z M174 3 L-250 48 L182 48 L174 3 Z M208 196 L-216 241 L216 241 L208 196 Z M241 388 L-182 433 L249 433 L241 388 Z M258 484 L-165 529 L266 529 L258 484 Z M191 100 L-233 145 L199 145 L191 100 Z M275 580 L-148 625 L283 625 L275 580 Z M224 292 L-199 337 L232 337 L224 292 Z " />
<glyph glyph-name="S" unicode="S" horiz-adv-x="798" d="M258 388 L-166 433 L265 433 Q260 413 258 388 Z M292 529 L277 485 L-138 529 L292 529 Z M258 337 Q260 310 266 292 L-157 337 L258 337 Z M398 196 L-131 241 L300 241 Q333 209 398 196 Z M367 625 Q344 610 323 584 L-63 625 L367 625 Z M-148 145 L226 145 L211 101 L-148 145 Z M-165 48 L194 48 L179 4 L-165 48 Z M269 176 Q353 153 422.5 153 Q492 153 536 159 L544 209 L461 217 Q366 226 326.5 260 Q287 294 287 356 Q287 383 293 416 Q316 544 377 592 Q438 640 564.5 640 Q691 640 788 615 L736 455 Q649 470 596.5 470 Q544 470 506 465 L498 416 L565 409 Q667 398 710 360.5 Q753 323 753 260 Q753 196 726 128 Q711 93 694.5 69.5 Q678 46 652.5 29.5 Q627 13 606 4.5 Q585 -4 552 -8 Q506 -15 438 -15 Q314 -15 213 11 L269 176 Z " />
<glyph glyph-name="T" unicode="T" horiz-adv-x="727" d="M736 465 L598 465 L517 0 L327 0 L408 465 L271 465 L300 625 L765 625 L736 465 Z M296 3 L-128 48 L304 48 L296 3 Z M330 196 L-94 241 L338 241 L330 196 Z M347 292 L-77 337 L355 337 L347 292 Z M364 388 L-60 433 L372 433 L364 388 Z M313 100 L-111 145 L321 145 L313 100 Z M244 484 L-180 529 L251 529 L244 484 Z M260 580 L-163 625 L268 625 L260 580 Z " />
<glyph glyph-name="U" unicode="U" horiz-adv-x="814" d="M238 388 L-186 433 L246 433 L238 388 Z M221 292 L-202 337 L229 337 L221 292 Z M272 580 L-151 625 L280 625 L272 580 Z M-168 529 L263 529 L255 484 L-168 529 Z M212 241 Q208 208 207 196 L-216 241 L212 241 Z M205 145 Q205 121 208 100 L-215 145 L205 145 Z M222 48 Q235 20 254 3 L-169 48 L222 48 Z M486 156 Q521 156 536 165.5 Q551 175 557 209 L631 625 L821 625 L759 274 Q744 189 724.5 137 Q705 85 670 49 Q635 13 583.5 -1 Q532 -15 453 -15 Q332 -15 283.5 21.5 Q235 58 235 147 Q235 196 249 274 L311 625 L501 625 L418 156 L486 156 Z " />
<glyph glyph-name="V" unicode="V" horiz-adv-x="793" d="M-146 48 L275 48 L278 3 L-146 48 Z M-152 145 L269 145 L272 100 L-152 145 Z M-175 529 L246 529 L249 484 L-175 529 Z M-169 433 L252 433 L254 388 L-169 433 Z M-180 625 L241 625 L243 580 L-180 625 Z M-163 337 L257 337 L260 292 L-163 337 Z M-157 241 L263 241 L266 196 L-157 241 Z M482 625 L482 228 L491 228 L642 625 L843 625 L586 0 L308 0 L271 625 L482 625 Z " />
<glyph glyph-name="W" unicode="W" horiz-adv-x="993" d="M223 625 L223 580 L-170 625 L223 625 Z M223 529 L223 484 L-170 529 L223 529 Z M223 433 L223 388 L-170 433 L223 433 Z M223 337 L223 292 L-170 337 L223 337 Z M223 241 L223 196 L-170 241 L223 241 Z M223 145 L223 100 L-170 145 L223 145 Z M223 48 L223 3 L-170 48 L223 48 Z M578 0 L578 230 L567 230 L484 0 L253 0 L253 625 L452 625 L434 276 L440 276 L570 625 L721 625 L721 276 L727 276 L834 625 L1033 625 L830 0 L578 0 Z " />
<glyph glyph-name="X" unicode="X" horiz-adv-x="772" d="M284 293 L-127 337 L299 337 L302 324 L284 293 Z M-289 48 L143 48 L118 5 L-289 48 Z M286 388 L-137 433 L275 433 L286 388 Z M229 198 L-177 241 L254 241 L229 198 Z M263 484 L-160 529 L252 529 Q255 514 263 484 Z M240 580 L-183 625 L229 625 Q232 610 240 580 Z M174 102 L-232 145 L199 145 L174 102 Z M476 625 L511 458 L521 458 L616 625 L822 625 L636 323 L712 0 L501 0 L461 180 L453 180 L351 0 L150 0 L334 317 L260 625 L476 625 Z " />
<glyph glyph-name="Y" unicode="Y" horiz-adv-x="654" d="M233 3 L-190 48 L241 48 L233 3 Z M250 100 L-173 145 L257 145 L250 100 Z M257 196 L-167 241 L248 241 L257 196 Z M238 292 L-186 337 L229 337 L238 292 Z M191 529 L200 484 L-223 529 L191 529 Z M210 433 L219 388 L-204 433 L210 433 Z M182 580 L-241 625 L173 625 L182 580 Z M413 625 L426 405 L433 405 L525 625 L735 625 L483 170 L454 0 L264 0 L293 170 L203 625 L413 625 Z " />
<glyph glyph-name="Z" unicode="Z" horiz-adv-x="748" d="M119 3 L-563 48 L127 48 L119 3 Z M136 100 L-288 145 L144 145 L136 100 Z M243 484 L-181 529 L246 529 L243 484 Z M250 580 L-173 625 L253 625 L250 580 Z M-109 337 L323 337 L285 295 L-109 337 Z M-196 241 L236 241 L198 199 L-196 241 Z M-23 433 L409 433 L371 391 L-23 433 Z M662 0 L150 0 L172 125 L473 459 L471 465 L272 465 L283 625 L768 625 L746 500 L447 166 L448 160 L690 160 L662 0 Z " />
<glyph glyph-name="bracketleft" unicode="&#x5b;" horiz-adv-x="557" d="M207 10 Q207 15 209 29 L306 575 Q318 637 376 658 Q434 680 562 680 L545 533 Q542 533 465 526 L386 78 L464 71 L429 -76 Q330 -76 285 -66 Q240 -56 223.5 -37.5 Q207 -19 207 10 Z M177 3 L-250 48 L182 48 Q177 29 177 3 Z M208 196 L-216 241 L216 241 L208 196 Z M225 292 L-199 337 L233 337 L225 292 Z M242 388 L-182 433 L250 433 L242 388 Z M259 484 L-165 529 L266 529 L259 484 Z M191 100 L-233 145 L199 145 L191 100 Z M275 580 L-148 625 L295 625 Q279 610 275 580 Z " />
<glyph glyph-name="backslash" unicode="&#x5c;" horiz-adv-x="503" d="M71 665 Q90 665 98 659.5 Q106 654 114 640 L503 -40 L432 -40 Q413 -40 405 -34.5 Q397 -29 389 -15 L0 665 L71 665 Z " />
<glyph glyph-name="bracketright" unicode="&#x5d;" horiz-adv-x="532" d="M515 594 Q515 589 513 575 L416 29 Q408 -21 368 -43 Q328 -66 287 -70 Q225 -76 160 -76 L177 71 L257 78 L336 526 Q261 533 258 533 L293 680 Q392 680 437 670 Q482 660 498.5 641.5 Q515 623 515 594 Z M139 3 L-210 48 L144 48 L139 3 Z M247 196 L-176 241 L255 241 L247 196 Z M264 292 L-159 337 L272 337 L264 292 Z M280 388 L-142 433 L288 433 L280 388 Z M217 484 L-125 529 L227 529 L217 484 Z M230 100 L-193 145 L238 145 L230 100 Z M239 580 L-108 625 L249 625 L239 580 Z " />
<glyph glyph-name="asciicircum" unicode="&#x5e;" horiz-adv-x="600" d="M528 262 L392 218 L329 442 L323 442 L181 218 L62 262 L265 587 L438 587 L528 262 Z " />
<glyph glyph-name="underscore" unicode="&#x5f;" horiz-adv-x="406" d="M-103 -135 L-410 -81 L-94 -81 L-103 -135 Z M21 15 L373 15 L354 -93 Q349 -120 332.5 -127.5 Q316 -135 282 -135 L-70 -135 L-51 -27 Q-46 0 -29.5 7.5 Q-13 15 21 15 Z " />
<glyph glyph-name="grave" unicode="&#x60;" horiz-adv-x="279" d="M-7 655 Q-11 659 -11 666 Q-11 673 -2 684 L61 758 Q70 769 77 769 Q84 769 90 765 L279 626 L238 569 L64 604 Q48 607 38 616 L-7 655 Z M-37 684 L-432 723 L-8 723 Q-11 719 -18 712 Q-31 697 -37 684 Z M6 603 L-402 642 L-35 642 Q-29 633 6 603 Z " />
<glyph glyph-name="a" unicode="a" horiz-adv-x="758" d="M526 0 L522 81 L396 81 L365 0 L192 0 L414 529 L662 529 L701 0 L526 0 Z M522 224 L522 376 L508 376 L449 224 L522 224 Z M160 4 L-250 48 L179 48 L160 4 Z M201 101 L-209 145 L220 145 L201 101 Z M242 197 L-168 241 L260 241 L242 197 Z M282 293 L-127 337 L301 337 L282 293 Z M323 389 L-86 433 L341 433 L323 389 Z M363 486 L-45 529 L381 529 L363 486 Z " />
<glyph glyph-name="b" unicode="b" horiz-adv-x="714" d="M566 529 Q680 529 680 435 Q680 383 655.5 341 Q631 299 596 283 L595 277 Q661 256 661 186 Q661 98 613.5 49 Q566 0 470 0 L204 0 L296 529 L566 529 Z M470 205 L408 205 L395 131 L457 131 Q492 131 492 182 Q492 205 470 205 Z M496 402 L442 402 L431 338 L486 338 Q516 338 516 382 Q516 402 496 402 Z M172 3 L-252 48 L180 48 L172 3 Z M206 196 L-218 241 L214 241 L206 196 Z M223 292 L-201 337 L231 337 L223 292 Z M240 388 L-184 433 L248 433 L240 388 Z M257 484 L-167 529 L264 529 L257 484 Z M189 100 L-235 145 L197 145 L189 100 Z " />
<glyph glyph-name="c" unicode="c" horiz-adv-x="620" d="M539 11 Q485 -12 389 -12 Q293 -12 247.5 28.5 Q202 69 202 156 Q202 195 214 264 Q239 409 300.5 474 Q362 539 497 539 Q594 539 630 517 L579 378 Q529 392 488 392 Q447 392 430.5 385 Q414 378 410 358 L371 144 Q392 139 443.5 139 Q495 139 555 161 L539 11 Z M179 241 Q175 210 174 199 L-220 241 L179 241 Z M198 337 L189 295 L-202 337 L198 337 Z M173 145 Q173 129 177 103 L-216 145 L173 145 Z M233 433 Q221 407 216 393 L-162 433 L233 433 Z M194 48 Q206 24 220 11 L-129 48 L194 48 Z M320 529 Q296 515 279 496 L-28 529 L320 529 Z " />
<glyph glyph-name="d" unicode="d" horiz-adv-x="775" d="M521 529 Q630 529 677 490 Q724 451 724 365 Q724 324 713 264 Q688 122 626.5 61 Q565 0 428 0 L204 0 L296 529 L521 529 Z M497 383 L439 383 L397 143 L455 143 Q484 143 499.5 150.5 Q515 158 519 181 L548 346 Q549 350 549 362 Q549 383 497 383 Z M171 3 L-253 48 L179 48 L171 3 Z M205 196 L-219 241 L213 241 L205 196 Z M222 292 L-202 337 L230 337 L222 292 Z M239 388 L-185 433 L247 433 L239 388 Z M256 484 L-168 529 L263 529 L256 484 Z M188 100 L-236 145 L196 145 L188 100 Z " />
<glyph glyph-name="e" unicode="e" horiz-adv-x="656" d="M559 215 L410 215 L398 147 L583 147 L557 0 L204 0 L296 529 L648 529 L601 379 L438 379 L426 311 L576 311 L559 215 Z M171 3 L-253 48 L179 48 L171 3 Z M205 196 L-219 241 L213 241 L205 196 Z M222 292 L-202 337 L230 337 L222 292 Z M239 388 L-185 433 L247 433 L239 388 Z M256 484 L-168 529 L263 529 L256 484 Z M188 100 L-236 145 L196 145 L188 100 Z " />
<glyph glyph-name="f" unicode="f" horiz-adv-x="591" d="M538 192 L406 192 L372 0 L204 0 L296 529 L629 529 L583 379 L438 379 L426 311 L558 311 L538 192 Z M172 3 L-252 48 L180 48 L172 3 Z M206 196 L-218 241 L214 241 L206 196 Z M223 292 L-201 337 L231 337 L223 292 Z M240 388 L-184 433 L248 433 L240 388 Z M257 484 L-167 529 L264 529 L257 484 Z M189 100 L-235 145 L197 145 L189 100 Z " />
<glyph glyph-name="g" unicode="g" horiz-adv-x="696" d="M605 28 Q503 -12 397 -12 Q291 -12 246 29.5 Q201 71 201 158 Q201 201 215 281 Q229 361 258 418 Q321 539 513 539 Q625 539 669 517 L618 378 Q555 392 504.5 392 Q454 392 433 385 Q412 378 408 358 L366 128 L412 128 Q437 128 450.5 133.5 Q464 139 467 158 L474 197 L433 197 L453 311 L655 311 L605 28 Z M177 241 Q173 210 172 199 L-222 241 L177 241 Z M196 337 L187 295 L-204 337 L196 337 Z M171 145 Q171 129 175 103 L-218 145 L171 145 Z M231 433 Q219 407 214 393 L-164 433 L231 433 Z M192 48 Q204 24 218 11 L-131 48 L192 48 Z M318 529 Q294 515 277 496 L-30 529 L318 529 Z " />
<glyph glyph-name="h" unicode="h" horiz-adv-x="772" d="M485 0 L516 183 L404 183 L372 0 L204 0 L296 529 L465 529 L432 346 L545 346 L577 529 L746 529 L653 0 L485 0 Z M171 3 L-253 48 L179 48 L171 3 Z M205 196 L-219 241 L213 241 L205 196 Z M222 292 L-202 337 L230 337 L222 292 Z M239 388 L-185 433 L247 433 L239 388 Z M256 484 L-168 529 L263 529 L256 484 Z M188 100 L-236 145 L196 145 L188 100 Z " />
<glyph glyph-name="i" unicode="i" horiz-adv-x="489" d="M204 0 L296 529 L472 529 L379 0 L204 0 Z M171 3 L-253 48 L179 48 L171 3 Z M205 196 L-219 241 L213 241 L205 196 Z M222 292 L-202 337 L230 337 L222 292 Z M239 388 L-185 433 L247 433 L239 388 Z M256 484 L-168 529 L263 529 L256 484 Z M188 100 L-236 145 L196 145 L188 100 Z " />
<glyph glyph-name="j" unicode="j" horiz-adv-x="534" d="M273 143 Q307 143 310 163 L347 379 L282 379 L309 529 L542 529 L474 141 Q448 0 321 0 L176 0 L202 143 L273 143 Z M145 3 L-279 48 L153 48 L145 3 Z M285 196 L-139 241 L293 241 L285 196 Z M302 292 L-122 337 L310 337 L302 292 Z M252 388 L-172 433 L260 433 L252 388 Z M270 484 L-154 529 L277 529 L270 484 Z M163 100 L-261 145 L171 145 L163 100 Z " />
<glyph glyph-name="k" unicode="k" horiz-adv-x="697" d="M455 0 L408 173 L402 173 L372 0 L204 0 L296 529 L465 529 L436 367 L441 367 L544 529 L727 529 L559 270 L638 0 L455 0 Z M171 3 L-253 48 L179 48 L171 3 Z M205 196 L-219 241 L213 241 L205 196 Z M222 292 L-202 337 L230 337 L222 292 Z M239 388 L-185 433 L247 433 L239 388 Z M256 484 L-168 529 L263 529 L256 484 Z M188 100 L-236 145 L196 145 L188 100 Z " />
<glyph glyph-name="l" unicode="l" horiz-adv-x="567" d="M529 0 L204 0 L296 529 L472 529 L405 147 L555 147 L529 0 Z M171 3 L-253 48 L179 48 L171 3 Z M205 196 L-219 241 L213 241 L205 196 Z M222 292 L-202 337 L230 337 L222 292 Z M239 388 L-185 433 L247 433 L239 388 Z M256 484 L-168 529 L263 529 L256 484 Z M188 100 L-236 145 L196 145 L188 100 Z " />
<glyph glyph-name="m" unicode="m" horiz-adv-x="901" d="M575 0 L443 0 L428 215 L423 215 L375 0 L204 0 L325 529 L542 529 L557 281 L561 281 L662 529 L879 529 L815 0 L643 0 L670 215 L665 215 L575 0 Z M171 3 L-253 48 L181 48 L171 3 Z M193 100 L-230 145 L204 145 L193 100 Z M216 196 L-207 241 L226 241 L216 196 Z M236 292 L-184 337 L247 337 L236 292 Z M259 388 L-161 433 L269 433 L259 388 Z M281 484 L-138 529 L292 529 L281 484 Z " />
<glyph glyph-name="n" unicode="n" horiz-adv-x="769" d="M514 0 L411 198 L407 198 L372 0 L204 0 L296 529 L432 529 L536 332 L542 332 L576 529 L743 529 L650 0 L514 0 Z M171 3 L-253 48 L179 48 L171 3 Z M205 196 L-219 241 L213 241 L205 196 Z M222 292 L-202 337 L230 337 L222 292 Z M239 388 L-185 433 L247 433 L239 388 Z M256 484 L-168 529 L263 529 L256 484 Z M188 100 L-236 145 L196 145 L188 100 Z " />
<glyph glyph-name="o" unicode="o" horiz-adv-x="759" d="M509 539 Q617 539 663 497.5 Q709 456 709 368 Q709 325 698 264 Q673 120 610 54 Q547 -12 412 -12 Q306 -12 261 29.5 Q216 71 216 158 Q216 203 227 264 Q252 408 314 473.5 Q376 539 509 539 Z M441 140 Q470 140 484.5 147 Q499 154 504 178 L542 387 L481 387 Q453 387 437.5 380 Q422 373 419 350 L382 140 L441 140 Z M192 241 Q188 210 187 199 L-207 241 L192 241 Z M211 337 L202 295 L-189 337 L211 337 Z M186 145 Q186 129 190 103 L-203 145 L186 145 Z M246 433 Q234 407 229 393 L-149 433 L246 433 Z M207 48 Q219 24 233 11 L-116 48 L207 48 Z M333 529 Q309 515 292 496 L-15 529 L333 529 Z " />
<glyph glyph-name="p" unicode="p" horiz-adv-x="695" d="M491 124 L394 124 L372 0 L204 0 L296 529 L550 529 Q695 529 695 392 Q695 330 677 278 Q659 226 638 196 Q617 166 578.5 145 Q540 124 491 124 Z M513 356 Q513 357 514 362 Q514 383 471 383 L439 383 L418 259 L449 259 Q472 259 485 264.5 Q498 270 501 288 L513 356 Z M171 3 L-253 48 L179 48 L171 3 Z M205 196 L-219 241 L213 241 L205 196 Z M222 292 L-202 337 L230 337 L222 292 Z M239 388 L-185 433 L247 433 L239 388 Z M256 484 L-168 529 L263 529 L256 484 Z M188 100 L-236 145 L196 145 L188 100 Z " />
<glyph glyph-name="q" unicode="q" horiz-adv-x="733" d="M202 155 Q202 200 213 264 Q238 408 300.5 473.5 Q363 539 496 539 Q604 539 650 497.5 Q696 456 696 368 Q696 193 612 95 L656 63 L596 -42 L440 -10 L446 26 L371 1 Q280 1 241 37.5 Q202 74 202 155 Z M428 140 Q457 140 471.5 147 Q486 154 491 178 L529 387 L468 387 Q440 387 424.5 380 Q409 373 406 350 L369 140 L428 140 Z M178 241 Q174 210 173 199 L-221 241 L178 241 Z M197 337 L188 295 L-203 337 L197 337 Z M172 145 Q172 129 176 103 L-217 145 L172 145 Z M232 433 Q220 407 215 393 L-163 433 L232 433 Z M193 48 Q205 24 219 11 L-130 48 L193 48 Z M319 529 Q295 515 278 496 L-29 529 L319 529 Z " />
<glyph glyph-name="r" unicode="r" horiz-adv-x="721" d="M550 529 Q696 529 696 397 Q696 337 672 272.5 Q648 208 591 176 L648 0 L461 0 L423 154 L399 154 L372 0 L204 0 L296 529 L550 529 Z M513 356 Q513 357 514 366 Q514 383 461 383 L439 383 L423 291 L455 291 Q501 291 507 321 L513 356 Z M171 3 L-253 48 L179 48 L171 3 Z M205 196 L-219 241 L213 241 L205 196 Z M222 292 L-202 337 L230 337 L222 292 Z M239 388 L-185 433 L247 433 L239 388 Z M256 484 L-168 529 L263 529 L256 484 Z M188 100 L-236 145 L196 145 L188 100 Z " />
<glyph glyph-name="s" unicode="s" horiz-adv-x="718" d="M-238 48 L194 48 L180 3 L-238 48 Z M270 433 Q264 417 257 388 L-161 433 L270 433 Z M245 300 L245 292 L-179 337 L247 337 Q245 313 245 300 Z M212 101 L-205 145 L226 145 L212 101 Z M339 529 Q312 509 298 487 L-92 529 L339 529 Z M254 241 Q263 215 283 196 L-140 241 L254 241 Z M653 372 Q585 388 537 388 Q489 388 466 385 L461 356 L511 350 Q672 329 672 217 Q672 204 666 168.5 Q660 133 646 100 Q632 67 610.5 46.5 Q589 26 568.5 13.5 Q548 1 516 -4 Q466 -12 382.5 -12 Q299 -12 214 11 L263 159 Q341 137 399.5 137 Q458 137 482 140 L487 172 L424 179 Q343 188 309 217 Q275 246 275 300 Q275 320 280 350 Q300 457 352 498 Q404 539 510.5 539 Q617 539 701 518 L653 372 Z " />
<glyph glyph-name="t" unicode="t" horiz-adv-x="623" d="M627 379 L519 379 L453 0 L277 0 L343 379 L232 379 L259 529 L654 529 L627 379 Z M247 3 L-177 48 L255 48 L247 3 Z M281 196 L-143 241 L289 241 L281 196 Z M298 292 L-126 337 L306 337 L298 292 Z M202 388 L-222 433 L210 433 L202 388 Z M219 484 L-205 529 L226 529 L219 484 Z M264 100 L-160 145 L272 145 L264 100 Z " />
<glyph glyph-name="u" unicode="u" horiz-adv-x="727" d="M205 196 L-219 241 L213 241 L205 196 Z M222 292 L-202 337 L230 337 L222 292 Z M239 388 L-185 433 L247 433 L239 388 Z M256 484 L-168 529 L263 529 L256 484 Z M201 145 L201 125 Q201 108 202 100 L-222 145 L201 145 Z M240 3 L-184 48 L211 48 Q222 20 240 3 Z M445 140 Q472 140 482.5 146.5 Q493 153 497 178 L560 529 L728 529 L676 231 Q652 91 598.5 39.5 Q545 -12 416 -12 Q313 -12 272 18.5 Q231 49 231 125 Q231 167 242 231 L295 529 L463 529 L395 140 L445 140 Z " />
<glyph glyph-name="v" unicode="v" horiz-adv-x="725" d="M459 529 L459 227 L463 227 L579 529 L760 529 L546 0 L303 0 L274 529 L459 529 Z M-151 48 L267 48 L270 3 L-151 48 Z M-157 145 L262 145 L264 100 L-157 145 Z M-180 529 L241 529 L244 484 L-180 529 Z M-174 433 L247 433 L249 388 L-174 433 Z M-168 337 L251 337 L254 292 L-168 337 Z M-162 241 L256 241 L259 196 L-162 241 Z " />
<glyph glyph-name="w" unicode="w" horiz-adv-x="959" d="M253 0 L253 529 L435 529 L435 243 L440 243 L552 529 L704 529 L704 243 L708 243 L800 529 L991 529 L796 0 L579 0 L564 187 L557 187 L480 0 L253 0 Z M220 529 L220 484 L-173 529 L220 529 Z M220 433 L220 388 L-173 433 L220 433 Z M220 337 L220 292 L-173 337 L220 337 Z M220 241 L220 196 L-173 241 L220 241 Z M220 145 L220 100 L-173 145 L220 145 Z M220 48 L220 3 L-173 48 L220 48 Z " />
<glyph glyph-name="x" unicode="x" horiz-adv-x="703" d="M140 48 L112 5 L-292 48 L140 48 Z M267 241 L239 198 L-165 241 L267 241 Z M-228 145 L204 145 L176 102 L-228 145 Z M221 484 L-203 529 L207 529 L221 484 Z M-143 337 L266 337 L280 292 L-143 337 Z M-172 433 L237 433 L251 388 L-172 433 Z M438 529 L464 411 L473 411 L544 529 L736 529 L561 267 L644 0 L448 0 L417 124 L408 124 L334 0 L144 0 L319 267 L237 529 L438 529 Z " />
<glyph glyph-name="y" unicode="y" horiz-adv-x="635" d="M234 3 L-190 48 L242 48 L234 3 Z M251 100 L-173 145 L259 145 L251 100 Z M211 388 L-213 433 L202 433 L211 388 Z M191 484 L-233 529 L182 529 L191 484 Z M231 292 L-193 337 L222 337 L231 292 Z M251 196 L-173 241 L241 241 L251 196 Z M384 529 L406 337 L412 337 L495 529 L670 529 L458 151 L433 0 L264 0 L290 151 L212 529 L384 529 Z " />
<glyph glyph-name="z" unicode="z" horiz-adv-x="666" d="M120 3 L-304 48 L128 48 L120 3 Z M223 388 L-201 433 L226 433 L223 388 Z M230 484 L-194 529 L233 529 L230 484 Z M159 145 L141 124 L137 101 L-273 145 L159 145 Z M333 337 L296 295 L-99 337 L333 337 Z M-185 241 L247 241 L209 199 L-185 241 Z M586 0 L151 0 L170 111 L410 377 L408 383 L253 383 L263 529 L675 529 L655 418 L414 149 L416 143 L610 143 L586 0 Z " />
<glyph glyph-name="braceleft" unicode="&#x7b;" horiz-adv-x="557" d="M207 10 Q207 18 260 229 L200 245 L220 357 L285 373 L306 575 Q314 647 393 666 Q434 675 468.5 677.5 Q503 680 562 680 L545 533 Q542 533 465 526 L453 409 Q448 366 431.5 344 Q415 322 387 307 L385 295 Q422 267 422 218 Q422 201 415 175 L386 78 L464 71 L429 -76 Q330 -76 285 -66 Q240 -56 223.5 -37.5 Q207 -19 207 10 Z M177 3 L-250 48 L183 48 Q177 26 177 3 Z M220 196 L-216 241 L169 241 L166 223 L223 208 L220 196 Z M178 292 L-199 337 L186 337 L178 292 Z M258 397 L232 391 L-182 433 L262 433 L258 397 Z M267 484 L-165 529 L271 529 L267 484 Z M196 100 L-233 145 L207 145 L196 100 Z M276 580 L-148 625 L292 625 Q280 610 276 580 Z " />
<glyph glyph-name="bar" unicode="&#x7c;" horiz-adv-x="522" d="M187 -79 L325 704 L439 704 L301 -79 L187 -79 Z M171 3 L-253 48 L179 48 L171 3 Z M205 196 L-219 241 L213 241 L205 196 Z M222 292 L-202 337 L230 337 L222 292 Z M239 388 L-185 433 L247 433 L239 388 Z M256 484 L-168 529 L263 529 L256 484 Z M188 100 L-236 145 L196 145 L188 100 Z M272 580 L-151 625 L280 625 L272 580 Z " />
<glyph glyph-name="braceright" unicode="&#x7d;" horiz-adv-x="533" d="M515 594 Q515 586 462 375 L522 359 L502 247 L437 231 L416 29 Q408 -43 329 -62 Q288 -71 253.5 -73.5 Q219 -76 160 -76 L177 71 L257 78 L269 195 Q274 238 290.5 260 Q307 282 335 297 L337 309 Q300 337 300 386 Q300 403 307 429 L336 526 L258 533 L293 680 Q392 680 437 670 Q482 660 498.5 641.5 Q515 623 515 594 Z M139 3 L-210 48 L144 48 L139 3 Z M290 475 L-125 529 L226 529 L221 506 L297 499 L290 475 Z M239 580 L-108 625 L249 625 L239 580 Z M300 302 L286 293 L-159 337 L279 337 Q287 317 300 302 Z M239 197 L-176 241 L248 241 Q240 218 239 197 Z M230 106 L-193 145 L234 145 L230 106 Z M270 388 L-142 433 L277 433 Q270 407 270 388 Z " />
<glyph glyph-name="asciitilde" unicode="&#x7e;" horiz-adv-x="600" d="M383 203 Q348 203 315 219.5 Q282 236 256.5 252 Q231 268 212 268 Q174 268 108 202 L23 293 Q107 390 163 412 Q189 423 220 423 Q251 423 305.5 388.5 Q360 354 389 354 Q435 354 492 420 L578 330 Q488 203 383 203 Z " />
<glyph glyph-name="nbspace" unicode="&#xa0;" horiz-adv-x="200" d="" />
<glyph glyph-name="exclamdown" unicode="&#xa1;" horiz-adv-x="587" d="M294 268 L-129 313 L305 313 L294 268 Z M248 76 L-174 121 L258 121 L248 76 Z M-150 217 L282 217 L271 172 L-150 217 Z M-197 25 L235 25 L224 -19 L-197 25 Z M211 -72 Q206 -92 206 -100 Q206 -108 209 -117 L-220 -72 L211 -72 Z M301 409 Q301 382 313 364 L-112 409 L301 409 Z M324 505 Q311 488 305 461 L-95 505 L324 505 Z M415 -117 L267 -117 Q236 -117 236 -97 Q236 -92 237 -90 L342 338 L503 338 L456 -90 Q452 -117 415 -117 Z M549 464 Q549 407 518 383 Q487 359 430 359 Q373 359 352 371.5 Q331 384 331 412 Q331 468 357.5 491.5 Q384 515 445.5 515 Q507 515 528 503.5 Q549 492 549 464 Z " />
<glyph glyph-name="cent" unicode="&#xa2;" horiz-adv-x="637" d="M497 351 Q479 351 466.5 348.5 Q454 346 442 334.5 Q430 323 425 302 L400 189 Q423 186 461 186 Q499 186 547 201 L527 56 Q476 36 419 35 L397 -64 L275 -64 L298 44 Q203 67 203 172 Q203 233 221 292.5 Q239 352 259 390 Q279 428 315 460 Q351 492 397 504 L417 600 L539 600 L520 513 Q573 508 616 496 L563 351 L497 351 Z M383 580 L-40 625 L391 625 L383 580 Z M174 196 L-250 241 L179 241 L174 196 Z M204 337 Q198 322 190 292 L-228 337 L204 337 Z M252 433 Q245 423 226 390 L-180 433 L252 433 Z M175 145 Q177 116 183 100 L-239 145 L175 145 Z M264 23 L260 3 L-163 48 L219 48 Q238 31 264 23 Z M372 529 L372 525 Q333 513 305 490 L-58 529 L372 529 Z " />
<glyph glyph-name="sterling" unicode="&#xa3;" horiz-adv-x="794" d="M224 292 L-200 337 L232 337 L224 292 Z M174 3 L-250 48 L182 48 L174 3 Z M363 529 Q349 501 344 485 L-67 529 L363 529 Z M-104 433 L328 433 L319 399 L243 399 L-104 433 Z M271 232 L260 196 L-159 241 L215 241 L214 232 L271 232 Z M445 625 Q423 608 400 584 L14 625 L445 625 Z M193 118 L191 104 L-195 145 L235 145 L193 118 Z M685 160 L685 0 L204 0 L221 100 L274 135 L311 262 L250 262 L269 369 L341 369 L362 443 Q418 641 600 641 Q696 641 774 622 L720 477 L627 477 Q595 477 576 468 Q557 459 549 428 L533 369 L677 369 L649 262 L505 262 L478 160 L685 160 Z " />
<glyph glyph-name="yen" unicode="&#xa5;" horiz-adv-x="695" d="M413 625 L424 391 L430 391 L525 625 L725 625 L589 369 L652 369 L633 262 L532 262 L505 212 L624 212 L605 105 L472 105 L454 0 L264 0 L282 105 L149 105 L168 212 L286 212 L278 262 L177 262 L196 369 L259 369 L212 625 L413 625 Z M234 4 L-180 48 L241 48 L234 4 Z M120 101 L-163 145 L127 145 L120 101 Z M143 241 L136 198 L-146 241 L143 241 Z M161 337 L154 298 L-129 337 L161 337 Z M218 433 L225 398 L-112 433 L218 433 Z M200 529 L206 498 L-95 529 L200 529 Z M182 625 L187 597 L-78 625 L182 625 Z " />
<glyph glyph-name="brokenbar" unicode="&#xa6;" horiz-adv-x="522" d="M279 447 L325 704 L439 704 L393 447 L279 447 Z M187 -79 L228 156 L342 156 L301 -79 L187 -79 Z M171 3 L-253 48 L179 48 L171 3 Z M256 484 L-168 529 L263 529 L256 484 Z M188 100 L-236 145 L196 145 L188 100 Z M272 580 L-151 625 L280 625 L272 580 Z " />
<glyph glyph-name="section" unicode="&#xa7;" horiz-adv-x="761" d="M182 48 L167 3 L-250 48 L182 48 Z M197 196 L-227 241 L201 241 Q197 211 197 196 Z M233 388 L-191 433 L235 433 Q233 419 233 388 Z M234 337 Q226 322 215 293 L-197 337 L234 337 Z M260 529 Q247 497 244 485 L-171 529 L260 529 Z M202 145 Q208 119 224 100 L-198 145 L202 145 Z M368 625 Q331 611 303 586 L-58 625 L368 625 Z M537 203 Q545 253 545 264 Q545 290 504 290 L395 290 Q387 240 387 228 Q387 203 428 203 L537 203 Z M227 190 Q227 231 241 273.5 Q255 316 273 342 Q263 361 263 404.5 Q263 448 278.5 490 Q294 532 317.5 556.5 Q341 581 378 595 Q439 618 540 618 Q641 618 727 593 L684 466 L469 466 L463 432 Q592 432 644 400 Q696 368 696 306 Q696 264 682 222.5 Q668 181 649 155 Q660 132 660 87 Q660 42 642.5 0 Q625 -42 598.5 -64.5 Q572 -87 532 -100 Q471 -121 365 -121 Q259 -121 165 -91 L208 31 L463 31 L469 65 Q336 65 281.5 95 Q227 125 227 190 Z " />
<glyph glyph-name="dieresis" unicode="&#xa8;" horiz-adv-x="430" d="M262 630 Q262 689 282.5 713.5 Q303 738 345.5 738 Q388 738 402.5 727 Q417 716 417 690 Q417 631 396.5 606.5 Q376 582 333.5 582 Q291 582 276.5 593 Q262 604 262 630 Z M54 630 Q54 689 74.5 713.5 Q95 738 137.5 738 Q180 738 194.5 727 Q209 716 209 690 Q209 631 188 606.5 Q167 582 125 582 Q83 582 68.5 593 Q54 604 54 630 Z M41 723 Q32 706 27 677 L-275 723 L41 723 Z M24 630 Q24 612 27 598 L-275 644 L24 644 L24 630 Z " />
<glyph glyph-name="copyright" unicode="&#xa9;" horiz-adv-x="788" d="M469 344 L499 341 Q537 341 573 355 L564 268 Q529 254 476 254 Q423 254 397 277.5 Q371 301 371 351 Q371 376 377 411 Q392 494 427 531 Q462 568 539 568 Q589 568 615 554 L587 476 Q560 483 535 483 Q510 483 501 479 Q492 475 490 464 L469 344 Z M252 333 Q252 472 318 562 Q351 609 409 635.5 Q467 662 545 662 Q649 662 697.5 619.5 Q746 577 746 499.5 Q746 422 730.5 364.5 Q715 307 682 260 Q649 213 591.5 186 Q534 159 456 159 Q350 159 301 202 Q252 245 252 333 Z M537 616 Q413 616 356.5 545.5 Q300 475 300 336 Q300 264 338.5 234.5 Q377 205 464 205 Q588 205 643.5 276 Q699 347 699 487 Q699 558 660.5 587 Q622 616 537 616 Z M231 433 L224 388 L-200 433 L231 433 Z M222 337 L222 333 Q222 318 224 292 L-200 337 L222 337 Z M261 529 Q253 512 244 485 L-170 529 L261 529 Z M334 625 Q313 607 294 583 L-96 625 L334 625 Z M236 241 Q247 213 262 196 L-161 241 L236 241 Z " />
<glyph glyph-name="ordfeminine" unicode="&#xaa;" horiz-adv-x="633" d="M269 300 L592 300 L579 222 Q576 202 564 196.5 Q552 191 527 191 L204 191 L218 271 Q221 291 232.5 295.5 Q244 300 269 300 Z M362 344 Q228 344 228 489 Q228 604 289.5 687 Q351 770 460 770 Q553 770 660 738 L594 356 L517 356 L481 402 Q429 344 362 344 Z M406 461 Q439 461 450.5 469 Q462 477 464 490 L493 653 L469 653 Q442 653 428 646.5 Q414 640 410 619 L383 461 L406 461 Z M174 196 L-250 241 L182 241 L174 196 Z M198 489 L198 484 L-226 529 L200 529 Q198 516 198 489 Z M221 625 Q216 610 208 580 L-209 625 L221 625 Z M203 433 Q208 409 218 388 L-205 433 L203 433 Z M269 330 Q236 330 219.5 325 Q203 320 194 300 L-151 337 L266 337 Q271 333 279 330 L269 330 Z " />
<glyph glyph-name="guillemotleft" unicode="&#xab;" horiz-adv-x="767" d="M124 228 L-200 273 L132 273 L124 228 Z M155 328 L-126 369 L205 369 L155 328 Z M273 424 L-8 465 L323 465 L273 424 Z M-154 177 L130 177 L169 132 L-154 177 Z M-69 80 L214 80 L254 35 L-69 80 Z M167 300 L382 475 L450 424 L325 250 L389 76 L303 25 L150 200 L167 300 Z M404 300 L620 475 L687 424 L562 250 L626 76 L541 25 L382 200 L404 300 Z " />
<glyph glyph-name="logicalnot" unicode="&#xac;" horiz-adv-x="600" d="M72 240 L97 384 L530 384 L480 100 L352 100 L377 240 L72 240 Z " />
<glyph glyph-name="registered" unicode="&#xae;" horiz-adv-x="788" d="M252 333 Q252 472 318 562 Q351 609 409 635.5 Q467 662 545 662 Q649 662 697.5 619.5 Q746 577 746 499.5 Q746 422 730.5 364.5 Q715 307 682 260 Q649 213 591.5 186 Q534 159 456 159 Q350 159 301 202 Q252 245 252 333 Z M537 616 Q413 616 356.5 545.5 Q300 475 300 336 Q300 264 338.5 234.5 Q377 205 464 205 Q588 205 643.5 276 Q699 347 699 487 Q699 558 660.5 587 Q622 616 537 616 Z M554 561 Q638 561 638 487 Q638 451 624 414 Q610 377 578 360 L610 261 L503 261 L481 348 L470 348 L455 261 L358 261 L411 561 L554 561 Z M500 428 Q516 428 522 430.5 Q528 433 531 448.5 Q534 464 534 468 Q534 478 509 478 L493 478 L484 428 L500 428 Z M231 433 L224 388 L-200 433 L231 433 Z M222 337 L222 333 Q222 318 224 292 L-200 337 L222 337 Z M261 529 Q253 512 244 485 L-170 529 L261 529 Z M334 625 Q313 607 294 583 L-96 625 L334 625 Z M236 241 Q247 213 262 196 L-161 241 L236 241 Z " />
<glyph glyph-name="overscore" unicode="&#xaf;" horiz-adv-x="399" d="M101 596 Q76 596 66.5 603 Q57 610 57 625.5 Q57 641 61 660 L72 723 L307 723 Q332 723 341 717 Q350 711 350 699.5 Q350 688 346 660 L335 596 L101 596 Z M34 684 L-326 723 L41 723 L34 684 Z M28 642 Q27 638 27 625.5 Q27 613 30 601 L-330 642 L28 642 Z " />
<glyph glyph-name="degree" unicode="&#xb0;" horiz-adv-x="578" d="M204 477 Q204 576 254.5 640 Q305 704 406 704 Q478 704 511 674.5 Q544 645 544 585 Q544 486 494 421.5 Q444 357 344 357 Q271 357 237.5 386.5 Q204 416 204 477 Z M362 461 Q383 461 393.5 462.5 Q404 464 414.5 473 Q425 482 428 500 L445 600 L391 600 Q367 600 355.5 598.5 Q344 597 333.5 588.5 Q323 580 320 562 L302 461 L362 461 Z M174 484 L-250 529 L177 529 Q174 506 174 484 Z M207 625 Q194 601 189 581 L-224 625 L207 625 Z M178 433 Q183 406 194 388 L-229 433 L178 433 Z " />
<glyph glyph-name="plusminus" unicode="&#xb1;" horiz-adv-x="600" d="M91 341 L116 485 L264 485 L292 640 L428 640 L400 485 L549 485 L524 341 L375 341 L347 185 L211 185 L239 341 L91 341 Z M31 0 L56 144 L489 144 L464 0 L31 0 Z " />
<glyph glyph-name="twosuperior" unicode="&#xb2;" horiz-adv-x="400" d="M85 724 Q153 741 218.5 741 Q284 741 310 736 Q336 731 355.5 710.5 Q375 690 375 652 Q375 643 371 613 Q361 554 327 530 Q293 506 180 468 L176 448 L336 448 L318 343 L12 343 L26 425 Q35 471 48.5 487 Q62 503 68 511 Q74 519 93.5 529.5 Q113 540 120 544 Q127 548 155 560 Q183 572 192 576 L232 594 L238 629 Q217 631 184 631 Q151 631 84 616 L85 724 Z " />
<glyph glyph-name="threesuperior" unicode="&#xb3;" horiz-adv-x="400" d="M235 628 Q213 631 174.5 631 Q136 631 84 616 L85 724 Q153 741 226 741 Q299 741 332.5 726 Q366 711 366 665 Q366 588 308 550 Q343 529 343 486 Q343 478 339 452 Q335 426 321 402 Q307 378 290.5 365 Q274 352 248 345 Q208 334 142.5 334 Q77 334 13 351 L50 460 Q112 444 149 444 Q186 444 203 446 L211 492 L115 503 L127 572 L227 584 L235 628 Z " />
<glyph glyph-name="acute" unicode="&#xb4;" horiz-adv-x="429" d="M229 765 Q235 769 242 769 Q249 769 258 758 L321 684 Q330 674 330 667.5 Q330 661 327.5 657.5 Q325 654 281 616 Q271 607 255 604 L81 569 L40 626 L229 765 Z M67 684 L-293 723 L120 723 L67 684 Z M-44 603 L-404 642 L9 642 L-44 603 Z " />
<glyph glyph-name="mu" unicode="&#xb5;" horiz-adv-x="784" d="M446 131 Q480 131 497 138.5 Q514 146 519 173 L583 529 L775 544 L679 0 L584 0 L550 43 Q507 0 426 0 L358 0 L297 -165 L174 -165 L298 529 L488 529 L417 131 L446 131 Z M171 3 L-253 48 L179 48 L171 3 Z M205 196 L-219 241 L213 241 L205 196 Z M222 292 L-202 337 L230 337 L222 292 Z M239 388 L-185 433 L247 433 L239 388 Z M256 484 L-168 529 L263 529 L256 484 Z M188 100 L-236 145 L196 145 L188 100 Z " />
<glyph glyph-name="paragraph" unicode="&#xb6;" horiz-adv-x="766" d="M283 100 L-141 145 L291 145 L283 100 Z M266 3 L-158 48 L274 48 L266 3 Z M187 388 L-237 433 L192 433 Q188 403 187 388 Z M224 529 Q212 507 205 485 L-207 529 L224 529 Z M186 337 Q188 311 193 292 L-230 337 L186 337 Z M322 625 Q290 608 267 585 L-106 625 L322 625 Z M218 241 Q244 210 294 196 L-124 241 L218 241 Z M216 359 Q216 468 270 542 Q298 581 347.5 603 Q397 625 464 625 L767 625 L738 465 L690 465 L608 0 Q579 -165 437 -165 L157 -165 L166 -114 L368 -55 Q415 -42 420 -12 L505 465 L477 465 L396 0 L293 -25 L335 218 Q216 236 216 359 Z " />
<glyph glyph-name="middot" unicode="&#xb7;" horiz-adv-x="325" d="M72 338 Q66 318 63 293 L-159 338 L72 338 Z M70 196 L-154 241 L59 241 Q61 212 70 196 Z M93 292 Q103 351 128.5 375 Q154 399 209.5 399 Q265 399 284.5 384 Q304 369 304 341 Q304 313 300 292 Q290 233 264.5 210 Q239 187 183.5 187 Q128 187 108.5 201.5 Q89 216 89 243.5 Q89 271 93 292 Z " />
<glyph glyph-name="cedilla" unicode="&#xb8;" horiz-adv-x="469" d="M326 -64 Q326 -105 294 -135 Q262 -165 208.5 -165 Q155 -165 109 -146 L135 -58 L166 -58 Q186 -58 192.5 -52.5 Q199 -47 203 -26 L211 21 L269 21 Q326 -3 326 -64 Z M94 -89 L-88 -58 L103 -58 L94 -89 Z M73 -161 L-101 -130 L82 -130 L73 -161 Z " />
<glyph glyph-name="onesuperior" unicode="&#xb9;" horiz-adv-x="400" d="M316 343 L37 343 L55 448 L136 448 L162 596 L70 591 L90 700 L220 732 L319 732 L269 448 L334 448 L316 343 Z " />
<glyph glyph-name="ordmasculine" unicode="&#xba;" horiz-adv-x="633" d="M237 490 Q237 611 298.5 690.5 Q360 770 483 770 Q572 770 613.5 733.5 Q655 697 655 623 Q655 503 593 423.5 Q531 344 408 344 Q319 344 278 380.5 Q237 417 237 490 Z M415 461 Q442 461 456 467.5 Q470 474 473 495 L501 653 L477 653 Q450 653 436 646.5 Q422 640 419 619 L391 461 L415 461 Z M269 300 L592 300 L579 222 Q576 202 564 196.5 Q552 191 527 191 L204 191 L218 271 Q221 291 232.5 295.5 Q244 300 269 300 Z M174 196 L-250 241 L182 241 L174 196 Z M228 625 Q220 598 216 580 L-203 625 L228 625 Z M207 490 L207 484 L-217 529 L208 529 Q207 516 207 490 Z M213 433 Q220 405 230 388 L-193 433 L213 433 Z M269 330 Q247 330 236 329 Q206 326 195 302 L-129 337 L286 337 Q292 333 302 330 L269 330 Z " />
<glyph glyph-name="guillemotright" unicode="&#xbb;" horiz-adv-x="758" d="M563 475 L716 300 L699 200 L484 25 L416 76 L542 250 L477 424 L563 475 Z M326 475 L479 300 L462 200 L247 25 L179 76 L305 250 L240 424 L326 475 Z M252 228 L-150 273 L265 273 L272 255 L252 228 Z M245 328 L-76 369 L229 369 L245 328 Z M208 424 L42 465 L249 465 L203 438 L208 424 Z M-104 177 L215 177 L182 132 L-104 177 Z M-19 80 L145 80 L138 70 L184 35 L-19 80 Z " />
<glyph glyph-name="onequarter" unicode="&#xbc;" horiz-adv-x="971" d="M377 -40 L326 -40 L595 640 Q600 650 604 654 Q615 665 638 665 L689 665 L420 -15 Q415 -25 411 -29 Q400 -40 377 -40 Z M728 0 L738 60 L563 60 L578 144 L710 389 L923 389 L883 160 L920 160 L902 60 L865 60 L855 0 L728 0 Z M756 160 L780 295 L763 295 L696 160 L756 160 Z M342 227 L63 227 L81 332 L162 332 L188 480 L96 475 L116 584 L246 616 L345 616 L295 332 L360 332 L342 227 Z " />
<glyph glyph-name="onehalf" unicode="&#xbd;" horiz-adv-x="971" d="M347 -40 L296 -40 L565 640 Q570 650 574 654 Q585 665 608 665 L659 665 L390 -15 Q385 -25 381 -29 Q370 -40 347 -40 Z M642 381 Q710 398 775.5 398 Q841 398 867 393 Q893 388 912.5 367.5 Q932 347 932 309 Q932 300 928 270 Q918 211 884 187 Q850 163 737 125 L733 105 L893 105 L875 0 L569 0 L583 82 Q592 128 605.5 144 Q619 160 625 168 Q631 176 650.5 186.5 Q670 197 677 201 Q684 205 712 217 Q740 229 749 233 L789 251 L795 286 Q774 288 741 288 Q708 288 641 273 L642 381 Z M322 227 L43 227 L61 332 L142 332 L168 480 L76 475 L96 584 L226 616 L325 616 L275 332 L340 332 L322 227 Z " />
<glyph glyph-name="threequarters" unicode="&#xbe;" horiz-adv-x="971" d="M358 -40 L307 -40 L576 640 Q581 650 585 654 Q596 665 619 665 L670 665 L401 -15 Q396 -25 392 -29 Q381 -40 358 -40 Z M728 0 L738 60 L563 60 L578 144 L710 389 L923 389 L883 160 L920 160 L902 60 L865 60 L855 0 L728 0 Z M756 160 L780 295 L763 295 L696 160 L756 160 Z M251 512 Q229 515 190.5 515 Q152 515 100 500 L101 608 Q169 625 242 625 Q315 625 348.5 610 Q382 595 382 549 Q382 472 324 434 Q359 413 359 370 Q359 362 355 336 Q351 310 337 286 Q323 262 306.5 249 Q290 236 264 229 Q224 218 158.5 218 Q93 218 29 235 L66 344 Q128 328 165 328 Q202 328 219 330 L227 376 L131 387 L143 456 L243 468 L251 512 Z " />
<glyph glyph-name="questiondown" unicode="&#xbf;" horiz-adv-x="610" d="M112 49 L106 4 L-318 49 L112 49 Z M328 292 L-90 337 L341 337 L328 292 Z M332 433 L332 412 Q332 395 334 388 L-90 433 L332 433 Z M161 145 Q142 125 131 102 L-271 145 L161 145 Z M387 529 Q356 514 345 487 L-43 529 L387 529 Z M310 230 Q267 215 242 202 L-119 241 L313 241 L310 230 Z M330 21 Q354 19 386 19 Q418 19 471.5 25.5 Q525 32 546 39 L544 -104 Q435 -132 341 -132 Q249 -132 208 -117 Q167 -102 151.5 -77.5 Q136 -53 136 -15 Q136 70 181.5 121.5 Q227 173 334 206 L373 333 L535 333 L515 145 Q513 127 500 117 Q487 107 444 92 L336 55 L330 21 Z M580 464 Q580 408 549.5 383.5 Q519 359 461.5 359 Q404 359 383 371.5 Q362 384 362 412 Q362 468 389 491.5 Q416 515 477 515 Q538 515 559 503.5 Q580 492 580 464 Z " />
<glyph glyph-name="Agrave" unicode="&#xc0;" horiz-adv-x="851" d="M392 0 L192 0 L455 625 L749 625 L793 0 L592 0 L588 99 L431 99 L392 0 Z M573 258 L573 433 L563 433 L493 258 L573 258 Z M160 4 L-250 48 L179 48 L160 4 Z M201 101 L-209 145 L220 145 L201 101 Z M242 197 L-168 241 L260 241 L242 197 Z M282 293 L-127 337 L301 337 L282 293 Z M323 389 L-86 433 L341 433 L323 389 Z M404 582 L-4 625 L422 625 L404 582 Z M363 486 L-45 529 L381 529 L363 486 Z M404 582 L422 625 L-4 625 L404 582 Z M485 765 Q481 769 481 776 Q481 783 490 794 L553 868 Q562 879 569 879 Q576 879 582 875 L771 736 L730 679 L556 714 Q540 717 530 726 L485 765 Z M455 794 L60 833 L484 833 Q481 829 474 822 Q461 807 455 794 Z M498 713 L90 752 L457 752 Q463 743 498 713 Z " />
<glyph glyph-name="Aacute" unicode="&#xc1;" horiz-adv-x="851" d="M392 0 L192 0 L455 625 L749 625 L793 0 L592 0 L588 99 L431 99 L392 0 Z M573 258 L573 433 L563 433 L493 258 L573 258 Z M160 4 L-250 48 L179 48 L160 4 Z M201 101 L-209 145 L220 145 L201 101 Z M242 197 L-168 241 L260 241 L242 197 Z M282 293 L-127 337 L301 337 L282 293 Z M323 389 L-86 433 L341 433 L323 389 Z M404 582 L-4 625 L422 625 L404 582 Z M363 486 L-45 529 L381 529 L363 486 Z M404 582 L422 625 L-4 625 L404 582 Z M681 875 Q687 879 694 879 Q701 879 710 868 L773 794 Q782 784 782 777.5 Q782 771 779.5 767.5 Q777 764 733 726 Q723 717 707 714 L533 679 L492 736 L681 875 Z M519 794 L159 833 L572 833 L519 794 Z M408 713 L48 752 L461 752 L408 713 Z " />
<glyph glyph-name="Acircumflex" unicode="&#xc2;" horiz-adv-x="851" d="M392 0 L192 0 L455 625 L749 625 L793 0 L592 0 L588 99 L431 99 L392 0 Z M573 258 L573 433 L563 433 L493 258 L573 258 Z M160 4 L-250 48 L179 48 L160 4 Z M201 101 L-209 145 L220 145 L201 101 Z M242 197 L-168 241 L260 241 L242 197 Z M282 293 L-127 337 L301 337 L282 293 Z M323 389 L-86 433 L341 433 L323 389 Z M404 582 L-4 625 L422 625 L404 582 Z M363 486 L-45 529 L381 529 L363 486 Z M404 582 L422 625 L-4 625 L404 582 Z M621 880 L666 880 Q674 880 679 871 L762 726 L696 677 L618 740 L519 677 L471 726 L603 871 Q610 880 621 880 Z M492 794 L169 833 L527 833 L492 794 Z M418 713 L88 752 L454 752 L418 713 Z " />
<glyph glyph-name="Atilde" unicode="&#xc3;" horiz-adv-x="851" d="M392 0 L192 0 L455 625 L749 625 L793 0 L592 0 L588 99 L431 99 L392 0 Z M573 258 L573 433 L563 433 L493 258 L573 258 Z M160 4 L-250 48 L179 48 L160 4 Z M201 101 L-209 145 L220 145 L201 101 Z M242 197 L-168 241 L260 241 L242 197 Z M282 293 L-127 337 L301 337 L282 293 Z M323 389 L-86 433 L341 433 L323 389 Z M404 582 L-4 625 L422 625 L404 582 Z M363 486 L-45 529 L381 529 L363 486 Z M404 582 L422 625 L-4 625 L404 582 Z M680 816 L766 856 L799 775 Q670 694 655.5 688.5 Q641 683 628.5 683 Q616 683 608 685 Q600 687 592 692.5 Q584 698 579 702 Q571 707 550 728 L465 688 L431 769 Q560 850 574.5 855.5 Q589 861 601.5 861 Q614 861 622 859 Q630 857 638 851.5 Q646 846 651 842 Q659 837 680 816 Z M477 833 L405 787 L111 833 L477 833 Z M405 754 L424 708 L111 754 L405 754 Z " />
<glyph glyph-name="Adieresis" unicode="&#xc4;" horiz-adv-x="851" d="M392 0 L192 0 L455 625 L749 625 L793 0 L592 0 L588 99 L431 99 L392 0 Z M573 258 L573 433 L563 433 L493 258 L573 258 Z M160 4 L-250 48 L179 48 L160 4 Z M201 101 L-209 145 L220 145 L201 101 Z M242 197 L-168 241 L260 241 L242 197 Z M282 293 L-127 337 L301 337 L282 293 Z M323 389 L-86 433 L341 433 L323 389 Z M404 582 L-4 625 L422 625 L404 582 Z M363 486 L-45 529 L381 529 L363 486 Z M404 582 L422 625 L-4 625 L404 582 Z M636 740 Q636 799 656.5 823.5 Q677 848 719.5 848 Q762 848 776.5 837 Q791 826 791 800 Q791 741 770.5 716.5 Q750 692 707.5 692 Q665 692 650.5 703 Q636 714 636 740 Z M428 740 Q428 799 448.5 823.5 Q469 848 511.5 848 Q554 848 568.5 837 Q583 826 583 800 Q583 741 562 716.5 Q541 692 499 692 Q457 692 442.5 703 Q428 714 428 740 Z M415 833 Q406 816 401 787 L99 833 L415 833 Z M398 740 Q398 722 401 708 L99 754 L398 754 L398 740 Z " />
<glyph glyph-name="Aring" unicode="&#xc5;" horiz-adv-x="851" d="M392 0 L192 0 L455 625 L749 625 L793 0 L592 0 L588 99 L431 99 L392 0 Z M573 258 L573 433 L563 433 L493 258 L573 258 Z M160 4 L-250 48 L179 48 L160 4 Z M201 101 L-209 145 L220 145 L201 101 Z M242 197 L-168 241 L260 241 L242 197 Z M282 293 L-127 337 L301 337 L282 293 Z M323 389 L-86 433 L341 433 L323 389 Z M404 582 L-4 625 L422 625 L404 582 Z M363 486 L-45 529 L381 529 L363 486 Z M404 582 L422 625 L-4 625 L404 582 Z M616 736 Q643 736 650.5 743 Q658 750 660 762 L672 829 L635 829 Q606 829 598 822 Q590 815 588 804 L576 736 L616 736 Z M645 898 Q738 898 738 818 Q738 744 703 705.5 Q668 667 604 667 Q511 667 511 747 Q511 821 546 859.5 Q581 898 645 898 Z M484 787 L186 833 L494 833 Q486 807 484 787 Z M481 747 Q481 726 486 708 L188 754 L481 754 L481 747 Z " />
<glyph glyph-name="AE" unicode="&#xc6;" horiz-adv-x="1010" d="M392 0 L192 0 L455 625 L1016 625 L964 465 L760 465 L766 381 L935 381 L909 236 L776 236 L782 160 L982 160 L954 0 L592 0 L588 99 L431 99 L392 0 Z M160 4 L-250 48 L179 48 L160 4 Z M201 101 L-209 145 L220 145 L201 101 Z M242 197 L-168 241 L260 241 L242 197 Z M282 293 L-127 337 L301 337 L282 293 Z M323 389 L-86 433 L341 433 L323 389 Z M404 582 L-4 625 L422 625 L404 582 Z M363 486 L-45 529 L381 529 L363 486 Z M573 258 L573 433 L563 433 L493 258 L573 258 Z " />
<glyph glyph-name="Ccedilla" unicode="&#xc7;" horiz-adv-x="683" d="M192 317 Q190 309 188 295 L-205 337 L195 337 L192 317 Z M181 241 Q178 218 178 199 L-216 241 L181 241 Z M219 433 L207 392 L-181 433 L219 433 Z M179 145 Q183 117 186 103 L-203 145 L179 145 Z M260 529 Q246 503 240 489 L-134 529 L260 529 Z M209 48 Q222 25 239 11 L-107 48 L209 48 Z M355 625 Q326 607 310 592 L4 625 L355 625 Z M443 -15 Q541 -15 605 11 L621 179 Q554 155 473 155 Q435 155 399 163 L445 425 Q450 455 472 465 Q494 475 545.5 475 Q597 475 656 461 L712 614 Q690 625 642.5 632.5 Q595 640 558 640 Q399 640 325.5 562 Q252 484 222 312 Q208 228 208 185 Q208 83 262.5 34 Q317 -15 443 -15 Z M485 -64 Q485 -105 453 -135 Q421 -165 367.5 -165 Q314 -165 268 -146 L294 -58 L325 -58 Q345 -58 351.5 -52.5 Q358 -47 362 -26 L370 21 L428 21 Q485 -3 485 -64 Z M253 -89 L71 -58 L262 -58 L253 -89 Z M232 -161 L58 -130 L241 -130 L232 -161 Z " />
<glyph glyph-name="Egrave" unicode="&#xc8;" horiz-adv-x="726" d="M625 236 L435 236 L422 160 L655 160 L627 0 L204 0 L314 625 L732 625 L680 465 L475 465 L461 381 L651 381 L625 236 Z M174 3 L-250 48 L182 48 L174 3 Z M208 196 L-216 241 L216 241 L208 196 Z M225 292 L-199 337 L233 337 L225 292 Z M242 388 L-182 433 L250 433 L242 388 Z M259 484 L-165 529 L266 529 L259 484 Z M191 100 L-233 145 L199 145 L191 100 Z M275 580 L-148 625 L283 625 L275 580 Z M383 765 Q379 769 379 776 Q379 783 388 794 L451 868 Q460 879 467 879 Q474 879 480 875 L669 736 L628 679 L454 714 Q438 717 428 726 L383 765 Z M353 794 L-42 833 L382 833 Q379 829 372 822 Q359 807 353 794 Z M396 713 L-12 752 L355 752 Q361 743 396 713 Z " />
<glyph glyph-name="Eacute" unicode="&#xc9;" horiz-adv-x="726" d="M625 236 L435 236 L422 160 L655 160 L627 0 L204 0 L314 625 L732 625 L680 465 L475 465 L461 381 L651 381 L625 236 Z M174 3 L-250 48 L182 48 L174 3 Z M208 196 L-216 241 L216 241 L208 196 Z M225 292 L-199 337 L233 337 L225 292 Z M242 388 L-182 433 L250 433 L242 388 Z M259 484 L-165 529 L266 529 L259 484 Z M191 100 L-233 145 L199 145 L191 100 Z M275 580 L-148 625 L283 625 L275 580 Z M597 875 Q603 879 610 879 Q617 879 626 868 L689 794 Q698 784 698 777.5 Q698 771 695.5 767.5 Q693 764 649 726 Q639 717 623 714 L449 679 L408 736 L597 875 Z M435 794 L75 833 L488 833 L435 794 Z M324 713 L-36 752 L377 752 L324 713 Z " />
<glyph glyph-name="Ecircumflex" unicode="&#xca;" horiz-adv-x="726" d="M625 236 L435 236 L422 160 L655 160 L627 0 L204 0 L314 625 L732 625 L680 465 L475 465 L461 381 L651 381 L625 236 Z M174 3 L-250 48 L182 48 L174 3 Z M208 196 L-216 241 L216 241 L208 196 Z M225 292 L-199 337 L233 337 L225 292 Z M242 388 L-182 433 L250 433 L242 388 Z M259 484 L-165 529 L266 529 L259 484 Z M191 100 L-233 145 L199 145 L191 100 Z M275 580 L-148 625 L283 625 L275 580 Z M538 880 L583 880 Q591 880 596 871 L679 726 L613 677 L535 740 L436 677 L388 726 L520 871 Q528 880 538 880 Z M409 794 L86 833 L444 833 L409 794 Z M335 713 L5 752 L371 752 L335 713 Z " />
<glyph glyph-name="Edieresis" unicode="&#xcb;" horiz-adv-x="726" d="M625 236 L435 236 L422 160 L655 160 L627 0 L204 0 L314 625 L732 625 L680 465 L475 465 L461 381 L651 381 L625 236 Z M174 3 L-250 48 L182 48 L174 3 Z M208 196 L-216 241 L216 241 L208 196 Z M225 292 L-199 337 L233 337 L225 292 Z M242 388 L-182 433 L250 433 L242 388 Z M259 484 L-165 529 L266 529 L259 484 Z M191 100 L-233 145 L199 145 L191 100 Z M275 580 L-148 625 L283 625 L275 580 Z M574 740 Q574 799 594.5 823.5 Q615 848 657.5 848 Q700 848 714.5 837 Q729 826 729 800 Q729 741 708.5 716.5 Q688 692 645.5 692 Q603 692 588.5 703 Q574 714 574 740 Z M366 740 Q366 799 386.5 823.5 Q407 848 449.5 848 Q492 848 506.5 837 Q521 826 521 800 Q521 741 500 716.5 Q479 692 437 692 Q395 692 380.5 703 Q366 714 366 740 Z M353 833 Q344 816 339 787 L37 833 L353 833 Z M336 740 Q336 722 339 708 L37 754 L336 754 L336 740 Z " />
<glyph glyph-name="Igrave" unicode="&#xcc;" horiz-adv-x="504" d="M204 0 L314 625 L504 625 L394 0 L204 0 Z M174 3 L-250 48 L182 48 L174 3 Z M208 196 L-216 241 L216 241 L208 196 Z M225 292 L-199 337 L233 337 L225 292 Z M242 388 L-182 433 L250 433 L242 388 Z M259 484 L-165 529 L266 529 L259 484 Z M191 100 L-233 145 L199 145 L191 100 Z M275 580 L-148 625 L283 625 L275 580 Z M272 765 Q268 769 268 776 Q268 783 277 794 L340 868 Q349 879 356 879 Q363 879 369 875 L558 736 L517 679 L343 714 Q327 717 317 726 L272 765 Z M242 794 L-153 833 L271 833 Q268 829 261 822 Q248 807 242 794 Z M285 713 L-123 752 L244 752 Q250 743 285 713 Z " />
<glyph glyph-name="Iacute" unicode="&#xcd;" horiz-adv-x="504" d="M204 0 L314 625 L504 625 L394 0 L204 0 Z M174 3 L-250 48 L182 48 L174 3 Z M208 196 L-216 241 L216 241 L208 196 Z M225 292 L-199 337 L233 337 L225 292 Z M242 388 L-182 433 L250 433 L242 388 Z M259 484 L-165 529 L266 529 L259 484 Z M191 100 L-233 145 L199 145 L191 100 Z M275 580 L-148 625 L283 625 L275 580 Z M486 875 Q492 879 499 879 Q506 879 515 868 L578 794 Q587 784 587 777.5 Q587 771 584.5 767.5 Q582 764 538 726 Q528 717 512 714 L338 679 L297 736 L486 875 Z M324 794 L-36 833 L377 833 L324 794 Z M213 713 L-147 752 L266 752 L213 713 Z " />
<glyph glyph-name="Icircumflex" unicode="&#xce;" horiz-adv-x="504" d="M204 0 L314 625 L504 625 L394 0 L204 0 Z M174 3 L-250 48 L182 48 L174 3 Z M208 196 L-216 241 L216 241 L208 196 Z M225 292 L-199 337 L233 337 L225 292 Z M242 388 L-182 433 L250 433 L242 388 Z M259 484 L-165 529 L266 529 L259 484 Z M191 100 L-233 145 L199 145 L191 100 Z M275 580 L-148 625 L283 625 L275 580 Z M427 880 L472 880 Q480 880 485 871 L568 726 L502 677 L424 740 L325 677 L277 726 L409 871 Q416 880 427 880 Z M298 794 L-25 833 L333 833 L298 794 Z M224 713 L-106 752 L260 752 L224 713 Z " />
<glyph glyph-name="Idieresis" unicode="&#xcf;" horiz-adv-x="504" d="M204 0 L314 625 L504 625 L394 0 L204 0 Z M174 3 L-250 48 L182 48 L174 3 Z M208 196 L-216 241 L216 241 L208 196 Z M225 292 L-199 337 L233 337 L225 292 Z M242 388 L-182 433 L250 433 L242 388 Z M259 484 L-165 529 L266 529 L259 484 Z M191 100 L-233 145 L199 145 L191 100 Z M275 580 L-148 625 L283 625 L275 580 Z M463 740 Q463 799 483.5 823.5 Q504 848 546.5 848 Q589 848 603.5 837 Q618 826 618 800 Q618 741 597.5 716.5 Q577 692 534.5 692 Q492 692 477.5 703 Q463 714 463 740 Z M255 740 Q255 799 275.5 823.5 Q296 848 338.5 848 Q381 848 395.5 837 Q410 826 410 800 Q410 741 389 716.5 Q368 692 326 692 Q284 692 269.5 703 Q255 714 255 740 Z M242 833 Q233 816 228 787 L-74 833 L242 833 Z M225 740 Q225 722 228 708 L-74 754 L225 754 L225 740 Z " />
<glyph glyph-name="Eth" unicode="&#xd0;" horiz-adv-x="841" d="M471 255 Q495 255 507.5 261 Q520 267 523 286 L537 363 L363 363 L344 255 L471 255 Z M580 625 Q709 625 763.5 579.5 Q818 534 818 432 Q818 380 806 312 Q776 144 703.5 72 Q631 0 470 0 L204 0 L314 625 L580 625 Z M554 465 L475 465 L422 160 L501 160 Q540 160 559 169.5 Q578 179 584 213 L619 412 Q620 418 620 428 Q620 451 604 458 Q588 465 554 465 Z M174 3 L-250 48 L182 48 L174 3 Z M208 196 L-216 241 L216 241 L208 196 Z M225 292 L-199 337 L233 337 L225 292 Z M242 388 L-182 433 L250 433 L242 388 Z M259 484 L-165 529 L266 529 L259 484 Z M191 100 L-233 145 L199 145 L191 100 Z M275 580 L-148 625 L283 625 L275 580 Z " />
<glyph glyph-name="Ntilde" unicode="&#xd1;" horiz-adv-x="851" d="M451 222 Q447 229 447 241.5 Q447 254 449 270 L441 270 L394 0 L204 0 L314 625 L493 625 L595 403 Q598 396 598 383.5 Q598 371 596 355 L604 355 L652 625 L842 625 L732 0 L553 0 L451 222 Z M174 3 L-250 48 L182 48 L174 3 Z M208 196 L-216 241 L216 241 L208 196 Z M225 292 L-199 337 L233 337 L225 292 Z M242 388 L-182 433 L250 433 L242 388 Z M259 484 L-165 529 L266 529 L259 484 Z M191 100 L-233 145 L199 145 L191 100 Z M275 580 L-148 625 L283 625 L275 580 Z M650 816 L736 856 L769 775 Q640 694 625.5 688.5 Q611 683 598.5 683 Q586 683 578 685 Q570 687 562 692.5 Q554 698 549 702 Q541 707 520 728 L435 688 L401 769 Q530 850 544.5 855.5 Q559 861 571.5 861 Q584 861 592 859 Q600 857 608 851.5 Q616 846 621 842 Q629 837 650 816 Z M447 833 L375 787 L81 833 L447 833 Z M375 754 L394 708 L81 754 L375 754 Z " />
<glyph glyph-name="Ograve" unicode="&#xd2;" horiz-adv-x="815" d="M475 156 Q514 156 533 165.5 Q552 175 558 209 L604 469 L524 469 Q486 469 467 459.5 Q448 450 442 416 L396 156 L475 156 Z M557 640 Q684 640 738 590.5 Q792 541 792 438 Q792 335 759.5 222.5 Q727 110 656.5 47.5 Q586 -15 450.5 -15 Q315 -15 261 34.5 Q207 84 207 187 Q207 236 221 316.5 Q235 397 258 455.5 Q281 514 320 557 Q395 640 557 640 Z M192 317 Q190 309 188 295 L-205 337 L195 337 L192 317 Z M181 241 Q178 218 178 199 L-216 241 L181 241 Z M219 433 L207 392 L-181 433 L219 433 Z M179 145 Q183 117 186 103 L-203 145 L179 145 Z M260 529 Q246 503 240 489 L-134 529 L260 529 Z M209 48 Q222 25 239 11 L-107 48 L209 48 Z M355 625 Q326 607 310 592 L4 625 L355 625 Z M427 765 Q423 769 423 776 Q423 783 432 794 L495 868 Q504 879 511 879 Q518 879 524 875 L713 736 L672 679 L498 714 Q482 717 472 726 L427 765 Z M397 794 L2 833 L426 833 Q423 829 416 822 Q403 807 397 794 Z M440 713 L32 752 L399 752 Q405 743 440 713 Z " />
<glyph glyph-name="Oacute" unicode="&#xd3;" horiz-adv-x="815" d="M475 156 Q514 156 533 165.5 Q552 175 558 209 L604 469 L524 469 Q486 469 467 459.5 Q448 450 442 416 L396 156 L475 156 Z M557 640 Q684 640 738 590.5 Q792 541 792 438 Q792 335 759.5 222.5 Q727 110 656.5 47.5 Q586 -15 450.5 -15 Q315 -15 261 34.5 Q207 84 207 187 Q207 236 221 316.5 Q235 397 258 455.5 Q281 514 320 557 Q395 640 557 640 Z M192 317 Q190 309 188 295 L-205 337 L195 337 L192 317 Z M181 241 Q178 218 178 199 L-216 241 L181 241 Z M219 433 L207 392 L-181 433 L219 433 Z M179 145 Q183 117 186 103 L-203 145 L179 145 Z M260 529 Q246 503 240 489 L-134 529 L260 529 Z M209 48 Q222 25 239 11 L-107 48 L209 48 Z M355 625 Q326 607 310 592 L4 625 L355 625 Z M642 875 Q648 879 655 879 Q662 879 671 868 L734 794 Q743 784 743 777.5 Q743 771 740.5 767.5 Q738 764 694 726 Q684 717 668 714 L494 679 L453 736 L642 875 Z M480 794 L120 833 L533 833 L480 794 Z M369 713 L9 752 L422 752 L369 713 Z " />
<glyph glyph-name="Ocircumflex" unicode="&#xd4;" horiz-adv-x="815" d="M475 156 Q514 156 533 165.5 Q552 175 558 209 L604 469 L524 469 Q486 469 467 459.5 Q448 450 442 416 L396 156 L475 156 Z M557 640 Q684 640 738 590.5 Q792 541 792 438 Q792 335 759.5 222.5 Q727 110 656.5 47.5 Q586 -15 450.5 -15 Q315 -15 261 34.5 Q207 84 207 187 Q207 236 221 316.5 Q235 397 258 455.5 Q281 514 320 557 Q395 640 557 640 Z M192 317 Q190 309 188 295 L-205 337 L195 337 L192 317 Z M181 241 Q178 218 178 199 L-216 241 L181 241 Z M219 433 L207 392 L-181 433 L219 433 Z M179 145 Q183 117 186 103 L-203 145 L179 145 Z M260 529 Q246 503 240 489 L-134 529 L260 529 Z M209 48 Q222 25 239 11 L-107 48 L209 48 Z M355 625 Q326 607 310 592 L4 625 L355 625 Z M573 880 L618 880 Q626 880 631 871 L714 726 L648 677 L570 740 L471 677 L423 726 L555 871 Q562 880 573 880 Z M444 794 L121 833 L479 833 L444 794 Z M370 713 L40 752 L406 752 L370 713 Z " />
<glyph glyph-name="Otilde" unicode="&#xd5;" horiz-adv-x="815" d="M475 156 Q514 156 533 165.5 Q552 175 558 209 L604 469 L524 469 Q486 469 467 459.5 Q448 450 442 416 L396 156 L475 156 Z M557 640 Q684 640 738 590.5 Q792 541 792 438 Q792 335 759.5 222.5 Q727 110 656.5 47.5 Q586 -15 450.5 -15 Q315 -15 261 34.5 Q207 84 207 187 Q207 236 221 316.5 Q235 397 258 455.5 Q281 514 320 557 Q395 640 557 640 Z M192 317 Q190 309 188 295 L-205 337 L195 337 L192 317 Z M181 241 Q178 218 178 199 L-216 241 L181 241 Z M219 433 L207 392 L-181 433 L219 433 Z M179 145 Q183 117 186 103 L-203 145 L179 145 Z M260 529 Q246 503 240 489 L-134 529 L260 529 Z M209 48 Q222 25 239 11 L-107 48 L209 48 Z M355 625 Q326 607 310 592 L4 625 L355 625 Z M647 816 L733 856 L766 775 Q637 694 622.5 688.5 Q608 683 595.5 683 Q583 683 575 685 Q567 687 559 692.5 Q551 698 546 702 Q538 707 517 728 L432 688 L398 769 Q527 850 541.5 855.5 Q556 861 568.5 861 Q581 861 589 859 Q597 857 605 851.5 Q613 846 618 842 Q626 837 647 816 Z M444 833 L372 787 L78 833 L444 833 Z M372 754 L391 708 L78 754 L372 754 Z " />
<glyph glyph-name="Odieresis" unicode="&#xd6;" horiz-adv-x="815" d="M475 156 Q514 156 533 165.5 Q552 175 558 209 L604 469 L524 469 Q486 469 467 459.5 Q448 450 442 416 L396 156 L475 156 Z M557 640 Q684 640 738 590.5 Q792 541 792 438 Q792 335 759.5 222.5 Q727 110 656.5 47.5 Q586 -15 450.5 -15 Q315 -15 261 34.5 Q207 84 207 187 Q207 236 221 316.5 Q235 397 258 455.5 Q281 514 320 557 Q395 640 557 640 Z M192 317 Q190 309 188 295 L-205 337 L195 337 L192 317 Z M181 241 Q178 218 178 199 L-216 241 L181 241 Z M219 433 L207 392 L-181 433 L219 433 Z M179 145 Q183 117 186 103 L-203 145 L179 145 Z M260 529 Q246 503 240 489 L-134 529 L260 529 Z M209 48 Q222 25 239 11 L-107 48 L209 48 Z M355 625 Q326 607 310 592 L4 625 L355 625 Z M618 740 Q618 799 638.5 823.5 Q659 848 701.5 848 Q744 848 758.5 837 Q773 826 773 800 Q773 741 752.5 716.5 Q732 692 689.5 692 Q647 692 632.5 703 Q618 714 618 740 Z M410 740 Q410 799 430.5 823.5 Q451 848 493.5 848 Q536 848 550.5 837 Q565 826 565 800 Q565 741 544 716.5 Q523 692 481 692 Q439 692 424.5 703 Q410 714 410 740 Z M397 833 Q388 816 383 787 L81 833 L397 833 Z M380 740 Q380 722 383 708 L81 754 L380 754 L380 740 Z " />
<glyph glyph-name="multiply" unicode="&#xd7;" horiz-adv-x="600" d="M129 75 L50 177 L202 312 L97 447 L212 549 L316 414 L468 549 L547 447 L396 312 L500 177 L385 75 L281 210 L129 75 Z " />
<glyph glyph-name="Oslash" unicode="&#xd8;" horiz-adv-x="815" d="M697 704 L747 704 L303 -79 L251 -79 L697 704 Z M475 156 Q514 156 533 165.5 Q552 175 558 209 L604 469 L524 469 Q486 469 467 459.5 Q448 450 442 416 L396 156 L475 156 Z M557 640 Q684 640 738 590.5 Q792 541 792 438 Q792 335 759.5 222.5 Q727 110 656.5 47.5 Q586 -15 450.5 -15 Q315 -15 261 34.5 Q207 84 207 187 Q207 236 221 316.5 Q235 397 258 455.5 Q281 514 320 557 Q395 640 557 640 Z M192 317 Q190 309 188 295 L-205 337 L195 337 L192 317 Z M181 241 Q178 218 178 199 L-216 241 L181 241 Z M219 433 L207 392 L-181 433 L219 433 Z M179 145 Q183 117 186 103 L-203 145 L179 145 Z M260 529 Q246 503 240 489 L-134 529 L260 529 Z M209 48 Q222 25 239 11 L-107 48 L209 48 Z M355 625 Q326 607 310 592 L4 625 L355 625 Z " />
<glyph glyph-name="Ugrave" unicode="&#xd9;" horiz-adv-x="814" d="M238 388 L-186 433 L246 433 L238 388 Z M221 292 L-202 337 L229 337 L221 292 Z M272 580 L-151 625 L280 625 L272 580 Z M-168 529 L263 529 L255 484 L-168 529 Z M212 241 Q208 208 207 196 L-216 241 L212 241 Z M205 145 Q205 121 208 100 L-215 145 L205 145 Z M222 48 Q235 20 254 3 L-169 48 L222 48 Z M486 156 Q521 156 536 165.5 Q551 175 557 209 L631 625 L821 625 L759 274 Q744 189 724.5 137 Q705 85 670 49 Q635 13 583.5 -1 Q532 -15 453 -15 Q332 -15 283.5 21.5 Q235 58 235 147 Q235 196 249 274 L311 625 L501 625 L418 156 L486 156 Z M427 765 Q423 769 423 776 Q423 783 432 794 L495 868 Q504 879 511 879 Q518 879 524 875 L713 736 L672 679 L498 714 Q482 717 472 726 L427 765 Z M397 794 L2 833 L426 833 Q423 829 416 822 Q403 807 397 794 Z M440 713 L32 752 L399 752 Q405 743 440 713 Z " />
<glyph glyph-name="Uacute" unicode="&#xda;" horiz-adv-x="814" d="M238 388 L-186 433 L246 433 L238 388 Z M221 292 L-202 337 L229 337 L221 292 Z M272 580 L-151 625 L280 625 L272 580 Z M-168 529 L263 529 L255 484 L-168 529 Z M212 241 Q208 208 207 196 L-216 241 L212 241 Z M205 145 Q205 121 208 100 L-215 145 L205 145 Z M222 48 Q235 20 254 3 L-169 48 L222 48 Z M486 156 Q521 156 536 165.5 Q551 175 557 209 L631 625 L821 625 L759 274 Q744 189 724.5 137 Q705 85 670 49 Q635 13 583.5 -1 Q532 -15 453 -15 Q332 -15 283.5 21.5 Q235 58 235 147 Q235 196 249 274 L311 625 L501 625 L418 156 L486 156 Z M641 875 Q647 879 654 879 Q661 879 670 868 L733 794 Q742 784 742 777.5 Q742 771 739.5 767.5 Q737 764 693 726 Q683 717 667 714 L493 679 L452 736 L641 875 Z M479 794 L119 833 L532 833 L479 794 Z M368 713 L8 752 L421 752 L368 713 Z " />
<glyph glyph-name="Ucircumflex" unicode="&#xdb;" horiz-adv-x="814" d="M238 388 L-186 433 L246 433 L238 388 Z M221 292 L-202 337 L229 337 L221 292 Z M272 580 L-151 625 L280 625 L272 580 Z M-168 529 L263 529 L255 484 L-168 529 Z M212 241 Q208 208 207 196 L-216 241 L212 241 Z M205 145 Q205 121 208 100 L-215 145 L205 145 Z M222 48 Q235 20 254 3 L-169 48 L222 48 Z M486 156 Q521 156 536 165.5 Q551 175 557 209 L631 625 L821 625 L759 274 Q744 189 724.5 137 Q705 85 670 49 Q635 13 583.5 -1 Q532 -15 453 -15 Q332 -15 283.5 21.5 Q235 58 235 147 Q235 196 249 274 L311 625 L501 625 L418 156 L486 156 Z M582 880 L627 880 Q635 880 640 871 L723 726 L657 677 L579 740 L480 677 L432 726 L564 871 Q572 880 582 880 Z M453 794 L130 833 L488 833 L453 794 Z M379 713 L49 752 L415 752 L379 713 Z " />
<glyph glyph-name="Udieresis" unicode="&#xdc;" horiz-adv-x="814" d="M238 388 L-186 433 L246 433 L238 388 Z M221 292 L-202 337 L229 337 L221 292 Z M272 580 L-151 625 L280 625 L272 580 Z M-168 529 L263 529 L255 484 L-168 529 Z M212 241 Q208 208 207 196 L-216 241 L212 241 Z M205 145 Q205 121 208 100 L-215 145 L205 145 Z M222 48 Q235 20 254 3 L-169 48 L222 48 Z M486 156 Q521 156 536 165.5 Q551 175 557 209 L631 625 L821 625 L759 274 Q744 189 724.5 137 Q705 85 670 49 Q635 13 583.5 -1 Q532 -15 453 -15 Q332 -15 283.5 21.5 Q235 58 235 147 Q235 196 249 274 L311 625 L501 625 L418 156 L486 156 Z M618 740 Q618 799 638.5 823.5 Q659 848 701.5 848 Q744 848 758.5 837 Q773 826 773 800 Q773 741 752.5 716.5 Q732 692 689.5 692 Q647 692 632.5 703 Q618 714 618 740 Z M410 740 Q410 799 430.5 823.5 Q451 848 493.5 848 Q536 848 550.5 837 Q565 826 565 800 Q565 741 544 716.5 Q523 692 481 692 Q439 692 424.5 703 Q410 714 410 740 Z M397 833 Q388 816 383 787 L81 833 L397 833 Z M380 740 Q380 722 383 708 L81 754 L380 754 L380 740 Z " />
<glyph glyph-name="Yacute" unicode="&#xdd;" horiz-adv-x="654" d="M233 3 L-190 48 L241 48 L233 3 Z M250 100 L-173 145 L257 145 L250 100 Z M257 196 L-167 241 L248 241 L257 196 Z M238 292 L-186 337 L229 337 L238 292 Z M191 529 L200 484 L-223 529 L191 529 Z M210 433 L219 388 L-204 433 L210 433 Z M182 580 L-241 625 L173 625 L182 580 Z M413 625 L426 405 L433 405 L525 625 L735 625 L483 170 L454 0 L264 0 L293 170 L203 625 L413 625 Z M523 875 Q529 879 536 879 Q543 879 552 868 L615 794 Q624 784 624 777.5 Q624 771 621.5 767.5 Q619 764 575 726 Q565 717 549 714 L375 679 L334 736 L523 875 Z M361 794 L1 833 L414 833 L361 794 Z M250 713 L-110 752 L303 752 L250 713 Z " />
<glyph glyph-name="Thorn" unicode="&#xde;" horiz-adv-x="769" d="M174 3 L-250 48 L182 48 L174 3 Z M208 196 L-216 241 L216 241 L208 196 Z M241 388 L-182 433 L249 433 L241 388 Z M258 484 L-165 529 L266 529 L258 484 Z M191 100 L-233 145 L199 145 L191 100 Z M275 580 L-148 625 L283 625 L275 580 Z M224 292 L-199 337 L232 337 L224 292 Z M531 76 L407 76 L394 0 L204 0 L314 625 L504 625 L490 550 L600 550 Q771 550 771 391 Q771 315 749.5 255.5 Q728 196 703 160.5 Q678 125 633 100.5 Q588 76 531 76 Z M479 236 Q513 236 530.5 243.5 Q548 251 553 278 L565 348 Q566 352 566 359 Q566 378 551 384 Q536 390 506 390 L462 390 L435 236 L479 236 Z " />
<glyph glyph-name="germandbls" unicode="&#xdf;" horiz-adv-x="773" d="M570 675 Q755 675 755 550 Q755 449 639 314 Q778 314 778 198 Q778 101 720 43 Q662 -15 560.5 -15 Q459 -15 428 -1 L472 141 Q511 130 532 130 Q553 130 568 134 L574 166 Q519 166 498.5 183 Q478 200 478 244 Q478 288 518.5 373 Q559 458 559 487 Q559 519 519 519 Q504 519 484 515 L394 0 L204 0 L269 370 L222 370 L245 500 L292 500 L309 560 Q331 636 404 657 Q466 675 570 675 Z M174 3 L-250 48 L182 48 L174 3 Z M208 196 L-216 241 L216 241 L208 196 Z M225 292 L-199 337 L233 337 L225 292 Z M194 388 L-230 433 L202 433 L194 388 Z M212 484 L-212 529 L219 529 L212 484 Z M191 100 L-233 145 L199 145 L191 100 Z M306 625 Q292 603 285 581 L-125 625 L306 625 Z " />
<glyph glyph-name="agrave" unicode="&#xe0;" horiz-adv-x="758" d="M526 0 L522 81 L396 81 L365 0 L192 0 L414 529 L662 529 L701 0 L526 0 Z M522 224 L522 376 L508 376 L449 224 L522 224 Z M160 4 L-250 48 L179 48 L160 4 Z M201 101 L-209 145 L220 145 L201 101 Z M242 197 L-168 241 L260 241 L242 197 Z M282 293 L-127 337 L301 337 L282 293 Z M323 389 L-86 433 L341 433 L323 389 Z M363 486 L-45 529 L381 529 L363 486 Z M389 655 Q385 659 385 666 Q385 673 394 684 L457 758 Q466 769 473 769 Q480 769 486 765 L675 626 L634 569 L460 604 Q444 607 434 616 L389 655 Z M359 684 L-36 723 L388 723 Q385 719 378 712 Q365 697 359 684 Z M402 603 L-6 642 L361 642 Q367 633 402 603 Z " />
<glyph glyph-name="aacute" unicode="&#xe1;" horiz-adv-x="758" d="M526 0 L522 81 L396 81 L365 0 L192 0 L414 529 L662 529 L701 0 L526 0 Z M522 224 L522 376 L508 376 L449 224 L522 224 Z M160 4 L-250 48 L179 48 L160 4 Z M201 101 L-209 145 L220 145 L201 101 Z M242 197 L-168 241 L260 241 L242 197 Z M282 293 L-127 337 L301 337 L282 293 Z M323 389 L-86 433 L341 433 L323 389 Z M363 486 L-45 529 L381 529 L363 486 Z M643 765 Q649 769 656 769 Q663 769 672 758 L735 684 Q744 674 744 667.5 Q744 661 741.5 657.5 Q739 654 695 616 Q685 607 669 604 L495 569 L454 626 L643 765 Z M481 684 L121 723 L534 723 L481 684 Z M370 603 L10 642 L423 642 L370 603 Z " />
<glyph glyph-name="acircumflex" unicode="&#xe2;" horiz-adv-x="758" d="M526 0 L522 81 L396 81 L365 0 L192 0 L414 529 L662 529 L701 0 L526 0 Z M522 224 L522 376 L508 376 L449 224 L522 224 Z M160 4 L-250 48 L179 48 L160 4 Z M201 101 L-209 145 L220 145 L201 101 Z M242 197 L-168 241 L260 241 L242 197 Z M282 293 L-127 337 L301 337 L282 293 Z M323 389 L-86 433 L341 433 L323 389 Z M363 486 L-45 529 L381 529 L363 486 Z M574 770 L619 770 Q627 770 632 761 L715 616 L649 567 L571 630 L472 567 L424 616 L556 761 Q564 770 574 770 Z M445 684 L122 723 L480 723 L445 684 Z M371 603 L41 642 L407 642 L371 603 Z " />
<glyph glyph-name="atilde" unicode="&#xe3;" horiz-adv-x="758" d="M526 0 L522 81 L396 81 L365 0 L192 0 L414 529 L662 529 L701 0 L526 0 Z M522 224 L522 376 L508 376 L449 224 L522 224 Z M160 4 L-250 48 L179 48 L160 4 Z M201 101 L-209 145 L220 145 L201 101 Z M242 197 L-168 241 L260 241 L242 197 Z M282 293 L-127 337 L301 337 L282 293 Z M323 389 L-86 433 L341 433 L323 389 Z M363 486 L-45 529 L381 529 L363 486 Z M634 706 L720 746 L753 665 Q624 584 609.5 578.5 Q595 573 582.5 573 Q570 573 562 575 Q554 577 546 582.5 Q538 588 533 592 Q525 597 504 618 L419 578 L385 659 Q514 740 528.5 745.5 Q543 751 555.5 751 Q568 751 576 749 Q584 747 592 741.5 Q600 736 605 732 Q613 727 634 706 Z M431 723 L359 677 L65 723 L431 723 Z M359 644 L378 598 L65 644 L359 644 Z " />
<glyph glyph-name="adieresis" unicode="&#xe4;" horiz-adv-x="758" d="M526 0 L522 81 L396 81 L365 0 L192 0 L414 529 L662 529 L701 0 L526 0 Z M522 224 L522 376 L508 376 L449 224 L522 224 Z M160 4 L-250 48 L179 48 L160 4 Z M201 101 L-209 145 L220 145 L201 101 Z M242 197 L-168 241 L260 241 L242 197 Z M282 293 L-127 337 L301 337 L282 293 Z M323 389 L-86 433 L341 433 L323 389 Z M363 486 L-45 529 L381 529 L363 486 Z M599 630 Q599 689 619.5 713.5 Q640 738 682.5 738 Q725 738 739.5 727 Q754 716 754 690 Q754 631 733.5 606.5 Q713 582 670.5 582 Q628 582 613.5 593 Q599 604 599 630 Z M391 630 Q391 689 411.5 713.5 Q432 738 474.5 738 Q517 738 531.5 727 Q546 716 546 690 Q546 631 525 606.5 Q504 582 462 582 Q420 582 405.5 593 Q391 604 391 630 Z M378 723 Q369 706 364 677 L62 723 L378 723 Z M361 630 Q361 612 364 598 L62 644 L361 644 L361 630 Z " />
<glyph glyph-name="aring" unicode="&#xe5;" horiz-adv-x="758" d="M526 0 L522 81 L396 81 L365 0 L192 0 L414 529 L662 529 L701 0 L526 0 Z M522 224 L522 376 L508 376 L449 224 L522 224 Z M160 4 L-250 48 L179 48 L160 4 Z M201 101 L-209 145 L220 145 L201 101 Z M242 197 L-168 241 L260 241 L242 197 Z M282 293 L-127 337 L301 337 L282 293 Z M323 389 L-86 433 L341 433 L323 389 Z M363 486 L-45 529 L381 529 L363 486 Z M557 626 Q584 626 591.5 633 Q599 640 601 652 L613 719 L576 719 Q547 719 539 712 Q531 705 529 694 L517 626 L557 626 Z M586 788 Q679 788 679 708 Q679 634 644 595.5 Q609 557 545 557 Q452 557 452 637 Q452 711 487 749.5 Q522 788 586 788 Z M425 677 L127 723 L435 723 Q427 697 425 677 Z M422 637 Q422 616 427 598 L129 644 L422 644 L422 637 Z " />
<glyph glyph-name="ae" unicode="&#xe6;" horiz-adv-x="935" d="M838 215 L685 215 L690 147 L862 147 L836 0 L526 0 L522 81 L396 81 L365 0 L192 0 L414 529 L927 529 L880 379 L673 379 L678 311 L855 311 L838 215 Z M160 4 L-250 48 L179 48 L160 4 Z M201 101 L-209 145 L220 145 L201 101 Z M282 293 L-127 337 L301 337 L282 293 Z M242 197 L-168 241 L260 241 L242 197 Z M323 389 L-86 433 L341 433 L323 389 Z M363 486 L-45 529 L381 529 L363 486 Z M522 224 L522 376 L508 376 L449 224 L522 224 Z " />
<glyph glyph-name="ccedilla" unicode="&#xe7;" horiz-adv-x="620" d="M539 11 L555 161 Q495 139 443.5 139 Q392 139 371 144 L410 358 Q414 378 430.5 385 Q447 392 488 392 Q529 392 579 378 L630 517 Q594 539 497 539 Q362 539 300.5 474 Q239 409 214 264 Q202 195 202 156 Q202 69 247.5 28.5 Q293 -12 389 -12 Q485 -12 539 11 Z M179 241 Q175 210 174 199 L-220 241 L179 241 Z M198 337 L189 295 L-202 337 L198 337 Z M173 145 Q173 129 177 103 L-216 145 L173 145 Z M233 433 Q221 407 216 393 L-162 433 L233 433 Z M194 48 Q206 24 220 11 L-129 48 L194 48 Z M320 529 Q296 515 279 496 L-28 529 L320 529 Z M461 -64 Q461 -105 429 -135 Q397 -165 343.5 -165 Q290 -165 244 -146 L270 -58 L301 -58 Q321 -58 327.5 -52.5 Q334 -47 338 -26 L346 21 L404 21 Q461 -3 461 -64 Z M229 -89 L47 -58 L238 -58 L229 -89 Z M208 -161 L34 -130 L217 -130 L208 -161 Z " />
<glyph glyph-name="egrave" unicode="&#xe8;" horiz-adv-x="656" d="M559 215 L410 215 L398 147 L583 147 L557 0 L204 0 L296 529 L648 529 L601 379 L438 379 L426 311 L576 311 L559 215 Z M171 3 L-253 48 L179 48 L171 3 Z M205 196 L-219 241 L213 241 L205 196 Z M222 292 L-202 337 L230 337 L222 292 Z M239 388 L-185 433 L247 433 L239 388 Z M256 484 L-168 529 L263 529 L256 484 Z M188 100 L-236 145 L196 145 L188 100 Z M338 655 Q334 659 334 666 Q334 673 343 684 L406 758 Q415 769 422 769 Q429 769 435 765 L624 626 L583 569 L409 604 Q393 607 383 616 L338 655 Z M308 684 L-87 723 L337 723 Q334 719 327 712 Q314 697 308 684 Z M351 603 L-57 642 L310 642 Q316 633 351 603 Z " />
<glyph glyph-name="eacute" unicode="&#xe9;" horiz-adv-x="656" d="M559 215 L410 215 L398 147 L583 147 L557 0 L204 0 L296 529 L648 529 L601 379 L438 379 L426 311 L576 311 L559 215 Z M171 3 L-253 48 L179 48 L171 3 Z M205 196 L-219 241 L213 241 L205 196 Z M222 292 L-202 337 L230 337 L222 292 Z M239 388 L-185 433 L247 433 L239 388 Z M256 484 L-168 529 L263 529 L256 484 Z M188 100 L-236 145 L196 145 L188 100 Z M532 765 Q538 769 545 769 Q552 769 561 758 L624 684 Q633 674 633 667.5 Q633 661 630.5 657.5 Q628 654 584 616 Q574 607 558 604 L384 569 L343 626 L532 765 Z M370 684 L10 723 L423 723 L370 684 Z M259 603 L-101 642 L312 642 L259 603 Z " />
<glyph glyph-name="ecircumflex" unicode="&#xea;" horiz-adv-x="656" d="M559 215 L410 215 L398 147 L583 147 L557 0 L204 0 L296 529 L648 529 L601 379 L438 379 L426 311 L576 311 L559 215 Z M171 3 L-253 48 L179 48 L171 3 Z M205 196 L-219 241 L213 241 L205 196 Z M222 292 L-202 337 L230 337 L222 292 Z M239 388 L-185 433 L247 433 L239 388 Z M256 484 L-168 529 L263 529 L256 484 Z M188 100 L-236 145 L196 145 L188 100 Z M483 770 L528 770 Q536 770 541 761 L624 616 L558 567 L480 630 L381 567 L333 616 L465 761 Q472 770 483 770 Z M354 684 L31 723 L389 723 L354 684 Z M280 603 L-50 642 L316 642 L280 603 Z " />
<glyph glyph-name="edieresis" unicode="&#xeb;" horiz-adv-x="656" d="M559 215 L410 215 L398 147 L583 147 L557 0 L204 0 L296 529 L648 529 L601 379 L438 379 L426 311 L576 311 L559 215 Z M171 3 L-253 48 L179 48 L171 3 Z M205 196 L-219 241 L213 241 L205 196 Z M222 292 L-202 337 L230 337 L222 292 Z M239 388 L-185 433 L247 433 L239 388 Z M256 484 L-168 529 L263 529 L256 484 Z M188 100 L-236 145 L196 145 L188 100 Z M508 630 Q508 689 528.5 713.5 Q549 738 591.5 738 Q634 738 648.5 727 Q663 716 663 690 Q663 631 642.5 606.5 Q622 582 579.5 582 Q537 582 522.5 593 Q508 604 508 630 Z M300 630 Q300 689 320.5 713.5 Q341 738 383.5 738 Q426 738 440.5 727 Q455 716 455 690 Q455 631 434 606.5 Q413 582 371 582 Q329 582 314.5 593 Q300 604 300 630 Z M287 723 Q278 706 273 677 L-29 723 L287 723 Z M270 630 Q270 612 273 598 L-29 644 L270 644 L270 630 Z " />
<glyph glyph-name="igrave" unicode="&#xec;" horiz-adv-x="489" d="M204 0 L296 529 L472 529 L379 0 L204 0 Z M171 3 L-253 48 L179 48 L171 3 Z M205 196 L-219 241 L213 241 L205 196 Z M222 292 L-202 337 L230 337 L222 292 Z M239 388 L-185 433 L247 433 L239 388 Z M256 484 L-168 529 L263 529 L256 484 Z M188 100 L-236 145 L196 145 L188 100 Z M254 655 Q250 659 250 666 Q250 673 259 684 L322 758 Q331 769 338 769 Q345 769 351 765 L540 626 L499 569 L325 604 Q309 607 299 616 L254 655 Z M224 684 L-171 723 L253 723 Q250 719 243 712 Q230 697 224 684 Z M267 603 L-141 642 L226 642 Q232 633 267 603 Z " />
<glyph glyph-name="iacute" unicode="&#xed;" horiz-adv-x="489" d="M204 0 L296 529 L472 529 L379 0 L204 0 Z M171 3 L-253 48 L179 48 L171 3 Z M205 196 L-219 241 L213 241 L205 196 Z M222 292 L-202 337 L230 337 L222 292 Z M239 388 L-185 433 L247 433 L239 388 Z M256 484 L-168 529 L263 529 L256 484 Z M188 100 L-236 145 L196 145 L188 100 Z M469 765 Q475 769 482 769 Q489 769 498 758 L561 684 Q570 674 570 667.5 Q570 661 567.5 657.5 Q565 654 521 616 Q511 607 495 604 L321 569 L280 626 L469 765 Z M307 684 L-53 723 L360 723 L307 684 Z M196 603 L-164 642 L249 642 L196 603 Z " />
<glyph glyph-name="icircumflex" unicode="&#xee;" horiz-adv-x="489" d="M204 0 L296 529 L472 529 L379 0 L204 0 Z M171 3 L-253 48 L179 48 L171 3 Z M205 196 L-219 241 L213 241 L205 196 Z M222 292 L-202 337 L230 337 L222 292 Z M239 388 L-185 433 L247 433 L239 388 Z M256 484 L-168 529 L263 529 L256 484 Z M188 100 L-236 145 L196 145 L188 100 Z M400 770 L445 770 Q453 770 458 761 L541 616 L475 567 L397 630 L298 567 L250 616 L382 761 Q390 770 400 770 Z M271 684 L-52 723 L306 723 L271 684 Z M197 603 L-133 642 L233 642 L197 603 Z " />
<glyph glyph-name="idieresis" unicode="&#xef;" horiz-adv-x="489" d="M204 0 L296 529 L472 529 L379 0 L204 0 Z M171 3 L-253 48 L179 48 L171 3 Z M205 196 L-219 241 L213 241 L205 196 Z M222 292 L-202 337 L230 337 L222 292 Z M239 388 L-185 433 L247 433 L239 388 Z M256 484 L-168 529 L263 529 L256 484 Z M188 100 L-236 145 L196 145 L188 100 Z M435 630 Q435 689 455.5 713.5 Q476 738 518.5 738 Q561 738 575.5 727 Q590 716 590 690 Q590 631 569.5 606.5 Q549 582 506.5 582 Q464 582 449.5 593 Q435 604 435 630 Z M227 630 Q227 689 247.5 713.5 Q268 738 310.5 738 Q353 738 367.5 727 Q382 716 382 690 Q382 631 361 606.5 Q340 582 298 582 Q256 582 241.5 593 Q227 604 227 630 Z M214 723 Q205 706 200 677 L-102 723 L214 723 Z M197 630 Q197 612 200 598 L-102 644 L197 644 L197 630 Z " />
<glyph glyph-name="eth" unicode="&#xf0;" horiz-adv-x="775" d="M450 220 Q469 220 478.5 224.5 Q488 229 491 245 L503 306 L363 306 L348 220 L450 220 Z M521 529 Q630 529 677 490 Q724 451 724 365 Q724 324 713 264 Q688 122 626.5 61 Q565 0 428 0 L204 0 L296 529 L521 529 Z M497 383 L439 383 L397 143 L455 143 Q484 143 499.5 150.5 Q515 158 519 181 L548 346 Q549 350 549 362 Q549 383 497 383 Z M171 3 L-253 48 L179 48 L171 3 Z M205 196 L-219 241 L213 241 L205 196 Z M222 292 L-202 337 L230 337 L222 292 Z M239 388 L-185 433 L247 433 L239 388 Z M256 484 L-168 529 L263 529 L256 484 Z M188 100 L-236 145 L196 145 L188 100 Z " />
<glyph glyph-name="ntilde" unicode="&#xf1;" horiz-adv-x="769" d="M514 0 L411 198 L407 198 L372 0 L204 0 L296 529 L432 529 L536 332 L542 332 L576 529 L743 529 L650 0 L514 0 Z M171 3 L-253 48 L179 48 L171 3 Z M205 196 L-219 241 L213 241 L205 196 Z M222 292 L-202 337 L230 337 L222 292 Z M239 388 L-185 433 L247 433 L239 388 Z M256 484 L-168 529 L263 529 L256 484 Z M188 100 L-236 145 L196 145 L188 100 Z M599 706 L685 746 L718 665 Q589 584 574.5 578.5 Q560 573 547.5 573 Q535 573 527 575 Q519 577 511 582.5 Q503 588 498 592 Q490 597 469 618 L384 578 L350 659 Q479 740 493.5 745.5 Q508 751 520.5 751 Q533 751 541 749 Q549 747 557 741.5 Q565 736 570 732 Q578 727 599 706 Z M396 723 L324 677 L30 723 L396 723 Z M324 644 L343 598 L30 644 L324 644 Z " />
<glyph glyph-name="ograve" unicode="&#xf2;" horiz-adv-x="759" d="M509 539 Q617 539 663 497.5 Q709 456 709 368 Q709 325 698 264 Q673 120 610 54 Q547 -12 412 -12 Q306 -12 261 29.5 Q216 71 216 158 Q216 203 227 264 Q252 408 314 473.5 Q376 539 509 539 Z M441 140 Q470 140 484.5 147 Q499 154 504 178 L542 387 L481 387 Q453 387 437.5 380 Q422 373 419 350 L382 140 L441 140 Z M192 241 Q188 210 187 199 L-207 241 L192 241 Z M211 337 L202 295 L-189 337 L211 337 Z M186 145 Q186 129 190 103 L-203 145 L186 145 Z M246 433 Q234 407 229 393 L-149 433 L246 433 Z M207 48 Q219 24 233 11 L-116 48 L207 48 Z M333 529 Q309 515 292 496 L-15 529 L333 529 Z M389 655 Q385 659 385 666 Q385 673 394 684 L457 758 Q466 769 473 769 Q480 769 486 765 L675 626 L634 569 L460 604 Q444 607 434 616 L389 655 Z M359 684 L-36 723 L388 723 Q385 719 378 712 Q365 697 359 684 Z M402 603 L-6 642 L361 642 Q367 633 402 603 Z " />
<glyph glyph-name="oacute" unicode="&#xf3;" horiz-adv-x="759" d="M509 539 Q617 539 663 497.5 Q709 456 709 368 Q709 325 698 264 Q673 120 610 54 Q547 -12 412 -12 Q306 -12 261 29.5 Q216 71 216 158 Q216 203 227 264 Q252 408 314 473.5 Q376 539 509 539 Z M441 140 Q470 140 484.5 147 Q499 154 504 178 L542 387 L481 387 Q453 387 437.5 380 Q422 373 419 350 L382 140 L441 140 Z M192 241 Q188 210 187 199 L-207 241 L192 241 Z M211 337 L202 295 L-189 337 L211 337 Z M186 145 Q186 129 190 103 L-203 145 L186 145 Z M246 433 Q234 407 229 393 L-149 433 L246 433 Z M207 48 Q219 24 233 11 L-116 48 L207 48 Z M333 529 Q309 515 292 496 L-15 529 L333 529 Z M595 765 Q601 769 608 769 Q615 769 624 758 L687 684 Q696 674 696 667.5 Q696 661 693.5 657.5 Q691 654 647 616 Q637 607 621 604 L447 569 L406 626 L595 765 Z M433 684 L73 723 L486 723 L433 684 Z M322 603 L-38 642 L375 642 L322 603 Z " />
<glyph glyph-name="ocircumflex" unicode="&#xf4;" horiz-adv-x="759" d="M509 539 Q617 539 663 497.5 Q709 456 709 368 Q709 325 698 264 Q673 120 610 54 Q547 -12 412 -12 Q306 -12 261 29.5 Q216 71 216 158 Q216 203 227 264 Q252 408 314 473.5 Q376 539 509 539 Z M441 140 Q470 140 484.5 147 Q499 154 504 178 L542 387 L481 387 Q453 387 437.5 380 Q422 373 419 350 L382 140 L441 140 Z M192 241 Q188 210 187 199 L-207 241 L192 241 Z M211 337 L202 295 L-189 337 L211 337 Z M186 145 Q186 129 190 103 L-203 145 L186 145 Z M246 433 Q234 407 229 393 L-149 433 L246 433 Z M207 48 Q219 24 233 11 L-116 48 L207 48 Z M333 529 Q309 515 292 496 L-15 529 L333 529 Z M525 770 L570 770 Q578 770 583 761 L666 616 L600 567 L522 630 L423 567 L375 616 L507 761 Q514 770 525 770 Z M396 684 L73 723 L431 723 L396 684 Z M322 603 L-8 642 L358 642 L322 603 Z " />
<glyph glyph-name="otilde" unicode="&#xf5;" horiz-adv-x="759" d="M509 539 Q617 539 663 497.5 Q709 456 709 368 Q709 325 698 264 Q673 120 610 54 Q547 -12 412 -12 Q306 -12 261 29.5 Q216 71 216 158 Q216 203 227 264 Q252 408 314 473.5 Q376 539 509 539 Z M441 140 Q470 140 484.5 147 Q499 154 504 178 L542 387 L481 387 Q453 387 437.5 380 Q422 373 419 350 L382 140 L441 140 Z M192 241 Q188 210 187 199 L-207 241 L192 241 Z M211 337 L202 295 L-189 337 L211 337 Z M186 145 Q186 129 190 103 L-203 145 L186 145 Z M246 433 Q234 407 229 393 L-149 433 L246 433 Z M207 48 Q219 24 233 11 L-116 48 L207 48 Z M333 529 Q309 515 292 496 L-15 529 L333 529 Z M604 706 L690 746 L723 665 Q594 584 579.5 578.5 Q565 573 552.5 573 Q540 573 532 575 Q524 577 516 582.5 Q508 588 503 592 Q495 597 474 618 L389 578 L355 659 Q484 740 498.5 745.5 Q513 751 525.5 751 Q538 751 546 749 Q554 747 562 741.5 Q570 736 575 732 Q583 727 604 706 Z M401 723 L329 677 L35 723 L401 723 Z M329 644 L348 598 L35 644 L329 644 Z " />
<glyph glyph-name="odieresis" unicode="&#xf6;" horiz-adv-x="759" d="M509 539 Q617 539 663 497.5 Q709 456 709 368 Q709 325 698 264 Q673 120 610 54 Q547 -12 412 -12 Q306 -12 261 29.5 Q216 71 216 158 Q216 203 227 264 Q252 408 314 473.5 Q376 539 509 539 Z M441 140 Q470 140 484.5 147 Q499 154 504 178 L542 387 L481 387 Q453 387 437.5 380 Q422 373 419 350 L382 140 L441 140 Z M192 241 Q188 210 187 199 L-207 241 L192 241 Z M211 337 L202 295 L-189 337 L211 337 Z M186 145 Q186 129 190 103 L-203 145 L186 145 Z M246 433 Q234 407 229 393 L-149 433 L246 433 Z M207 48 Q219 24 233 11 L-116 48 L207 48 Z M333 529 Q309 515 292 496 L-15 529 L333 529 Z M570 630 Q570 689 590.5 713.5 Q611 738 653.5 738 Q696 738 710.5 727 Q725 716 725 690 Q725 631 704.5 606.5 Q684 582 641.5 582 Q599 582 584.5 593 Q570 604 570 630 Z M362 630 Q362 689 382.5 713.5 Q403 738 445.5 738 Q488 738 502.5 727 Q517 716 517 690 Q517 631 496 606.5 Q475 582 433 582 Q391 582 376.5 593 Q362 604 362 630 Z M349 723 Q340 706 335 677 L33 723 L349 723 Z M332 630 Q332 612 335 598 L33 644 L332 644 L332 630 Z " />
<glyph glyph-name="divide" unicode="&#xf7;" horiz-adv-x="600" d="M418 554 L401 457 Q396 428 359 428 L283 428 Q250 428 250 450 Q250 455 267 547 Q272 575 309 575 L385 575 Q418 575 418 554 Z M351 174 L334 77 Q329 48 292 48 L216 48 Q183 48 183 70 Q183 75 200 167 Q205 195 242 195 L318 195 Q351 195 351 174 Z M71 240 L96 384 L529 384 L504 240 L71 240 Z " />
<glyph glyph-name="oslash" unicode="&#xf8;" horiz-adv-x="759" d="M609 655 L649 655 L317 -128 L275 -128 L609 655 Z M509 539 Q617 539 663 497.5 Q709 456 709 368 Q709 325 698 264 Q673 120 610 54 Q547 -12 412 -12 Q306 -12 261 29.5 Q216 71 216 158 Q216 203 227 264 Q252 408 314 473.5 Q376 539 509 539 Z M441 140 Q470 140 484.5 147 Q499 154 504 178 L542 387 L481 387 Q453 387 437.5 380 Q422 373 419 350 L382 140 L441 140 Z M192 241 Q188 210 187 199 L-207 241 L192 241 Z M211 337 L202 295 L-189 337 L211 337 Z M186 145 Q186 129 190 103 L-203 145 L186 145 Z M246 433 Q234 407 229 393 L-149 433 L246 433 Z M207 48 Q219 24 233 11 L-116 48 L207 48 Z M333 529 Q309 515 292 496 L-15 529 L333 529 Z " />
<glyph glyph-name="ugrave" unicode="&#xf9;" horiz-adv-x="727" d="M205 196 L-219 241 L213 241 L205 196 Z M222 292 L-202 337 L230 337 L222 292 Z M239 388 L-185 433 L247 433 L239 388 Z M256 484 L-168 529 L263 529 L256 484 Z M201 145 L201 125 Q201 108 202 100 L-222 145 L201 145 Z M240 3 L-184 48 L211 48 Q222 20 240 3 Z M445 140 Q472 140 482.5 146.5 Q493 153 497 178 L560 529 L728 529 L676 231 Q652 91 598.5 39.5 Q545 -12 416 -12 Q313 -12 272 18.5 Q231 49 231 125 Q231 167 242 231 L295 529 L463 529 L395 140 L445 140 Z M373 655 Q369 659 369 666 Q369 673 378 684 L441 758 Q450 769 457 769 Q464 769 470 765 L659 626 L618 569 L444 604 Q428 607 418 616 L373 655 Z M343 684 L-52 723 L372 723 Q369 719 362 712 Q349 697 343 684 Z M386 603 L-22 642 L345 642 Q351 633 386 603 Z " />
<glyph glyph-name="uacute" unicode="&#xfa;" horiz-adv-x="727" d="M205 196 L-219 241 L213 241 L205 196 Z M222 292 L-202 337 L230 337 L222 292 Z M239 388 L-185 433 L247 433 L239 388 Z M256 484 L-168 529 L263 529 L256 484 Z M201 145 L201 125 Q201 108 202 100 L-222 145 L201 145 Z M240 3 L-184 48 L211 48 Q222 20 240 3 Z M445 140 Q472 140 482.5 146.5 Q493 153 497 178 L560 529 L728 529 L676 231 Q652 91 598.5 39.5 Q545 -12 416 -12 Q313 -12 272 18.5 Q231 49 231 125 Q231 167 242 231 L295 529 L463 529 L395 140 L445 140 Z M589 765 Q595 769 602 769 Q609 769 618 758 L681 684 Q690 674 690 667.5 Q690 661 687.5 657.5 Q685 654 641 616 Q631 607 615 604 L441 569 L400 626 L589 765 Z M427 684 L67 723 L480 723 L427 684 Z M316 603 L-44 642 L369 642 L316 603 Z " />
<glyph glyph-name="ucircumflex" unicode="&#xfb;" horiz-adv-x="727" d="M205 196 L-219 241 L213 241 L205 196 Z M222 292 L-202 337 L230 337 L222 292 Z M239 388 L-185 433 L247 433 L239 388 Z M256 484 L-168 529 L263 529 L256 484 Z M201 145 L201 125 Q201 108 202 100 L-222 145 L201 145 Z M240 3 L-184 48 L211 48 Q222 20 240 3 Z M445 140 Q472 140 482.5 146.5 Q493 153 497 178 L560 529 L728 529 L676 231 Q652 91 598.5 39.5 Q545 -12 416 -12 Q313 -12 272 18.5 Q231 49 231 125 Q231 167 242 231 L295 529 L463 529 L395 140 L445 140 Z M530 770 L575 770 Q583 770 588 761 L671 616 L605 567 L527 630 L428 567 L380 616 L512 761 Q520 770 530 770 Z M401 684 L78 723 L436 723 L401 684 Z M327 603 L-3 642 L363 642 L327 603 Z " />
<glyph glyph-name="udieresis" unicode="&#xfc;" horiz-adv-x="727" d="M205 196 L-219 241 L213 241 L205 196 Z M222 292 L-202 337 L230 337 L222 292 Z M239 388 L-185 433 L247 433 L239 388 Z M256 484 L-168 529 L263 529 L256 484 Z M201 145 L201 125 Q201 108 202 100 L-222 145 L201 145 Z M240 3 L-184 48 L211 48 Q222 20 240 3 Z M445 140 Q472 140 482.5 146.5 Q493 153 497 178 L560 529 L728 529 L676 231 Q652 91 598.5 39.5 Q545 -12 416 -12 Q313 -12 272 18.5 Q231 49 231 125 Q231 167 242 231 L295 529 L463 529 L395 140 L445 140 Z M563 630 Q563 689 583.5 713.5 Q604 738 646.5 738 Q689 738 703.5 727 Q718 716 718 690 Q718 631 697.5 606.5 Q677 582 634.5 582 Q592 582 577.5 593 Q563 604 563 630 Z M355 630 Q355 689 375.5 713.5 Q396 738 438.5 738 Q481 738 495.5 727 Q510 716 510 690 Q510 631 489 606.5 Q468 582 426 582 Q384 582 369.5 593 Q355 604 355 630 Z M342 723 Q333 706 328 677 L26 723 L342 723 Z M325 630 Q325 612 328 598 L26 644 L325 644 L325 630 Z " />
<glyph glyph-name="yacute" unicode="&#xfd;" horiz-adv-x="635" d="M234 3 L-190 48 L242 48 L234 3 Z M251 100 L-173 145 L259 145 L251 100 Z M211 388 L-213 433 L202 433 L211 388 Z M191 484 L-233 529 L182 529 L191 484 Z M231 292 L-193 337 L222 337 L231 292 Z M251 196 L-173 241 L241 241 L251 196 Z M384 529 L406 337 L412 337 L495 529 L670 529 L458 151 L433 0 L264 0 L290 151 L212 529 L384 529 Z M508 765 Q514 769 521 769 Q528 769 537 758 L600 684 Q609 674 609 667.5 Q609 661 606.5 657.5 Q604 654 560 616 Q550 607 534 604 L360 569 L319 626 L508 765 Z M346 684 L-14 723 L399 723 L346 684 Z M235 603 L-125 642 L288 642 L235 603 Z " />
<glyph glyph-name="thorn" unicode="&#xfe;" horiz-adv-x="748" d="M480 62 L383 62 L372 0 L204 0 L295 529 L465 529 L454 467 L539 467 Q684 467 684 330 Q684 268 666 216 Q648 164 627 134 Q606 104 567.5 83 Q529 62 480 62 Z M502 294 Q502 295 503 300 Q503 321 460 321 L428 321 L407 197 L438 197 Q461 197 474 202.5 Q487 208 490 226 L502 294 Z M171 3 L-253 48 L179 48 L171 3 Z M205 196 L-219 241 L213 241 L205 196 Z M222 292 L-202 337 L230 337 L222 292 Z M239 388 L-185 433 L247 433 L239 388 Z M256 484 L-168 529 L263 529 L256 484 Z M188 100 L-236 145 L196 145 L188 100 Z " />
<glyph glyph-name="ydieresis" unicode="&#xff;" horiz-adv-x="635" d="M234 3 L-190 48 L242 48 L234 3 Z M251 100 L-173 145 L259 145 L251 100 Z M211 388 L-213 433 L202 433 L211 388 Z M191 484 L-233 529 L182 529 L191 484 Z M231 292 L-193 337 L222 337 L231 292 Z M251 196 L-173 241 L241 241 L251 196 Z M384 529 L406 337 L412 337 L495 529 L670 529 L458 151 L433 0 L264 0 L290 151 L212 529 L384 529 Z M491 630 Q491 689 511.5 713.5 Q532 738 574.5 738 Q617 738 631.5 727 Q646 716 646 690 Q646 631 625.5 606.5 Q605 582 562.5 582 Q520 582 505.5 593 Q491 604 491 630 Z M283 630 Q283 689 303.5 713.5 Q324 738 366.5 738 Q409 738 423.5 727 Q438 716 438 690 Q438 631 417 606.5 Q396 582 354 582 Q312 582 297.5 593 Q283 604 283 630 Z M270 723 Q261 706 256 677 L-46 723 L270 723 Z M253 630 Q253 612 256 598 L-46 644 L253 644 L253 630 Z " />
<glyph glyph-name="dotlessi" unicode="&#x131;" horiz-adv-x="489" d="M204 0 L296 529 L472 529 L379 0 L204 0 Z M171 3 L-253 48 L179 48 L171 3 Z M205 196 L-219 241 L213 241 L205 196 Z M222 292 L-202 337 L230 337 L222 292 Z M239 388 L-185 433 L247 433 L239 388 Z M256 484 L-168 529 L263 529 L256 484 Z M188 100 L-236 145 L196 145 L188 100 Z " />
<glyph glyph-name="Lslash" unicode="&#x141;" horiz-adv-x="622" d="M564 478 L281 384 L254 234 L546 330 Q596 346 596 366 Q596 377 564 478 Z M584 0 L204 0 L314 625 L504 625 L422 160 L612 160 L584 0 Z M174 3 L-250 48 L182 48 L174 3 Z M208 196 L-216 241 L216 241 L208 196 Z M225 292 L-199 337 L233 337 L225 292 Z M242 388 L-182 433 L250 433 L242 388 Z M259 484 L-165 529 L266 529 L259 484 Z M191 100 L-233 145 L199 145 L191 100 Z M275 580 L-148 625 L283 625 L275 580 Z " />
<glyph glyph-name="lslash" unicode="&#x142;" horiz-adv-x="567" d="M545 326 Q545 330 519 411 L293 336 L271 216 L505 293 Q545 305 545 326 Z M529 0 L204 0 L296 529 L472 529 L405 147 L555 147 L529 0 Z M171 3 L-253 48 L179 48 L171 3 Z M205 196 L-219 241 L213 241 L205 196 Z M222 292 L-202 337 L230 337 L222 292 Z M239 388 L-185 433 L247 433 L239 388 Z M256 484 L-168 529 L263 529 L256 484 Z M188 100 L-236 145 L196 145 L188 100 Z " />
<glyph glyph-name="OE" unicode="&#x152;" horiz-adv-x="1024" d="M441 -15 Q314 -15 260 34.5 Q206 84 206 187 Q206 236 220 316.5 Q234 397 257 455.5 Q280 514 319 557 Q394 640 556 640 Q626 640 674 625 L1030 625 L977 465 L792 465 L778 381 L949 381 L923 236 L752 236 L739 160 L953 160 L925 0 L564 0 Q512 -15 441 -15 Z M474 156 Q530 156 545 176 Q552 186 556 202 L603 469 L523 469 Q485 469 466 459.5 Q447 450 441 416 L395 156 L474 156 Z M354 625 Q324 607 301 584 L-148 625 L354 625 Z M186 292 L-238 337 L193 337 L190 317 Q188 308 186 292 Z M-215 433 L217 433 Q215 426 205 388 L-215 433 Z M177 196 L-247 241 L179 241 Q177 209 177 196 Z M187 100 L-237 145 L179 145 Q180 123 187 100 Z M259 529 Q241 496 237 485 L-165 529 L259 529 Z M247 3 L-177 48 L208 48 Q223 22 247 3 Z " />
<glyph glyph-name="oe" unicode="&#x153;" horiz-adv-x="925" d="M412 -12 Q306 -12 261 29.5 Q216 71 216 158 Q216 203 227 264 Q252 408 314 473.5 Q376 539 509 539 Q557 539 599 529 L917 529 L870 379 L707 379 L697 322 L847 322 L826 204 L677 204 L667 147 L852 147 L826 0 L514 0 Q469 -12 412 -12 Z M211 337 L202 295 L-189 337 L211 337 Z M192 241 Q188 210 187 199 L-207 241 L192 241 Z M186 145 Q186 129 190 103 L-203 145 L186 145 Z M246 433 Q234 407 229 393 L-149 433 L246 433 Z M207 48 Q219 24 233 11 L-116 48 L207 48 Z M333 529 Q309 515 292 496 L-15 529 L333 529 Z M441 140 Q471 140 485.5 147 Q500 154 504 178 L540 387 L481 387 Q453 387 438 380 Q423 373 419 350 L382 140 L441 140 Z " />
<glyph glyph-name="Scaron" unicode="&#x160;" horiz-adv-x="798" d="M258 388 L-166 433 L265 433 Q260 413 258 388 Z M292 529 L277 485 L-138 529 L292 529 Z M258 337 Q260 310 266 292 L-157 337 L258 337 Z M398 196 L-131 241 L300 241 Q333 209 398 196 Z M367 625 Q344 610 323 584 L-63 625 L367 625 Z M-148 145 L226 145 L211 101 L-148 145 Z M-165 48 L194 48 L179 4 L-165 48 Z M269 176 Q353 153 422.5 153 Q492 153 536 159 L544 209 L461 217 Q366 226 326.5 260 Q287 294 287 356 Q287 383 293 416 Q316 544 377 592 Q438 640 564.5 640 Q691 640 788 615 L736 455 Q649 470 596.5 470 Q544 470 506 465 L498 416 L565 409 Q667 398 710 360.5 Q753 323 753 260 Q753 196 726 128 Q711 93 694.5 69.5 Q678 46 652.5 29.5 Q627 13 606 4.5 Q585 -4 552 -8 Q506 -15 438 -15 Q314 -15 213 11 L269 176 Z M588 677 L543 677 Q535 677 530 686 L447 831 L513 880 L591 817 L690 880 L738 831 L606 686 Q598 677 588 677 Z M433 794 L32 833 L410 833 L433 794 Z M479 713 L71 752 L457 752 L479 713 Z " />
<glyph glyph-name="scaron" unicode="&#x161;" horiz-adv-x="718" d="M-238 48 L194 48 L180 3 L-238 48 Z M270 433 Q264 417 257 388 L-161 433 L270 433 Z M245 300 L245 292 L-179 337 L247 337 Q245 313 245 300 Z M212 101 L-205 145 L226 145 L212 101 Z M339 529 Q312 509 298 487 L-92 529 L339 529 Z M254 241 Q263 215 283 196 L-140 241 L254 241 Z M653 372 Q585 388 537 388 Q489 388 466 385 L461 356 L511 350 Q672 329 672 217 Q672 204 666 168.5 Q660 133 646 100 Q632 67 610.5 46.5 Q589 26 568.5 13.5 Q548 1 516 -4 Q466 -12 382.5 -12 Q299 -12 214 11 L263 159 Q341 137 399.5 137 Q458 137 482 140 L487 172 L424 179 Q343 188 309 217 Q275 246 275 300 Q275 320 280 350 Q300 457 352 498 Q404 539 510.5 539 Q617 539 701 518 L653 372 Z M536 567 L491 567 Q483 567 478 576 L395 721 L461 770 L539 707 L638 770 L686 721 L554 576 Q546 567 536 567 Z M381 684 L-20 723 L358 723 L381 684 Z M427 603 L19 642 L405 642 L427 603 Z " />
<glyph glyph-name="Ydieresis" unicode="&#x178;" horiz-adv-x="654" d="M233 3 L-190 48 L241 48 L233 3 Z M250 100 L-173 145 L257 145 L250 100 Z M257 196 L-167 241 L248 241 L257 196 Z M238 292 L-186 337 L229 337 L238 292 Z M191 529 L200 484 L-223 529 L191 529 Z M210 433 L219 388 L-204 433 L210 433 Z M182 580 L-241 625 L173 625 L182 580 Z M413 625 L426 405 L433 405 L525 625 L735 625 L483 170 L454 0 L264 0 L293 170 L203 625 L413 625 Z M518 740 Q518 799 538.5 823.5 Q559 848 601.5 848 Q644 848 658.5 837 Q673 826 673 800 Q673 741 652.5 716.5 Q632 692 589.5 692 Q547 692 532.5 703 Q518 714 518 740 Z M310 740 Q310 799 330.5 823.5 Q351 848 393.5 848 Q436 848 450.5 837 Q465 826 465 800 Q465 741 444 716.5 Q423 692 381 692 Q339 692 324.5 703 Q310 714 310 740 Z M297 833 Q288 816 283 787 L-19 833 L297 833 Z M280 740 Q280 722 283 708 L-19 754 L280 754 L280 740 Z " />
<glyph glyph-name="Zcaron" unicode="&#x17d;" horiz-adv-x="748" d="M119 3 L-563 48 L127 48 L119 3 Z M136 100 L-288 145 L144 145 L136 100 Z M243 484 L-181 529 L246 529 L243 484 Z M250 580 L-173 625 L253 625 L250 580 Z M-109 337 L323 337 L285 295 L-109 337 Z M-196 241 L236 241 L198 199 L-196 241 Z M-23 433 L409 433 L371 391 L-23 433 Z M662 0 L150 0 L172 125 L473 459 L471 465 L272 465 L283 625 L768 625 L746 500 L447 166 L448 160 L690 160 L662 0 Z M548 677 L503 677 Q495 677 490 686 L407 831 L473 880 L551 817 L650 880 L698 831 L566 686 Q558 677 548 677 Z M393 794 L-8 833 L370 833 L393 794 Z M439 713 L31 752 L417 752 L439 713 Z " />
<glyph glyph-name="zcaron" unicode="&#x17e;" horiz-adv-x="666" d="M120 3 L-304 48 L128 48 L120 3 Z M223 388 L-201 433 L226 433 L223 388 Z M230 484 L-194 529 L233 529 L230 484 Z M159 145 L141 124 L137 101 L-273 145 L159 145 Z M333 337 L296 295 L-99 337 L333 337 Z M-185 241 L247 241 L209 199 L-185 241 Z M586 0 L151 0 L170 111 L410 377 L408 383 L253 383 L263 529 L675 529 L655 418 L414 149 L416 143 L610 143 L586 0 Z M481 567 L436 567 Q428 567 423 576 L340 721 L406 770 L484 707 L583 770 L631 721 L499 576 Q492 567 481 567 Z M326 684 L-75 723 L303 723 L326 684 Z M372 603 L-36 642 L350 642 L372 603 Z " />
<glyph glyph-name="florin" unicode="&#x192;" horiz-adv-x="632" d="M-217 145 L215 145 L205 100 L-217 145 Z M173 292 L-250 337 L181 337 L173 292 Z M194 48 L188 21 Q185 8 165 5 L-238 48 L194 48 Z M305 529 L290 485 L-125 529 L305 529 Z M192 399 L-153 433 L279 433 L271 399 L192 399 Z M234 232 L226 196 L-196 241 L164 241 L163 232 L234 232 Z M372 625 Q350 606 334 583 L-58 625 L372 625 Z M228 -165 L91 -165 L113 -35 L165 -25 Q188 -21 200.5 -12.5 Q213 -4 217 15 L271 262 L199 262 L218 369 L295 369 L311 443 Q332 543 381.5 592 Q431 641 515.5 641 Q600 641 674 622 L621 477 L576 477 Q543 477 524 468 Q505 459 498 428 L485 369 L592 369 L564 262 L462 262 L405 0 Q368 -165 228 -165 Z " />
<glyph glyph-name="circumflex" unicode="&#x2c6;" horiz-adv-x="385" d="M190 770 L235 770 Q243 770 248 761 L331 616 L265 567 L187 630 L88 567 L40 616 L172 761 Q180 770 190 770 Z M61 684 L-262 723 L96 723 L61 684 Z M-13 603 L-343 642 L23 642 L-13 603 Z " />
<glyph glyph-name="caron" unicode="&#x2c7;" horiz-adv-x="385" d="M197 567 L152 567 Q144 567 139 576 L56 721 L122 770 L200 707 L299 770 L347 721 L215 576 Q208 567 197 567 Z M42 684 L-359 723 L19 723 L42 684 Z M88 603 L-320 642 L66 642 L88 603 Z " />
<glyph glyph-name="uni02C9" unicode="&#x2c9;" horiz-adv-x="833" d="" />
<glyph glyph-name="breve" unicode="&#x2d8;" horiz-adv-x="385" d="M57 603 L-341 642 L28 642 Q45 614 57 603 Z M9 723 Q11 709 17 685 L-369 723 L9 723 Z M159.5 693.5 Q174 679 195 679 Q216 679 236 693.5 Q256 708 267 734 L365 719 Q338 652 286 616 Q234 580 177.5 580 Q121 580 82 616 Q43 652 40 719 L144 734 Q145 708 159.5 693.5 Z " />
<glyph glyph-name="dotaccent" unicode="&#x2d9;" horiz-adv-x="265" d="M37 622 Q37 759 150 759 Q193 759 210.5 745.5 Q228 732 228 700 Q228 567 116 567 Q73 567 55 579.5 Q37 592 37 622 Z M13 684 L-338 723 L27 723 Q18 710 13 684 Z M8 642 Q7 637 7 624 Q7 611 8 603 L-358 642 L8 642 Z " />
<glyph glyph-name="ring" unicode="&#x2da;" horiz-adv-x="265" d="M126 626 Q153 626 160.5 633 Q168 640 170 652 L182 719 L145 719 Q116 719 108 712 Q100 705 98 694 L86 626 L126 626 Z M155 788 Q248 788 248 708 Q248 634 213 595.5 Q178 557 114 557 Q21 557 21 637 Q21 711 56 749.5 Q91 788 155 788 Z M-6 677 L-304 723 L4 723 Q-4 697 -6 677 Z M-9 637 Q-9 616 -4 598 L-302 644 L-9 644 L-9 637 Z " />
<glyph glyph-name="ogonek" unicode="&#x2db;" horiz-adv-x="500" d="M270 -26 Q268 -40 268 -46 Q268 -58 295 -58 L342 -58 L337 -146 Q288 -165 238 -165 Q188 -165 164.5 -145.5 Q141 -126 141 -93.5 Q141 -61 166 -30 Q191 1 235 21 L311 21 L326 0 L270 -26 Z M111 -89 L-71 -58 L117 -58 Q111 -78 111 -89 Z M135 -161 L-39 -130 L116 -130 Q123 -149 135 -161 Z " />
<glyph glyph-name="tilde" unicode="&#x2dc;" horiz-adv-x="458" d="M294 706 L380 746 L413 665 Q284 584 269.5 578.5 Q255 573 242.5 573 Q230 573 222 575 Q214 577 206 582.5 Q198 588 193 592 Q185 597 164 618 L79 578 L45 659 Q174 740 188.5 745.5 Q203 751 215.5 751 Q228 751 236 749 Q244 747 252 741.5 Q260 736 265 732 Q273 727 294 706 Z M91 723 L19 677 L-275 723 L91 723 Z M19 644 L38 598 L-275 644 L19 644 Z " />
<glyph glyph-name="hungarumlaut" unicode="&#x2dd;" horiz-adv-x="599" d="M245 685 Q252 677 252 668 Q252 659 243 650 L202 612 Q193 603 169 596 L48 560 L8 619 L148 759 Q157 770 163.5 770.5 Q170 771 182 759 L245 685 Z M508 685 Q515 677 515 668 Q515 659 506 650 L465 612 Q456 603 432 596 L311 560 L271 619 L411 759 Q420 770 426.5 770.5 Q433 771 445 759 L508 685 Z M26 684 L-331 723 L65 723 L26 684 Z M-55 603 L-442 642 L-16 642 L-55 603 Z " />
<glyph glyph-name="pi" unicode="&#x3c0;" horiz-adv-x="657" d="M351 8 Q334 17 322 33.5 Q310 50 310 64 Q310 78 312 94 L357 350 L351 350 Q305 348 293 312 L185 0 L41 0 L129 366 L80 378 L102 500 L503 500 Q509 515 515 536 L653 529 Q634 420 610 384 Q586 350 547 350 L511 143 Q540 137 556 136 L522 -11 Q390 -11 351 8 Z " />
<glyph glyph-name="endash" unicode="&#x2013;" horiz-adv-x="595" d="M535 196 L31 241 L543 241 L535 196 Z M552 292 L48 337 L560 337 L552 292 Z " />
<glyph glyph-name="emdash" unicode="&#x2014;" horiz-adv-x="854" d="M789 196 L45 241 L797 241 L789 196 Z M806 292 L62 337 L814 337 L806 292 Z " />
<glyph glyph-name="quoteleft" unicode="&#x2018;" horiz-adv-x="360" d="M111 427 Q105 404 105 388 L-218 433 L112 433 L111 427 Z M152 529 Q137 505 129 485 L-178 529 L152 529 Z M110 337 Q120 305 154 292 L-166 337 L110 337 Z M348 446 Q348 313 224 313 Q175 313 155 328 Q135 343 135 371.5 Q135 400 140 420 L143 432 Q155 478 191 534 L280 670 L360 641 L302 496 Q327 492 337.5 480 Q348 468 348 446 Z " />
<glyph glyph-name="quoteright" unicode="&#x2019;" horiz-adv-x="458" d="M193 491 L193 484 L-131 529 L198 529 Q193 519 193 491 Z M179 293 L-134 337 L196 337 L179 293 Z M230 422 L217 389 L-99 433 L213 433 Q218 427 230 422 Z M226 518 Q238 578 263 601.5 Q288 625 343 625 Q398 625 417.5 610 Q437 595 437 560 Q437 491 381 404 L293 268 L213 297 L269 441 Q223 449 223 491 Q223 503 226 518 Z " />
<glyph glyph-name="quotesinglbase" unicode="&#x201a;" horiz-adv-x="325" d="M93 99 Q105 159 130 182.5 Q155 206 210 206 Q265 206 284.5 191 Q304 176 304 141 Q304 72 248 -15 L160 -151 L80 -122 L136 22 Q90 30 90 72 Q90 84 93 99 Z M-154 48 L59 48 Q71 10 97 -1 L-154 48 Z M72 145 Q66 125 63 100 L-159 145 L72 145 Z " />
<glyph glyph-name="quotedblleft" unicode="&#x201c;" horiz-adv-x="597" d="M111 427 Q105 404 105 388 L-218 433 L112 433 L111 427 Z M152 529 Q137 505 129 485 L-178 529 L152 529 Z M110 337 Q120 305 154 292 L-166 337 L110 337 Z M348 446 Q348 313 224 313 Q175 313 155 328 Q135 343 135 371.5 Q135 400 140 420 L143 432 Q155 478 191 534 L280 670 L360 641 L302 496 Q327 492 337.5 480 Q348 468 348 446 Z M585 446 Q585 313 461 313 Q412 313 392 328 Q372 343 372 371.5 Q372 400 377 420 L380 432 Q392 478 428 534 L517 670 L597 641 L539 496 Q564 492 574.5 480 Q585 468 585 446 Z " />
<glyph glyph-name="quotedblright" unicode="&#x201d;" horiz-adv-x="696" d="M193 491 L193 484 L-131 529 L198 529 Q193 519 193 491 Z M179 293 L-134 337 L196 337 L179 293 Z M230 422 L217 389 L-99 433 L213 433 Q218 427 230 422 Z M464 518 Q476 578 501 601.5 Q526 625 581 625 Q636 625 655.5 610 Q675 595 675 560 Q675 491 619 404 L531 268 L451 297 L507 441 Q461 449 461 491 Q461 503 464 518 Z M226 518 Q238 578 263 601.5 Q288 625 343 625 Q398 625 417.5 610 Q437 595 437 560 Q437 491 381 404 L293 268 L213 297 L269 441 Q223 449 223 491 Q223 503 226 518 Z " />
<glyph glyph-name="quotedblbase" unicode="&#x201e;" horiz-adv-x="563" d="M331 99 Q343 159 368 182.5 Q393 206 448 206 Q503 206 522.5 191 Q542 176 542 141 Q542 72 486 -15 L398 -151 L318 -122 L374 22 Q328 30 328 72 Q328 84 331 99 Z M93 99 Q105 159 130 182.5 Q155 206 210 206 Q265 206 284.5 191 Q304 176 304 141 Q304 72 248 -15 L160 -151 L80 -122 L136 22 Q90 30 90 72 Q90 84 93 99 Z M-154 48 L59 48 Q71 10 97 -1 L-154 48 Z M72 145 Q66 125 63 100 L-159 145 L72 145 Z " />
<glyph glyph-name="dagger" unicode="&#x2020;" horiz-adv-x="727" d="M736 465 L598 465 L508 -50 L318 -50 L408 465 L271 465 L300 625 L436 625 L455 732 L645 732 L626 625 L765 625 L736 465 Z M347 292 L-77 337 L355 337 L347 292 Z M296 3 L-128 48 L304 48 L296 3 Z M313 100 L-111 145 L321 145 L313 100 Z M364 388 L-60 433 L372 433 L364 388 Z M330 196 L-94 241 L338 241 L330 196 Z M260 580 L-163 625 L268 625 L260 580 Z M244 484 L-180 529 L251 529 L244 484 Z " />
<glyph glyph-name="daggerdbl" unicode="&#x2021;" horiz-adv-x="813" d="M494 465 L357 465 L386 625 L522 625 L541 732 L731 732 L712 625 L851 625 L822 465 L684 465 L641 217 L778 217 L749 57 L613 57 L594 -50 L404 -50 L423 57 L284 57 L313 217 L451 217 L494 465 Z M244 3 L-180 48 L252 48 L244 3 Z M278 196 L-146 241 L286 241 L278 196 Z M434 292 L10 337 L442 337 L434 292 Z M450 388 L26 433 L458 433 L450 388 Z M330 484 L-94 529 L337 529 L330 484 Z M261 100 L-163 145 L269 145 L261 100 Z M346 580 L-77 625 L354 625 L346 580 Z " />
<glyph glyph-name="bullet" unicode="&#x2022;" horiz-adv-x="526" d="M174 196 L-250 241 L176 241 Q174 211 174 196 Z M204 337 Q193 314 186 293 L-227 337 L204 337 Z M218 100 L-206 145 L181 145 Q191 117 218 100 Z M204 195 Q204 388 370 388 Q433 388 458.5 368.5 Q484 349 484 305 Q484 214 448 163 Q412 112 321 112 Q256 112 230 131 Q204 150 204 195 Z " />
<glyph glyph-name="ellipsis" unicode="&#x2026;" horiz-adv-x="975" d="M72 145 Q66 125 63 100 L-159 145 L72 145 Z M70 3 L-154 48 L59 48 Q61 19 70 3 Z M93 99 Q103 158 128.5 182 Q154 206 209.5 206 Q265 206 284.5 191 Q304 176 304 148 Q304 120 300 99 Q290 40 264.5 17 Q239 -6 183.5 -6 Q128 -6 108.5 8.5 Q89 23 89 50.5 Q89 78 93 99 Z M397 145 Q391 125 388 100 L166 145 L397 145 Z M395 3 L171 48 L384 48 Q386 19 395 3 Z M418 99 Q428 158 453.5 182 Q479 206 534.5 206 Q590 206 609.5 191 Q629 176 629 148 Q629 120 625 99 Q615 40 589.5 17 Q564 -6 508.5 -6 Q453 -6 433.5 8.5 Q414 23 414 50.5 Q414 78 418 99 Z M722 145 Q716 125 713 100 L491 145 L722 145 Z M720 3 L496 48 L709 48 Q711 19 720 3 Z M743 99 Q753 158 778.5 182 Q804 206 859.5 206 Q915 206 934.5 191 Q954 176 954 148 Q954 120 950 99 Q940 40 914.5 17 Q889 -6 833.5 -6 Q778 -6 758.5 8.5 Q739 23 739 50.5 Q739 78 743 99 Z " />
<glyph glyph-name="perthousand" unicode="&#x2030;" horiz-adv-x="1137" d="M358 -40 L307 -40 L576 640 Q586 665 619 665 L670 665 L401 -15 Q391 -40 358 -40 Z M704 92 Q751 92 755 116 L787 297 L767 297 Q722 297 718 274 L686 92 L704 92 Z M127 573 Q149 601 184 613 Q219 625 283 625 Q347 625 377.5 597.5 Q408 570 408 512 Q408 479 398 422.5 Q388 366 376 332 Q364 298 342 270 Q303 218 199 218 Q123 218 92 245.5 Q61 273 61 332 Q61 364 71 420 Q81 476 93 510.5 Q105 545 127 573 Z M202 319 Q249 319 253 343 L285 524 L265 524 Q220 524 216 501 L184 319 L202 319 Z M890 92 Q937 92 941 116 L973 297 L953 297 Q908 297 904 274 L872 92 L890 92 Z M629 346 Q651 374 686 386 Q721 398 776 398 Q831 398 863 381 Q902 398 968.5 398 Q1035 398 1065.5 370.5 Q1096 343 1096 285 Q1096 252 1086 195.5 Q1076 139 1064 105 Q1052 71 1030 43 Q991 -9 887 -9 Q827 -9 796 7 Q760 -9 692.5 -9 Q625 -9 594 18.5 Q563 46 563 105 Q563 137 573 193 Q583 249 595 283.5 Q607 318 629 346 Z " />
<glyph glyph-name="guilsinglleft" unicode="&#x2039;" horiz-adv-x="530" d="M124 228 L-200 273 L132 273 L124 228 Z M155 328 L-126 369 L205 369 L155 328 Z M273 424 L-8 465 L323 465 L273 424 Z M-154 177 L130 177 L169 132 L-154 177 Z M-69 80 L214 80 L254 35 L-69 80 Z M167 300 L382 475 L450 424 L325 250 L389 76 L303 25 L150 200 L167 300 Z " />
<glyph glyph-name="guilsinglright" unicode="&#x203a;" horiz-adv-x="521" d="M326 475 L479 300 L462 200 L247 25 L179 76 L305 250 L240 424 L326 475 Z M252 228 L-150 273 L265 273 L272 255 L252 228 Z M245 328 L-76 369 L229 369 L245 328 Z M208 424 L42 465 L249 465 L203 438 L208 424 Z M-104 177 L215 177 L182 132 L-104 177 Z M-19 80 L145 80 L138 70 L184 35 L-19 80 Z " />
<glyph glyph-name="fraction" unicode="&#x2044;" horiz-adv-x="503" d="M121 -40 L70 -40 L339 640 Q349 665 382 665 L433 665 L164 -15 Q154 -40 121 -40 Z " />
<glyph glyph-name="Euro" unicode="&#x20ac;" horiz-adv-x="792" d="M255 388 L-164 433 L267 433 L255 388 Z M229 292 L-190 337 L241 337 L229 292 Z M204 196 L-216 241 L216 241 L204 196 Z M252 145 Q253 127 257 100 L-166 145 L252 145 Z M349 529 Q337 508 327 485 L-81 529 L349 529 Z M274 48 Q288 21 310 3 L-113 48 L274 48 Z M443 625 Q416 609 392 584 L13 625 L443 625 Z M550 145 Q627 145 694 169 L674 11 Q610 -15 498 -15 Q386 -15 334 26 Q282 67 282 165 Q282 176 284 206 L237 206 L258 288 L661 288 L640 206 L488 206 L476 153 Q512 145 550 145 Z M655 640 Q723 640 793 621 L740 475 L612 475 Q593 475 581 472.5 Q569 470 557 458 Q543 445 539 420 L698 420 L676 338 L274 338 L295 420 L335 420 Q373 539 446 589.5 Q519 640 655 640 Z " />
<glyph glyph-name="trademark" unicode="&#x2122;" horiz-adv-x="908" d="M668 732 L668 584 L675 584 L731 732 L898 732 L852 343 L721 343 L740 491 L734 491 L675 343 L584 343 L576 491 L571 491 L538 343 L407 343 L500 732 L668 732 Z M458 617 L376 617 L328 343 L195 343 L243 617 L162 617 L183 732 L479 732 L458 617 Z M172 388 L-200 433 L180 433 L172 388 Z M188 484 L-183 529 L196 529 L188 484 Z M126 587 L-166 625 L133 625 L126 587 Z " />
<glyph glyph-name="Omega" unicode="&#x2126;" horiz-adv-x="703" d="M50 313 Q50 471 141.5 555.5 Q233 640 409 640 Q556 640 617 589 Q678 538 678 447 Q678 227 495 164 L499 152 L641 143 L616 0 L356 0 L386 250 Q410 250 423 252 Q436 254 448 264 Q460 274 463 293 L496 480 L334 480 Q297 480 278.5 471 Q260 462 255 430 L232 300 Q231 295 231 286 Q231 263 246 256.5 Q261 250 294 250 L236 0 L-24 0 L1 143 L145 152 L153 166 Q50 207 50 313 Z " />
<glyph glyph-name="partialdiff" unicode="&#x2202;" horiz-adv-x="590" d="M333 455 L367 454 L370 481 L211 522 L211 625 L364 625 Q448 589 500.5 506 Q553 423 553 319 Q553 176 486 84 Q452 38 393.5 11.5 Q335 -15 258 -15 Q144 -15 91 33.5 Q38 82 38 179 Q38 455 333 455 Z M261 131 Q283 131 295.5 133 Q308 135 319.5 145 Q331 155 333 173 L353 321 L323 321 Q289 321 272 313.5 Q255 306 252 279 L232 131 L261 131 Z " />
<glyph glyph-name="increment" unicode="&#x2206;" horiz-adv-x="703" d="M312 625 L505 625 L613 52 L586 0 L12 0 L2 52 L312 625 Z M388 178 L354 445 L344 445 L199 150 L356 150 Q388 150 388 178 Z " />
<glyph glyph-name="product" unicode="&#x220f;" horiz-adv-x="800" d="M438 475 Q410 475 394.5 464.5 Q379 454 372 425 L224 -150 L56 -150 L184 484 L104 503 L126 625 L645 625 Q651 640 657 661 L795 654 Q776 545 752 510 Q728 475 689 475 L579 -150 L389 -150 L499 475 L438 475 Z " />
<glyph glyph-name="summation" unicode="&#x2211;" horiz-adv-x="654" d="M372 442 Q372 434 375 425 L434 247 L235 14 L240 0 L529 0 L481 -150 L-7 -150 L-16 -98 L239 211 L130 573 L157 625 L639 625 L600 500 L420 475 Q372 468 372 442 Z " />
<glyph glyph-name="minus" unicode="&#x2212;" horiz-adv-x="600" d="M71 240 L96 384 L529 384 L504 240 L71 240 Z " />
<glyph glyph-name="radical" unicode="&#x221a;" horiz-adv-x="544" d="M544 552 L315 0 L113 0 L47 500 L244 500 L273 180 L283 180 L462 650 L650 650 L620 552 L544 552 Z " />
<glyph glyph-name="infinity" unicode="&#x221e;" horiz-adv-x="905" d="M539 -15 Q495 -15 466 -4.5 Q437 6 427 17 L449 79 L437 84 Q391 30 349 7.5 Q307 -15 253 -15 Q149 -15 100 29.5 Q51 74 51 164 Q51 304 116 404 Q149 455 206.5 485 Q264 515 325 515 Q386 515 416 504.5 Q446 494 456 483 L433 421 L446 416 Q494 470 538 492.5 Q582 515 638 515 Q739 515 786 470.5 Q833 426 833 346.5 Q833 267 816.5 206.5 Q800 146 766.5 95 Q733 44 674.5 14.5 Q616 -15 539 -15 Z M558 151 Q592 151 609.5 158.5 Q627 166 632 193 L659 349 Q626 349 604.5 340.5 Q583 332 570 307 L489 151 L558 151 Z M326 349 Q292 349 275.5 341.5 Q259 334 254 307 L226 151 Q260 151 281.5 159 Q303 167 316 193 L396 349 L326 349 Z " />
<glyph glyph-name="integral" unicode="&#x222b;" horiz-adv-x="373" d="M297 429 L189 -41 Q181 -78 148.5 -103 Q116 -128 70 -139 Q-8 -158 -90 -158 L-76 -41 Q-6 -26 13.5 -9.5 Q33 7 42 45 L149 515 Q157 552 188.5 577 Q220 602 265 613 Q343 632 426 632 L411 515 Q343 500 324 483.5 Q305 467 297 429 Z " />
<glyph glyph-name="approxequal" unicode="&#x2248;" horiz-adv-x="600" d="M75 265 Q110 227 156 227 Q202 227 292 264.5 Q382 302 427 302 Q472 302 508 265 L483 121 Q447 158 401.5 158 Q356 158 266 120.5 Q176 83 130.5 83 Q85 83 50 121 L75 265 Z M117 503 Q152 465 198 465 Q244 465 334 502.5 Q424 540 469 540 Q514 540 550 503 L525 359 Q489 396 443.5 396 Q398 396 308 358.5 Q218 321 172.5 321 Q127 321 92 359 L117 503 Z " />
<glyph glyph-name="notequal" unicode="&#x2260;" horiz-adv-x="600" d="M121 -40 L50 -40 L142 121 L50 121 L75 265 L224 265 L278 359 L92 359 L117 503 L360 503 L439 640 Q444 650 448 654 Q459 665 482 665 L553 665 L460 503 L550 503 L525 359 L378 359 L324 265 L508 265 L483 121 L242 121 L164 -15 Q159 -25 155 -29 Q144 -40 121 -40 Z " />
<glyph glyph-name="lessequal" unicode="&#x2264;" horiz-adv-x="600" d="M31 0 L56 144 L489 144 L464 0 L31 0 Z M496 647 L536 513 L249 405 L248 398 L487 291 L399 157 L95 311 L127 493 L496 647 Z " />
<glyph glyph-name="greaterequal" unicode="&#x2265;" horiz-adv-x="600" d="M31 0 L56 144 L489 144 L464 0 L31 0 Z M139 157 L99 291 L386 399 L387 406 L148 513 L236 647 L540 493 L508 311 L139 157 Z " />
<glyph glyph-name="lozenge" unicode="&#x25ca;" horiz-adv-x="700" d="M366 -150 L174 -150 L53 237 L311 625 L503 625 L622 237 L366 -150 Z M235 238 L297 40 L311 40 L439 236 L379 431 L365 431 L235 238 Z " />
<glyph glyph-name="apple" unicode="&#xf8ff;" horiz-adv-x="923" d="M589 -89 L566 -88 Q552 -88 534.5 -100 Q517 -112 508 -112 L462 -102 Q454 -102 438.5 -108 Q423 -114 414.5 -114 Q406 -114 390 -101.5 Q374 -89 361 -89 L337 -91 Q322 -91 304 -74 L286 -55 Q274 -49 261 -48 Q248 -47 239 -41.5 Q230 -36 223 -18.5 Q216 -1 210.5 3.5 Q205 8 191 13.5 Q177 19 171 28 Q166 37 164 51.5 Q162 66 158 72.5 Q154 79 144 86 Q122 104 122 124 L125 149 Q125 158 112.5 175.5 Q100 193 100 202 Q100 211 106 225.5 Q112 240 112 248.5 Q112 257 106 270 Q100 283 100 292 Q100 301 112.5 321.5 Q125 342 125 351 L124 376 Q124 391 140.5 405.5 Q157 420 159.5 425 Q162 430 164 446 Q166 462 170 468 Q174 474 189.5 480 Q205 486 210 491 Q215 496 222 511.5 Q229 527 235.5 532.5 Q242 538 261 542 Q280 546 285.5 549 Q291 552 306 569 Q321 586 335 587 L361 585 Q374 585 389.5 596.5 Q405 608 416 608 L460 596 L505 608 Q518 608 534 595.5 Q550 583 562 583 L590 586 Q606 586 619 569.5 Q632 553 638.5 549.5 Q645 546 660 543 Q675 540 682.5 535 Q690 530 695 516 Q700 502 705.5 497 Q711 492 731 481.5 Q751 471 755.5 463 Q760 455 760.5 439 Q761 423 763.5 418.5 Q766 414 783 399.5 Q800 385 800 369 L799 344 Q799 331 811 312.5 Q823 294 823 285 Q823 276 817.5 263 Q812 250 812 243 Q812 236 817.5 221.5 Q823 207 822.5 199 Q822 191 810 178.5 Q798 166 798 152 L800 120 Q800 104 784 91 Q768 78 765.5 73 Q763 68 758.5 49 Q754 30 748.5 23.5 Q743 17 730.5 11.5 Q718 6 713 1 Q708 -4 699 -20.5 Q690 -37 683 -42 Q676 -47 658.5 -51.5 Q641 -56 636 -59 Q631 -62 617.5 -75.5 Q604 -89 589 -89 Z M462 -6 L495 -13 Q501 -13 512 -6 Q527 4 539 4 L554 3 Q566 3 575 13 Q584 23 587.5 25 Q591 27 604 30.5 Q617 34 622.5 38 Q628 42 634.5 53.5 Q641 65 644.5 68.5 Q648 72 657 76 Q666 80 670 84.5 Q674 89 677 103 Q680 117 682.5 121 Q685 125 696 134 Q707 143 707 157 L706 177 Q706 188 714.5 197.5 Q723 207 724 213 L716 245 L724 273 Q724 281 715 295 Q706 309 706 318 L707 335 Q707 347 695 357 Q683 367 681 371 Q679 375 678.5 386.5 Q678 398 675 403.5 Q672 409 657.5 416.5 Q643 424 639 428 Q635 432 631 442 Q627 452 622 456 Q617 460 606 462 Q595 464 590 466.5 Q585 469 576 481 Q567 493 555 493 L535 491 Q526 491 515 500 Q504 509 494 509 L461 500 L429 509 Q421 509 409 500.5 Q397 492 387 492 L370 493 Q359 493 348.5 480.5 Q338 468 333.5 465.5 Q329 463 316 460.5 Q303 458 298 454 Q293 450 288 439 Q283 428 279 424 Q275 420 264.5 416 Q254 412 250 407 Q248 403 246 391.5 Q244 380 242 376 Q240 372 228 361.5 Q216 351 216 340 L217 324 Q217 316 208.5 301 Q200 286 200 278 L208 248 L200 215 Q200 207 208.5 194.5 Q217 182 217 174 L215 158 Q215 147 227.5 135.5 Q240 124 242 120 Q244 116 245.5 105.5 Q247 95 251 88.5 Q255 82 265 78 Q275 74 279 70.5 Q283 67 288.5 54 Q294 41 300 37 Q306 33 315.5 33 Q325 33 331 30 Q337 27 348.5 14.5 Q360 2 371 2 L386 3 Q396 3 408 -5.5 Q420 -14 426 -15 L462 -6 Z M342 367.5 Q392 417 462 417 Q532 417 582 367.5 Q632 318 632 247 Q632 176 582 126.5 Q532 77 462 77 Q392 77 342 126.5 Q292 176 292 247 Q292 318 342 367.5 Z M505 292 L557 292 L557 360 L366 360 L366 292 L420 292 L420 117 L505 117 L505 292 Z " />
<glyph glyph-name="fi" unicode="&#xfb01;" horiz-adv-x="1080" d="M538 192 L406 192 L372 0 L204 0 L296 529 L629 529 L583 379 L438 379 L426 311 L558 311 L538 192 Z M172 3 L-252 48 L180 48 L172 3 Z M206 196 L-218 241 L214 241 L206 196 Z M223 292 L-201 337 L231 337 L223 292 Z M240 388 L-184 433 L248 433 L240 388 Z M257 484 L-167 529 L264 529 L257 484 Z M189 100 L-235 145 L197 145 L189 100 Z M795 0 L887 529 L1063 529 L970 0 L795 0 Z M762 3 L338 48 L770 48 L762 3 Z M796 196 L372 241 L804 241 L796 196 Z M813 292 L389 337 L821 337 L813 292 Z M830 388 L406 433 L838 433 L830 388 Z M847 484 L423 529 L854 529 L847 484 Z M779 100 L355 145 L787 145 L779 100 Z " />
<glyph glyph-name="fl" unicode="&#xfb02;" horiz-adv-x="1158" d="M538 192 L406 192 L372 0 L204 0 L296 529 L629 529 L583 379 L438 379 L426 311 L558 311 L538 192 Z M172 3 L-252 48 L180 48 L172 3 Z M206 196 L-218 241 L214 241 L206 196 Z M223 292 L-201 337 L231 337 L223 292 Z M240 388 L-184 433 L248 433 L240 388 Z M257 484 L-167 529 L264 529 L257 484 Z M189 100 L-235 145 L197 145 L189 100 Z M1120 0 L795 0 L887 529 L1063 529 L996 147 L1146 147 L1120 0 Z M762 3 L338 48 L770 48 L762 3 Z M796 196 L372 241 L804 241 L796 196 Z M813 292 L389 337 L821 337 L813 292 Z M830 388 L406 433 L838 433 L830 388 Z M847 484 L423 529 L854 529 L847 484 Z M779 100 L355 145 L787 145 L779 100 Z " />
</font>
</svg>
